<svg width="12" height="11" viewBox="0 0 12 11" fill="none" xmlns="http://www.w3.org/2000/svg">
<path d="M11.3913 5.93297C11.3913 5.27868 10.859 4.74638 10.2047 4.74638H9.73007V4.03442C9.73007 1.80979 7.92028 0 5.69565 0C3.47103 0 1.66123 1.80979 1.66123 4.03442V4.74638H1.18659C0.532306 4.74638 0 5.27868 0 5.93297V7.35688C0 8.01117 0.532306 8.54348 1.18659 8.54348H2.61051V4.74638H2.13587V4.03442C2.13587 2.07156 3.73279 0.474638 5.69565 0.474638C7.65852 0.474638 9.25543 2.07156 9.25543 4.03442V4.74638H8.7808V8.54348H9.25543V9.73007C9.25543 10.1226 8.936 10.442 8.54348 10.442H6.17029V10.9167H8.54348C9.19777 10.9167 9.73007 10.3844 9.73007 9.73007V8.54348H10.2047C10.859 8.54348 11.3913 8.01117 11.3913 7.35688V5.93297ZM2.13587 8.06884H1.18659C0.794069 8.06884 0.474638 7.74941 0.474638 7.35688V5.93297C0.474638 5.54045 0.794069 5.22101 1.18659 5.22101H2.13587V8.06884ZM10.9167 7.35688C10.9167 7.74941 10.5972 8.06884 10.2047 8.06884H9.25543V5.22101H10.2047C10.5972 5.22101 10.9167 5.54045 10.9167 5.93297V7.35688Z" fill="#1C1C1C"/>
</svg>
