<svg width="49" height="40" viewBox="0 0 49 40" fill="none" xmlns="http://www.w3.org/2000/svg">
    <path
        d="M24.5005 33.0187C24.1466 33.0187 23.8599 32.7846 23.8599 32.4957V9.53371C23.8599 9.2448 24.1467 9.01074 24.5005 9.01074C24.8544 9.01074 25.1411 9.24488 25.1411 9.53371V32.4957C25.141 32.7846 24.8542 33.0187 24.5005 33.0187Z"
        fill="#BBBBBD" />
    <path
        d="M21.1121 33.0191C20.8931 33.0191 20.6796 32.9272 20.56 32.7621L7.09795 14.1661C6.91802 13.9174 7.01899 13.5967 7.32361 13.4498C7.62824 13.3028 8.0211 13.3853 8.20102 13.634L21.6631 32.23C21.843 32.4787 21.7421 32.7994 21.4374 32.9462C21.3352 32.9957 21.223 33.0191 21.1121 33.0191Z"
        fill="#BBBBBD" />
    <path
        d="M27.8902 33.019C27.7794 33.019 27.6671 32.9955 27.5649 32.9462C27.2602 32.7994 27.1593 32.4786 27.3391 32.23L40.7991 13.634C40.979 13.3852 41.3719 13.3029 41.6765 13.4497C41.9811 13.5965 42.0821 13.9173 41.9022 14.1659L28.4423 32.762C28.3227 32.9272 28.1091 33.019 27.8902 33.019Z"
        fill="#BBBBBD" />
    <path d="M30.2906 31.7832H18.7124V39.9996H30.2906V31.7832Z" fill="#8CC1EA" />
    <path
        d="M10.4197 13.7134C8.71679 13.7134 7.01385 14.2506 5.72673 15.326H5.72559C5.72559 6.86141 14.1308 0 24.5 0C34.8691 0 43.2732 6.86047 43.2743 15.3251C40.699 13.1752 36.4626 13.1752 33.8883 15.326C32.6012 14.2506 30.8971 13.7134 29.1942 13.7134C27.4912 13.7134 25.7883 14.2506 24.5012 15.326C23.2129 14.2506 21.51 13.7134 19.8071 13.7134C18.1041 13.7134 16.4012 14.2506 15.1141 15.326C13.8269 14.2506 12.1227 13.7134 10.4197 13.7134Z"
        fill="#3F88C9" />
    <path
        d="M24.3356 0.000976562C17.7474 0.10082 12.3567 6.12738 11.7288 13.8208C11.2978 13.7486 10.8586 13.7134 10.4207 13.7134C8.71776 13.7134 7.01482 14.2507 5.72771 15.3261H5.72656C5.72656 6.90613 14.0421 0.0732422 24.3356 0.000976562Z"
        fill="#696F8C" />
    <path
        d="M30.2901 32.4136L25.3885 35.8909L30.2901 39.3692V39.9996H29.4025L24.501 36.5213L19.5983 39.9996H18.7119V39.3682L23.6134 35.8909L18.7119 32.4136V31.7832H19.5983L24.501 35.2615L29.4025 31.7832H30.2901V32.4136Z"
        fill="#79B1D6" />
</svg>