<svg width="9" height="8" viewBox="0 0 9 8" fill="none" xmlns="http://www.w3.org/2000/svg">
<path d="M5.54347 7.37678C5.58797 7.37678 5.63249 7.3598 5.66643 7.32585L8.94903 4.04324C8.94912 4.04315 8.94923 4.04305 8.94932 4.04296L8.94938 4.04289C8.98014 4.01196 8.9969 3.97233 8.9996 3.93194C9.00036 3.9207 9.00005 3.90933 8.99858 3.89805C8.99438 3.86515 8.98077 3.83324 8.95775 3.80663C8.95466 3.80307 8.95147 3.79963 8.94814 3.79635L5.66643 0.51468C5.59851 0.446767 5.48841 0.446767 5.42049 0.51468C5.35258 0.582593 5.35258 0.692701 5.42049 0.760614L8.40623 3.74635H0.173913C0.0778695 3.74635 0 3.82422 0 3.92026C0 4.01631 0.0778695 4.09418 0.173913 4.09418H8.40623L5.42049 7.07989C5.38654 7.11384 5.36956 7.15835 5.36956 7.20287C5.36956 7.24739 5.38654 7.29189 5.42049 7.32585C5.45445 7.3598 5.49895 7.37678 5.54347 7.37678Z" fill="#1C1C1C"/>
</svg>
