<svg width="22" height="23" viewBox="0 0 22 23" fill="none" xmlns="http://www.w3.org/2000/svg">
<circle cx="11" cy="11.5665" r="8.5" stroke="#18B779" stroke-opacity="0.32" stroke-width="3"/>
<path fill-rule="evenodd" clip-rule="evenodd" d="M10.2544 15.133V15.8523C10.2544 16.2465 10.5903 16.5665 11.0041 16.5665C11.4172 16.5665 11.7538 16.2465 11.7538 15.8523V15.138C12.9939 15.1365 14 14.1773 14 12.9951C14 12.4487 13.7848 11.9501 13.431 11.5715C13.7848 11.1923 14 10.6937 14 10.1473C14 8.96512 12.9939 8.00583 11.7538 8.0044V7.28083C11.7538 6.88654 11.4172 6.56654 11.0041 6.56654C10.5903 6.56654 10.2544 6.88654 10.2544 7.28083V7.9994L8.75272 7.99369C8.55329 7.99297 8.36211 8.06797 8.22042 8.20226C8.07947 8.33654 8 8.51797 8 8.70797V14.413C8 14.8065 8.33363 15.1258 8.74672 15.1273L10.2544 15.133ZM9.49944 12.2823V13.7015L11.7516 13.7094C12.1647 13.7094 12.5006 13.3894 12.5006 12.9951C12.5006 12.6351 12.2202 12.3365 11.8558 12.288C11.8213 12.2894 9.49944 12.2823 9.49944 12.2823ZM11.8566 10.8623C12.2209 10.813 12.5006 10.5073 12.5006 10.1473C12.5006 9.75297 12.1647 9.43297 11.7508 9.43297L9.49944 9.42512V10.8537C9.49944 10.8537 11.8221 10.8601 11.8566 10.8623Z" fill="#18B779"/>
<path fill-rule="evenodd" clip-rule="evenodd" d="M11 0.566544C4.92947 0.566544 0 5.49528 0 11.5665C0 17.6378 4.92947 22.5665 11 22.5665C17.0713 22.5665 22 17.6378 22 11.5665C22 5.49528 17.0713 0.566544 11 0.566544ZM5.83807 17.7661L4.79967 18.806C6.29347 20.0864 8.18767 20.9136 10.2674 21.072L10.2659 19.6017C8.59027 19.4499 7.06127 18.7855 5.83807 17.7661ZM16.1627 17.7683C14.9395 18.7869 13.4097 19.4506 11.7326 19.6017L11.7341 21.072C13.8138 20.9136 15.708 20.0864 17.2018 18.8053L16.1627 17.7683ZM11.0015 4.96801C12.8634 4.96801 14.5464 5.73948 15.7469 6.97954C16.8975 8.16754 17.6059 9.78528 17.6059 11.568C17.6059 15.2105 14.6469 18.168 11.0015 18.168C7.3568 18.168 4.39707 15.2105 4.39707 11.568C4.39707 7.92481 7.3568 4.96801 11.0015 4.96801ZM2.9634 12.3006L1.49527 12.3021C1.65367 14.3818 2.4816 16.276 3.76273 17.7691L4.8004 16.7292C3.7796 15.506 3.11447 13.977 2.9634 12.3006ZM20.5055 12.3006L19.0395 12.3021C18.8877 13.9792 18.2219 15.5089 17.2003 16.7321L18.2387 17.7683C19.5199 16.2745 20.3471 14.3803 20.5055 12.3006ZM18.2387 5.36548L17.2011 6.40461C18.2226 7.62781 18.8885 9.15754 19.0395 10.8354L20.5055 10.8339C20.3471 8.75348 19.5199 6.85928 18.2387 5.36548ZM3.76053 5.36621C2.48013 6.86001 1.65293 8.75494 1.49453 10.8354L2.9634 10.8339C3.1152 9.15754 3.78033 7.62854 4.80187 6.40534L3.76053 5.36621ZM10.2667 2.06108C8.1862 2.21948 6.29127 3.04741 4.79747 4.32928L5.8388 5.36841C7.06273 4.34981 8.59173 3.68541 10.2674 3.53434L10.2667 2.06108ZM11.7333 2.06108L11.7341 3.53434C13.4105 3.68468 14.9395 4.34908 16.1634 5.36841L17.2018 4.32854C15.708 3.04668 13.8131 2.21948 11.7333 2.06108Z" fill="#1B1B1B"/>
</svg>
