<svg width="21" height="20" viewBox="0 0 21 20" fill="none" xmlns="http://www.w3.org/2000/svg">
<rect x="4.16162" y="6.7453" width="12.8596" height="11.1079" rx="1" stroke="#18B779" stroke-opacity="0.32" stroke-width="2"/>
<path d="M6.83739 7.17703C5.53779 7.17703 4.48315 8.23167 4.48315 9.53127V14.7837C4.48315 16.0833 5.53779 17.1379 6.83739 17.1379H14.2447C15.5443 17.1379 16.599 16.0833 16.599 14.7837V9.53127C16.599 8.23167 15.5443 7.17703 14.2447 7.17703H6.83739ZM15.7686 9.53127V14.7837C15.7686 15.6266 15.0835 16.3075 14.2447 16.3075H6.83739C5.99452 16.3075 5.31357 15.6224 5.31357 14.7837V9.53127C5.31357 8.6884 5.99867 8.00745 6.83739 8.00745H14.2447C15.0876 8.00745 15.7686 8.69255 15.7686 9.53127Z" fill="black"/>
<path d="M18.6585 9.51467V7.94102C18.6585 7.71266 18.4716 7.52581 18.2433 7.52581C18.0149 7.52581 17.8281 7.71266 17.8281 7.94102V16.3781C17.8281 17.5116 16.9063 18.4334 15.7728 18.4334H5.30949C4.17597 18.4334 3.2542 17.5116 3.2542 16.3781V7.94102C3.2542 6.8075 4.17597 5.88573 5.30949 5.88573H15.7728C16.4164 5.88573 17.0101 6.18053 17.4046 6.69124C17.5457 6.87393 17.8032 6.90715 17.9858 6.76598C18.1685 6.62481 18.2018 6.36738 18.0606 6.18468C17.5084 5.46637 16.6738 5.05531 15.7728 5.05531H10.9563V3.91764C11.7785 3.72664 12.393 2.99587 12.393 2.11563C12.393 1.09421 11.5625 0.263794 10.5411 0.263794C9.51972 0.263794 8.6893 1.09421 8.6893 2.11563C8.6893 2.99172 9.30381 3.72664 10.1259 3.91764V5.05531H5.30949C3.71924 5.05531 2.42378 6.35077 2.42378 7.94102V9.51467C1.14494 9.71397 0.160889 10.8226 0.160889 12.1596C0.160889 13.4965 1.14494 14.601 2.42378 14.8044V16.3781C2.42378 17.9683 3.71924 19.2638 5.30949 19.2638H15.7728C17.363 19.2638 18.6585 17.9683 18.6585 16.3781V14.8044C19.9373 14.6051 20.9214 13.4965 20.9214 12.1596C20.9214 10.8226 19.9373 9.71397 18.6585 9.51467ZM9.51972 2.11978C9.51972 1.5551 9.97645 1.09837 10.5411 1.09837C11.1058 1.09837 11.5625 1.5551 11.5625 2.11978C11.5625 2.68447 11.1058 3.1412 10.5411 3.1412C9.97645 3.1412 9.51972 2.68032 9.51972 2.11978ZM0.991308 12.1596C0.991308 11.2835 1.60582 10.5527 2.42378 10.3617V13.9574C1.60582 13.7664 0.991308 13.0356 0.991308 12.1596ZM18.6585 13.9574V10.3617C19.4764 10.5527 20.091 11.2835 20.091 12.1596C20.091 13.0356 19.4764 13.7664 18.6585 13.9574Z" fill="black"/>
<path d="M9.22902 10.3119C9.22902 9.64338 8.6851 9.09946 8.01661 9.09946C7.34812 9.09946 6.8042 9.64338 6.8042 10.3119C6.8042 10.9804 7.34812 11.5243 8.01661 11.5243C8.6851 11.5201 9.22902 10.9762 9.22902 10.3119ZM7.63877 10.3119C7.63877 10.1001 7.80901 9.92988 8.02076 9.92988C8.23252 9.92988 8.40276 10.1001 8.40276 10.3119C8.40276 10.5195 8.23252 10.6939 8.02076 10.6939C7.80901 10.6897 7.63877 10.5195 7.63877 10.3119Z" fill="#18B779"/>
<path d="M13.0657 9.09946C12.3972 9.09946 11.8533 9.64338 11.8533 10.3119C11.8533 10.9804 12.3972 11.5243 13.0657 11.5243C13.7342 11.5243 14.2781 10.9804 14.2781 10.3119C14.2739 9.64338 13.7342 9.09946 13.0657 9.09946ZM13.0657 10.6897C12.8581 10.6897 12.6837 10.5195 12.6837 10.3077C12.6837 10.096 12.8539 9.92572 13.0657 9.92572C13.2774 9.92572 13.4477 10.096 13.4477 10.3077C13.4435 10.5195 13.2733 10.6897 13.0657 10.6897Z" fill="#18B779"/>
<path d="M12.667 13.6585H8.41521C8.18684 13.6585 8 13.8453 8 14.0737C8 14.3021 8.18684 14.4889 8.41521 14.4889H12.667C12.8953 14.4889 13.0822 14.3021 13.0822 14.0737C13.0822 13.8453 12.8953 13.6585 12.667 13.6585Z" fill="#18B779"/>
</svg>
