<svg width="46" height="8" viewBox="0 0 46 8" fill="none" xmlns="http://www.w3.org/2000/svg">
<path d="M3.94556 6.10611V6.49011H0.999564V6.18411L2.74556 4.47411C2.96556 4.25811 3.11356 4.07211 3.18956 3.91611C3.26956 3.75611 3.30956 3.59611 3.30956 3.43611C3.30956 3.18811 3.22356 2.99611 3.05156 2.86011C2.88356 2.72011 2.64156 2.65011 2.32556 2.65011C1.83356 2.65011 1.45156 2.80611 1.17956 3.11811L0.873564 2.85411C1.03756 2.66211 1.24556 2.51411 1.49756 2.41011C1.75356 2.30611 2.04156 2.25411 2.36156 2.25411C2.78956 2.25411 3.12756 2.35611 3.37556 2.56011C3.62756 2.76011 3.75356 3.03611 3.75356 3.38811C3.75356 3.60411 3.70556 3.81211 3.60956 4.01211C3.51356 4.21211 3.33156 4.44211 3.06356 4.70211L1.63556 6.10611H3.94556ZM7.9171 5.38611H7.0771V6.49011H6.6451V5.38611H4.2751V5.07411L6.5011 2.29011H6.9811L4.8331 5.00211H6.6571V4.03011H7.0771V5.00211H7.9171V5.38611ZM10.2638 6.29811C10.1838 6.37011 10.0838 6.42611 9.96375 6.46611C9.84775 6.50211 9.72575 6.52011 9.59775 6.52011C9.30175 6.52011 9.07375 6.44011 8.91375 6.28011C8.75375 6.12011 8.67375 5.89411 8.67375 5.60211V3.69411H8.10975V3.33411H8.67375V2.64411H9.09975V3.33411H10.0598V3.69411H9.09975V5.57811C9.09975 5.76611 9.14575 5.91011 9.23775 6.01011C9.33375 6.10611 9.46975 6.15411 9.64575 6.15411C9.73375 6.15411 9.81775 6.14011 9.89775 6.11211C9.98175 6.08411 10.0538 6.04411 10.1138 5.99211L10.2638 6.29811ZM12.6473 3.31011C13.0433 3.31011 13.3573 3.42611 13.5893 3.65811C13.8253 3.88611 13.9433 4.22011 13.9433 4.66011V6.49011H13.5173V4.70211C13.5173 4.37411 13.4353 4.12411 13.2713 3.95211C13.1073 3.78011 12.8733 3.69411 12.5693 3.69411C12.2293 3.69411 11.9593 3.79611 11.7593 4.00011C11.5633 4.20011 11.4653 4.47811 11.4653 4.83411V6.49011H11.0393V2.03811H11.4653V3.88611C11.5813 3.70211 11.7413 3.56011 11.9453 3.46011C12.1493 3.36011 12.3833 3.31011 12.6473 3.31011ZM18.5841 6.52611C18.1681 6.52611 17.7921 6.43411 17.4561 6.25011C17.1241 6.06611 16.8621 5.81211 16.6701 5.48811C16.4821 5.16011 16.3881 4.79411 16.3881 4.39011C16.3881 3.98611 16.4821 3.62211 16.6701 3.29811C16.8621 2.97011 17.1261 2.71411 17.4621 2.53011C17.7981 2.34611 18.1741 2.25411 18.5901 2.25411C18.9021 2.25411 19.1901 2.30611 19.4541 2.41011C19.7181 2.51411 19.9421 2.66611 20.1261 2.86611L19.8441 3.14811C19.5161 2.81611 19.1021 2.65011 18.6021 2.65011C18.2701 2.65011 17.9681 2.72611 17.6961 2.87811C17.4241 3.03011 17.2101 3.23811 17.0541 3.50211C16.9021 3.76611 16.8261 4.06211 16.8261 4.39011C16.8261 4.71811 16.9021 5.01411 17.0541 5.27811C17.2101 5.54211 17.4241 5.75011 17.6961 5.90211C17.9681 6.05411 18.2701 6.13011 18.6021 6.13011C19.1061 6.13011 19.5201 5.96211 19.8441 5.62611L20.1261 5.90811C19.9421 6.10811 19.7161 6.26211 19.4481 6.37011C19.1841 6.47411 18.8961 6.52611 18.5841 6.52611ZM22.5906 3.31011C22.9866 3.31011 23.3006 3.42611 23.5326 3.65811C23.7686 3.88611 23.8866 4.22011 23.8866 4.66011V6.49011H23.4606V4.70211C23.4606 4.37411 23.3786 4.12411 23.2146 3.95211C23.0506 3.78011 22.8166 3.69411 22.5126 3.69411C22.1726 3.69411 21.9026 3.79611 21.7026 4.00011C21.5066 4.20011 21.4086 4.47811 21.4086 4.83411V6.49011H20.9826V2.03811H21.4086V3.88611C21.5246 3.70211 21.6846 3.56011 21.8886 3.46011C22.0926 3.36011 22.3266 3.31011 22.5906 3.31011ZM26.1472 3.31011C26.5592 3.31011 26.8752 3.41411 27.0952 3.62211C27.3152 3.82611 27.4252 4.13011 27.4252 4.53411V6.49011H27.0172V5.99811C26.9212 6.16211 26.7792 6.29011 26.5912 6.38211C26.4072 6.47411 26.1872 6.52011 25.9312 6.52011C25.5792 6.52011 25.2992 6.43611 25.0912 6.26811C24.8832 6.10011 24.7792 5.87811 24.7792 5.60211C24.7792 5.33411 24.8752 5.11811 25.0672 4.95411C25.2632 4.79011 25.5732 4.70811 25.9972 4.70811H26.9992V4.51611C26.9992 4.24411 26.9232 4.03811 26.7712 3.89811C26.6192 3.75411 26.3972 3.68211 26.1052 3.68211C25.9052 3.68211 25.7132 3.71611 25.5292 3.78411C25.3452 3.84811 25.1872 3.93811 25.0552 4.05411L24.8632 3.73611C25.0232 3.60011 25.2152 3.49611 25.4392 3.42411C25.6632 3.34811 25.8992 3.31011 26.1472 3.31011ZM25.9972 6.18411C26.2372 6.18411 26.4432 6.13011 26.6152 6.02211C26.7872 5.91011 26.9152 5.75011 26.9992 5.54211V5.02611H26.0092C25.4692 5.02611 25.1992 5.21411 25.1992 5.59011C25.1992 5.77411 25.2692 5.92011 25.4092 6.02811C25.5492 6.13211 25.7452 6.18411 25.9972 6.18411ZM30.1902 3.31011C30.5862 3.31011 30.9002 3.42611 31.1322 3.65811C31.3682 3.88611 31.4862 4.22011 31.4862 4.66011V6.49011H31.0602V4.70211C31.0602 4.37411 30.9782 4.12411 30.8142 3.95211C30.6502 3.78011 30.4162 3.69411 30.1122 3.69411C29.7722 3.69411 29.5022 3.79611 29.3022 4.00011C29.1062 4.20011 29.0082 4.47811 29.0082 4.83411V6.49011H28.5822V3.33411H28.9902V3.91611C29.1062 3.72411 29.2662 3.57611 29.4702 3.47211C29.6782 3.36411 29.9182 3.31011 30.1902 3.31011ZM35.5765 3.33411V6.10611C35.5765 6.64211 35.4445 7.03811 35.1805 7.29411C34.9205 7.55411 34.5265 7.68411 33.9985 7.68411C33.7065 7.68411 33.4285 7.64011 33.1645 7.55211C32.9045 7.46811 32.6925 7.35011 32.5285 7.19811L32.7445 6.87411C32.8965 7.01011 33.0805 7.11611 33.2965 7.19211C33.5165 7.26811 33.7465 7.30611 33.9865 7.30611C34.3865 7.30611 34.6805 7.21211 34.8685 7.02411C35.0565 6.84011 35.1505 6.55211 35.1505 6.16011V5.75811C35.0185 5.95811 34.8445 6.11011 34.6285 6.21411C34.4165 6.31811 34.1805 6.37011 33.9205 6.37011C33.6245 6.37011 33.3545 6.30611 33.1105 6.17811C32.8705 6.04611 32.6805 5.86411 32.5405 5.63211C32.4045 5.39611 32.3365 5.13011 32.3365 4.83411C32.3365 4.53811 32.4045 4.27411 32.5405 4.04211C32.6805 3.81011 32.8705 3.63011 33.1105 3.50211C33.3505 3.37411 33.6205 3.31011 33.9205 3.31011C34.1885 3.31011 34.4305 3.36411 34.6465 3.47211C34.8625 3.58011 35.0365 3.73611 35.1685 3.94011V3.33411H35.5765ZM33.9625 5.99211C34.1905 5.99211 34.3965 5.94411 34.5805 5.84811C34.7645 5.74811 34.9065 5.61011 35.0065 5.43411C35.1105 5.25811 35.1625 5.05811 35.1625 4.83411C35.1625 4.61011 35.1105 4.41211 35.0065 4.24011C34.9065 4.06411 34.7645 3.92811 34.5805 3.83211C34.4005 3.73211 34.1945 3.68211 33.9625 3.68211C33.7345 3.68211 33.5285 3.73011 33.3445 3.82611C33.1645 3.92211 33.0225 4.05811 32.9185 4.23411C32.8185 4.41011 32.7685 4.61011 32.7685 4.83411C32.7685 5.05811 32.8185 5.25811 32.9185 5.43411C33.0225 5.61011 33.1645 5.74811 33.3445 5.84811C33.5285 5.94411 33.7345 5.99211 33.9625 5.99211ZM39.5158 5.04411H36.8758C36.8998 5.37211 37.0258 5.63811 37.2538 5.84211C37.4818 6.04211 37.7698 6.14211 38.1178 6.14211C38.3138 6.14211 38.4938 6.10811 38.6578 6.04011C38.8218 5.96811 38.9638 5.86411 39.0838 5.72811L39.3238 6.00411C39.1838 6.17211 39.0078 6.30011 38.7958 6.38811C38.5878 6.47611 38.3578 6.52011 38.1058 6.52011C37.7818 6.52011 37.4938 6.45211 37.2418 6.31611C36.9938 6.17611 36.7998 5.98411 36.6598 5.74011C36.5198 5.49611 36.4498 5.22011 36.4498 4.91211C36.4498 4.60411 36.5158 4.32811 36.6478 4.08411C36.7838 3.84011 36.9678 3.65011 37.1998 3.51411C37.4358 3.37811 37.6998 3.31011 37.9918 3.31011C38.2838 3.31011 38.5458 3.37811 38.7778 3.51411C39.0098 3.65011 39.1918 3.84011 39.3238 4.08411C39.4558 4.32411 39.5218 4.60011 39.5218 4.91211L39.5158 5.04411ZM37.9918 3.67611C37.6878 3.67611 37.4318 3.77411 37.2238 3.97011C37.0198 4.16211 36.9038 4.41411 36.8758 4.72611H39.1138C39.0858 4.41411 38.9678 4.16211 38.7598 3.97011C38.5558 3.77411 38.2998 3.67611 37.9918 3.67611Z" fill="#1B1B1B" fill-opacity="0.4"/>
<path d="M41.5647 3.69245L43.5264 1.76046C43.571 1.71587 43.6899 1.71587 43.7345 1.76046L45.6962 3.69245C45.7408 3.73703 45.6813 3.79647 45.5922 3.79647H41.6688C41.5796 3.79647 41.5201 3.73703 41.5647 3.69245Z" fill="#1B1B1B" fill-opacity="0.24"/>
<path d="M41.5647 4.52469L43.5264 6.45667C43.571 6.50126 43.6899 6.50126 43.7345 6.45667L45.6962 4.52469C45.7408 4.4801 45.6813 4.42065 45.5922 4.42065H41.6688C41.5796 4.42065 41.5201 4.4801 41.5647 4.52469Z" fill="#1B1B1B" fill-opacity="0.24"/>
</svg>
