<svg width="40" height="40" viewBox="0 0 40 40" fill="none" xmlns="http://www.w3.org/2000/svg">
    <path
        d="M31.1109 9.01444C30.8228 9.01444 30.5347 8.9046 30.315 8.68475C29.8755 8.24522 29.8755 7.53249 30.315 7.09288L34.7726 2.63531C35.2121 2.19578 35.9248 2.19578 36.3644 2.63531C36.804 3.07484 36.804 3.78758 36.3644 4.22718L31.9068 8.68483C31.6869 8.9046 31.3989 9.01444 31.1109 9.01444Z"
        fill="#2D527C" />
    <path
        d="M27.0424 11.9577L27.1449 4.45576L23.0486 0.35944C22.5509 -0.138293 21.6996 0.212331 21.6969 0.916236L21.6338 17.3663L38.0838 17.3032C38.7877 17.3004 39.1385 16.4492 38.6406 15.9514L34.5443 11.8551L27.0424 11.9577Z"
        fill="#CEE8FA" />
    <path
        d="M39.4367 19.1552L35.9863 15.7048L37.8675 13.8237C38.307 13.3841 38.307 12.6714 37.8675 12.2318C37.428 11.7922 36.7152 11.7922 36.2756 12.2318L33.7677 14.7397L28.1836 14.816L28.2599 9.23186L30.7678 6.72398C31.2073 6.28445 31.2073 5.57171 30.7678 5.13218C30.3283 4.69265 29.6156 4.69265 29.176 5.13218L27.2949 7.01335L23.8446 3.56312C23.4815 3.2 23.002 3 22.4945 3C21.4382 3 20.5755 3.85758 20.5714 4.91156L20.5083 21.3616C20.5072 21.6617 20.6258 21.9497 20.838 22.1618C21.0492 22.3729 21.3354 22.4915 21.6339 22.4915C21.6353 22.4915 21.6367 22.4915 21.6382 22.4915L38.0883 22.4284C38.8649 22.4255 39.5579 21.9595 39.8537 21.2414C40.1496 20.5232 39.9858 19.7044 39.4367 19.1552ZM22.7639 20.236L22.8196 5.72156L26.0132 8.91522L25.9171 15.9419C25.913 16.2457 26.0318 16.5383 26.2467 16.7533C26.4615 16.968 26.75 17.0862 27.058 17.0828L34.0847 16.9867L37.2784 20.1804L22.7639 20.236Z"
        fill="#2D527C" />
    <path
        d="M4.43117 39.6941C4.14312 39.6941 3.855 39.5843 3.63531 39.3644C3.19578 38.9249 3.19578 38.2122 3.63531 37.7726L8.09288 33.315C8.53241 32.8755 9.24514 32.8755 9.68475 33.315C10.1244 33.7545 10.1243 34.4673 9.68475 34.9069L5.22718 39.3644C5.00718 39.5843 4.71922 39.6941 4.43117 39.6941Z"
        fill="#2D527C" />
    <path
        d="M12.9567 26.0424L12.8542 33.5443L16.9505 37.6406C17.4483 38.1384 18.2995 37.7877 18.3022 37.0838L18.3654 20.6338L1.91533 20.6969C1.21142 20.6996 0.860644 21.5509 1.35853 22.0486L5.45485 26.145L12.9567 26.0424Z"
        fill="#CEE8FA" />
    <path
        d="M19.1612 19.8385C18.95 19.6275 18.6637 19.5088 18.3653 19.5088C18.3638 19.5088 18.3624 19.5088 18.3609 19.5088L1.91088 19.5719C1.13424 19.5748 0.441273 20.0408 0.145414 20.7589C-0.150445 21.4771 0.0133048 22.2959 0.562444 22.845L4.01283 26.2954L2.13166 28.1766C1.69213 28.6161 1.69213 29.3288 2.13166 29.7685C2.3515 29.9883 2.63955 30.0981 2.92752 30.0981C3.21556 30.0981 3.50369 29.9883 3.72338 29.7685L6.23126 27.2606L11.8154 27.1842L11.7391 32.7684L9.23118 35.2763C8.79165 35.7158 8.79165 36.4285 9.23118 36.8681C9.45102 37.0879 9.73907 37.1977 10.027 37.1977C10.3151 37.1977 10.6032 37.0877 10.8229 36.8681L12.7041 34.9869L16.1544 38.4373C16.5176 38.8004 16.997 39.0004 17.5045 39.0004C18.5608 39.0004 19.4235 38.1428 19.4276 37.0888L19.4907 20.6388C19.492 20.3387 19.3733 20.0507 19.1612 19.8385ZM17.1797 36.2788L13.986 33.0851L14.0821 26.0584C14.0862 25.7546 13.9674 25.462 13.7526 25.2471C13.5376 25.0322 13.2452 24.9137 12.9412 24.9175L5.91454 25.0136L2.72103 21.8201L17.2355 21.7644L17.1797 36.2788Z"
        fill="#2D527C" />
</svg>