<svg width="30" height="30" viewBox="0 0 30 30" fill="none" xmlns="http://www.w3.org/2000/svg">
    <path
        d="M2.6709 11.5C2.6709 10.375 3.9209 8.25 5.5459 7.625C7.1709 7 9.6709 7 13.0459 7C16.6709 7 20.2959 7.625 20.2959 7.625L17.4209 4.75L18.6709 2.375L25.4209 9.25L18.5459 16.125L17.2959 13.75L20.1709 10.875C20.1709 10.875 16.5459 10.25 12.7959 10.25C9.5459 10.25 7.0459 10.25 5.4209 10.875C3.7959 11.5 2.6709 15.5 2.6709 15.5V11.5Z"
        fill="#3F88C9" />
    <path
        d="M25.25 18.5C25.25 19.625 24 21.75 22.375 22.375C20.75 23 18.25 23 14.875 23C11.25 23 7.625 22.375 7.625 22.375L10.5 25.25L9.25 27.625L2.5 20.75L9.375 13.875L10.625 16.25L7.75 19.125C7.75 19.125 11.375 19.75 15.125 19.75C18.375 19.75 20.875 19.75 22.5 19.125C24.125 18.5 25.25 14.5 25.25 14.5V18.5Z"
        fill="black" />
</svg>