<svg width="18" height="18" viewBox="0 0 18 18" fill="none" xmlns="http://www.w3.org/2000/svg">
<path d="M8.38959 1.03308L8.38945 1.03315L8.39187 1.03789C7.73444 1.69178 7.21426 2.47046 6.86193 3.32823C6.50852 4.18862 6.33116 5.11112 6.34032 6.04122C6.34992 7.26218 6.67556 8.45986 7.28554 9.51759C7.89564 10.5755 8.76938 11.4574 9.82163 12.0773C10.8739 12.6971 12.0688 13.0338 13.2898 13.0546C14.5041 13.0753 15.703 12.7828 16.7712 12.2056C16.2203 13.4928 15.3435 14.6146 14.2268 15.4601C13.0976 16.3151 11.7632 16.8574 10.3577 17.0325C8.95232 17.2075 7.52557 17.0092 6.2212 16.4574C4.91682 15.9057 3.78086 15.0199 2.92773 13.8894C2.0746 12.7589 1.53441 11.4236 1.36158 10.0179C1.18874 8.6122 1.38935 7.18578 1.94322 5.88228C2.49708 4.57879 3.38463 3.44425 4.51649 2.59293C5.6481 1.7418 6.98396 1.2038 8.38959 1.03308Z" stroke="#1C1C1C"/>
</svg>
