<svg width="40" height="40" viewBox="0 0 40 40" fill="none" xmlns="http://www.w3.org/2000/svg">
    <path
        d="M36.6838 21.0206C36.1583 21.6772 35.492 22.2072 34.734 22.5715C33.9761 22.9358 33.1459 23.1249 32.305 23.125H32.2937C31.25 18.1525 26.1494 14.375 20 14.375C19.7887 14.375 19.5831 14.3931 19.375 14.4019V14.375H9.375C9.37407 15.6701 9.87783 16.9146 10.7794 17.8444C9.73702 18.8018 8.89916 19.9603 8.31625 21.25H4.375V28.75H8.31625C8.99986 30.1822 9.9683 31.46 11.1624 32.5052C12.3565 33.5505 13.7512 34.3413 15.2612 34.8294L16.25 38.125H18.75V35.5713C19.1613 35.6063 19.5781 35.625 20 35.625C20.4219 35.625 20.8388 35.6063 21.25 35.5713V38.125H23.75L24.7388 34.8294C28.6344 33.4713 31.535 30.49 32.2937 26.875H32.305C33.6827 26.8748 35.004 26.3275 35.9782 25.3532C36.9525 24.379 37.4998 23.0577 37.5 21.68V20L36.6838 21.0206Z"
        fill="#E5E6EB" />
    <path
        d="M24.375 18.125V19.9913C24.375 20.1593 24.3082 20.3205 24.1894 20.4394C24.0705 20.5582 23.9093 20.625 23.7413 20.625H16.2587C16.0907 20.625 15.9295 20.5582 15.8106 20.4394C15.6918 20.3205 15.625 20.1593 15.625 19.9913V18.125H24.375Z"
        fill="#CFCFD9" />
    <path
        d="M32.5 11.875C35.2614 11.875 37.5 9.63642 37.5 6.875C37.5 4.11358 35.2614 1.875 32.5 1.875C29.7386 1.875 27.5 4.11358 27.5 6.875C27.5 9.63642 29.7386 11.875 32.5 11.875Z"
        fill="#2D527C" />
    <path
        d="M33.8369 10.0712C34.0227 9.88548 34.1677 9.66306 34.2628 9.41814C34.3579 9.17322 34.4009 8.91117 34.3892 8.6487C34.3774 8.38623 34.3111 8.12909 34.1945 7.89365C34.0779 7.65822 33.9135 7.44966 33.7119 7.28125L32.09 5.93187C32.0216 5.87485 31.9658 5.8042 31.9262 5.72443C31.8866 5.64466 31.8641 5.55752 31.86 5.46857C31.856 5.37961 31.8705 5.29078 31.9027 5.20774C31.9348 5.1247 31.9839 5.04926 32.0469 4.98625C32.169 4.86986 32.3313 4.80494 32.5 4.80494C32.6687 4.80494 32.831 4.86986 32.9531 4.98625L33.9331 5.96625L34.8169 5.0825L33.8369 4.10187C33.6357 3.90345 33.3924 3.75304 33.125 3.66187V1.91812C32.7103 1.86063 32.2897 1.86063 31.875 1.91812V3.66187C31.6078 3.75231 31.3645 3.90185 31.1631 4.09937C30.9773 4.28514 30.8322 4.50757 30.7371 4.75249C30.6421 4.99741 30.599 5.25945 30.6108 5.52192C30.6225 5.78439 30.6888 6.04153 30.8054 6.27697C30.9221 6.5124 31.0864 6.72097 31.2881 6.88937L32.9087 8.23937C32.971 8.29597 33.0215 8.36427 33.0573 8.44037C33.0932 8.51648 33.1137 8.59891 33.1177 8.68294C33.1217 8.76698 33.1091 8.85098 33.0807 8.93016C33.0522 9.00933 33.0084 9.08212 32.9519 9.14437C32.8953 9.20663 32.827 9.25713 32.7509 9.29299C32.6747 9.32885 32.5923 9.34936 32.5083 9.35337C32.4243 9.35737 32.3402 9.34479 32.2611 9.31633C32.1819 9.28787 32.1091 9.24409 32.0469 9.1875L31.0669 8.2075L30.1831 9.09125L31.1631 10.0719C31.3646 10.2693 31.6079 10.4188 31.875 10.5094V11.83C32.2897 11.8875 32.7103 11.8875 33.125 11.83V10.5112C33.3924 10.4201 33.6357 10.2697 33.8369 10.0712Z"
        fill="white" />
    <path
        d="M7.5 11.875C10.2614 11.875 12.5 9.63642 12.5 6.875C12.5 4.11358 10.2614 1.875 7.5 1.875C4.73858 1.875 2.5 4.11358 2.5 6.875C2.5 9.63642 4.73858 11.875 7.5 11.875Z"
        fill="#2D527C" />
    <path
        d="M7.08998 5.93187C7.02158 5.87485 6.96581 5.8042 6.92622 5.72443C6.88663 5.64466 6.86409 5.55752 6.86003 5.46857C6.85598 5.37961 6.87049 5.29078 6.90266 5.20774C6.93482 5.1247 6.98393 5.04926 7.04686 4.98625C7.16901 4.86986 7.33126 4.80494 7.49998 4.80494C7.6687 4.80494 7.83095 4.86986 7.95311 4.98625L8.93311 5.96625L9.81686 5.0825L8.83686 4.10187C8.63574 3.90345 8.39239 3.75304 8.12498 3.66187V1.91812C7.7103 1.86063 7.28966 1.86063 6.87498 1.91812V3.66187C6.6078 3.75231 6.36447 3.90185 6.16311 4.09937C5.97731 4.28514 5.83224 4.50757 5.73715 4.75249C5.64205 4.99741 5.59901 5.25945 5.61077 5.52192C5.62253 5.78439 5.68883 6.04153 5.80545 6.27697C5.92206 6.5124 6.08644 6.72097 6.28811 6.88937L7.90873 8.23937C7.97099 8.29597 8.02148 8.36427 8.05734 8.44037C8.0932 8.51648 8.11372 8.59891 8.11772 8.68294C8.12173 8.76698 8.10914 8.85098 8.08068 8.93016C8.05222 9.00933 8.00845 9.08212 7.95186 9.14437C7.89526 9.20663 7.82696 9.25713 7.75086 9.29299C7.67475 9.32885 7.59232 9.34936 7.50829 9.35337C7.42425 9.35737 7.34025 9.34479 7.26107 9.31633C7.1819 9.28787 7.10911 9.24409 7.04686 9.1875L6.06686 8.2075L5.18311 9.09125L6.16311 10.0719C6.36457 10.2693 6.60787 10.4188 6.87498 10.5094V11.83C7.28966 11.8875 7.7103 11.8875 8.12498 11.83V10.5112C8.39216 10.4208 8.63549 10.2713 8.83686 10.0737C9.02265 9.88798 9.16772 9.66556 9.26281 9.42064C9.35791 9.17572 9.40095 8.91367 9.38919 8.6512C9.37743 8.38873 9.31113 8.13159 9.19451 7.89615C9.0779 7.66072 8.91352 7.45216 8.71186 7.28375L7.08998 5.93187Z"
        fill="white" />
    <path d="M15 22.5H13.75V21.25H12.5V22.5H11.25V23.75H12.5V25H13.75V23.75H15V22.5Z" fill="white" />
    <path
        d="M36.6838 21.0205C36.1583 21.6771 35.492 22.2071 34.7341 22.5714C33.9761 22.9357 33.146 23.1248 32.305 23.1249H32.2938C31.51 19.388 28.4338 16.3268 24.3431 15.0361C25.6701 15.9347 26.7625 17.1379 27.5292 18.5451C28.2959 19.9524 28.7145 21.5227 28.75 23.1249C28.75 28.993 23.1538 33.7499 16.25 33.7499C14.7723 33.7491 13.3034 33.521 11.895 33.0736C12.9249 33.8208 14.0591 34.4124 15.2613 34.8293L16.25 38.1249H18.75V35.5711C19.1613 35.6061 19.5781 35.6249 20 35.6249C20.4219 35.6249 20.8388 35.6061 21.25 35.5711V38.1249H23.75L24.7388 34.8293C28.6344 33.4711 31.535 30.4899 32.2938 26.8749H32.305C33.6828 26.8747 35.004 26.3273 35.9783 25.3531C36.9525 24.3789 37.4999 23.0576 37.5 21.6799V19.9999L36.6838 21.0205Z"
        fill="#D9DAE2" />
    <path d="M13.75 21.25H12.5V22.5H11.25V23.75H12.5V25H13.75V23.75H15V22.5H13.75V21.25Z" fill="black" />
    <path
        d="M23.7413 20L16.25 19.9913V18.75H15V19.9913C15.0003 20.325 15.1331 20.645 15.369 20.881C15.605 21.1169 15.925 21.2497 16.2587 21.25H23.7413C24.075 21.2497 24.395 21.1169 24.631 20.881C24.8669 20.645 24.9997 20.325 25 19.9913V18.75H23.75L23.7413 20Z"
        fill="black" />
    <path
        d="M37.7069 19.4107C37.5847 19.3677 37.4522 19.3638 37.3277 19.3994C37.2032 19.435 37.0929 19.5084 37.0119 19.6094L36.195 20.6301C35.7796 21.1519 35.2632 21.5844 34.6766 21.9018C34.09 22.2192 33.4453 22.4148 32.7812 22.4769C31.4256 17.3888 26.1462 13.7501 20 13.7501C19.8506 13.7501 19.7031 13.7582 19.5563 13.7663H19.525C19.4758 13.7548 19.4255 13.7494 19.375 13.7501H9.375C9.20924 13.7501 9.05027 13.8159 8.93306 13.9331C8.81585 14.0503 8.75 14.2093 8.75 14.3751C8.74805 15.6178 9.16066 16.8257 9.9225 17.8076C9.11079 18.6357 8.43459 19.5865 7.91875 20.6251H4.375C4.20924 20.6251 4.05027 20.6909 3.93306 20.8081C3.81585 20.9253 3.75 21.0843 3.75 21.2501V28.7501C3.75 28.9158 3.81585 29.0748 3.93306 29.192C4.05027 29.3092 4.20924 29.3751 4.375 29.3751H7.91875C9.36316 32.1468 11.8041 34.2683 14.75 35.3126L15.6488 38.3063C15.6878 38.4352 15.7674 38.548 15.8758 38.6279C15.9841 38.7079 16.1154 38.7507 16.25 38.7501H18.75C18.9158 38.7501 19.0747 38.6842 19.1919 38.567C19.3092 38.4498 19.375 38.2908 19.375 38.1251V36.2369C19.7962 36.2551 20.2038 36.2551 20.625 36.2369V38.1251C20.625 38.2908 20.6908 38.4498 20.8081 38.567C20.9253 38.6842 21.0842 38.7501 21.25 38.7501H23.75C23.8845 38.7501 24.0153 38.7067 24.1232 38.6264C24.2311 38.5462 24.3102 38.4332 24.3488 38.3044L25.25 35.3126C29.1 33.8751 31.875 30.9838 32.7931 27.4801C34.2464 27.3557 35.6002 26.691 36.5873 25.6173C37.5745 24.5435 38.1231 23.1386 38.125 21.6801V20.0001C38.1249 19.8706 38.0846 19.7444 38.0098 19.6388C37.9349 19.5332 37.829 19.4535 37.7069 19.4107ZM32.2937 26.2501C32.1498 26.2502 32.0103 26.3 31.8988 26.3911C31.7873 26.4822 31.7107 26.609 31.6819 26.7501C30.9838 30.0769 28.2444 32.9482 24.5331 34.2426C24.4398 34.275 24.3555 34.3292 24.2872 34.4006C24.2188 34.472 24.1684 34.5585 24.14 34.6532L23.285 37.5001H21.875V35.5713C21.875 35.4848 21.8571 35.3993 21.8223 35.3201C21.7876 35.2409 21.7368 35.1698 21.6731 35.1113C21.6097 35.0523 21.5346 35.0073 21.4527 34.9793C21.3707 34.9513 21.2837 34.9409 21.1975 34.9488C20.4006 35.0169 19.5994 35.0169 18.8025 34.9488C18.7162 34.9408 18.6293 34.9512 18.5473 34.9792C18.4653 35.0072 18.3902 35.0522 18.3269 35.1113C18.2632 35.1698 18.2124 35.2409 18.1777 35.3201C18.1429 35.3993 18.125 35.4848 18.125 35.5713V37.5001H16.715L15.86 34.6501C15.8316 34.5554 15.7812 34.4688 15.7128 34.3975C15.6445 34.3261 15.5602 34.2719 15.4669 34.2394C14.038 33.7785 12.7178 33.0317 11.5867 32.0443C10.4556 31.057 9.53725 29.8498 8.8875 28.4963C8.8384 28.3858 8.7583 28.2919 8.65691 28.226C8.55551 28.1601 8.43718 28.125 8.31625 28.1251H5V21.8751H8.31625C8.43718 21.8751 8.55551 21.84 8.65691 21.7741C8.7583 21.7082 8.8384 21.6143 8.8875 21.5038C9.4353 20.2906 10.2237 19.2013 11.205 18.3019C11.2659 18.2454 11.3148 18.1773 11.3491 18.1016C11.3833 18.0259 11.4021 17.9441 11.4044 17.8611C11.4066 17.7781 11.3923 17.6954 11.3623 17.618C11.3322 17.5405 11.2871 17.4698 11.2294 17.4101C10.5905 16.7515 10.1758 15.9081 10.0444 15.0001H19.1937C19.2604 15.0218 19.3306 15.0307 19.4006 15.0263L19.6281 15.0144C19.75 15.0076 19.875 15.0001 20 15.0001C25.7663 15.0001 30.6788 18.4713 31.6819 23.2501C31.7132 23.3923 31.7923 23.5195 31.906 23.6105C32.0197 23.7015 32.1612 23.7507 32.3069 23.7501C33.1648 23.752 34.0138 23.5757 34.8002 23.2325C35.5865 22.8894 36.293 22.3867 36.875 21.7563C36.853 22.9564 36.3606 24.0999 35.5037 24.9404C34.6468 25.7809 33.4941 26.2512 32.2937 26.2501Z"
        fill="#2D527C" />
    <path
        d="M20 18.125C22.7614 18.125 25 15.8864 25 13.125C25 10.3636 22.7614 8.125 20 8.125C17.2386 8.125 15 10.3636 15 13.125C15 15.8864 17.2386 18.125 20 18.125Z"
        fill="#2D527C" />
    <path
        d="M21.3369 16.3217C21.5227 16.1359 21.6677 15.9135 21.7628 15.6686C21.8579 15.4236 21.9009 15.1616 21.8892 14.8991C21.8774 14.6367 21.8111 14.3795 21.6945 14.1441C21.5779 13.9086 21.4135 13.7001 21.2119 13.5317L19.5912 12.1823C19.5228 12.1253 19.4671 12.0546 19.4275 11.9749C19.3879 11.8951 19.3653 11.808 19.3613 11.719C19.3572 11.63 19.3717 11.5412 19.4039 11.4582C19.4361 11.3751 19.4852 11.2997 19.5481 11.2367C19.6703 11.1203 19.8325 11.0554 20.0012 11.0554C20.17 11.0554 20.3322 11.1203 20.4544 11.2367L21.4344 12.2167L22.3181 11.3329L21.3381 10.3523C21.1367 10.1548 20.8934 10.0052 20.6262 9.9148V8.17105C20.2115 8.11355 19.7909 8.11355 19.3762 8.17105V9.9148C19.1091 10.0052 18.8657 10.1548 18.6644 10.3523C18.4786 10.5381 18.3335 10.7605 18.2384 11.0054C18.1433 11.2503 18.1003 11.5124 18.112 11.7748C18.1238 12.0373 18.1901 12.2945 18.3067 12.5299C18.4233 12.7653 18.5877 12.9739 18.7894 13.1423L20.41 14.4923C20.4758 14.5479 20.5298 14.6163 20.5686 14.6932C20.6074 14.7702 20.6303 14.8542 20.6358 14.9402C20.6414 15.0262 20.6296 15.1125 20.601 15.1938C20.5725 15.2751 20.5278 15.3499 20.4697 15.4135C20.4116 15.4772 20.3412 15.5285 20.2628 15.5643C20.1845 15.6001 20.0996 15.6198 20.0135 15.6221C19.9273 15.6243 19.8416 15.6092 19.7614 15.5776C19.6812 15.5459 19.6082 15.4984 19.5469 15.4379L18.5669 14.4579L17.6831 15.3417L18.6631 16.3223C18.8646 16.5197 19.1079 16.6692 19.375 16.7598V18.0804C19.7897 18.1379 20.2103 18.1379 20.625 18.0804V16.7617C20.8924 16.6705 21.1357 16.5201 21.3369 16.3217Z"
        fill="white" />
</svg>