<svg width="31" height="33" viewBox="0 0 31 33" fill="none" xmlns="http://www.w3.org/2000/svg">
    <path
        d="M13.4335 6.1875C13.7076 6.1875 13.9704 6.07885 14.1642 5.88545C14.358 5.69206 14.4669 5.42975 14.4669 5.15625C14.4669 4.88275 14.358 4.62044 14.1642 4.42705C13.9704 4.23365 13.7076 4.125 13.4335 4.125H7.23353C6.95947 4.125 6.69664 4.23365 6.50285 4.42705C6.30906 4.62044 6.2002 4.88275 6.2002 5.15625C6.2002 5.42975 6.30906 5.69206 6.50285 5.88545C6.69664 6.07885 6.95947 6.1875 7.23353 6.1875H13.4335Z"
        fill="#35383F" />
    <path
        d="M20.6667 9.11625V4.99125C20.6722 4.33861 20.5482 3.69134 20.3021 3.08668C20.0559 2.48203 19.6923 1.93192 19.2323 1.46803C18.7723 1.00414 18.2249 0.635618 17.6216 0.383674C17.0183 0.13173 16.371 0.00133704 15.717 0L4.94968 0C3.63778 0.00272477 2.3804 0.52403 1.45274 1.44981C0.525089 2.37559 0.00273028 3.63044 0 4.93969V28.0603C0.00273028 29.3696 0.525089 30.6244 1.45274 31.5502C2.3804 32.476 3.63778 32.9973 4.94968 33H15.717C17.0289 32.9973 18.2863 32.476 19.214 31.5502C20.1416 30.6244 20.664 29.3696 20.6667 28.0603V28.0088C22.5064 27.2047 24.0714 25.883 25.1703 24.2053C26.2693 22.5277 26.8545 20.5668 26.8545 18.5625C26.8545 16.5582 26.2693 14.5973 25.1703 12.9197C24.0714 11.242 22.5064 9.92034 20.6667 9.11625ZM15.717 30.9375H4.94968C4.18506 30.9375 3.45175 30.6344 2.91108 30.0948C2.37042 29.5552 2.06667 28.8234 2.06667 28.0603V4.93969C2.06667 4.17661 2.37042 3.44479 2.91108 2.90521C3.45175 2.36563 4.18506 2.0625 4.94968 2.0625H15.717C16.4817 2.0625 17.215 2.36563 17.7556 2.90521C18.2963 3.44479 18.6 4.17661 18.6 4.93969V8.45625C17.9196 8.31976 17.2274 8.25068 16.5334 8.25C13.8222 8.24972 11.2213 9.32134 9.30002 11.2303V10.3125C9.30002 10.039 9.19115 9.77669 8.99736 9.5833C8.80357 9.3899 8.54074 9.28125 8.26668 9.28125C7.99263 9.28125 7.72979 9.3899 7.53601 9.5833C7.34222 9.77669 7.23335 10.039 7.23335 10.3125V26.8125C7.23335 27.086 7.34222 27.3483 7.53601 27.5417C7.72979 27.7351 7.99263 27.8438 8.26668 27.8438C8.54074 27.8438 8.80357 27.7351 8.99736 27.5417C9.19115 27.3483 9.30002 27.086 9.30002 26.8125V25.8947C11.2213 27.8037 13.8222 28.8753 16.5334 28.875C17.2029 28.8731 17.8707 28.8075 18.5277 28.6791C18.3866 29.3185 18.0312 29.8908 17.5202 30.3014C17.0092 30.712 16.3731 30.9364 15.717 30.9375ZM16.5334 26.8125C15.0553 26.8112 13.6047 26.4144 12.3325 25.6635C11.0604 24.9126 10.0132 23.8351 9.30002 22.5431V14.5819C10.0037 13.307 11.0329 12.2406 12.283 11.4909C13.5331 10.7413 14.9598 10.335 16.4181 10.3134C17.8764 10.2918 19.3144 10.6556 20.5863 11.3679C21.8582 12.0802 22.9186 13.1156 23.6599 14.3691C24.4012 15.6226 24.7971 17.0495 24.8073 18.505C24.8174 19.9604 24.4416 21.3927 23.7178 22.6564C22.9941 23.92 21.9483 24.9701 20.6865 25.7001C19.4247 26.43 17.9918 26.8138 16.5334 26.8125Z"
        fill="#35383F" />
    <path
        d="M16.5336 15.4688H18.6003C18.8743 15.4688 19.1372 15.3601 19.331 15.1667C19.5247 14.9733 19.6336 14.711 19.6336 14.4375C19.6336 14.164 19.5247 13.9017 19.331 13.7083C19.1372 13.5149 18.8743 13.4062 18.6003 13.4062H17.5669C17.5669 13.1327 17.4581 12.8704 17.2643 12.677C17.0705 12.4836 16.8077 12.375 16.5336 12.375C16.2595 12.375 15.9967 12.4836 15.8029 12.677C15.6091 12.8704 15.5003 13.1327 15.5003 13.4062V13.5919C14.8168 13.8394 14.2423 14.3187 13.8771 14.946C13.5119 15.5734 13.3793 16.3089 13.5024 17.024C13.6255 17.7391 13.9966 18.3882 14.5506 18.8579C15.1047 19.3277 15.8066 19.5881 16.5336 19.5938C16.8077 19.5938 17.0705 19.7024 17.2643 19.8958C17.4581 20.0892 17.5669 20.3515 17.5669 20.625C17.5669 20.8985 17.4581 21.1608 17.2643 21.3542C17.0705 21.5476 16.8077 21.6562 16.5336 21.6562H14.4669C14.1929 21.6562 13.93 21.7649 13.7363 21.9583C13.5425 22.1517 13.4336 22.414 13.4336 22.6875C13.4336 22.961 13.5425 23.2233 13.7363 23.4167C13.93 23.6101 14.1929 23.7188 14.4669 23.7188H15.5003C15.5003 23.9923 15.6091 24.2546 15.8029 24.448C15.9967 24.6414 16.2595 24.75 16.5336 24.75C16.8077 24.75 17.0705 24.6414 17.2643 24.448C17.4581 24.2546 17.5669 23.9923 17.5669 23.7188V23.5331C18.2504 23.2856 18.8249 22.8063 19.1901 22.179C19.5553 21.5516 19.6879 20.8161 19.5648 20.101C19.4417 19.3859 19.0706 18.7368 18.5166 18.2671C17.9625 17.7973 17.2606 17.5369 16.5336 17.5312C16.2595 17.5312 15.9967 17.4226 15.8029 17.2292C15.6091 17.0358 15.5003 16.7735 15.5003 16.5C15.5003 16.2265 15.6091 15.9642 15.8029 15.7708C15.9967 15.5774 16.2595 15.4688 16.5336 15.4688Z"
        fill="#35383F" />
    <path
        d="M29.9667 5.15852H27.2904L27.6004 4.85945C27.795 4.66527 27.9043 4.40189 27.9043 4.12727C27.9043 3.85264 27.795 3.58927 27.6004 3.39508C27.4058 3.20089 27.1419 3.0918 26.8667 3.0918C26.5916 3.0918 26.3277 3.20089 26.1331 3.39508L24.0664 5.45758C23.9695 5.55345 23.8927 5.6675 23.8402 5.79317C23.7878 5.91884 23.7607 6.05363 23.7607 6.18977C23.7607 6.3259 23.7878 6.46069 23.8402 6.58636C23.8927 6.71203 23.9695 6.82609 24.0664 6.92195L26.1331 8.98445C26.2291 9.08111 26.3434 9.15783 26.4693 9.21019C26.5953 9.26254 26.7303 9.2895 26.8667 9.2895C27.0032 9.2895 27.1382 9.26254 27.2641 9.21019C27.3901 9.15783 27.5043 9.08111 27.6004 8.98445C27.6973 8.88859 27.7741 8.77453 27.8266 8.64886C27.8791 8.52319 27.9061 8.3884 27.9061 8.25227C27.9061 8.11613 27.8791 7.98134 27.8266 7.85567C27.7741 7.73 27.6973 7.61595 27.6004 7.52008L27.2904 7.22102H29.9667C30.2408 7.22102 30.5036 7.11237 30.6974 6.91897C30.8912 6.72557 31.0001 6.46327 31.0001 6.18977C31.0001 5.91626 30.8912 5.65396 30.6974 5.46056C30.5036 5.26717 30.2408 5.15852 29.9667 5.15852Z"
        fill="#3F88C9" />
</svg>