<svg width="40" height="40" viewBox="0 0 40 40" fill="none" xmlns="http://www.w3.org/2000/svg">
    <g clip-path="url(#clip0_4325_8476)">
        <path
            d="M21.8828 33.2933H11.0849C9.55869 33.2933 8.31689 32.0516 8.31689 30.5253V26.8782C8.31689 26.22 8.85041 25.6865 9.50853 25.6865C10.1667 25.6865 10.7002 26.22 10.7002 26.8782V30.5253C10.7002 30.7374 10.8727 30.91 11.0849 30.91H21.8828C22.5409 30.91 23.0744 31.4435 23.0744 32.1017C23.0744 32.7598 22.5409 33.2933 21.8828 33.2933Z"
            fill="#2D527C" />
        <path
            d="M31.9873 27.6246L27.1924 32.2902V37.4561C27.1924 38.0838 27.9503 38.3994 28.3958 37.9572L38.808 27.6247L28.3958 17.2923C27.9503 16.8501 27.1924 17.1657 27.1924 17.7934V22.9593L31.9873 27.6246Z"
            fill="#CEE8FA" />
        <path
            d="M39.6477 26.7791L29.2355 16.4466C28.8766 16.0905 28.4038 15.8945 27.9038 15.8945C26.8547 15.8945 26.0012 16.7464 26.0012 17.7937V21.9569H18.3391C17.681 21.9569 17.1475 22.4904 17.1475 23.1485C17.1475 23.8066 17.681 24.3401 18.3391 24.3401H26.9031L30.279 27.625L26.362 31.4363C26.1314 31.6606 26.0013 31.9687 26.0013 32.2904V37.4562C26.0013 38.5034 26.8549 39.3552 27.904 39.3554H27.9041C28.4041 39.3554 28.8769 39.1592 29.2358 38.8033L39.6479 28.4707C39.8734 28.2471 40.0002 27.9425 40.0002 27.6249C40.0001 27.3074 39.8732 27.0028 39.6477 26.7791ZM28.3844 36.2904V32.7937L32.8186 28.479C33.0491 28.2547 33.1792 27.9468 33.1792 27.625C33.1792 27.3032 33.0492 26.9953 32.8186 26.7709L28.3844 22.4562V18.9595L37.1165 27.625L28.3844 36.2904Z"
            fill="#2D527C" />
        <path
            d="M30.4912 14.3138C29.8331 14.3138 29.2995 13.7803 29.2995 13.1222V9.47507C29.2995 9.26296 29.127 9.0903 28.9148 9.0903H18.1169C17.4588 9.0903 16.9253 8.55679 16.9253 7.89867C16.9253 7.24054 17.4588 6.70703 18.1169 6.70703H28.9148C30.441 6.70703 31.6828 7.94875 31.6828 9.47507V13.1222C31.6828 13.7803 31.1493 14.3138 30.4912 14.3138Z"
            fill="#2D527C" />
        <path
            d="M8.01208 12.3748L12.807 7.70915V2.54339C12.807 1.91565 12.0491 1.60011 11.6036 2.04222L1.19141 12.3748L11.6036 22.7073C12.0491 23.1495 12.807 22.8339 12.807 22.2061V17.0403L8.01208 12.3748Z"
            fill="#CEE8FA" />
        <path
            d="M21.6609 15.6599H13.0968L9.7209 12.3751L13.638 8.56364C13.8685 8.33934 13.9986 8.03138 13.9986 7.70958V2.54366C13.9986 1.49648 13.145 0.644531 12.096 0.644531C11.596 0.644531 11.1232 0.840702 10.7643 1.19664L0.352264 11.5292C0.126796 11.7528 0 12.0575 0 12.375C0 12.6926 0.126796 12.9972 0.352264 13.2209L10.7645 23.5534C11.1232 23.9094 11.5961 24.1055 12.0961 24.1055C12.5822 24.1055 13.0457 23.9226 13.4014 23.5904C13.7866 23.2304 13.9989 22.7388 13.9989 22.2064V18.0432H21.6609C22.3191 18.0432 22.8526 17.5097 22.8526 16.8516C22.8526 16.1935 22.3191 15.6599 21.6609 15.6599ZM11.6156 21.0404L2.88343 12.375L11.6156 3.7096V7.2063L7.18138 11.521C6.95083 11.7453 6.82075 12.0532 6.82075 12.375C6.82075 12.6968 6.95075 13.0047 7.18138 13.2291L11.6156 17.5438V21.0404Z"
            fill="#2D527C" />
    </g>
    <defs>
        <clipPath id="clip0_4325_8476">
            <rect width="40" height="40" fill="white" />
        </clipPath>
    </defs>
</svg>