<svg width="25" height="22" viewBox="0 0 25 22" fill="none" xmlns="http://www.w3.org/2000/svg">
    <path
        d="M13.0124 9.69858C14.3043 10.0194 15.4986 10.5895 15.4986 12.5776L15.5 12.5778C15.5 14.0843 14.5789 15.1492 13.1582 15.3663V16.5833C13.1582 17.0765 12.8272 17.3346 12.5001 17.3346C12.173 17.3346 11.8423 17.0765 11.8423 16.5833V15.3446C10.0532 15.0306 9.69445 13.6232 9.53197 12.9787L9.5206 12.9196C9.51137 12.8679 9.5 12.8039 9.5 12.7287C9.5 12.333 9.7424 11.9992 10.1036 11.8986L10.1258 11.8936C10.1995 11.8788 10.2606 11.8669 10.3368 11.8669C10.6861 11.8669 10.9693 12.1038 11.0586 12.4716C11.2114 13.136 11.4397 13.728 12.5601 13.728C13.4232 13.728 13.938 13.3021 13.938 12.5876C13.938 12.003 13.752 11.6803 12.6972 11.4286L11.9565 11.244C10.8338 10.9723 9.68451 10.4324 9.68451 8.49595C9.68451 7.43167 10.2478 6.21071 11.7775 5.92984V4.7393C11.7775 3.75357 13.0934 3.75357 13.0934 4.7393V5.92276C14.5174 6.1707 15.0314 7.25686 15.2143 7.94693C15.2446 8.04132 15.2597 8.13841 15.2597 8.23634C15.2597 8.63118 15.0111 8.96454 14.6542 9.04789C14.5963 9.06164 14.5189 9.07706 14.4327 9.07706C14.1001 9.07706 13.8336 8.86703 13.7188 8.51491L13.7096 8.48137C13.6126 8.07757 13.3789 7.54002 12.4669 7.54002C11.6967 7.54002 11.2369 7.89776 11.2369 8.49637C11.2369 8.95767 11.3151 9.30229 12.3277 9.53586L13.0124 9.69858Z"
        fill="#696F8C" />
    <path fill-rule="evenodd" clip-rule="evenodd"
        d="M1.1 0C0.768629 0 0.5 0.298477 0.5 0.666667C0.5 1.03486 0.768629 1.33333 1.1 1.33333H2.3L2.3 15.6738C2.3 16.6446 2.29999 17.4139 2.34559 18.034C2.39222 18.6681 2.48951 19.2047 2.71418 19.6946C3.07849 20.4891 3.65982 21.135 4.37484 21.5398C4.81578 21.7894 5.29868 21.8975 5.86939 21.9493C6.42747 22 7.11985 22 7.99353 22H17.0064C17.8801 22 18.5725 22 19.1306 21.9493C19.7013 21.8975 20.1842 21.7894 20.6252 21.5398C21.3402 21.135 21.9215 20.4891 22.2858 19.6946C22.5105 19.2047 22.6078 18.6681 22.6544 18.034C22.7 17.4139 22.7 16.6446 22.7 15.6739V1.33333H23.8995C24.2308 1.33333 24.5 1.03486 24.5 0.666667C24.5 0.298477 24.2314 0 23.9 0H1.1ZM3.5 15.6444V1.33333H21.5V15.6444C21.5 16.6511 21.4995 17.366 21.4584 17.9254C21.4178 18.4771 21.3407 18.8187 21.2166 19.0893C20.9673 19.6329 20.5696 20.0748 20.0804 20.3518C19.8368 20.4897 19.5294 20.5754 19.0329 20.6204C18.5294 20.6661 17.886 20.6667 16.98 20.6667H8.02C7.11402 20.6667 6.47061 20.6661 5.96711 20.6204C5.4706 20.5754 5.1632 20.4897 4.91962 20.3518C4.4304 20.0748 4.03265 19.6329 3.78338 19.0893C3.65927 18.8187 3.58217 18.4771 3.5416 17.9254C3.50047 17.366 3.5 16.6511 3.5 15.6444Z"
        fill="#696F8C" />
</svg>