<svg width="57" height="60" viewBox="0 0 57 60" fill="none" xmlns="http://www.w3.org/2000/svg">
    <path d="M55.6098 21.3008L28.4902 46.295L0.870117 20.6084L55.6098 21.3008Z" fill="#7BB0CF" />
    <path
        d="M35.7856 40.0846C35.7856 40.0846 55.7756 59.0375 55.9418 58.9824C56.1079 58.9272 55.9418 21.3828 55.9418 21.3828L35.7856 40.0846Z"
        fill="#7BB0CF" />
    <path
        d="M20.9955 40.1846C20.7781 40.2458 0.870117 58.9843 0.870117 58.9843H55.9421L35.628 40.5154L28.4061 46.6813L20.9955 40.1846Z"
        fill="#7BB0CF" />
    <path d="M1.15271 21.3838L20.8063 39.9977L0.654297 58.6137L1.15271 21.3838Z" fill="#7BB0CF" />
    <path d="M55.6098 21.3008L28.4902 41.6772L0.870117 20.6084L55.6098 21.3008Z" fill="#97D0F1" />
    <path
        d="M20.9955 43.5059C20.7781 43.5672 0.870117 58.9828 0.870117 58.9828H55.9421L35.628 43.8348L28.4061 50.0006L20.9955 43.5039V43.5059Z"
        fill="#97D0F1" />
    <path d="M2.67258 26.1494L17.7174 40.0782L0.654297 58.6145L2.67258 26.1494Z" fill="#97D0F1" />
    <path d="M54.2744 26.1494L39.2275 40.0782L56.2927 58.6145L54.2744 26.1494Z" fill="#97D0F1" />
    <path
        d="M56.3046 59.9993H0.748544C0.364989 59.9993 0.0532227 59.6889 0.0532227 59.3069V20.6924C0.0532227 20.3104 0.364989 20 0.748544 20H56.3046C56.6881 20 56.9999 20.3104 56.9999 20.6924V59.3069C56.9999 59.6889 56.6881 59.9993 56.3046 59.9993ZM1.44387 58.6146H55.6092V21.3847H1.44387V58.6146Z"
        fill="#4D95E9" />
    <path
        d="M28.4734 47.4899C28.3011 47.4899 28.1309 47.4266 27.9975 47.302L0.219531 21.2498C-0.0614693 20.9864 -0.0737759 20.5493 0.188764 20.2695C0.453356 19.9918 0.892291 19.9795 1.17124 20.2409L28.4734 45.8478L35.3876 39.3613C35.6666 39.0999 36.1076 39.1122 36.3701 39.3899C36.6327 39.6677 36.6203 40.1068 36.3414 40.3682L28.9492 47.302C28.8159 47.4266 28.6436 47.4899 28.4734 47.4899Z"
        fill="#4D95E9" />
    <path
        d="M35.8655 40.5572C35.6809 40.5572 35.4963 40.4837 35.3589 40.3407C35.0964 40.0629 35.1087 39.6238 35.3876 39.3624L55.7755 20.2399C56.0545 19.9785 56.4955 19.9908 56.758 20.2685C57.0205 20.5463 57.0082 20.9854 56.7293 21.2468L36.3434 40.3672C36.2101 40.4939 36.0378 40.5551 35.8676 40.5551L35.8655 40.5572Z"
        fill="#4D95E9" />
    <path
        d="M56.3047 59.9997C56.1345 59.9997 55.9643 59.9384 55.8309 59.8138L35.1067 40.5586C34.8257 40.2972 34.8113 39.8601 35.0718 39.5803C35.3323 39.3005 35.7733 39.2862 36.0543 39.5456L56.7785 58.8008C57.0595 59.0622 57.0739 59.4993 56.8134 59.7791C56.676 59.9261 56.4914 59.9997 56.3047 59.9997Z"
        fill="#4D95E9" />
    <path
        d="M0.748836 59.9996C0.564237 59.9996 0.379638 59.9261 0.242215 59.7811C-0.0203255 59.5033 -0.00801896 59.0642 0.27093 58.8028L20.8024 39.5476C21.0814 39.2861 21.5223 39.2984 21.7849 39.5762C22.0474 39.8539 22.0351 40.293 21.7562 40.5544L1.22469 59.8117C1.09137 59.9383 0.919077 59.9996 0.748836 59.9996Z"
        fill="#4D95E9" />
</svg>