<svg width="11" height="3" viewBox="0 0 11 3" fill="none" xmlns="http://www.w3.org/2000/svg">
<path d="M5.67656 0.252899C5.03973 0.252899 4.52148 0.771143 4.52148 1.40797C4.52148 2.04481 5.03973 2.56305 5.67656 2.56305C6.31339 2.56305 6.83163 2.04481 6.83163 1.40797C6.83163 0.771143 6.31339 0.252899 5.67656 0.252899Z" fill="black"/>
<path d="M1.82622 0.252899C1.18939 0.252899 0.671143 0.771143 0.671143 1.40797C0.671143 2.04481 1.18939 2.56305 1.82622 2.56305C2.46305 2.56305 2.98129 2.04481 2.98129 1.40797C2.98129 0.771143 2.46305 0.252899 1.82622 0.252899Z" fill="black"/>
<path d="M9.52666 0.252899C8.88983 0.252899 8.37158 0.771143 8.37158 1.40797C8.37158 2.04481 8.88983 2.56305 9.52666 2.56305C10.1635 2.56305 10.6817 2.04481 10.6817 1.40797C10.6817 0.771143 10.1635 0.252899 9.52666 0.252899Z" fill="black"/>
</svg>
