<svg width="40" height="40" viewBox="0 0 40 40" fill="none" xmlns="http://www.w3.org/2000/svg">
    <path
        d="M23.4532 21.3717L23.1028 21.2252C22.5266 20.9811 21.9272 20.8589 21.3218 20.8589C19.57 20.8589 17.9611 21.8746 17.1885 23.4297H23.0307L22.6707 25.1754H16.7149C16.7075 25.273 16.7027 25.3756 16.7027 25.4757C16.7027 25.7247 16.7246 25.9786 16.7674 26.235H22.4546L22.0957 27.9782H17.4473C18.2945 29.2965 19.7374 30.0949 21.3218 30.0949C21.8589 30.0949 22.3973 29.9972 22.9221 29.8019L23.3408 29.6457V32.0993L23.1113 32.1603C22.5229 32.3189 21.9211 32.3996 21.3218 32.3996C18.4702 32.3996 15.9055 30.632 14.874 27.9782H13.3994V26.235H14.4456C14.4139 25.9664 14.398 25.7174 14.398 25.4757C14.398 25.3756 14.4004 25.273 14.4054 25.1754H13.3995V23.4297H14.7154C15.609 20.5464 18.2921 18.5518 21.3219 18.5518C22.1264 18.5518 22.9174 18.6934 23.673 18.9693L23.9245 19.0621L23.4532 21.3717Z"
        fill="#3F88C9" />
    <path
        d="M37.2054 13.6511C37.3775 12.9834 36.9747 12.3022 36.3057 12.1289L31.8074 10.9741L35.7613 8.81227C36.3667 8.48148 36.5889 7.72094 36.2581 7.11547C35.9272 6.51 35.1667 6.28781 34.5613 6.61984L29.5564 9.35789L32.6204 1.91648C32.6571 1.82617 32.6558 1.72359 32.6143 1.63453C32.574 1.54539 32.4971 1.47703 32.4043 1.44531C32.4043 1.44531 29.9287 0.161094 28.5298 0.161094C25.6355 0.161094 22.823 1.67844 20.2631 1.67844C19.488 1.67844 18.736 1.5393 18.0134 1.17672C16.3131 0.327188 14.8288 0 13.4238 0C11.301 0 7.54119 1.46609 7.54119 1.46609C7.44112 1.49055 7.3569 1.55766 7.31049 1.65039C7.26409 1.74195 7.26041 1.84938 7.29948 1.94461L10.6723 10.1367C10.2572 10.3418 9.96916 10.7641 9.96916 11.2573C9.96916 11.6822 10.1828 12.0569 10.5075 12.2827C8.85838 14.248 4.79221 19.513 3.26018 25.332C1.0519 33.7268 5.97744 40 19.9545 40C33.9303 40 38.8558 33.7268 36.6475 25.332C35.2962 20.2002 31.9735 15.498 30.0765 13.1103L35.6844 14.5508C36.3522 14.7229 37.0333 14.3201 37.2054 13.6511ZM13.4238 3.125C14.4455 3.125 15.4599 3.39477 16.6159 3.97219C17.7181 4.52398 18.945 4.80352 20.2634 4.80352C21.9248 4.80352 23.4726 4.37867 24.9692 3.96852C26.2497 3.61695 27.4581 3.28617 28.5299 3.28617L28.6764 3.28859L25.9103 10.0073H13.9974L11.2972 3.44727C12.0395 3.24586 12.7365 3.125 13.4238 3.125ZM32.7975 32.898C30.82 35.4627 26.2595 36.875 19.9545 36.875C13.6483 36.875 9.08776 35.4627 7.11026 32.898C5.82002 31.2231 5.54041 28.9453 6.2826 26.128C7.99401 19.6241 13.4579 13.6463 13.5104 13.5889L14.5139 12.5073H25.394L26.3974 13.5889C26.4524 13.6488 31.9028 19.5826 33.6252 26.128C34.3673 28.9453 34.0878 31.2231 32.7975 32.898Z"
        fill="#2D527C" />
</svg>