<svg width="40" height="40" viewBox="0 0 40 40" fill="none" xmlns="http://www.w3.org/2000/svg">
    <path
        d="M33.3335 19.9997C33.3374 18.6722 33.1407 17.3517 32.7502 16.083C32.0022 13.6619 30.5797 11.5042 28.6495 9.86243C26.7193 8.22069 24.3612 7.16298 21.8515 6.8132C19.3418 6.46341 16.7844 6.83603 14.4788 7.88742C12.1732 8.9388 10.215 10.6254 8.8335 12.7497"
        stroke="#2D527C" stroke-width="2" stroke-linecap="round" stroke-linejoin="round" />
    <path
        d="M6.66656 20C6.6627 21.3275 6.85936 22.6479 7.24989 23.9167C7.9979 26.3377 9.42032 28.4955 11.3505 30.1372C13.2808 31.779 15.6388 32.8367 18.1486 33.1865C20.6583 33.5363 23.2157 33.1636 25.5213 32.1123C27.8268 31.0609 29.7851 29.3743 31.1666 27.25"
        stroke="#2D527C" stroke-width="2" stroke-linecap="round" stroke-linejoin="round" />
    <path d="M31.6665 18.333L33.3332 19.9997L34.9998 18.333" stroke="#2D527C" stroke-width="2" stroke-linecap="round"
        stroke-linejoin="round" />
    <path d="M8.33333 21.6667L6.66667 20L5 21.6667" stroke="#2D527C" stroke-width="2" stroke-linecap="round"
        stroke-linejoin="round" />
    <path
        d="M16.6665 25H20.8332C21.4962 25 22.1321 24.7366 22.6009 24.2678C23.0698 23.7989 23.3332 23.163 23.3332 22.5C23.3332 21.837 23.0698 21.2011 22.6009 20.7322C22.1321 20.2634 21.4962 20 20.8332 20H19.1665C18.5035 20 17.8676 19.7366 17.3987 19.2678C16.9299 18.7989 16.6665 18.163 16.6665 17.5C16.6665 16.837 16.9299 16.2011 17.3987 15.7322C17.8676 15.2634 18.5035 15 19.1665 15H23.3332"
        stroke="#3F88C9" stroke-width="2" stroke-linecap="round" stroke-linejoin="round" />
    <path d="M20 14.9997V13.333M20 26.6663V24.9997" stroke="#3F88C9" stroke-width="2" stroke-linecap="round"
        stroke-linejoin="round" />
</svg>