<svg width="11" height="9" viewBox="0 0 11 9" fill="none" xmlns="http://www.w3.org/2000/svg">
<path d="M10.4397 2.22712C10.4397 2.11449 10.3949 2.00648 10.3153 1.92684C10.2357 1.8472 10.1276 1.80246 10.015 1.80246H5.55613C5.4435 1.80246 5.33549 1.8472 5.25585 1.92684C5.17621 2.00648 5.13147 2.11449 5.13147 2.22712C5.13147 2.33974 5.17621 2.44775 5.25585 2.52739C5.33549 2.60703 5.4435 2.65177 5.55613 2.65177H10.015C10.1276 2.65177 10.2357 2.60703 10.3153 2.52739C10.3949 2.44775 10.4397 2.33974 10.4397 2.22712Z" fill="#1A1A1A"/>
<path d="M1.09726 2.65177H2.23322C2.33339 2.9351 2.53051 3.1739 2.78972 3.32596C3.04894 3.47802 3.35356 3.53355 3.64976 3.48273C3.94595 3.43191 4.21465 3.27802 4.40835 3.04825C4.60205 2.81848 4.70829 2.52763 4.70829 2.22711C4.70829 1.92659 4.60205 1.63574 4.40835 1.40597C4.21465 1.1762 3.94595 1.02231 3.64976 0.97149C3.35356 0.920671 3.04894 0.976198 2.78972 1.12826C2.53051 1.28032 2.33339 1.51912 2.23322 1.80245H1.09726C0.984638 1.80245 0.876625 1.8472 0.796986 1.92683C0.717348 2.00647 0.672607 2.11448 0.672607 2.22711C0.672607 2.33974 0.717348 2.44775 0.796986 2.52739C0.876625 2.60703 0.984638 2.65177 1.09726 2.65177ZM3.43287 1.80245C3.51686 1.80245 3.59896 1.82736 3.6688 1.87402C3.73863 1.92068 3.79306 1.98701 3.8252 2.0646C3.85734 2.1422 3.86575 2.22758 3.84937 2.30996C3.83298 2.39233 3.79254 2.468 3.73315 2.52739C3.67376 2.58678 3.59809 2.62722 3.51572 2.64361C3.43334 2.65999 3.34796 2.65158 3.27036 2.61944C3.19277 2.5873 3.12644 2.53287 3.07978 2.46304C3.03312 2.3932 3.00821 2.3111 3.00821 2.22711C3.00821 2.11448 3.05296 2.00647 3.13259 1.92683C3.21223 1.8472 3.32025 1.80245 3.43287 1.80245Z" fill="#1A1A1A"/>
<path d="M10.0151 4.35038H8.45445C8.35427 4.06705 8.15716 3.82825 7.89794 3.67619C7.63873 3.52413 7.3341 3.4686 7.03791 3.51942C6.74171 3.57024 6.47302 3.72413 6.27931 3.9539C6.08561 4.18367 5.97937 4.47451 5.97937 4.77504C5.97937 5.07556 6.08561 5.36641 6.27931 5.59618C6.47302 5.82595 6.74171 5.97984 7.03791 6.03066C7.3341 6.08148 7.63873 6.02595 7.89794 5.87389C8.15716 5.72183 8.35427 5.48303 8.45445 5.19969H10.0151C10.1277 5.19969 10.2357 5.15495 10.3153 5.07532C10.395 4.99568 10.4397 4.88766 10.4397 4.77504C10.4397 4.66241 10.395 4.5544 10.3153 4.47476C10.2357 4.39512 10.1277 4.35038 10.0151 4.35038ZM7.25479 5.19969C7.1708 5.19969 7.0887 5.17479 7.01887 5.12813C6.94903 5.08147 6.8946 5.01514 6.86246 4.93755C6.83032 4.85995 6.82191 4.77457 6.8383 4.69219C6.85468 4.60982 6.89513 4.53415 6.95452 4.47476C7.01391 4.41537 7.08957 4.37493 7.17195 4.35854C7.25432 4.34216 7.33971 4.35057 7.4173 4.38271C7.4949 4.41485 7.56122 4.46928 7.60788 4.53911C7.65454 4.60895 7.67945 4.69105 7.67945 4.77504C7.67945 4.88766 7.63471 4.99568 7.55507 5.07532C7.47543 5.15495 7.36742 5.19969 7.25479 5.19969Z" fill="#1A1A1A"/>
<path d="M5.13149 4.35039H1.09726C0.984638 4.35039 0.876625 4.39513 0.796986 4.47477C0.717348 4.5544 0.672607 4.66242 0.672607 4.77504C0.672607 4.88767 0.717348 4.99568 0.796986 5.07532C0.876625 5.15496 0.984638 5.1997 1.09726 5.1997H5.13149C5.24412 5.1997 5.35213 5.15496 5.43177 5.07532C5.51141 4.99568 5.55615 4.88767 5.55615 4.77504C5.55615 4.66242 5.51141 4.5544 5.43177 4.47477C5.35213 4.39513 5.24412 4.35039 5.13149 4.35039Z" fill="#1A1A1A"/>
<path d="M10.0151 6.89833H6.40549C6.29287 6.89833 6.18485 6.94307 6.10521 7.02271C6.02558 7.10235 5.98083 7.21036 5.98083 7.32299C5.98083 7.43561 6.02558 7.54363 6.10521 7.62326C6.18485 7.7029 6.29287 7.74764 6.40549 7.74764H10.0151C10.1277 7.74764 10.2357 7.7029 10.3153 7.62326C10.395 7.54363 10.4397 7.43561 10.4397 7.32299C10.4397 7.21036 10.395 7.10235 10.3153 7.02271C10.2357 6.94307 10.1277 6.89833 10.0151 6.89833Z" fill="#1A1A1A"/>
<path d="M4.28218 6.04901C4.01898 6.04931 3.76233 6.13113 3.54752 6.28321C3.3327 6.43529 3.17026 6.65018 3.08253 6.89832H1.09726C0.984638 6.89832 0.876625 6.94306 0.796986 7.0227C0.717348 7.10234 0.672607 7.21035 0.672607 7.32298C0.672607 7.43561 0.717348 7.54362 0.796986 7.62326C0.876625 7.7029 0.984638 7.74764 1.09726 7.74764H3.08253C3.1604 7.9679 3.29734 8.1625 3.47838 8.31017C3.65941 8.45784 3.87756 8.55289 4.10897 8.58492C4.34039 8.61695 4.57616 8.58473 4.79049 8.49178C5.00483 8.39883 5.18948 8.24874 5.32425 8.05791C5.45902 7.86708 5.53872 7.64287 5.55464 7.40979C5.57056 7.17671 5.52209 6.94375 5.41451 6.73637C5.30694 6.52899 5.14441 6.35518 4.94471 6.23395C4.745 6.11272 4.5158 6.04875 4.28218 6.04901ZM4.28218 7.74764C4.19819 7.74764 4.11609 7.72273 4.04626 7.67607C3.97642 7.62941 3.92199 7.56308 3.88985 7.48549C3.85771 7.40789 3.8493 7.32251 3.86569 7.24013C3.88207 7.15776 3.92252 7.08209 3.98191 7.0227C4.04129 6.96331 4.11696 6.92287 4.19934 6.90648C4.28171 6.8901 4.3671 6.89851 4.44469 6.93065C4.52229 6.96279 4.58861 7.01722 4.63527 7.08705C4.68193 7.15689 4.70684 7.23899 4.70684 7.32298C4.70684 7.43561 4.6621 7.54362 4.58246 7.62326C4.50282 7.7029 4.39481 7.74764 4.28218 7.74764Z" fill="#1A1A1A"/>
</svg>
