<svg width="13" height="9" viewBox="0 0 13 9" fill="none" xmlns="http://www.w3.org/2000/svg">
<path d="M12.8572 0.639766C12.8572 0.286432 12.5707 0 12.2174 0H7.06837C6.71506 0 6.4286 0.286432 6.4286 0.639766C6.4286 0.9931 6.71506 1.27954 7.06837 1.27954H12.2174C12.5707 1.27954 12.8572 0.9931 12.8572 0.639766Z" fill="#1A1A1A"/>
<path d="M12.8572 4.49985C12.8572 4.14647 12.5707 3.86008 12.2174 3.86008H0.639791C0.286476 3.86008 1.90735e-05 4.14647 1.90735e-05 4.49985C1.90735e-05 4.85316 0.286476 5.13956 0.639791 5.13956H12.2174C12.5707 5.13956 12.8572 4.85316 12.8572 4.49985Z" fill="#1A1A1A"/>
<path d="M12.2174 7.72046C12.5707 7.72046 12.8572 8.00692 12.8572 8.36023C12.8572 8.71355 12.5707 9 12.2174 9H4.49694C4.14362 9 3.85717 8.71355 3.85717 8.36023C3.85717 8.00692 4.14362 7.72046 4.49694 7.72046H12.2174Z" fill="#1A1A1A"/>
</svg>
