<svg width="5" height="6" viewBox="0 0 5 6" fill="none" xmlns="http://www.w3.org/2000/svg">
<path d="M3.75459 0.618241C3.5555 0.802973 3.37574 0.997181 3.21647 1.19225C2.95555 0.832837 2.63203 0.468253 2.26562 0.128174C1.32512 1.00082 0.657593 2.13783 0.657593 2.82354C0.657593 4.04153 1.61753 5.02884 2.80164 5.02884C3.98574 5.02884 4.94568 4.04153 4.94568 2.82354C4.94568 2.31366 4.44815 1.26203 3.75459 0.618241ZM3.56823 3.87881C3.36091 4.02392 3.10525 4.10997 2.82901 4.10997C2.13842 4.10997 1.57647 3.65302 1.57647 2.91112C1.57647 2.54156 1.80915 2.21594 2.27319 1.65963C2.33952 1.73601 3.21915 2.85934 3.21915 2.85934L3.78033 2.21919C3.81996 2.28476 3.85605 2.34889 3.88821 2.41034C4.14999 2.90988 4.03953 3.54907 3.56823 3.87881Z" fill="#C1750A"/>
</svg>
