<svg width="35" height="35" viewBox="0 0 35 35" fill="none" xmlns="http://www.w3.org/2000/svg">
    <mask id="mask0_4304_5082" style="mask-type:luminance" maskUnits="userSpaceOnUse" x="0" y="1" width="35"
        height="32">
        <path d="M34.8679 1H0V32.7229H34.8679V1Z" fill="white" />
    </mask>
    <g mask="url(#mask0_4304_5082)">
        <path
            d="M8.01346 29.8648C7.80836 30.6044 7.69377 30.8134 7.48759 31.498C7.42996 31.7284 7.30455 31.9359 7.12757 32.094C6.95061 32.2521 6.73023 32.3534 6.495 32.3848C5.15498 32.5819 3.81344 32.8159 2.45059 32.6228C1.20025 32.4451 0.401719 31.6607 0.339229 30.399C0.232848 28.2505 0.195377 26.0986 0.139999 23.9478C0.123727 23.3169 0.115404 22.6834 0.154921 22.0542C0.235323 20.7765 0.834477 20.0958 2.11023 20.009C3.50809 19.9133 4.915 19.9367 6.31807 19.9349C6.86911 19.9342 7.20998 20.3022 7.45296 20.756C7.57288 20.98 7.65807 21.2221 7.75296 21.4397C8.62605 21.3166 9.47067 21.1613 10.3223 21.0853C11.8801 20.9463 13.4143 21.1126 14.8651 21.7165C16.5541 22.4201 18.2964 22.5701 20.0948 22.3982C20.537 22.3584 20.9824 22.3728 21.4211 22.4411C22.8603 22.6598 23.5522 23.7284 23.1926 25.1292C23.1639 25.2409 23.1209 25.348 23.043 25.5838C23.5482 25.5471 23.9953 25.5301 24.4386 25.4801C26.3386 25.2651 28.1105 24.588 29.8945 23.9542C30.6868 23.6728 31.4711 23.3601 32.2801 23.1386C32.7549 23.0173 33.2459 22.9742 33.7345 23.0105C34.5999 23.0653 35.0032 23.6942 34.7818 24.5261C34.6001 25.2098 34.1824 25.7315 33.6711 26.1942C32.1891 27.5344 30.4532 28.429 28.5818 29.0826C25.9472 30.0023 23.2561 30.6917 20.4799 31.0134C16.7981 31.4619 13.0114 31.4663 9.50336 30.2621C9.00277 30.0888 8.48165 30.0178 8.01346 29.8648ZM8.03929 28.5388C8.88706 28.7624 9.67263 28.9732 10.4595 29.1761C12.92 29.8094 15.4212 30.1694 17.9592 29.9984C21.7468 29.7434 25.3761 28.7661 28.8955 27.3709C30.2509 26.8444 31.503 26.0836 32.5951 25.1236C32.8328 24.888 33.0564 24.6386 33.2645 24.3765L33.1476 24.2007C32.6439 24.3501 32.1341 24.4819 31.6374 24.6519C29.9136 25.2419 28.207 25.8848 26.4699 26.4311C25.0984 26.8621 23.6843 27.039 22.2447 26.7271C22.0403 26.694 21.8307 26.7267 21.6464 26.8205C19.8176 27.749 17.8428 27.9163 15.8451 27.9271C15.3794 27.9053 14.9187 27.8207 14.4757 27.6755C14.4055 27.6605 14.3394 27.6315 14.281 27.5898C14.2226 27.5482 14.1732 27.4953 14.1361 27.434C14.099 27.3728 14.0748 27.3046 14.0649 27.2336C14.0552 27.1628 14.06 27.0903 14.0791 27.0213C14.1489 26.7859 14.3002 26.583 14.5062 26.4492C14.7605 26.3303 15.0373 26.2665 15.3181 26.2619C16.0875 26.2009 16.8591 26.1663 17.6299 26.1236C18.7101 26.063 19.7797 25.9221 20.7684 25.4659C21.1693 25.2834 21.5276 25.0188 21.8203 24.6894C22.1786 24.2721 21.9878 23.8619 21.4374 23.8061C20.9943 23.7748 20.5494 23.7796 20.1072 23.8211C18.2886 23.938 16.5081 23.8128 14.8118 23.0684C14.4899 22.9292 14.1602 22.8088 13.8243 22.708C12.1389 22.1813 10.3378 22.149 8.63465 22.6148C7.97229 22.7926 7.97832 22.8213 8.01346 23.4859C8.06925 24.5601 8.14296 25.634 8.16265 26.7092C8.17344 27.289 8.08771 27.8705 8.0389 28.539L8.03929 28.5388ZM6.0908 21.2547C4.96955 21.2547 3.89863 21.2443 2.82769 21.2578C1.86849 21.2699 1.62934 21.5142 1.60842 22.4717C1.55482 24.9251 1.47482 27.3784 1.47168 29.8317C1.47045 30.8709 1.9865 31.2096 2.72405 31.1544C3.702 31.0813 4.6794 30.9928 5.65325 30.8757C6.16696 30.814 6.25748 30.6546 6.24834 30.1153C6.21819 29.6723 6.21694 29.2278 6.24463 28.7846C6.50442 26.5171 6.3209 24.2542 6.20823 21.9903C6.18173 21.7432 6.14242 21.4977 6.0904 21.2547H6.0908Z"
            fill="#696F8C" />
        <path
            d="M19.8885 9.42349C21.3839 10.4466 21.9376 11.9582 22.1045 13.6811C22.3966 16.6996 20.6054 18.5801 18.5047 19.383C16.7741 20.0451 14.9989 20.3812 13.1573 19.8406C11.0216 19.2136 9.76209 17.5006 9.68334 15.2804C9.58488 12.5064 11.248 9.97874 13.9745 8.86461C15.6345 8.18707 18.8592 8.71943 19.8885 9.42349ZM14.8124 18.5719C15.7165 18.6797 17.3619 18.2913 18.1762 17.9332C19.6785 17.2725 20.7789 16.0563 20.5233 13.8356C20.3099 11.9833 19.3697 10.5723 17.5764 10.2009C16.6405 10.0072 14.8123 9.92022 13.8822 10.3148C11.8514 11.1763 11.0629 13.2137 11.1687 15.4402C11.2724 17.6173 13.466 18.4115 14.8124 18.5722V18.5719Z"
            fill="#3F88C9" />
        <path
            d="M3.82134 24.281C3.21274 24.2883 2.78528 23.8973 2.76353 23.3135C2.73878 22.6442 3.26645 22.0577 3.89653 22.0537C4.62807 22.0496 5.19337 22.4777 5.19814 23.0383C5.2032 23.6435 4.50557 24.2725 3.82134 24.281Z"
            fill="#3F88C9" />
        <path
            d="M16.2113 12.3135V13.9745C16.4534 14.0656 16.6799 14.141 16.8982 14.2351C17.7572 14.6043 17.9685 15.4117 17.4054 16.154C17.1729 16.4598 16.9903 16.5835 16.3062 16.8976C16.2416 17.2258 16.1767 17.5489 16.1147 17.8728C16.0804 18.0533 15.9943 18.193 15.7972 18.1976C15.5894 18.2025 15.5164 18.0335 15.4793 17.8701C15.4099 17.5636 15.3624 17.2523 15.2994 16.9073C15.0479 16.8402 14.774 16.7691 14.5015 16.6933C14.3696 16.6623 14.2403 16.6204 14.1152 16.5682C14.0067 16.5305 13.9159 16.454 13.8602 16.3534C13.8046 16.2529 13.7879 16.1353 13.8135 16.0232C13.8578 15.8057 14.0444 15.6683 14.332 15.6871C14.6452 15.7076 14.9564 15.7608 15.2607 15.7988C15.3877 15.4485 15.4023 15.2399 15.3468 14.6435C15.1349 14.5641 14.9056 14.4939 14.6905 14.3944C13.8175 13.9918 13.6252 13.1199 14.2438 12.3826C14.499 12.0615 14.8354 11.8144 15.2182 11.6669C15.3198 11.6396 15.4086 11.5779 15.4698 11.4925C15.5309 11.407 15.5605 11.3029 15.5536 11.198C15.5558 11.0326 15.5917 10.8693 15.6594 10.7183C15.6885 10.6697 15.729 10.6288 15.7773 10.5991C15.8255 10.5694 15.8802 10.5519 15.9367 10.5479C15.9915 10.5634 16.0417 10.5917 16.0833 10.6305C16.1249 10.6693 16.1567 10.7174 16.1759 10.771C16.2137 10.9641 16.2343 11.1602 16.2374 11.3569C16.4454 11.4042 16.6508 11.4623 16.8527 11.5307C17.1751 11.6576 17.3277 11.9077 17.2885 12.1927C17.2536 12.445 17.1165 12.5303 16.8812 12.4266C16.6754 12.3364 16.4835 12.2021 16.2113 12.3135ZM15.4155 12.6428C14.9735 12.9049 14.7476 13.1837 14.8293 13.3914C14.9268 13.6396 15.1531 13.7021 15.4155 13.7363V12.6428ZM16.2411 15.7556C16.5347 15.6471 16.8038 15.5175 16.7949 15.2201C16.7873 14.9707 16.5125 14.9193 16.2889 14.8856C16.2761 14.8837 16.2616 14.8952 16.2048 14.9164C16.2048 15.0901 16.2017 15.2801 16.2064 15.4701C16.2084 15.5532 16.2259 15.6361 16.2411 15.7556Z"
            fill="#3F88C9" />
        <path
            d="M27.3931 4.74488V6.40597C27.6351 6.49718 27.8614 6.57249 28.0797 6.66576C28.9389 7.03495 29.1501 7.84253 28.587 8.58486C28.3545 8.89049 28.1718 9.01422 27.4878 9.32845C27.4233 9.65661 27.3583 9.84297 27.2964 10.1668C27.262 10.3473 27.1758 10.487 26.9789 10.4917C26.771 10.4965 26.6978 10.3276 26.661 10.1642C26.5914 9.85778 26.5441 9.68316 26.481 9.33818C26.2295 9.27091 25.9558 9.1999 25.6831 9.12416C25.5512 9.09301 25.422 9.05113 25.2968 8.99893C25.1883 8.96113 25.0974 8.88463 25.0418 8.78407C24.9862 8.68351 24.9695 8.56593 24.9951 8.45388C25.0393 8.23659 25.2262 8.09918 25.5135 8.11791C25.827 8.13828 26.1381 8.19159 26.4424 8.22961C26.5693 7.8793 26.5839 7.67063 26.5285 7.07432C26.3166 6.99474 26.0872 6.92474 25.8716 6.8252C24.9985 6.42263 24.8064 5.55068 25.4247 4.81338C25.6801 4.49232 26.0166 4.24524 26.3993 4.0977C26.5008 4.07034 26.5897 4.00868 26.6508 3.9232C26.7118 3.83772 26.7416 3.7337 26.7347 3.62882C26.7366 3.46336 26.7726 3.30013 26.8403 3.14918C26.8695 3.10053 26.9099 3.05959 26.9583 3.02991C27.0066 3.0002 27.0612 2.98258 27.1178 2.97852C27.1726 2.99405 27.2226 3.02241 27.2643 3.06124C27.306 3.10007 27.3376 3.14828 27.3568 3.20182C27.3945 3.39493 27.4153 3.59099 27.4185 3.78772C27.6266 3.83497 27.8318 3.89299 28.0339 3.96151C28.3562 4.08828 28.5089 4.33838 28.4695 4.62334C28.4347 4.87576 28.2974 4.96093 28.0622 4.85728C27.857 4.76759 27.6651 4.63345 27.3931 4.74488ZM26.5972 5.07415C26.1551 5.3364 25.9293 5.61522 26.0108 5.82293C26.1083 6.07097 26.3347 6.13359 26.5972 6.16778V5.07415ZM27.4226 8.18711C27.7162 8.07868 27.9853 7.94893 27.9764 7.65151C27.9691 7.40211 27.6941 7.35068 27.4706 7.31718C27.4576 7.31526 27.4431 7.32674 27.3864 7.34793C27.3864 7.52159 27.3833 7.71168 27.3878 7.90147C27.3899 7.98474 27.4076 8.06761 27.4226 8.18711Z"
            fill="#3F88C9" />
        <path
            d="M30.9231 1.87543C32.4185 2.8985 32.9722 4.41016 33.1391 6.13304C33.4312 9.15151 31.6399 11.0321 29.5393 11.835C27.8087 12.4969 26.0337 12.8331 24.192 12.2925C22.0562 11.6655 20.7969 9.95237 20.718 7.73216C20.6196 4.95818 22.2827 2.43073 25.0091 1.31646C26.6691 0.639344 29.8937 1.17178 30.9231 1.87543ZM25.8472 11.0238C26.7514 11.1317 28.3964 10.7432 29.211 10.3853C30.7133 9.72456 31.8135 8.50829 31.5579 6.28754C31.3445 4.43543 30.4045 3.02429 28.6112 2.65305C27.6752 2.4593 25.8472 2.37233 24.917 2.76695C22.8862 3.62839 22.0977 5.66581 22.2035 7.89216C22.3068 10.0696 24.5008 10.8637 25.8472 11.0244V11.0238Z"
            fill="#3F88C9" />
    </g>
</svg>