<svg width="35" height="35" viewBox="0 0 35 35" fill="none" xmlns="http://www.w3.org/2000/svg">
    <g clip-path="url(#clip0_4433_26429)">
        <path d="M5.46875 24.6094H9.84375V27.3438H5.46875V24.6094Z" fill="#3F88C9" />
        <path
            d="M32.2656 8.74984H29.0938C29.4238 8.05421 29.5737 7.28679 29.5297 6.51809C29.4857 5.7494 29.2491 5.0041 28.8419 4.35069C28.4346 3.69729 27.8696 3.15673 27.1988 2.77871C26.528 2.4007 25.773 2.19734 25.0031 2.18734C22.7344 2.13192 20.5241 2.9102 18.7906 4.37484C18.2982 4.80489 17.8643 5.29763 17.5 5.84046C17.1357 5.29763 16.7018 4.80489 16.2094 4.37484C14.4759 2.9102 12.2656 2.13192 9.99688 2.18734C9.22699 2.19734 8.47196 2.4007 7.8012 2.77871C7.13043 3.15673 6.56544 3.69729 6.15815 4.35069C5.75086 5.0041 5.51433 5.7494 5.47032 6.51809C5.4263 7.28679 5.57621 8.05421 5.90625 8.74984H2.73438C2.00917 8.74984 1.31367 9.03792 0.80088 9.55072C0.288085 10.0635 0 10.759 0 11.4842L0 30.078C0 30.8032 0.288085 31.4987 0.80088 32.0115C1.31367 32.5243 2.00917 32.8123 2.73438 32.8123H32.2656C32.9908 32.8123 33.6863 32.5243 34.1991 32.0115C34.7119 31.4987 35 30.8032 35 30.078V11.4842C35 10.759 34.7119 10.0635 34.1991 9.55072C33.6863 9.03792 32.9908 8.74984 32.2656 8.74984ZM20.6063 6.43109C21.8329 5.41337 23.388 4.87685 24.9813 4.92171C25.4744 4.92171 25.9473 5.11761 26.296 5.46631C26.6447 5.81501 26.8406 6.28795 26.8406 6.78109C26.8406 7.27423 26.6447 7.74717 26.296 8.09587C25.9473 8.44457 25.4744 8.64046 24.9813 8.64046H19.1187C19.409 7.78471 19.9226 7.02198 20.6063 6.43109ZM9.99688 4.92171C11.5901 4.87685 13.1452 5.41337 14.3719 6.43109C15.0524 7.01594 15.5656 7.77075 15.8594 8.61859H9.99688C9.50374 8.61859 9.0308 8.42269 8.6821 8.07399C8.3334 7.72529 8.1375 7.25235 8.1375 6.75921C8.1375 6.26608 8.3334 5.79314 8.6821 5.44444C9.0308 5.09574 9.50374 4.89984 9.99688 4.89984V4.92171ZM2.73438 11.4842H32.2656V14.2186H2.73438V11.4842ZM2.73438 30.078V19.6873H32.2656V30.078H2.73438Z"
            fill="#3F88C9" />
    </g>
    <defs>
        <clipPath id="clip0_4433_26429">
            <rect width="35" height="35" fill="white" />
        </clipPath>
    </defs>
</svg>