<svg width="333" height="256" viewBox="0 0 333 256" fill="none" xmlns="http://www.w3.org/2000/svg">
<path d="M302.71 207.14C302.374 207.14 302.074 207.056 301.81 206.888C301.546 206.716 301.338 206.468 301.186 206.144C301.034 205.816 300.958 205.428 300.958 204.98C300.958 204.532 301.034 204.146 301.186 203.822C301.338 203.494 301.546 203.246 301.81 203.078C302.074 202.906 302.374 202.82 302.71 202.82C303.046 202.82 303.346 202.906 303.61 203.078C303.878 203.246 304.088 203.494 304.24 203.822C304.392 204.146 304.468 204.532 304.468 204.98C304.468 205.428 304.392 205.816 304.24 206.144C304.088 206.468 303.878 206.716 303.61 206.888C303.346 207.056 303.046 207.14 302.71 207.14ZM302.71 206.462C303.01 206.462 303.246 206.338 303.418 206.09C303.594 205.842 303.682 205.472 303.682 204.98C303.682 204.488 303.594 204.118 303.418 203.87C303.246 203.622 303.01 203.498 302.71 203.498C302.414 203.498 302.178 203.622 302.002 203.87C301.83 204.118 301.744 204.488 301.744 204.98C301.744 205.472 301.83 205.842 302.002 206.09C302.178 206.338 302.414 206.462 302.71 206.462ZM305.393 207.122C305.257 207.122 305.141 207.076 305.045 206.984C304.949 206.888 304.901 206.768 304.901 206.624C304.901 206.476 304.947 206.356 305.039 206.264C305.135 206.172 305.253 206.126 305.393 206.126C305.533 206.126 305.649 206.172 305.741 206.264C305.837 206.356 305.885 206.476 305.885 206.624C305.885 206.768 305.837 206.888 305.741 206.984C305.645 207.076 305.529 207.122 305.393 207.122ZM307.704 204.506C308.296 204.506 308.734 204.622 309.018 204.854C309.302 205.082 309.444 205.394 309.444 205.79C309.444 206.042 309.382 206.27 309.258 206.474C309.134 206.678 308.948 206.84 308.7 206.96C308.452 207.08 308.146 207.14 307.782 207.14C307.482 207.14 307.192 207.098 306.912 207.014C306.632 206.926 306.396 206.806 306.204 206.654L306.534 206.048C306.69 206.176 306.876 206.278 307.092 206.354C307.312 206.426 307.538 206.462 307.77 206.462C308.046 206.462 308.262 206.406 308.418 206.294C308.578 206.178 308.658 206.02 308.658 205.82C308.658 205.604 308.572 205.442 308.4 205.334C308.232 205.222 307.942 205.166 307.53 205.166H306.516L306.732 202.88H309.198V203.534H307.392L307.302 204.506H307.704ZM311.802 204.488C312.078 204.488 312.326 204.542 312.546 204.65C312.766 204.754 312.938 204.904 313.062 205.1C313.186 205.296 313.248 205.522 313.248 205.778C313.248 206.05 313.18 206.29 313.044 206.498C312.908 206.702 312.724 206.86 312.492 206.972C312.26 207.084 312 207.14 311.712 207.14C311.136 207.14 310.688 206.96 310.368 206.6C310.052 206.24 309.894 205.724 309.894 205.052C309.894 204.58 309.98 204.178 310.152 203.846C310.324 203.51 310.564 203.256 310.872 203.084C311.184 202.908 311.544 202.82 311.952 202.82C312.168 202.82 312.37 202.844 312.558 202.892C312.75 202.936 312.916 203.002 313.056 203.09L312.768 203.678C312.56 203.542 312.294 203.474 311.97 203.474C311.566 203.474 311.25 203.598 311.022 203.846C310.794 204.094 310.68 204.452 310.68 204.92V204.926C310.804 204.782 310.962 204.674 311.154 204.602C311.346 204.526 311.562 204.488 311.802 204.488ZM311.67 206.528C311.914 206.528 312.112 206.464 312.264 206.336C312.416 206.204 312.492 206.03 312.492 205.814C312.492 205.594 312.416 205.42 312.264 205.292C312.112 205.164 311.908 205.1 311.652 205.1C311.4 205.1 311.194 205.168 311.034 205.304C310.878 205.44 310.8 205.612 310.8 205.82C310.8 206.024 310.876 206.194 311.028 206.33C311.184 206.462 311.398 206.528 311.67 206.528Z" fill="#1C1C1C" fill-opacity="0.54"/>
<path d="M260.612 242.407V243.067H257.516V242.545L259.184 240.961C259.372 240.781 259.498 240.625 259.562 240.493C259.63 240.357 259.664 240.223 259.664 240.091C259.664 239.895 259.598 239.745 259.466 239.641C259.334 239.537 259.14 239.485 258.884 239.485C258.456 239.485 258.128 239.631 257.9 239.923L257.354 239.503C257.518 239.283 257.738 239.113 258.014 238.993C258.294 238.869 258.606 238.807 258.95 238.807C259.406 238.807 259.77 238.915 260.042 239.131C260.314 239.347 260.45 239.641 260.45 240.013C260.45 240.241 260.402 240.455 260.306 240.655C260.21 240.855 260.026 241.083 259.754 241.339L258.632 242.407H260.612ZM262.515 238.867V243.067H261.735V239.521H260.847V238.867H262.515ZM263.816 240.823C263.68 240.823 263.564 240.777 263.468 240.685C263.372 240.589 263.324 240.469 263.324 240.325C263.324 240.177 263.37 240.057 263.462 239.965C263.558 239.873 263.676 239.827 263.816 239.827C263.956 239.827 264.072 239.873 264.164 239.965C264.26 240.057 264.308 240.177 264.308 240.325C264.308 240.469 264.26 240.589 264.164 240.685C264.068 240.777 263.952 240.823 263.816 240.823ZM263.816 243.109C263.68 243.109 263.564 243.063 263.468 242.971C263.372 242.875 263.324 242.755 263.324 242.611C263.324 242.463 263.37 242.343 263.462 242.251C263.558 242.159 263.676 242.113 263.816 242.113C263.956 242.113 264.072 242.159 264.164 242.251C264.26 242.343 264.308 242.463 264.308 242.611C264.308 242.755 264.26 242.875 264.164 242.971C264.068 243.063 263.952 243.109 263.816 243.109ZM266.565 243.127C266.229 243.127 265.929 243.043 265.665 242.875C265.401 242.703 265.193 242.455 265.041 242.131C264.889 241.803 264.813 241.415 264.813 240.967C264.813 240.519 264.889 240.133 265.041 239.809C265.193 239.481 265.401 239.233 265.665 239.065C265.929 238.893 266.229 238.807 266.565 238.807C266.901 238.807 267.201 238.893 267.465 239.065C267.733 239.233 267.943 239.481 268.095 239.809C268.247 240.133 268.323 240.519 268.323 240.967C268.323 241.415 268.247 241.803 268.095 242.131C267.943 242.455 267.733 242.703 267.465 242.875C267.201 243.043 266.901 243.127 266.565 243.127ZM266.565 242.449C266.865 242.449 267.101 242.325 267.273 242.077C267.449 241.829 267.537 241.459 267.537 240.967C267.537 240.475 267.449 240.105 267.273 239.857C267.101 239.609 266.865 239.485 266.565 239.485C266.269 239.485 266.033 239.609 265.857 239.857C265.685 240.105 265.599 240.475 265.599 240.967C265.599 241.459 265.685 241.829 265.857 242.077C266.033 242.325 266.269 242.449 266.565 242.449ZM270.602 243.127C270.266 243.127 269.966 243.043 269.702 242.875C269.438 242.703 269.23 242.455 269.078 242.131C268.926 241.803 268.85 241.415 268.85 240.967C268.85 240.519 268.926 240.133 269.078 239.809C269.23 239.481 269.438 239.233 269.702 239.065C269.966 238.893 270.266 238.807 270.602 238.807C270.938 238.807 271.238 238.893 271.502 239.065C271.77 239.233 271.98 239.481 272.132 239.809C272.284 240.133 272.36 240.519 272.36 240.967C272.36 241.415 272.284 241.803 272.132 242.131C271.98 242.455 271.77 242.703 271.502 242.875C271.238 243.043 270.938 243.127 270.602 243.127ZM270.602 242.449C270.902 242.449 271.138 242.325 271.31 242.077C271.486 241.829 271.574 241.459 271.574 240.967C271.574 240.475 271.486 240.105 271.31 239.857C271.138 239.609 270.902 239.485 270.602 239.485C270.306 239.485 270.07 239.609 269.894 239.857C269.722 240.105 269.636 240.475 269.636 240.967C269.636 241.459 269.722 241.829 269.894 242.077C270.07 242.325 270.306 242.449 270.602 242.449Z" fill="#1C1C1C" fill-opacity="0.54"/>
<path d="M223.663 238.867V243.067H222.883V239.521H221.995V238.867H223.663ZM227.22 240.859C227.44 240.959 227.608 241.095 227.724 241.267C227.844 241.435 227.904 241.633 227.904 241.861C227.904 242.117 227.832 242.341 227.688 242.533C227.548 242.725 227.348 242.873 227.088 242.977C226.828 243.077 226.526 243.127 226.182 243.127C225.838 243.127 225.536 243.077 225.276 242.977C225.02 242.873 224.822 242.725 224.682 242.533C224.542 242.341 224.472 242.117 224.472 241.861C224.472 241.633 224.53 241.435 224.646 241.267C224.762 241.095 224.928 240.959 225.144 240.859C224.976 240.767 224.846 240.647 224.754 240.499C224.666 240.347 224.622 240.173 224.622 239.977C224.622 239.741 224.686 239.535 224.814 239.359C224.946 239.183 225.13 239.047 225.366 238.951C225.602 238.855 225.874 238.807 226.182 238.807C226.494 238.807 226.768 238.855 227.004 238.951C227.24 239.047 227.424 239.183 227.556 239.359C227.688 239.535 227.754 239.741 227.754 239.977C227.754 240.173 227.708 240.345 227.616 240.493C227.524 240.641 227.392 240.763 227.22 240.859ZM226.182 239.419C225.938 239.419 225.744 239.471 225.6 239.575C225.46 239.679 225.39 239.825 225.39 240.013C225.39 240.193 225.46 240.337 225.6 240.445C225.744 240.549 225.938 240.601 226.182 240.601C226.43 240.601 226.626 240.549 226.77 240.445C226.914 240.337 226.986 240.193 226.986 240.013C226.986 239.825 226.912 239.679 226.764 239.575C226.62 239.471 226.426 239.419 226.182 239.419ZM226.182 242.515C226.47 242.515 226.698 242.455 226.866 242.335C227.034 242.215 227.118 242.049 227.118 241.837C227.118 241.629 227.034 241.465 226.866 241.345C226.698 241.225 226.47 241.165 226.182 241.165C225.894 241.165 225.668 241.225 225.504 241.345C225.34 241.465 225.258 241.629 225.258 241.837C225.258 242.049 225.34 242.215 225.504 242.335C225.668 242.455 225.894 242.515 226.182 242.515ZM228.878 240.823C228.742 240.823 228.626 240.777 228.53 240.685C228.434 240.589 228.386 240.469 228.386 240.325C228.386 240.177 228.432 240.057 228.524 239.965C228.62 239.873 228.738 239.827 228.878 239.827C229.018 239.827 229.134 239.873 229.226 239.965C229.322 240.057 229.37 240.177 229.37 240.325C229.37 240.469 229.322 240.589 229.226 240.685C229.13 240.777 229.014 240.823 228.878 240.823ZM228.878 243.109C228.742 243.109 228.626 243.063 228.53 242.971C228.434 242.875 228.386 242.755 228.386 242.611C228.386 242.463 228.432 242.343 228.524 242.251C228.62 242.159 228.738 242.113 228.878 242.113C229.018 242.113 229.134 242.159 229.226 242.251C229.322 242.343 229.37 242.463 229.37 242.611C229.37 242.755 229.322 242.875 229.226 242.971C229.13 243.063 229.014 243.109 228.878 243.109ZM231.627 243.127C231.291 243.127 230.991 243.043 230.727 242.875C230.463 242.703 230.255 242.455 230.103 242.131C229.951 241.803 229.875 241.415 229.875 240.967C229.875 240.519 229.951 240.133 230.103 239.809C230.255 239.481 230.463 239.233 230.727 239.065C230.991 238.893 231.291 238.807 231.627 238.807C231.963 238.807 232.263 238.893 232.527 239.065C232.795 239.233 233.005 239.481 233.157 239.809C233.309 240.133 233.385 240.519 233.385 240.967C233.385 241.415 233.309 241.803 233.157 242.131C233.005 242.455 232.795 242.703 232.527 242.875C232.263 243.043 231.963 243.127 231.627 243.127ZM231.627 242.449C231.927 242.449 232.163 242.325 232.335 242.077C232.511 241.829 232.599 241.459 232.599 240.967C232.599 240.475 232.511 240.105 232.335 239.857C232.163 239.609 231.927 239.485 231.627 239.485C231.331 239.485 231.095 239.609 230.919 239.857C230.747 240.105 230.661 240.475 230.661 240.967C230.661 241.459 230.747 241.829 230.919 242.077C231.095 242.325 231.331 242.449 231.627 242.449ZM235.664 243.127C235.328 243.127 235.028 243.043 234.764 242.875C234.5 242.703 234.292 242.455 234.14 242.131C233.988 241.803 233.912 241.415 233.912 240.967C233.912 240.519 233.988 240.133 234.14 239.809C234.292 239.481 234.5 239.233 234.764 239.065C235.028 238.893 235.328 238.807 235.664 238.807C236 238.807 236.3 238.893 236.564 239.065C236.832 239.233 237.042 239.481 237.194 239.809C237.346 240.133 237.422 240.519 237.422 240.967C237.422 241.415 237.346 241.803 237.194 242.131C237.042 242.455 236.832 242.703 236.564 242.875C236.3 243.043 236 243.127 235.664 243.127ZM235.664 242.449C235.964 242.449 236.2 242.325 236.372 242.077C236.548 241.829 236.636 241.459 236.636 240.967C236.636 240.475 236.548 240.105 236.372 239.857C236.2 239.609 235.964 239.485 235.664 239.485C235.368 239.485 235.132 239.609 234.956 239.857C234.784 240.105 234.698 240.475 234.698 240.967C234.698 241.459 234.784 241.829 234.956 242.077C235.132 242.325 235.368 242.449 235.664 242.449Z" fill="#1C1C1C" fill-opacity="0.54"/>
<path d="M188.304 238.867V243.067H187.524V239.521H186.636V238.867H188.304ZM190.451 240.493C191.043 240.493 191.481 240.609 191.765 240.841C192.049 241.069 192.191 241.381 192.191 241.777C192.191 242.029 192.129 242.257 192.005 242.461C191.881 242.665 191.695 242.827 191.447 242.947C191.199 243.067 190.893 243.127 190.529 243.127C190.229 243.127 189.939 243.085 189.659 243.001C189.379 242.913 189.143 242.793 188.951 242.641L189.281 242.035C189.437 242.163 189.623 242.265 189.839 242.341C190.059 242.413 190.285 242.449 190.517 242.449C190.793 242.449 191.009 242.393 191.165 242.281C191.325 242.165 191.405 242.007 191.405 241.807C191.405 241.591 191.319 241.429 191.147 241.321C190.979 241.209 190.689 241.153 190.277 241.153H189.263L189.479 238.867H191.945V239.521H190.139L190.049 240.493H190.451ZM193.109 240.823C192.973 240.823 192.857 240.777 192.761 240.685C192.665 240.589 192.617 240.469 192.617 240.325C192.617 240.177 192.663 240.057 192.755 239.965C192.851 239.873 192.969 239.827 193.109 239.827C193.249 239.827 193.365 239.873 193.457 239.965C193.553 240.057 193.601 240.177 193.601 240.325C193.601 240.469 193.553 240.589 193.457 240.685C193.361 240.777 193.245 240.823 193.109 240.823ZM193.109 243.109C192.973 243.109 192.857 243.063 192.761 242.971C192.665 242.875 192.617 242.755 192.617 242.611C192.617 242.463 192.663 242.343 192.755 242.251C192.851 242.159 192.969 242.113 193.109 242.113C193.249 242.113 193.365 242.159 193.457 242.251C193.553 242.343 193.601 242.463 193.601 242.611C193.601 242.755 193.553 242.875 193.457 242.971C193.361 243.063 193.245 243.109 193.109 243.109ZM195.858 243.127C195.522 243.127 195.222 243.043 194.958 242.875C194.694 242.703 194.486 242.455 194.334 242.131C194.182 241.803 194.106 241.415 194.106 240.967C194.106 240.519 194.182 240.133 194.334 239.809C194.486 239.481 194.694 239.233 194.958 239.065C195.222 238.893 195.522 238.807 195.858 238.807C196.194 238.807 196.494 238.893 196.758 239.065C197.026 239.233 197.236 239.481 197.388 239.809C197.54 240.133 197.616 240.519 197.616 240.967C197.616 241.415 197.54 241.803 197.388 242.131C197.236 242.455 197.026 242.703 196.758 242.875C196.494 243.043 196.194 243.127 195.858 243.127ZM195.858 242.449C196.158 242.449 196.394 242.325 196.566 242.077C196.742 241.829 196.83 241.459 196.83 240.967C196.83 240.475 196.742 240.105 196.566 239.857C196.394 239.609 196.158 239.485 195.858 239.485C195.562 239.485 195.326 239.609 195.15 239.857C194.978 240.105 194.892 240.475 194.892 240.967C194.892 241.459 194.978 241.829 195.15 242.077C195.326 242.325 195.562 242.449 195.858 242.449ZM199.895 243.127C199.559 243.127 199.259 243.043 198.995 242.875C198.731 242.703 198.523 242.455 198.371 242.131C198.219 241.803 198.143 241.415 198.143 240.967C198.143 240.519 198.219 240.133 198.371 239.809C198.523 239.481 198.731 239.233 198.995 239.065C199.259 238.893 199.559 238.807 199.895 238.807C200.231 238.807 200.531 238.893 200.795 239.065C201.063 239.233 201.273 239.481 201.425 239.809C201.577 240.133 201.653 240.519 201.653 240.967C201.653 241.415 201.577 241.803 201.425 242.131C201.273 242.455 201.063 242.703 200.795 242.875C200.531 243.043 200.231 243.127 199.895 243.127ZM199.895 242.449C200.195 242.449 200.431 242.325 200.603 242.077C200.779 241.829 200.867 241.459 200.867 240.967C200.867 240.475 200.779 240.105 200.603 239.857C200.431 239.609 200.195 239.485 199.895 239.485C199.599 239.485 199.363 239.609 199.187 239.857C199.015 240.105 198.929 240.475 198.929 240.967C198.929 241.459 199.015 241.829 199.187 242.077C199.363 242.325 199.599 242.449 199.895 242.449Z" fill="#1C1C1C" fill-opacity="0.54"/>
<path d="M152.945 238.867V243.067H152.165V239.521H151.277V238.867H152.945ZM156.82 242.407V243.067H153.724V242.545L155.392 240.961C155.58 240.781 155.706 240.625 155.77 240.493C155.838 240.357 155.872 240.223 155.872 240.091C155.872 239.895 155.806 239.745 155.674 239.641C155.542 239.537 155.348 239.485 155.092 239.485C154.664 239.485 154.336 239.631 154.108 239.923L153.562 239.503C153.726 239.283 153.946 239.113 154.222 238.993C154.502 238.869 154.814 238.807 155.158 238.807C155.614 238.807 155.978 238.915 156.25 239.131C156.522 239.347 156.658 239.641 156.658 240.013C156.658 240.241 156.61 240.455 156.514 240.655C156.418 240.855 156.234 241.083 155.962 241.339L154.84 242.407H156.82ZM157.739 240.823C157.603 240.823 157.487 240.777 157.391 240.685C157.295 240.589 157.247 240.469 157.247 240.325C157.247 240.177 157.293 240.057 157.385 239.965C157.481 239.873 157.599 239.827 157.739 239.827C157.879 239.827 157.995 239.873 158.087 239.965C158.183 240.057 158.231 240.177 158.231 240.325C158.231 240.469 158.183 240.589 158.087 240.685C157.991 240.777 157.875 240.823 157.739 240.823ZM157.739 243.109C157.603 243.109 157.487 243.063 157.391 242.971C157.295 242.875 157.247 242.755 157.247 242.611C157.247 242.463 157.293 242.343 157.385 242.251C157.481 242.159 157.599 242.113 157.739 242.113C157.879 242.113 157.995 242.159 158.087 242.251C158.183 242.343 158.231 242.463 158.231 242.611C158.231 242.755 158.183 242.875 158.087 242.971C157.991 243.063 157.875 243.109 157.739 243.109ZM160.487 243.127C160.151 243.127 159.851 243.043 159.587 242.875C159.323 242.703 159.115 242.455 158.963 242.131C158.811 241.803 158.735 241.415 158.735 240.967C158.735 240.519 158.811 240.133 158.963 239.809C159.115 239.481 159.323 239.233 159.587 239.065C159.851 238.893 160.151 238.807 160.487 238.807C160.823 238.807 161.123 238.893 161.387 239.065C161.655 239.233 161.865 239.481 162.017 239.809C162.169 240.133 162.245 240.519 162.245 240.967C162.245 241.415 162.169 241.803 162.017 242.131C161.865 242.455 161.655 242.703 161.387 242.875C161.123 243.043 160.823 243.127 160.487 243.127ZM160.487 242.449C160.787 242.449 161.023 242.325 161.195 242.077C161.371 241.829 161.459 241.459 161.459 240.967C161.459 240.475 161.371 240.105 161.195 239.857C161.023 239.609 160.787 239.485 160.487 239.485C160.191 239.485 159.955 239.609 159.779 239.857C159.607 240.105 159.521 240.475 159.521 240.967C159.521 241.459 159.607 241.829 159.779 242.077C159.955 242.325 160.191 242.449 160.487 242.449ZM164.525 243.127C164.189 243.127 163.889 243.043 163.625 242.875C163.361 242.703 163.153 242.455 163.001 242.131C162.849 241.803 162.773 241.415 162.773 240.967C162.773 240.519 162.849 240.133 163.001 239.809C163.153 239.481 163.361 239.233 163.625 239.065C163.889 238.893 164.189 238.807 164.525 238.807C164.861 238.807 165.161 238.893 165.425 239.065C165.693 239.233 165.903 239.481 166.055 239.809C166.207 240.133 166.283 240.519 166.283 240.967C166.283 241.415 166.207 241.803 166.055 242.131C165.903 242.455 165.693 242.703 165.425 242.875C165.161 243.043 164.861 243.127 164.525 243.127ZM164.525 242.449C164.825 242.449 165.061 242.325 165.233 242.077C165.409 241.829 165.497 241.459 165.497 240.967C165.497 240.475 165.409 240.105 165.233 239.857C165.061 239.609 164.825 239.485 164.525 239.485C164.229 239.485 163.993 239.609 163.817 239.857C163.645 240.105 163.559 240.475 163.559 240.967C163.559 241.459 163.645 241.829 163.817 242.077C163.993 242.325 164.229 242.449 164.525 242.449Z" fill="#1C1C1C" fill-opacity="0.54"/>
<path d="M115.886 243.127C115.55 243.127 115.25 243.043 114.986 242.875C114.722 242.703 114.514 242.455 114.362 242.131C114.21 241.803 114.134 241.415 114.134 240.967C114.134 240.519 114.21 240.133 114.362 239.809C114.514 239.481 114.722 239.233 114.986 239.065C115.25 238.893 115.55 238.807 115.886 238.807C116.222 238.807 116.522 238.893 116.786 239.065C117.054 239.233 117.264 239.481 117.416 239.809C117.568 240.133 117.644 240.519 117.644 240.967C117.644 241.415 117.568 241.803 117.416 242.131C117.264 242.455 117.054 242.703 116.786 242.875C116.522 243.043 116.222 243.127 115.886 243.127ZM115.886 242.449C116.186 242.449 116.422 242.325 116.594 242.077C116.77 241.829 116.858 241.459 116.858 240.967C116.858 240.475 116.77 240.105 116.594 239.857C116.422 239.609 116.186 239.485 115.886 239.485C115.59 239.485 115.354 239.609 115.178 239.857C115.006 240.105 114.92 240.475 114.92 240.967C114.92 241.459 115.006 241.829 115.178 242.077C115.354 242.325 115.59 242.449 115.886 242.449ZM119.587 238.807C120.163 238.807 120.609 238.987 120.925 239.347C121.245 239.707 121.405 240.223 121.405 240.895C121.405 241.367 121.319 241.771 121.147 242.107C120.975 242.439 120.733 242.693 120.421 242.869C120.113 243.041 119.755 243.127 119.347 243.127C119.131 243.127 118.927 243.105 118.735 243.061C118.547 243.013 118.383 242.945 118.243 242.857L118.531 242.269C118.739 242.405 119.005 242.473 119.329 242.473C119.733 242.473 120.049 242.349 120.277 242.101C120.505 241.853 120.619 241.495 120.619 241.027V241.021C120.495 241.165 120.337 241.275 120.145 241.351C119.953 241.423 119.737 241.459 119.497 241.459C119.221 241.459 118.973 241.407 118.753 241.303C118.533 241.195 118.361 241.043 118.237 240.847C118.113 240.651 118.051 240.425 118.051 240.169C118.051 239.897 118.119 239.659 118.255 239.455C118.391 239.247 118.575 239.087 118.807 238.975C119.039 238.863 119.299 238.807 119.587 238.807ZM119.647 240.847C119.899 240.847 120.103 240.779 120.259 240.643C120.419 240.507 120.499 240.335 120.499 240.127C120.499 239.923 120.421 239.755 120.265 239.623C120.113 239.487 119.901 239.419 119.629 239.419C119.385 239.419 119.187 239.485 119.035 239.617C118.883 239.745 118.807 239.917 118.807 240.133C118.807 240.353 118.883 240.527 119.035 240.655C119.187 240.783 119.391 240.847 119.647 240.847ZM122.401 240.823C122.265 240.823 122.149 240.777 122.053 240.685C121.957 240.589 121.909 240.469 121.909 240.325C121.909 240.177 121.955 240.057 122.047 239.965C122.143 239.873 122.261 239.827 122.401 239.827C122.541 239.827 122.657 239.873 122.749 239.965C122.845 240.057 122.893 240.177 122.893 240.325C122.893 240.469 122.845 240.589 122.749 240.685C122.653 240.777 122.537 240.823 122.401 240.823ZM122.401 243.109C122.265 243.109 122.149 243.063 122.053 242.971C121.957 242.875 121.909 242.755 121.909 242.611C121.909 242.463 121.955 242.343 122.047 242.251C122.143 242.159 122.261 242.113 122.401 242.113C122.541 242.113 122.657 242.159 122.749 242.251C122.845 242.343 122.893 242.463 122.893 242.611C122.893 242.755 122.845 242.875 122.749 242.971C122.653 243.063 122.537 243.109 122.401 243.109ZM125.15 243.127C124.814 243.127 124.514 243.043 124.25 242.875C123.986 242.703 123.778 242.455 123.626 242.131C123.474 241.803 123.398 241.415 123.398 240.967C123.398 240.519 123.474 240.133 123.626 239.809C123.778 239.481 123.986 239.233 124.25 239.065C124.514 238.893 124.814 238.807 125.15 238.807C125.486 238.807 125.786 238.893 126.05 239.065C126.318 239.233 126.528 239.481 126.68 239.809C126.832 240.133 126.908 240.519 126.908 240.967C126.908 241.415 126.832 241.803 126.68 242.131C126.528 242.455 126.318 242.703 126.05 242.875C125.786 243.043 125.486 243.127 125.15 243.127ZM125.15 242.449C125.45 242.449 125.686 242.325 125.858 242.077C126.034 241.829 126.122 241.459 126.122 240.967C126.122 240.475 126.034 240.105 125.858 239.857C125.686 239.609 125.45 239.485 125.15 239.485C124.854 239.485 124.618 239.609 124.442 239.857C124.27 240.105 124.184 240.475 124.184 240.967C124.184 241.459 124.27 241.829 124.442 242.077C124.618 242.325 124.854 242.449 125.15 242.449ZM129.187 243.127C128.851 243.127 128.551 243.043 128.287 242.875C128.023 242.703 127.815 242.455 127.663 242.131C127.511 241.803 127.435 241.415 127.435 240.967C127.435 240.519 127.511 240.133 127.663 239.809C127.815 239.481 128.023 239.233 128.287 239.065C128.551 238.893 128.851 238.807 129.187 238.807C129.523 238.807 129.823 238.893 130.087 239.065C130.355 239.233 130.565 239.481 130.717 239.809C130.869 240.133 130.945 240.519 130.945 240.967C130.945 241.415 130.869 241.803 130.717 242.131C130.565 242.455 130.355 242.703 130.087 242.875C129.823 243.043 129.523 243.127 129.187 243.127ZM129.187 242.449C129.487 242.449 129.723 242.325 129.895 242.077C130.071 241.829 130.159 241.459 130.159 240.967C130.159 240.475 130.071 240.105 129.895 239.857C129.723 239.609 129.487 239.485 129.187 239.485C128.891 239.485 128.655 239.609 128.479 239.857C128.307 240.105 128.221 240.475 128.221 240.967C128.221 241.459 128.307 241.829 128.479 242.077C128.655 242.325 128.891 242.449 129.187 242.449Z" fill="#1C1C1C" fill-opacity="0.54"/>
<path d="M78.5272 243.127C78.1912 243.127 77.8912 243.043 77.6272 242.875C77.3632 242.703 77.1552 242.455 77.0032 242.131C76.8512 241.803 76.7752 241.415 76.7752 240.967C76.7752 240.519 76.8512 240.133 77.0032 239.809C77.1552 239.481 77.3632 239.233 77.6272 239.065C77.8912 238.893 78.1912 238.807 78.5272 238.807C78.8632 238.807 79.1632 238.893 79.4272 239.065C79.6952 239.233 79.9052 239.481 80.0572 239.809C80.2092 240.133 80.2852 240.519 80.2852 240.967C80.2852 241.415 80.2092 241.803 80.0572 242.131C79.9052 242.455 79.6952 242.703 79.4272 242.875C79.1632 243.043 78.8632 243.127 78.5272 243.127ZM78.5272 242.449C78.8272 242.449 79.0632 242.325 79.2352 242.077C79.4112 241.829 79.4992 241.459 79.4992 240.967C79.4992 240.475 79.4112 240.105 79.2352 239.857C79.0632 239.609 78.8272 239.485 78.5272 239.485C78.2312 239.485 77.9952 239.609 77.8192 239.857C77.6472 240.105 77.5612 240.475 77.5612 240.967C77.5612 241.459 77.6472 241.829 77.8192 242.077C77.9952 242.325 78.2312 242.449 78.5272 242.449ZM82.7203 240.475C82.9963 240.475 83.2443 240.529 83.4643 240.637C83.6843 240.741 83.8563 240.891 83.9803 241.087C84.1043 241.283 84.1663 241.509 84.1663 241.765C84.1663 242.037 84.0983 242.277 83.9623 242.485C83.8263 242.689 83.6423 242.847 83.4103 242.959C83.1783 243.071 82.9183 243.127 82.6303 243.127C82.0543 243.127 81.6063 242.947 81.2863 242.587C80.9703 242.227 80.8123 241.711 80.8123 241.039C80.8123 240.567 80.8983 240.165 81.0703 239.833C81.2423 239.497 81.4823 239.243 81.7903 239.071C82.1023 238.895 82.4623 238.807 82.8703 238.807C83.0863 238.807 83.2883 238.831 83.4763 238.879C83.6683 238.923 83.8343 238.989 83.9743 239.077L83.6863 239.665C83.4783 239.529 83.2123 239.461 82.8883 239.461C82.4843 239.461 82.1683 239.585 81.9403 239.833C81.7123 240.081 81.5983 240.439 81.5983 240.907V240.913C81.7223 240.769 81.8803 240.661 82.0723 240.589C82.2643 240.513 82.4803 240.475 82.7203 240.475ZM82.5883 242.515C82.8323 242.515 83.0303 242.451 83.1823 242.323C83.3343 242.191 83.4103 242.017 83.4103 241.801C83.4103 241.581 83.3343 241.407 83.1823 241.279C83.0303 241.151 82.8263 241.087 82.5703 241.087C82.3183 241.087 82.1123 241.155 81.9523 241.291C81.7963 241.427 81.7183 241.599 81.7183 241.807C81.7183 242.011 81.7943 242.181 81.9463 242.317C82.1023 242.449 82.3163 242.515 82.5883 242.515ZM85.0421 240.823C84.9061 240.823 84.7901 240.777 84.6941 240.685C84.5981 240.589 84.5501 240.469 84.5501 240.325C84.5501 240.177 84.5961 240.057 84.6881 239.965C84.7841 239.873 84.9021 239.827 85.0421 239.827C85.1821 239.827 85.2981 239.873 85.3901 239.965C85.4861 240.057 85.5341 240.177 85.5341 240.325C85.5341 240.469 85.4861 240.589 85.3901 240.685C85.2941 240.777 85.1781 240.823 85.0421 240.823ZM85.0421 243.109C84.9061 243.109 84.7901 243.063 84.6941 242.971C84.5981 242.875 84.5501 242.755 84.5501 242.611C84.5501 242.463 84.5961 242.343 84.6881 242.251C84.7841 242.159 84.9021 242.113 85.0421 242.113C85.1821 242.113 85.2981 242.159 85.3901 242.251C85.4861 242.343 85.5341 242.463 85.5341 242.611C85.5341 242.755 85.4861 242.875 85.3901 242.971C85.2941 243.063 85.1781 243.109 85.0421 243.109ZM87.7909 243.127C87.4549 243.127 87.1549 243.043 86.8909 242.875C86.6269 242.703 86.4189 242.455 86.2669 242.131C86.1149 241.803 86.0389 241.415 86.0389 240.967C86.0389 240.519 86.1149 240.133 86.2669 239.809C86.4189 239.481 86.6269 239.233 86.8909 239.065C87.1549 238.893 87.4549 238.807 87.7909 238.807C88.1269 238.807 88.4269 238.893 88.6909 239.065C88.9589 239.233 89.1689 239.481 89.3209 239.809C89.4729 240.133 89.5489 240.519 89.5489 240.967C89.5489 241.415 89.4729 241.803 89.3209 242.131C89.1689 242.455 88.9589 242.703 88.6909 242.875C88.4269 243.043 88.1269 243.127 87.7909 243.127ZM87.7909 242.449C88.0909 242.449 88.3269 242.325 88.4989 242.077C88.6749 241.829 88.7629 241.459 88.7629 240.967C88.7629 240.475 88.6749 240.105 88.4989 239.857C88.3269 239.609 88.0909 239.485 87.7909 239.485C87.4949 239.485 87.2589 239.609 87.0829 239.857C86.9109 240.105 86.8249 240.475 86.8249 240.967C86.8249 241.459 86.9109 241.829 87.0829 242.077C87.2589 242.325 87.4949 242.449 87.7909 242.449ZM91.828 243.127C91.492 243.127 91.192 243.043 90.928 242.875C90.664 242.703 90.456 242.455 90.304 242.131C90.152 241.803 90.076 241.415 90.076 240.967C90.076 240.519 90.152 240.133 90.304 239.809C90.456 239.481 90.664 239.233 90.928 239.065C91.192 238.893 91.492 238.807 91.828 238.807C92.164 238.807 92.464 238.893 92.728 239.065C92.996 239.233 93.206 239.481 93.358 239.809C93.51 240.133 93.586 240.519 93.586 240.967C93.586 241.415 93.51 241.803 93.358 242.131C93.206 242.455 92.996 242.703 92.728 242.875C92.464 243.043 92.164 243.127 91.828 243.127ZM91.828 242.449C92.128 242.449 92.364 242.325 92.536 242.077C92.712 241.829 92.8 241.459 92.8 240.967C92.8 240.475 92.712 240.105 92.536 239.857C92.364 239.609 92.128 239.485 91.828 239.485C91.532 239.485 91.296 239.609 91.12 239.857C90.948 240.105 90.862 240.475 90.862 240.967C90.862 241.459 90.948 241.829 91.12 242.077C91.296 242.325 91.532 242.449 91.828 242.449Z" fill="#1C1C1C" fill-opacity="0.54"/>
<path d="M41.1682 243.127C40.8322 243.127 40.5322 243.043 40.2682 242.875C40.0042 242.703 39.7962 242.455 39.6442 242.131C39.4922 241.803 39.4162 241.415 39.4162 240.967C39.4162 240.519 39.4922 240.133 39.6442 239.809C39.7962 239.481 40.0042 239.233 40.2682 239.065C40.5322 238.893 40.8322 238.807 41.1682 238.807C41.5042 238.807 41.8042 238.893 42.0682 239.065C42.3362 239.233 42.5462 239.481 42.6982 239.809C42.8502 240.133 42.9262 240.519 42.9262 240.967C42.9262 241.415 42.8502 241.803 42.6982 242.131C42.5462 242.455 42.3362 242.703 42.0682 242.875C41.8042 243.043 41.5042 243.127 41.1682 243.127ZM41.1682 242.449C41.4682 242.449 41.7042 242.325 41.8762 242.077C42.0522 241.829 42.1402 241.459 42.1402 240.967C42.1402 240.475 42.0522 240.105 41.8762 239.857C41.7042 239.609 41.4682 239.485 41.1682 239.485C40.8722 239.485 40.6362 239.609 40.4602 239.857C40.2882 240.105 40.2022 240.475 40.2022 240.967C40.2022 241.459 40.2882 241.829 40.4602 242.077C40.6362 242.325 40.8722 242.449 41.1682 242.449ZM45.1827 240.601C45.5707 240.649 45.8667 240.781 46.0707 240.997C46.2747 241.213 46.3767 241.483 46.3767 241.807C46.3767 242.051 46.3147 242.273 46.1907 242.473C46.0667 242.673 45.8787 242.833 45.6267 242.953C45.3787 243.069 45.0747 243.127 44.7147 243.127C44.4147 243.127 44.1247 243.085 43.8447 243.001C43.5687 242.913 43.3327 242.793 43.1367 242.641L43.4727 242.035C43.6247 242.163 43.8087 242.265 44.0247 242.341C44.2447 242.413 44.4707 242.449 44.7027 242.449C44.9787 242.449 45.1947 242.393 45.3507 242.281C45.5107 242.165 45.5907 242.009 45.5907 241.813C45.5907 241.617 45.5147 241.465 45.3627 241.357C45.2147 241.245 44.9867 241.189 44.6787 241.189H44.2947V240.655L45.2487 239.521H43.3407V238.867H46.2027V239.389L45.1827 240.601ZM47.3549 240.823C47.2189 240.823 47.1029 240.777 47.0069 240.685C46.9109 240.589 46.8629 240.469 46.8629 240.325C46.8629 240.177 46.9089 240.057 47.0009 239.965C47.0969 239.873 47.2149 239.827 47.3549 239.827C47.4949 239.827 47.6109 239.873 47.7029 239.965C47.7989 240.057 47.8469 240.177 47.8469 240.325C47.8469 240.469 47.7989 240.589 47.7029 240.685C47.6069 240.777 47.4909 240.823 47.3549 240.823ZM47.3549 243.109C47.2189 243.109 47.1029 243.063 47.0069 242.971C46.9109 242.875 46.8629 242.755 46.8629 242.611C46.8629 242.463 46.9089 242.343 47.0009 242.251C47.0969 242.159 47.2149 242.113 47.3549 242.113C47.4949 242.113 47.6109 242.159 47.7029 242.251C47.7989 242.343 47.8469 242.463 47.8469 242.611C47.8469 242.755 47.7989 242.875 47.7029 242.971C47.6069 243.063 47.4909 243.109 47.3549 243.109ZM50.1038 243.127C49.7678 243.127 49.4678 243.043 49.2038 242.875C48.9398 242.703 48.7318 242.455 48.5798 242.131C48.4278 241.803 48.3518 241.415 48.3518 240.967C48.3518 240.519 48.4278 240.133 48.5798 239.809C48.7318 239.481 48.9398 239.233 49.2038 239.065C49.4678 238.893 49.7678 238.807 50.1038 238.807C50.4398 238.807 50.7398 238.893 51.0038 239.065C51.2718 239.233 51.4818 239.481 51.6338 239.809C51.7858 240.133 51.8618 240.519 51.8618 240.967C51.8618 241.415 51.7858 241.803 51.6338 242.131C51.4818 242.455 51.2718 242.703 51.0038 242.875C50.7398 243.043 50.4398 243.127 50.1038 243.127ZM50.1038 242.449C50.4038 242.449 50.6398 242.325 50.8118 242.077C50.9878 241.829 51.0758 241.459 51.0758 240.967C51.0758 240.475 50.9878 240.105 50.8118 239.857C50.6398 239.609 50.4038 239.485 50.1038 239.485C49.8078 239.485 49.5718 239.609 49.3958 239.857C49.2238 240.105 49.1378 240.475 49.1378 240.967C49.1378 241.459 49.2238 241.829 49.3958 242.077C49.5718 242.325 49.8078 242.449 50.1038 242.449ZM54.1409 243.127C53.8049 243.127 53.5049 243.043 53.2409 242.875C52.9769 242.703 52.7689 242.455 52.6169 242.131C52.4649 241.803 52.3889 241.415 52.3889 240.967C52.3889 240.519 52.4649 240.133 52.6169 239.809C52.7689 239.481 52.9769 239.233 53.2409 239.065C53.5049 238.893 53.8049 238.807 54.1409 238.807C54.4769 238.807 54.7769 238.893 55.0409 239.065C55.3089 239.233 55.5189 239.481 55.6709 239.809C55.8229 240.133 55.8989 240.519 55.8989 240.967C55.8989 241.415 55.8229 241.803 55.6709 242.131C55.5189 242.455 55.3089 242.703 55.0409 242.875C54.7769 243.043 54.4769 243.127 54.1409 243.127ZM54.1409 242.449C54.4409 242.449 54.6769 242.325 54.8489 242.077C55.0249 241.829 55.1129 241.459 55.1129 240.967C55.1129 240.475 55.0249 240.105 54.8489 239.857C54.6769 239.609 54.4409 239.485 54.1409 239.485C53.8449 239.485 53.6089 239.609 53.4329 239.857C53.2609 240.105 53.1749 240.475 53.1749 240.967C53.1749 241.459 53.2609 241.829 53.4329 242.077C53.6089 242.325 53.8449 242.449 54.1409 242.449Z" fill="#1C1C1C" fill-opacity="0.54"/>
<path d="M17.0992 242.407V243.067H14.0032V242.545L15.6712 240.961C15.8592 240.781 15.9852 240.625 16.0492 240.493C16.1172 240.357 16.1512 240.223 16.1512 240.091C16.1512 239.895 16.0852 239.745 15.9532 239.641C15.8212 239.537 15.6272 239.485 15.3712 239.485C14.9432 239.485 14.6152 239.631 14.3872 239.923L13.8412 239.503C14.0052 239.283 14.2252 239.113 14.5012 238.993C14.7812 238.869 15.0932 238.807 15.4372 238.807C15.8932 238.807 16.2572 238.915 16.5292 239.131C16.8012 239.347 16.9372 239.641 16.9372 240.013C16.9372 240.241 16.8892 240.455 16.7932 240.655C16.6972 240.855 16.5132 241.083 16.2412 241.339L15.1192 242.407H17.0992ZM19.0014 238.867V243.067H18.2214V239.521H17.3334V238.867H19.0014Z" fill="#1C1C1C" fill-opacity="0.54"/>
<path d="M302.71 171.952C302.374 171.952 302.074 171.868 301.81 171.7C301.546 171.528 301.338 171.28 301.186 170.956C301.034 170.628 300.958 170.24 300.958 169.792C300.958 169.344 301.034 168.958 301.186 168.634C301.338 168.306 301.546 168.058 301.81 167.89C302.074 167.718 302.374 167.632 302.71 167.632C303.046 167.632 303.346 167.718 303.61 167.89C303.878 168.058 304.088 168.306 304.24 168.634C304.392 168.958 304.468 169.344 304.468 169.792C304.468 170.24 304.392 170.628 304.24 170.956C304.088 171.28 303.878 171.528 303.61 171.7C303.346 171.868 303.046 171.952 302.71 171.952ZM302.71 171.274C303.01 171.274 303.246 171.15 303.418 170.902C303.594 170.654 303.682 170.284 303.682 169.792C303.682 169.3 303.594 168.93 303.418 168.682C303.246 168.434 303.01 168.31 302.71 168.31C302.414 168.31 302.178 168.434 302.002 168.682C301.83 168.93 301.744 169.3 301.744 169.792C301.744 170.284 301.83 170.654 302.002 170.902C302.178 171.15 302.414 171.274 302.71 171.274ZM305.393 171.934C305.257 171.934 305.141 171.888 305.045 171.796C304.949 171.7 304.901 171.58 304.901 171.436C304.901 171.288 304.947 171.168 305.039 171.076C305.135 170.984 305.253 170.938 305.393 170.938C305.533 170.938 305.649 170.984 305.741 171.076C305.837 171.168 305.885 171.288 305.885 171.436C305.885 171.58 305.837 171.7 305.741 171.796C305.645 171.888 305.529 171.934 305.393 171.934ZM307.704 169.318C308.296 169.318 308.734 169.434 309.018 169.666C309.302 169.894 309.444 170.206 309.444 170.602C309.444 170.854 309.382 171.082 309.258 171.286C309.134 171.49 308.948 171.652 308.7 171.772C308.452 171.892 308.146 171.952 307.782 171.952C307.482 171.952 307.192 171.91 306.912 171.826C306.632 171.738 306.396 171.618 306.204 171.466L306.534 170.86C306.69 170.988 306.876 171.09 307.092 171.166C307.312 171.238 307.538 171.274 307.77 171.274C308.046 171.274 308.262 171.218 308.418 171.106C308.578 170.99 308.658 170.832 308.658 170.632C308.658 170.416 308.572 170.254 308.4 170.146C308.232 170.034 307.942 169.978 307.53 169.978H306.516L306.732 167.692H309.198V168.346H307.392L307.302 169.318H307.704ZM312.985 167.692V168.214L311.353 171.892H310.519L312.097 168.352H310.447V169.066H309.721V167.692H312.985Z" fill="#1C1C1C" fill-opacity="0.54"/>
<path d="M302.71 136.765C302.374 136.765 302.074 136.681 301.81 136.513C301.546 136.341 301.338 136.093 301.186 135.769C301.034 135.441 300.958 135.053 300.958 134.605C300.958 134.157 301.034 133.771 301.186 133.447C301.338 133.119 301.546 132.871 301.81 132.703C302.074 132.531 302.374 132.445 302.71 132.445C303.046 132.445 303.346 132.531 303.61 132.703C303.878 132.871 304.088 133.119 304.24 133.447C304.392 133.771 304.468 134.157 304.468 134.605C304.468 135.053 304.392 135.441 304.24 135.769C304.088 136.093 303.878 136.341 303.61 136.513C303.346 136.681 303.046 136.765 302.71 136.765ZM302.71 136.087C303.01 136.087 303.246 135.963 303.418 135.715C303.594 135.467 303.682 135.097 303.682 134.605C303.682 134.113 303.594 133.743 303.418 133.495C303.246 133.247 303.01 133.123 302.71 133.123C302.414 133.123 302.178 133.247 302.002 133.495C301.83 133.743 301.744 134.113 301.744 134.605C301.744 135.097 301.83 135.467 302.002 135.715C302.178 135.963 302.414 136.087 302.71 136.087ZM305.393 136.747C305.257 136.747 305.141 136.701 305.045 136.609C304.949 136.513 304.901 136.393 304.901 136.249C304.901 136.101 304.947 135.981 305.039 135.889C305.135 135.797 305.253 135.751 305.393 135.751C305.533 135.751 305.649 135.797 305.741 135.889C305.837 135.981 305.885 136.101 305.885 136.249C305.885 136.393 305.837 136.513 305.741 136.609C305.645 136.701 305.529 136.747 305.393 136.747ZM307.704 134.131C308.296 134.131 308.734 134.247 309.018 134.479C309.302 134.707 309.444 135.019 309.444 135.415C309.444 135.667 309.382 135.895 309.258 136.099C309.134 136.303 308.948 136.465 308.7 136.585C308.452 136.705 308.146 136.765 307.782 136.765C307.482 136.765 307.192 136.723 306.912 136.639C306.632 136.551 306.396 136.431 306.204 136.279L306.534 135.673C306.69 135.801 306.876 135.903 307.092 135.979C307.312 136.051 307.538 136.087 307.77 136.087C308.046 136.087 308.262 136.031 308.418 135.919C308.578 135.803 308.658 135.645 308.658 135.445C308.658 135.229 308.572 135.067 308.4 134.959C308.232 134.847 307.942 134.791 307.53 134.791H306.516L306.732 132.505H309.198V133.159H307.392L307.302 134.131H307.704ZM312.618 134.497C312.838 134.597 313.006 134.733 313.122 134.905C313.242 135.073 313.302 135.271 313.302 135.499C313.302 135.755 313.23 135.979 313.086 136.171C312.946 136.363 312.746 136.511 312.486 136.615C312.226 136.715 311.924 136.765 311.58 136.765C311.236 136.765 310.934 136.715 310.674 136.615C310.418 136.511 310.22 136.363 310.08 136.171C309.94 135.979 309.87 135.755 309.87 135.499C309.87 135.271 309.928 135.073 310.044 134.905C310.16 134.733 310.326 134.597 310.542 134.497C310.374 134.405 310.244 134.285 310.152 134.137C310.064 133.985 310.02 133.811 310.02 133.615C310.02 133.379 310.084 133.173 310.212 132.997C310.344 132.821 310.528 132.685 310.764 132.589C311 132.493 311.272 132.445 311.58 132.445C311.892 132.445 312.166 132.493 312.402 132.589C312.638 132.685 312.822 132.821 312.954 132.997C313.086 133.173 313.152 133.379 313.152 133.615C313.152 133.811 313.106 133.983 313.014 134.131C312.922 134.279 312.79 134.401 312.618 134.497ZM311.58 133.057C311.336 133.057 311.142 133.109 310.998 133.213C310.858 133.317 310.788 133.463 310.788 133.651C310.788 133.831 310.858 133.975 310.998 134.083C311.142 134.187 311.336 134.239 311.58 134.239C311.828 134.239 312.024 134.187 312.168 134.083C312.312 133.975 312.384 133.831 312.384 133.651C312.384 133.463 312.31 133.317 312.162 133.213C312.018 133.109 311.824 133.057 311.58 133.057ZM311.58 136.153C311.868 136.153 312.096 136.093 312.264 135.973C312.432 135.853 312.516 135.687 312.516 135.475C312.516 135.267 312.432 135.103 312.264 134.983C312.096 134.863 311.868 134.803 311.58 134.803C311.292 134.803 311.066 134.863 310.902 134.983C310.738 135.103 310.656 135.267 310.656 135.475C310.656 135.687 310.738 135.853 310.902 135.973C311.066 136.093 311.292 136.153 311.58 136.153Z" fill="#1C1C1C" fill-opacity="0.54"/>
<path d="M302.71 101.577C302.374 101.577 302.074 101.493 301.81 101.325C301.546 101.153 301.338 100.905 301.186 100.581C301.034 100.253 300.958 99.8654 300.958 99.4174C300.958 98.9694 301.034 98.5834 301.186 98.2594C301.338 97.9314 301.546 97.6834 301.81 97.5154C302.074 97.3434 302.374 97.2574 302.71 97.2574C303.046 97.2574 303.346 97.3434 303.61 97.5154C303.878 97.6834 304.088 97.9314 304.24 98.2594C304.392 98.5834 304.468 98.9694 304.468 99.4174C304.468 99.8654 304.392 100.253 304.24 100.581C304.088 100.905 303.878 101.153 303.61 101.325C303.346 101.493 303.046 101.577 302.71 101.577ZM302.71 100.899C303.01 100.899 303.246 100.775 303.418 100.527C303.594 100.279 303.682 99.9094 303.682 99.4174C303.682 98.9254 303.594 98.5554 303.418 98.3074C303.246 98.0594 303.01 97.9354 302.71 97.9354C302.414 97.9354 302.178 98.0594 302.002 98.3074C301.83 98.5554 301.744 98.9254 301.744 99.4174C301.744 99.9094 301.83 100.279 302.002 100.527C302.178 100.775 302.414 100.899 302.71 100.899ZM305.393 101.559C305.257 101.559 305.141 101.513 305.045 101.421C304.949 101.325 304.901 101.205 304.901 101.061C304.901 100.913 304.947 100.793 305.039 100.701C305.135 100.609 305.253 100.563 305.393 100.563C305.533 100.563 305.649 100.609 305.741 100.701C305.837 100.793 305.885 100.913 305.885 101.061C305.885 101.205 305.837 101.325 305.741 101.421C305.645 101.513 305.529 101.559 305.393 101.559ZM307.704 98.9434C308.296 98.9434 308.734 99.0594 309.018 99.2914C309.302 99.5194 309.444 99.8314 309.444 100.227C309.444 100.479 309.382 100.707 309.258 100.911C309.134 101.115 308.948 101.277 308.7 101.397C308.452 101.517 308.146 101.577 307.782 101.577C307.482 101.577 307.192 101.535 306.912 101.451C306.632 101.363 306.396 101.243 306.204 101.091L306.534 100.485C306.69 100.613 306.876 100.715 307.092 100.791C307.312 100.863 307.538 100.899 307.77 100.899C308.046 100.899 308.262 100.843 308.418 100.731C308.578 100.615 308.658 100.457 308.658 100.257C308.658 100.041 308.572 99.8794 308.4 99.7714C308.232 99.6594 307.942 99.6034 307.53 99.6034H306.516L306.732 97.3174H309.198V97.9714H307.392L307.302 98.9434H307.704ZM311.31 97.2574C311.886 97.2574 312.332 97.4374 312.648 97.7974C312.968 98.1574 313.128 98.6734 313.128 99.3454C313.128 99.8174 313.042 100.221 312.87 100.557C312.698 100.889 312.456 101.143 312.144 101.319C311.836 101.491 311.478 101.577 311.07 101.577C310.854 101.577 310.65 101.555 310.458 101.511C310.27 101.463 310.106 101.395 309.966 101.307L310.254 100.719C310.462 100.855 310.728 100.923 311.052 100.923C311.456 100.923 311.772 100.799 312 100.551C312.228 100.303 312.342 99.9454 312.342 99.4774V99.4714C312.218 99.6154 312.06 99.7254 311.868 99.8014C311.676 99.8734 311.46 99.9094 311.22 99.9094C310.944 99.9094 310.696 99.8574 310.476 99.7534C310.256 99.6454 310.084 99.4934 309.96 99.2974C309.836 99.1014 309.774 98.8754 309.774 98.6194C309.774 98.3474 309.842 98.1094 309.978 97.9054C310.114 97.6974 310.298 97.5374 310.53 97.4254C310.762 97.3134 311.022 97.2574 311.31 97.2574ZM311.37 99.2974C311.622 99.2974 311.826 99.2294 311.982 99.0934C312.142 98.9574 312.222 98.7854 312.222 98.5774C312.222 98.3734 312.144 98.2054 311.988 98.0734C311.836 97.9374 311.624 97.8694 311.352 97.8694C311.108 97.8694 310.91 97.9354 310.758 98.0674C310.606 98.1954 310.53 98.3674 310.53 98.5834C310.53 98.8034 310.606 98.9774 310.758 99.1054C310.91 99.2334 311.114 99.2974 311.37 99.2974Z" fill="#1C1C1C" fill-opacity="0.54"/>
<path d="M302.71 66.39C302.374 66.39 302.074 66.306 301.81 66.138C301.546 65.966 301.338 65.718 301.186 65.394C301.034 65.066 300.958 64.678 300.958 64.23C300.958 63.782 301.034 63.396 301.186 63.072C301.338 62.744 301.546 62.496 301.81 62.328C302.074 62.156 302.374 62.07 302.71 62.07C303.046 62.07 303.346 62.156 303.61 62.328C303.878 62.496 304.088 62.744 304.24 63.072C304.392 63.396 304.468 63.782 304.468 64.23C304.468 64.678 304.392 65.066 304.24 65.394C304.088 65.718 303.878 65.966 303.61 66.138C303.346 66.306 303.046 66.39 302.71 66.39ZM302.71 65.712C303.01 65.712 303.246 65.588 303.418 65.34C303.594 65.092 303.682 64.722 303.682 64.23C303.682 63.738 303.594 63.368 303.418 63.12C303.246 62.872 303.01 62.748 302.71 62.748C302.414 62.748 302.178 62.872 302.002 63.12C301.83 63.368 301.744 63.738 301.744 64.23C301.744 64.722 301.83 65.092 302.002 65.34C302.178 65.588 302.414 65.712 302.71 65.712ZM305.393 66.372C305.257 66.372 305.141 66.326 305.045 66.234C304.949 66.138 304.901 66.018 304.901 65.874C304.901 65.726 304.947 65.606 305.039 65.514C305.135 65.422 305.253 65.376 305.393 65.376C305.533 65.376 305.649 65.422 305.741 65.514C305.837 65.606 305.885 65.726 305.885 65.874C305.885 66.018 305.837 66.138 305.741 66.234C305.645 66.326 305.529 66.372 305.393 66.372ZM308.227 63.738C308.503 63.738 308.751 63.792 308.971 63.9C309.191 64.004 309.363 64.154 309.487 64.35C309.611 64.546 309.673 64.772 309.673 65.028C309.673 65.3 309.605 65.54 309.469 65.748C309.333 65.952 309.149 66.11 308.917 66.222C308.685 66.334 308.425 66.39 308.137 66.39C307.561 66.39 307.113 66.21 306.793 65.85C306.477 65.49 306.319 64.974 306.319 64.302C306.319 63.83 306.405 63.428 306.577 63.096C306.749 62.76 306.989 62.506 307.297 62.334C307.609 62.158 307.969 62.07 308.377 62.07C308.593 62.07 308.795 62.094 308.983 62.142C309.175 62.186 309.341 62.252 309.481 62.34L309.193 62.928C308.985 62.792 308.719 62.724 308.395 62.724C307.991 62.724 307.675 62.848 307.447 63.096C307.219 63.344 307.105 63.702 307.105 64.17V64.176C307.229 64.032 307.387 63.924 307.579 63.852C307.771 63.776 307.987 63.738 308.227 63.738ZM308.095 65.778C308.339 65.778 308.537 65.714 308.689 65.586C308.841 65.454 308.917 65.28 308.917 65.064C308.917 64.844 308.841 64.67 308.689 64.542C308.537 64.414 308.333 64.35 308.077 64.35C307.825 64.35 307.619 64.418 307.459 64.554C307.303 64.69 307.225 64.862 307.225 65.07C307.225 65.274 307.301 65.444 307.453 65.58C307.609 65.712 307.823 65.778 308.095 65.778ZM311.833 66.39C311.497 66.39 311.197 66.306 310.933 66.138C310.669 65.966 310.461 65.718 310.309 65.394C310.157 65.066 310.081 64.678 310.081 64.23C310.081 63.782 310.157 63.396 310.309 63.072C310.461 62.744 310.669 62.496 310.933 62.328C311.197 62.156 311.497 62.07 311.833 62.07C312.169 62.07 312.469 62.156 312.733 62.328C313.001 62.496 313.211 62.744 313.363 63.072C313.515 63.396 313.591 63.782 313.591 64.23C313.591 64.678 313.515 65.066 313.363 65.394C313.211 65.718 313.001 65.966 312.733 66.138C312.469 66.306 312.169 66.39 311.833 66.39ZM311.833 65.712C312.133 65.712 312.369 65.588 312.541 65.34C312.717 65.092 312.805 64.722 312.805 64.23C312.805 63.738 312.717 63.368 312.541 63.12C312.369 62.872 312.133 62.748 311.833 62.748C311.537 62.748 311.301 62.872 311.125 63.12C310.953 63.368 310.867 63.738 310.867 64.23C310.867 64.722 310.953 65.092 311.125 65.34C311.301 65.588 311.537 65.712 311.833 65.712Z" fill="#1C1C1C" fill-opacity="0.54"/>
<path d="M302.71 31.2025C302.374 31.2025 302.074 31.1185 301.81 30.9505C301.546 30.7785 301.338 30.5305 301.186 30.2065C301.034 29.8785 300.958 29.4905 300.958 29.0425C300.958 28.5945 301.034 28.2085 301.186 27.8845C301.338 27.5565 301.546 27.3085 301.81 27.1405C302.074 26.9685 302.374 26.8825 302.71 26.8825C303.046 26.8825 303.346 26.9685 303.61 27.1405C303.878 27.3085 304.088 27.5565 304.24 27.8845C304.392 28.2085 304.468 28.5945 304.468 29.0425C304.468 29.4905 304.392 29.8785 304.24 30.2065C304.088 30.5305 303.878 30.7785 303.61 30.9505C303.346 31.1185 303.046 31.2025 302.71 31.2025ZM302.71 30.5245C303.01 30.5245 303.246 30.4005 303.418 30.1525C303.594 29.9045 303.682 29.5345 303.682 29.0425C303.682 28.5505 303.594 28.1805 303.418 27.9325C303.246 27.6845 303.01 27.5605 302.71 27.5605C302.414 27.5605 302.178 27.6845 302.002 27.9325C301.83 28.1805 301.744 28.5505 301.744 29.0425C301.744 29.5345 301.83 29.9045 302.002 30.1525C302.178 30.4005 302.414 30.5245 302.71 30.5245ZM305.393 31.1845C305.257 31.1845 305.141 31.1385 305.045 31.0465C304.949 30.9505 304.901 30.8305 304.901 30.6865C304.901 30.5385 304.947 30.4185 305.039 30.3265C305.135 30.2345 305.253 30.1885 305.393 30.1885C305.533 30.1885 305.649 30.2345 305.741 30.3265C305.837 30.4185 305.885 30.5385 305.885 30.6865C305.885 30.8305 305.837 30.9505 305.741 31.0465C305.645 31.1385 305.529 31.1845 305.393 31.1845ZM308.227 28.5505C308.503 28.5505 308.751 28.6045 308.971 28.7125C309.191 28.8165 309.363 28.9665 309.487 29.1625C309.611 29.3585 309.673 29.5845 309.673 29.8405C309.673 30.1125 309.605 30.3525 309.469 30.5605C309.333 30.7645 309.149 30.9225 308.917 31.0345C308.685 31.1465 308.425 31.2025 308.137 31.2025C307.561 31.2025 307.113 31.0225 306.793 30.6625C306.477 30.3025 306.319 29.7865 306.319 29.1145C306.319 28.6425 306.405 28.2405 306.577 27.9085C306.749 27.5725 306.989 27.3185 307.297 27.1465C307.609 26.9705 307.969 26.8825 308.377 26.8825C308.593 26.8825 308.795 26.9065 308.983 26.9545C309.175 26.9985 309.341 27.0645 309.481 27.1525L309.193 27.7405C308.985 27.6045 308.719 27.5365 308.395 27.5365C307.991 27.5365 307.675 27.6605 307.447 27.9085C307.219 28.1565 307.105 28.5145 307.105 28.9825V28.9885C307.229 28.8445 307.387 28.7365 307.579 28.6645C307.771 28.5885 307.987 28.5505 308.227 28.5505ZM308.095 30.5905C308.339 30.5905 308.537 30.5265 308.689 30.3985C308.841 30.2665 308.917 30.0925 308.917 29.8765C308.917 29.6565 308.841 29.4825 308.689 29.3545C308.537 29.2265 308.333 29.1625 308.077 29.1625C307.825 29.1625 307.619 29.2305 307.459 29.3665C307.303 29.5025 307.225 29.6745 307.225 29.8825C307.225 30.0865 307.301 30.2565 307.453 30.3925C307.609 30.5245 307.823 30.5905 308.095 30.5905ZM311.533 26.9425V31.1425H310.753V27.5965H309.865V26.9425H311.533Z" fill="#1C1C1C" fill-opacity="0.54"/>
<line x1="295.798" y1="0.86499" x2="295.798" y2="255.843" stroke="#595959" stroke-width="0.5"/>
<line x1="332.69" y1="232.389" x2="0.351807" y2="232.389" stroke="#595959" stroke-width="0.5"/>
</svg>
