<svg width="375" height="26" viewBox="0 0 375 26" fill="none" xmlns="http://www.w3.org/2000/svg">
<mask id="path-1-outside-1_445_1278" maskUnits="userSpaceOnUse" x="0.0529785" y="3.79785" width="375" height="22" fill="black">
<rect fill="white" x="0.0529785" y="3.79785" width="375" height="22"/>
<path d="M0.0529785 3.79785H375V25.228H0.0529785V3.79785Z"/>
</mask>
<path d="M0.0529785 3.79785H375V25.228H0.0529785V3.79785Z" fill="white"/>
<path d="M375 24.728H0.0529785V25.728H375V24.728Z" fill="black" fill-opacity="0.16" mask="url(#path-1-outside-1_445_1278)"/>
<path d="M36.252 11.9129H37.292V16.6329H40.22V17.5129H36.252V11.9129ZM40.9451 13.2409H41.9451V17.5129H40.9451V13.2409ZM41.4491 12.5369C41.2677 12.5369 41.1157 12.4809 40.9931 12.3689C40.8704 12.2516 40.8091 12.1076 40.8091 11.9369C40.8091 11.7662 40.8704 11.6249 40.9931 11.5129C41.1157 11.3956 41.2677 11.3369 41.4491 11.3369C41.6304 11.3369 41.7824 11.3929 41.9051 11.5049C42.0277 11.6116 42.0891 11.7476 42.0891 11.9129C42.0891 12.0889 42.0277 12.2382 41.9051 12.3609C41.7877 12.4782 41.6357 12.5369 41.4491 12.5369ZM45.6816 13.1929C46.2202 13.1929 46.6522 13.3502 46.9776 13.6649C47.3029 13.9796 47.4656 14.4462 47.4656 15.0649V17.5129H46.4656V15.1929C46.4656 14.8196 46.3776 14.5396 46.2016 14.3529C46.0256 14.1609 45.7749 14.0649 45.4496 14.0649C45.0816 14.0649 44.7909 14.1769 44.5776 14.4009C44.3642 14.6196 44.2576 14.9369 44.2576 15.3529V17.5129H43.2576V13.2409H44.2096V13.7929C44.3749 13.5956 44.5829 13.4462 44.8336 13.3449C45.0842 13.2436 45.3669 13.1929 45.6816 13.1929ZM52.7892 15.4009C52.7892 15.4702 52.7839 15.5689 52.7732 15.6969H49.4212C49.4799 16.0116 49.6319 16.2622 49.8772 16.4489C50.1279 16.6302 50.4372 16.7209 50.8052 16.7209C51.2745 16.7209 51.6612 16.5662 51.9652 16.2569L52.5012 16.8729C52.3092 17.1022 52.0665 17.2756 51.7732 17.3929C51.4799 17.5102 51.1492 17.5689 50.7812 17.5689C50.3119 17.5689 49.8985 17.4756 49.5412 17.2889C49.1839 17.1022 48.9065 16.8436 48.7092 16.5129C48.5172 16.1769 48.4212 15.7982 48.4212 15.3769C48.4212 14.9609 48.5145 14.5876 48.7012 14.2569C48.8932 13.9209 49.1572 13.6596 49.4932 13.4729C49.8292 13.2862 50.2079 13.1929 50.6292 13.1929C51.0452 13.1929 51.4159 13.2862 51.7412 13.4729C52.0719 13.6542 52.3279 13.9129 52.5092 14.2489C52.6959 14.5796 52.7892 14.9636 52.7892 15.4009ZM50.6292 13.9929C50.3092 13.9929 50.0372 14.0889 49.8132 14.2809C49.5945 14.4676 49.4612 14.7182 49.4132 15.0329H51.8372C51.7945 14.7236 51.6639 14.4729 51.4452 14.2809C51.2265 14.0889 50.9545 13.9929 50.6292 13.9929Z" fill="#1B1B1B"/>
<path d="M80.838 11.9129V17.5129H79.798V12.7849H78.614V11.9129H80.838ZM83.7009 14.0809C84.4903 14.0809 85.0743 14.2356 85.4529 14.5449C85.8316 14.8489 86.0209 15.2649 86.0209 15.7929C86.0209 16.1289 85.9383 16.4329 85.7729 16.7049C85.6076 16.9769 85.3596 17.1929 85.0289 17.3529C84.6983 17.5129 84.2903 17.5929 83.8049 17.5929C83.4049 17.5929 83.0183 17.5369 82.6449 17.4249C82.2716 17.3076 81.9569 17.1476 81.7009 16.9449L82.1409 16.1369C82.3489 16.3076 82.5969 16.4436 82.8849 16.5449C83.1783 16.6409 83.4796 16.6889 83.7889 16.6889C84.1569 16.6889 84.4449 16.6142 84.6529 16.4649C84.8663 16.3102 84.9729 16.0996 84.9729 15.8329C84.9729 15.5449 84.8583 15.3289 84.6289 15.1849C84.4049 15.0356 84.0183 14.9609 83.4689 14.9609H82.1169L82.4049 11.9129H85.6929V12.7849H83.2849L83.1649 14.0809H83.7009ZM92.3168 13.1929C92.8555 13.1929 93.2821 13.3502 93.5968 13.6649C93.9115 13.9742 94.0688 14.4409 94.0688 15.0649V17.5129H93.0688V15.1929C93.0688 14.8196 92.9861 14.5396 92.8208 14.3529C92.6555 14.1609 92.4181 14.0649 92.1088 14.0649C91.7728 14.0649 91.5035 14.1769 91.3008 14.4009C91.0981 14.6196 90.9968 14.9342 90.9968 15.3449V17.5129H89.9968V15.1929C89.9968 14.8196 89.9141 14.5396 89.7488 14.3529C89.5835 14.1609 89.3461 14.0649 89.0368 14.0649C88.6955 14.0649 88.4235 14.1742 88.2208 14.3929C88.0235 14.6116 87.9248 14.9289 87.9248 15.3449V17.5129H86.9248V13.2409H87.8768V13.7849C88.0368 13.5929 88.2368 13.4462 88.4768 13.3449C88.7168 13.2436 88.9835 13.1929 89.2768 13.1929C89.5968 13.1929 89.8795 13.2542 90.1248 13.3769C90.3755 13.4942 90.5728 13.6702 90.7168 13.9049C90.8928 13.6809 91.1195 13.5076 91.3968 13.3849C91.6741 13.2569 91.9808 13.1929 92.3168 13.1929Z" fill="#1C1C1C" fill-opacity="0.54"/>
<path d="M125.496 14.0569C125.864 14.0569 126.195 14.1289 126.488 14.2729C126.781 14.4116 127.011 14.6116 127.176 14.8729C127.341 15.1342 127.424 15.4356 127.424 15.7769C127.424 16.1396 127.333 16.4596 127.152 16.7369C126.971 17.0089 126.725 17.2196 126.416 17.3689C126.107 17.5182 125.76 17.5929 125.376 17.5929C124.608 17.5929 124.011 17.3529 123.584 16.8729C123.163 16.3929 122.952 15.7049 122.952 14.8089C122.952 14.1796 123.067 13.6436 123.296 13.2009C123.525 12.7529 123.845 12.4142 124.256 12.1849C124.672 11.9502 125.152 11.8329 125.696 11.8329C125.984 11.8329 126.253 11.8649 126.504 11.9289C126.76 11.9876 126.981 12.0756 127.168 12.1929L126.784 12.9769C126.507 12.7956 126.152 12.7049 125.72 12.7049C125.181 12.7049 124.76 12.8702 124.456 13.2009C124.152 13.5316 124 14.0089 124 14.6329V14.6409C124.165 14.4489 124.376 14.3049 124.632 14.2089C124.888 14.1076 125.176 14.0569 125.496 14.0569ZM125.32 16.7769C125.645 16.7769 125.909 16.6916 126.112 16.5209C126.315 16.3449 126.416 16.1129 126.416 15.8249C126.416 15.5316 126.315 15.2996 126.112 15.1289C125.909 14.9582 125.637 14.8729 125.296 14.8729C124.96 14.8729 124.685 14.9636 124.472 15.1449C124.264 15.3262 124.16 15.5556 124.16 15.8329C124.16 16.1049 124.261 16.3316 124.464 16.5129C124.672 16.6889 124.957 16.7769 125.32 16.7769ZM130.304 17.5929C129.856 17.5929 129.456 17.4809 129.104 17.2569C128.752 17.0276 128.474 16.6969 128.272 16.2649C128.069 15.8276 127.968 15.3102 127.968 14.7129C127.968 14.1156 128.069 13.6009 128.272 13.1689C128.474 12.7316 128.752 12.4009 129.104 12.1769C129.456 11.9476 129.856 11.8329 130.304 11.8329C130.752 11.8329 131.152 11.9476 131.504 12.1769C131.861 12.4009 132.141 12.7316 132.344 13.1689C132.546 13.6009 132.648 14.1156 132.648 14.7129C132.648 15.3102 132.546 15.8276 132.344 16.2649C132.141 16.6969 131.861 17.0276 131.504 17.2569C131.152 17.4809 130.752 17.5929 130.304 17.5929ZM130.304 16.6889C130.704 16.6889 131.018 16.5236 131.248 16.1929C131.482 15.8622 131.6 15.3689 131.6 14.7129C131.6 14.0569 131.482 13.5636 131.248 13.2329C131.018 12.9022 130.704 12.7369 130.304 12.7369C129.909 12.7369 129.594 12.9022 129.36 13.2329C129.13 13.5636 129.016 14.0569 129.016 14.7129C129.016 15.3689 129.13 15.8622 129.36 16.1929C129.594 16.5236 129.909 16.6889 130.304 16.6889ZM139.047 13.1929C139.585 13.1929 140.012 13.3502 140.327 13.6649C140.641 13.9742 140.799 14.4409 140.799 15.0649V17.5129H139.799V15.1929C139.799 14.8196 139.716 14.5396 139.551 14.3529C139.385 14.1609 139.148 14.0649 138.839 14.0649C138.503 14.0649 138.233 14.1769 138.031 14.4009C137.828 14.6196 137.727 14.9342 137.727 15.3449V17.5129H136.727V15.1929C136.727 14.8196 136.644 14.5396 136.479 14.3529C136.313 14.1609 136.076 14.0649 135.767 14.0649C135.425 14.0649 135.153 14.1742 134.951 14.3929C134.753 14.6116 134.655 14.9289 134.655 15.3449V17.5129H133.655V13.2409H134.607V13.7849C134.767 13.5929 134.967 13.4462 135.207 13.3449C135.447 13.2436 135.713 13.1929 136.007 13.1929C136.327 13.1929 136.609 13.2542 136.855 13.3769C137.105 13.4942 137.303 13.6702 137.447 13.9049C137.623 13.6809 137.849 13.5076 138.127 13.3849C138.404 13.2569 138.711 13.1929 139.047 13.1929Z" fill="#1C1C1C" fill-opacity="0.54"/>
<path d="M172.634 14.5689C172.927 14.7022 173.151 14.8836 173.306 15.1129C173.466 15.3369 173.546 15.6009 173.546 15.9049C173.546 16.2462 173.45 16.5449 173.258 16.8009C173.071 17.0569 172.805 17.2542 172.458 17.3929C172.111 17.5262 171.709 17.5929 171.25 17.5929C170.791 17.5929 170.389 17.5262 170.042 17.3929C169.701 17.2542 169.437 17.0569 169.25 16.8009C169.063 16.5449 168.97 16.2462 168.97 15.9049C168.97 15.6009 169.047 15.3369 169.202 15.1129C169.357 14.8836 169.578 14.7022 169.866 14.5689C169.642 14.4462 169.469 14.2862 169.346 14.0889C169.229 13.8862 169.17 13.6542 169.17 13.3929C169.17 13.0782 169.255 12.8036 169.426 12.5689C169.602 12.3342 169.847 12.1529 170.162 12.0249C170.477 11.8969 170.839 11.8329 171.25 11.8329C171.666 11.8329 172.031 11.8969 172.346 12.0249C172.661 12.1529 172.906 12.3342 173.082 12.5689C173.258 12.8036 173.346 13.0782 173.346 13.3929C173.346 13.6542 173.285 13.8836 173.162 14.0809C173.039 14.2782 172.863 14.4409 172.634 14.5689ZM171.25 12.6489C170.925 12.6489 170.666 12.7182 170.474 12.8569C170.287 12.9956 170.194 13.1902 170.194 13.4409C170.194 13.6809 170.287 13.8729 170.474 14.0169C170.666 14.1556 170.925 14.2249 171.25 14.2249C171.581 14.2249 171.842 14.1556 172.034 14.0169C172.226 13.8729 172.322 13.6809 172.322 13.4409C172.322 13.1902 172.223 12.9956 172.026 12.8569C171.834 12.7182 171.575 12.6489 171.25 12.6489ZM171.25 16.7769C171.634 16.7769 171.938 16.6969 172.162 16.5369C172.386 16.3769 172.498 16.1556 172.498 15.8729C172.498 15.5956 172.386 15.3769 172.162 15.2169C171.938 15.0569 171.634 14.9769 171.25 14.9769C170.866 14.9769 170.565 15.0569 170.346 15.2169C170.127 15.3769 170.018 15.5956 170.018 15.8729C170.018 16.1556 170.127 16.3769 170.346 16.5369C170.565 16.6969 170.866 16.7769 171.25 16.7769ZM176.949 13.1929C177.487 13.1929 177.919 13.3502 178.245 13.6649C178.57 13.9796 178.733 14.4462 178.733 15.0649V17.5129H177.733V15.1929C177.733 14.8196 177.645 14.5396 177.469 14.3529C177.293 14.1609 177.042 14.0649 176.717 14.0649C176.349 14.0649 176.058 14.1769 175.845 14.4009C175.631 14.6196 175.525 14.9369 175.525 15.3529V17.5129H174.525V11.5769H175.525V13.7369C175.69 13.5609 175.893 13.4276 176.133 13.3369C176.378 13.2409 176.65 13.1929 176.949 13.1929Z" fill="#1C1C1C" fill-opacity="0.54"/>
<path d="M208.988 11.9129V17.5129H207.948V12.7849H206.764V11.9129H208.988ZM214.587 11.5769V17.5129H213.627V16.9609C213.461 17.1636 213.256 17.3156 213.011 17.4169C212.771 17.5182 212.504 17.5689 212.211 17.5689C211.8 17.5689 211.429 17.4782 211.099 17.2969C210.773 17.1156 210.517 16.8596 210.331 16.5289C210.144 16.1929 210.051 15.8089 210.051 15.3769C210.051 14.9449 210.144 14.5636 210.331 14.2329C210.517 13.9022 210.773 13.6462 211.099 13.4649C211.429 13.2836 211.8 13.1929 212.211 13.1929C212.493 13.1929 212.752 13.2409 212.987 13.3369C213.221 13.4329 213.421 13.5769 213.587 13.7689V11.5769H214.587ZM212.331 16.7129C212.571 16.7129 212.787 16.6596 212.979 16.5529C213.171 16.4409 213.323 16.2836 213.435 16.0809C213.547 15.8782 213.603 15.6436 213.603 15.3769C213.603 15.1102 213.547 14.8756 213.435 14.6729C213.323 14.4702 213.171 14.3156 212.979 14.2089C212.787 14.0969 212.571 14.0409 212.331 14.0409C212.091 14.0409 211.875 14.0969 211.683 14.2089C211.491 14.3156 211.339 14.4702 211.227 14.6729C211.115 14.8756 211.059 15.1102 211.059 15.3769C211.059 15.6436 211.115 15.8782 211.227 16.0809C211.339 16.2836 211.491 16.4409 211.683 16.5529C211.875 16.6596 212.091 16.7129 212.331 16.7129Z" fill="#1C1C1C" fill-opacity="0.54"/>
<path d="M248.646 17.5129L248.638 13.8009L246.798 16.8729H246.334L244.494 13.8489V17.5129H243.502V11.9129H244.358L246.582 15.6249L248.766 11.9129H249.622L249.63 17.5129H248.646ZM252.967 17.5689C252.535 17.5689 252.145 17.4756 251.799 17.2889C251.452 17.1022 251.18 16.8436 250.983 16.5129C250.791 16.1769 250.695 15.7982 250.695 15.3769C250.695 14.9556 250.791 14.5796 250.983 14.2489C251.18 13.9182 251.452 13.6596 251.799 13.4729C252.145 13.2862 252.535 13.1929 252.967 13.1929C253.404 13.1929 253.796 13.2862 254.143 13.4729C254.489 13.6596 254.759 13.9182 254.951 14.2489C255.148 14.5796 255.247 14.9556 255.247 15.3769C255.247 15.7982 255.148 16.1769 254.951 16.5129C254.759 16.8436 254.489 17.1022 254.143 17.2889C253.796 17.4756 253.404 17.5689 252.967 17.5689ZM252.967 16.7129C253.335 16.7129 253.639 16.5902 253.879 16.3449C254.119 16.0996 254.239 15.7769 254.239 15.3769C254.239 14.9769 254.119 14.6542 253.879 14.4089C253.639 14.1636 253.335 14.0409 252.967 14.0409C252.599 14.0409 252.295 14.1636 252.055 14.4089C251.82 14.6542 251.703 14.9769 251.703 15.3769C251.703 15.7769 251.82 16.0996 252.055 16.3449C252.295 16.5902 252.599 16.7129 252.967 16.7129ZM257.155 13.8649C257.443 13.4169 257.95 13.1929 258.675 13.1929V14.1449C258.59 14.1289 258.512 14.1209 258.443 14.1209C258.054 14.1209 257.75 14.2356 257.531 14.4649C257.312 14.6889 257.203 15.0142 257.203 15.4409V17.5129H256.203V13.2409H257.155V13.8649ZM263.5 15.4009C263.5 15.4702 263.495 15.5689 263.484 15.6969H260.132C260.191 16.0116 260.343 16.2622 260.588 16.4489C260.839 16.6302 261.148 16.7209 261.516 16.7209C261.985 16.7209 262.372 16.5662 262.676 16.2569L263.212 16.8729C263.02 17.1022 262.777 17.2756 262.484 17.3929C262.191 17.5102 261.86 17.5689 261.492 17.5689C261.023 17.5689 260.609 17.4756 260.252 17.2889C259.895 17.1022 259.617 16.8436 259.42 16.5129C259.228 16.1769 259.132 15.7982 259.132 15.3769C259.132 14.9609 259.225 14.5876 259.412 14.2569C259.604 13.9209 259.868 13.6596 260.204 13.4729C260.54 13.2862 260.919 13.1929 261.34 13.1929C261.756 13.1929 262.127 13.2862 262.452 13.4729C262.783 13.6542 263.039 13.9129 263.22 14.2489C263.407 14.5796 263.5 14.9636 263.5 15.4009ZM261.34 13.9929C261.02 13.9929 260.748 14.0889 260.524 14.2809C260.305 14.4676 260.172 14.7182 260.124 15.0329H262.548C262.505 14.7236 262.375 14.4729 262.156 14.2809C261.937 14.0889 261.665 13.9929 261.34 13.9929Z" fill="#1C1C1C" fill-opacity="0.54"/>
<path d="M292.552 11.9129H293.592V17.5129H292.552V11.9129ZM297.435 13.1929C297.973 13.1929 298.405 13.3502 298.731 13.6649C299.056 13.9796 299.219 14.4462 299.219 15.0649V17.5129H298.219V15.1929C298.219 14.8196 298.131 14.5396 297.955 14.3529C297.779 14.1609 297.528 14.0649 297.203 14.0649C296.835 14.0649 296.544 14.1769 296.331 14.4009C296.117 14.6196 296.011 14.9369 296.011 15.3529V17.5129H295.011V13.2409H295.963V13.7929C296.128 13.5956 296.336 13.4462 296.587 13.3449C296.837 13.2436 297.12 13.1929 297.435 13.1929ZM304.71 11.5769V17.5129H303.75V16.9609C303.585 17.1636 303.38 17.3156 303.134 17.4169C302.894 17.5182 302.628 17.5689 302.334 17.5689C301.924 17.5689 301.553 17.4782 301.222 17.2969C300.897 17.1156 300.641 16.8596 300.454 16.5289C300.268 16.1929 300.174 15.8089 300.174 15.3769C300.174 14.9449 300.268 14.5636 300.454 14.2329C300.641 13.9022 300.897 13.6462 301.222 13.4649C301.553 13.2836 301.924 13.1929 302.334 13.1929C302.617 13.1929 302.876 13.2409 303.11 13.3369C303.345 13.4329 303.545 13.5769 303.71 13.7689V11.5769H304.71ZM302.454 16.7129C302.694 16.7129 302.91 16.6596 303.102 16.5529C303.294 16.4409 303.446 16.2836 303.558 16.0809C303.67 15.8782 303.726 15.6436 303.726 15.3769C303.726 15.1102 303.67 14.8756 303.558 14.6729C303.446 14.4702 303.294 14.3156 303.102 14.2089C302.91 14.0969 302.694 14.0409 302.454 14.0409C302.214 14.0409 301.998 14.0969 301.806 14.2089C301.614 14.3156 301.462 14.4702 301.35 14.6729C301.238 14.8756 301.182 15.1102 301.182 15.3769C301.182 15.6436 301.238 15.8782 301.35 16.0809C301.462 16.2836 301.614 16.4409 301.806 16.5529C301.998 16.6596 302.214 16.7129 302.454 16.7129ZM306.018 13.2409H307.018V17.5129H306.018V13.2409ZM306.522 12.5369C306.341 12.5369 306.189 12.4809 306.066 12.3689C305.944 12.2516 305.882 12.1076 305.882 11.9369C305.882 11.7662 305.944 11.6249 306.066 11.5129C306.189 11.3956 306.341 11.3369 306.522 11.3369C306.704 11.3369 306.856 11.3929 306.978 11.5049C307.101 11.6116 307.162 11.7476 307.162 11.9129C307.162 12.0889 307.101 12.2382 306.978 12.3609C306.861 12.4782 306.709 12.5369 306.522 12.5369ZM310.291 17.5689C309.848 17.5689 309.451 17.4756 309.099 17.2889C308.747 17.1022 308.472 16.8436 308.275 16.5129C308.078 16.1769 307.979 15.7982 307.979 15.3769C307.979 14.9556 308.078 14.5796 308.275 14.2489C308.472 13.9182 308.744 13.6596 309.091 13.4729C309.443 13.2862 309.843 13.1929 310.291 13.1929C310.712 13.1929 311.08 13.2782 311.395 13.4489C311.715 13.6196 311.955 13.8649 312.115 14.1849L311.347 14.6329C311.224 14.4356 311.07 14.2889 310.883 14.1929C310.702 14.0916 310.502 14.0409 310.283 14.0409C309.91 14.0409 309.6 14.1636 309.355 14.4089C309.11 14.6489 308.987 14.9716 308.987 15.3769C308.987 15.7822 309.107 16.1076 309.347 16.3529C309.592 16.5929 309.904 16.7129 310.283 16.7129C310.502 16.7129 310.702 16.6649 310.883 16.5689C311.07 16.4676 311.224 16.3182 311.347 16.1209L312.115 16.5689C311.95 16.8889 311.707 17.1369 311.387 17.3129C311.072 17.4836 310.707 17.5689 310.291 17.5689ZM313.456 17.5689C313.274 17.5689 313.12 17.5076 312.992 17.3849C312.864 17.2569 312.8 17.0969 312.8 16.9049C312.8 16.7076 312.861 16.5476 312.984 16.4249C313.112 16.3022 313.269 16.2409 313.456 16.2409C313.642 16.2409 313.797 16.3022 313.92 16.4249C314.048 16.5476 314.112 16.7076 314.112 16.9049C314.112 17.0969 314.048 17.2569 313.92 17.3849C313.792 17.5076 313.637 17.5689 313.456 17.5689ZM315.409 17.5689C315.227 17.5689 315.073 17.5076 314.945 17.3849C314.817 17.2569 314.753 17.0969 314.753 16.9049C314.753 16.7076 314.814 16.5476 314.937 16.4249C315.065 16.3022 315.222 16.2409 315.409 16.2409C315.595 16.2409 315.75 16.3022 315.873 16.4249C316.001 16.5476 316.065 16.7076 316.065 16.9049C316.065 17.0969 316.001 17.2569 315.873 17.3849C315.745 17.5076 315.59 17.5689 315.409 17.5689ZM317.362 17.5689C317.181 17.5689 317.026 17.5076 316.898 17.3849C316.77 17.2569 316.706 17.0969 316.706 16.9049C316.706 16.7076 316.767 16.5476 316.89 16.4249C317.018 16.3022 317.175 16.2409 317.362 16.2409C317.549 16.2409 317.703 16.3022 317.826 16.4249C317.954 16.5476 318.018 16.7076 318.018 16.9049C318.018 17.0969 317.954 17.2569 317.826 17.3849C317.698 17.5076 317.543 17.5689 317.362 17.5689Z" fill="#1C1C1C" fill-opacity="0.54"/>
<line x1="2.18557e-08" y1="0.809952" x2="375" y2="0.809985" stroke="black" stroke-opacity="0.16" stroke-width="0.5"/>
<rect x="343.916" y="3.05998" width="25.2802" height="21.4301" rx="1" fill="white"/>
<path d="M361.44 11.2271C361.44 11.1145 361.395 11.0065 361.315 10.9268C361.236 10.8472 361.128 10.8025 361.015 10.8025H356.556C356.443 10.8025 356.335 10.8472 356.256 10.9268C356.176 11.0065 356.131 11.1145 356.131 11.2271C356.131 11.3397 356.176 11.4478 356.256 11.5274C356.335 11.607 356.443 11.6518 356.556 11.6518H361.015C361.128 11.6518 361.236 11.607 361.315 11.5274C361.395 11.4478 361.44 11.3397 361.44 11.2271Z" fill="#1A1A1A"/>
<path d="M352.097 11.6518H353.233C353.333 11.9351 353.531 12.1739 353.79 12.326C354.049 12.478 354.354 12.5336 354.65 12.4827C354.946 12.4319 355.215 12.278 355.408 12.0483C355.602 11.8185 355.708 11.5276 355.708 11.2271C355.708 10.9266 355.602 10.6357 355.408 10.406C355.215 10.1762 354.946 10.0223 354.65 9.97149C354.354 9.92067 354.049 9.9762 353.79 10.1283C353.531 10.2803 353.333 10.5191 353.233 10.8025H352.097C351.985 10.8025 351.877 10.8472 351.797 10.9268C351.717 11.0065 351.673 11.1145 351.673 11.2271C351.673 11.3397 351.717 11.4477 351.797 11.5274C351.877 11.607 351.985 11.6518 352.097 11.6518ZM354.433 10.8025C354.517 10.8025 354.599 10.8274 354.669 10.874C354.739 10.9207 354.793 10.987 354.825 11.0646C354.857 11.1422 354.866 11.2276 354.849 11.31C354.833 11.3923 354.793 11.468 354.733 11.5274C354.674 11.5868 354.598 11.6272 354.516 11.6436C354.433 11.66 354.348 11.6516 354.27 11.6194C354.193 11.5873 354.126 11.5329 354.08 11.463C354.033 11.3932 354.008 11.3111 354.008 11.2271C354.008 11.1145 354.053 11.0065 354.133 10.9268C354.212 10.8472 354.32 10.8025 354.433 10.8025Z" fill="#1A1A1A"/>
<path d="M361.015 13.3504H359.454C359.354 13.067 359.157 12.8282 358.898 12.6762C358.639 12.5241 358.334 12.4686 358.038 12.5194C357.742 12.5702 357.473 12.7241 357.279 12.9539C357.086 13.1837 356.979 13.4745 356.979 13.775C356.979 14.0756 357.086 14.3664 357.279 14.5962C357.473 14.8259 357.742 14.9798 358.038 15.0307C358.334 15.0815 358.639 15.026 358.898 14.8739C359.157 14.7218 359.354 14.483 359.454 14.1997H361.015C361.128 14.1997 361.236 14.155 361.315 14.0753C361.395 13.9957 361.44 13.8877 361.44 13.775C361.44 13.6624 361.395 13.5544 361.315 13.4748C361.236 13.3951 361.128 13.3504 361.015 13.3504ZM358.255 14.1997C358.171 14.1997 358.089 14.1748 358.019 14.1281C357.949 14.0815 357.895 14.0151 357.862 13.9375C357.83 13.86 357.822 13.7746 357.838 13.6922C357.855 13.6098 357.895 13.5342 357.955 13.4748C358.014 13.4154 358.09 13.3749 358.172 13.3585C358.254 13.3422 358.34 13.3506 358.417 13.3827C358.495 13.4148 358.561 13.4693 358.608 13.5391C358.655 13.6089 358.679 13.691 358.679 13.775C358.679 13.8877 358.635 13.9957 358.555 14.0753C358.475 14.155 358.367 14.1997 358.255 14.1997Z" fill="#1A1A1A"/>
<path d="M356.131 13.3504H352.097C351.985 13.3504 351.877 13.3951 351.797 13.4748C351.717 13.5544 351.673 13.6624 351.673 13.775C351.673 13.8877 351.717 13.9957 351.797 14.0753C351.877 14.155 351.985 14.1997 352.097 14.1997H356.131C356.244 14.1997 356.352 14.155 356.432 14.0753C356.511 13.9957 356.556 13.8877 356.556 13.775C356.556 13.6624 356.511 13.5544 356.432 13.4748C356.352 13.3951 356.244 13.3504 356.131 13.3504Z" fill="#1A1A1A"/>
<path d="M361.015 15.8983H357.405C357.293 15.8983 357.185 15.9431 357.105 16.0227C357.026 16.1023 356.981 16.2104 356.981 16.323C356.981 16.4356 357.026 16.5436 357.105 16.6233C357.185 16.7029 357.293 16.7476 357.405 16.7476H361.015C361.128 16.7476 361.236 16.7029 361.315 16.6233C361.395 16.5436 361.44 16.4356 361.44 16.323C361.44 16.2104 361.395 16.1023 361.315 16.0227C361.236 15.9431 361.128 15.8983 361.015 15.8983Z" fill="#1A1A1A"/>
<path d="M355.282 15.049C355.019 15.0493 354.762 15.1311 354.548 15.2832C354.333 15.4353 354.17 15.6502 354.083 15.8983H352.097C351.985 15.8983 351.877 15.9431 351.797 16.0227C351.717 16.1023 351.673 16.2104 351.673 16.323C351.673 16.4356 351.717 16.5436 351.797 16.6233C351.877 16.7029 351.985 16.7476 352.097 16.7476H354.083C354.16 16.9679 354.297 17.1625 354.478 17.3102C354.659 17.4578 354.878 17.5529 355.109 17.5849C355.34 17.6169 355.576 17.5847 355.79 17.4918C356.005 17.3988 356.189 17.2487 356.324 17.0579C356.459 16.8671 356.539 16.6429 356.555 16.4098C356.571 16.1767 356.522 15.9437 356.415 15.7364C356.307 15.529 356.144 15.3552 355.945 15.234C355.745 15.1127 355.516 15.0487 355.282 15.049ZM355.282 16.7476C355.198 16.7476 355.116 16.7227 355.046 16.6761C354.976 16.6294 354.922 16.5631 354.89 16.4855C354.858 16.4079 354.849 16.3225 354.866 16.2401C354.882 16.1578 354.923 16.0821 354.982 16.0227C355.041 15.9633 355.117 15.9229 355.199 15.9065C355.282 15.8901 355.367 15.8985 355.445 15.9306C355.522 15.9628 355.589 16.0172 355.635 16.0871C355.682 16.1569 355.707 16.239 355.707 16.323C355.707 16.4356 355.662 16.5436 355.582 16.6233C355.503 16.7029 355.395 16.7476 355.282 16.7476Z" fill="#1A1A1A"/>
</svg>
