<svg width="23" height="23" viewBox="0 0 23 23" fill="none" xmlns="http://www.w3.org/2000/svg">
<rect x="0.585815" y="11.0501" width="1.91586" height="11.4153" fill="#18B779"/>
<path d="M22.794 14.244C22.127 13.3149 21.451 13.3001 19.7583 14.1907L16.4776 16.1965C15.9913 16.4552 14.9934 16.5328 14.0255 16.5492C14.1975 16.1912 14.1206 15.7639 13.7957 15.2785C13.4948 14.8295 13.085 14.4726 12.6094 14.2288C13.3977 13.5881 13.8695 12.6343 13.8695 11.5861C13.8695 9.69823 12.3336 8.16193 10.4454 8.16193C8.55712 8.16193 7.02119 9.69823 7.02119 11.5861C7.02119 12.1495 7.1612 12.6875 7.41193 13.1673C7.40698 13.1639 7.40166 13.1608 7.39709 13.157C6.03123 12.1271 3.74922 11.9818 2.83649 11.9662V10.8145H0.172882V22.9999H2.83611V21.8585H7.78212C8.55826 21.8585 9.34125 21.7992 10.109 21.6828L15.0409 20.9329C15.2205 20.9306 15.4024 20.9093 15.5645 20.8728C16.0187 20.8089 16.4528 20.592 16.8207 20.245L22.5874 15.754L22.5962 15.7468C23.0455 15.3751 23.1322 14.7146 22.794 14.244ZM8.98818 13.8114C8.23144 13.316 7.78212 12.4897 7.78212 11.5861C7.78212 10.1175 8.97715 8.92285 10.4454 8.92285C11.9136 8.92285 13.1086 10.1175 13.1086 11.5861C13.1086 12.57 12.5794 13.4538 11.7191 13.9217C11.672 13.9126 11.624 13.908 11.5765 13.9008C11.5289 13.8936 11.4821 13.8852 11.4338 13.8799C11.3101 13.8662 11.1857 13.8578 11.0609 13.8578H9.57714C9.38576 13.8582 9.18792 13.8426 8.98818 13.8114ZM2.07519 22.239H0.933806V11.5754H2.07519V11.9791V21.8589V22.239ZM22.1149 15.1579L16.3383 19.6561L16.309 19.6815C16.0541 19.9254 15.76 20.0768 15.421 20.1259C15.2825 20.1567 15.1444 20.1723 15.0109 20.1723L9.9945 20.9306C9.2644 21.0417 8.51983 21.098 7.78212 21.098H2.83611V12.7282C3.6796 12.7457 5.76795 12.8819 6.93901 13.7646C7.44731 14.1481 8.05643 14.4083 8.70626 14.5331L8.71197 14.5366L8.78425 14.5491C8.78806 14.5499 8.79148 14.5499 8.79529 14.5506C8.92008 14.5719 9.04639 14.5891 9.17385 14.6001C9.17803 14.6005 9.18222 14.6012 9.18602 14.6016C9.31538 14.6127 9.4455 14.6191 9.57676 14.6191H11.0606C11.2698 14.6191 11.4791 14.6439 11.6822 14.6926L11.7066 14.6986C12.305 14.847 12.8251 15.1989 13.1626 15.7023C13.3228 15.9408 13.3859 16.1391 13.3323 16.2323C13.2307 16.4081 12.7593 16.5161 12.2811 16.537C12.1255 16.5344 11.9836 16.5325 11.8591 16.5325H8.16258C6.97135 16.5325 6.26027 17.1013 6.26027 18.0543C6.26027 18.2643 6.43034 18.4348 6.64073 18.4348C6.85113 18.4348 7.02119 18.2643 7.02119 18.0543C7.02119 17.866 7.02119 17.2934 8.16258 17.2934H11.8508C11.9371 17.2987 12.103 17.3059 12.3119 17.2983C12.3773 17.2995 12.4451 17.3006 12.5143 17.3018C14.2998 17.3349 15.9742 17.3257 16.8546 16.857L20.1334 14.852C21.7025 14.0275 21.8603 14.2486 22.1754 14.6876C22.2808 14.8337 22.2537 15.0395 22.1149 15.1579Z" fill="black"/>
<path d="M12.3477 11.5861C12.3477 10.5371 11.4943 9.68375 10.4454 9.68375C9.39644 9.68375 8.54306 10.5371 8.54306 11.5861C8.54306 12.635 9.39644 13.4884 10.4454 13.4884C11.4943 13.4884 12.3477 12.635 12.3477 11.5861ZM10.4454 12.7274C9.81609 12.7274 9.30398 12.2153 9.30398 11.5861C9.30398 10.9568 9.81609 10.4447 10.4454 10.4447C11.0747 10.4447 11.5868 10.9568 11.5868 11.5861C11.5868 12.2153 11.0747 12.7274 10.4454 12.7274Z" fill="#19A060"/>
<path d="M16.1523 7.78145C18.0405 7.78145 19.5764 6.24514 19.5764 4.35729C19.5764 2.46944 18.0405 0.933136 16.1523 0.933136C14.264 0.933136 12.7281 2.46944 12.7281 4.35729C12.7281 6.24514 14.264 7.78145 16.1523 7.78145ZM16.1523 1.69406C17.6205 1.69406 18.8155 2.88871 18.8155 4.35729C18.8155 5.82587 17.6205 7.02052 16.1523 7.02052C14.6841 7.02052 13.489 5.82587 13.489 4.35729C13.489 2.88871 14.6841 1.69406 16.1523 1.69406Z" fill="#19A060"/>
<mask id="path-5-inside-1_445_647" fill="white">
<path d="M16.1523 6.2596C17.2012 6.2596 18.0546 5.40623 18.0546 4.3573C18.0546 3.30836 17.2012 2.45499 16.1523 2.45499C15.1033 2.45499 14.25 3.30836 14.25 4.3573C14.25 5.40623 15.1033 6.2596 16.1523 6.2596ZM16.1523 3.21591C16.7816 3.21591 17.2937 3.72801 17.2937 4.3573C17.2937 4.98658 16.7816 5.49868 16.1523 5.49868C15.523 5.49868 15.0109 4.98658 15.0109 4.3573C15.0109 3.72801 15.523 3.21591 16.1523 3.21591Z"/>
</mask>
<path d="M16.1523 6.2596C17.2012 6.2596 18.0546 5.40623 18.0546 4.3573C18.0546 3.30836 17.2012 2.45499 16.1523 2.45499C15.1033 2.45499 14.25 3.30836 14.25 4.3573C14.25 5.40623 15.1033 6.2596 16.1523 6.2596ZM16.1523 3.21591C16.7816 3.21591 17.2937 3.72801 17.2937 4.3573C17.2937 4.98658 16.7816 5.49868 16.1523 5.49868C15.523 5.49868 15.0109 4.98658 15.0109 4.3573C15.0109 3.72801 15.523 3.21591 16.1523 3.21591Z" fill="#18B779" fill-opacity="0.32"/>
<path d="M16.1523 8.2596C18.3058 8.2596 20.0546 6.5108 20.0546 4.3573H16.0546C16.0546 4.3461 16.0573 4.33116 16.0633 4.31681C16.0688 4.30383 16.0757 4.29441 16.0826 4.28759C16.0894 4.28076 16.0988 4.27385 16.1118 4.26834C16.1261 4.26227 16.1411 4.2596 16.1523 4.2596V8.2596ZM20.0546 4.3573C20.0546 2.20379 18.3058 0.454987 16.1523 0.454987V4.45499C16.1411 4.45499 16.1261 4.45232 16.1118 4.44625C16.0988 4.44075 16.0894 4.43383 16.0826 4.427C16.0757 4.42018 16.0688 4.41076 16.0633 4.39778C16.0573 4.38344 16.0546 4.36849 16.0546 4.3573H20.0546ZM16.1523 0.454987C13.9988 0.454987 12.25 2.20379 12.25 4.3573H16.25C16.25 4.36849 16.2473 4.38344 16.2412 4.39778C16.2357 4.41076 16.2288 4.42018 16.222 4.427C16.2152 4.43383 16.2057 4.44075 16.1928 4.44625C16.1784 4.45232 16.1635 4.45499 16.1523 4.45499V0.454987ZM12.25 4.3573C12.25 6.5108 13.9988 8.2596 16.1523 8.2596V4.2596C16.1635 4.2596 16.1784 4.26227 16.1928 4.26834C16.2057 4.27385 16.2152 4.28076 16.222 4.28759C16.2288 4.29441 16.2357 4.30383 16.2412 4.31681C16.2473 4.33116 16.25 4.3461 16.25 4.3573H12.25ZM16.1523 5.21591C15.677 5.21591 15.2937 4.83258 15.2937 4.3573H19.2937C19.2937 2.62344 17.8861 1.21591 16.1523 1.21591V5.21591ZM15.2937 4.3573C15.2937 3.88201 15.677 3.49868 16.1523 3.49868V7.49868C17.8861 7.49868 19.2937 6.09115 19.2937 4.3573H15.2937ZM16.1523 3.49868C16.6276 3.49868 17.0109 3.88201 17.0109 4.3573H13.0109C13.0109 6.09115 14.4184 7.49868 16.1523 7.49868V3.49868ZM17.0109 4.3573C17.0109 4.83258 16.6276 5.21591 16.1523 5.21591V1.21591C14.4184 1.21591 13.0109 2.62344 13.0109 4.3573H17.0109Z" fill="#18B779" fill-opacity="0.32" mask="url(#path-5-inside-1_445_647)"/>
</svg>
