<svg width="22" height="20" viewBox="0 0 22 20" fill="none" xmlns="http://www.w3.org/2000/svg">
<rect x="1.3999" y="7.79771" width="19.2" height="2.4" fill="#18B779"/>
<rect x="1.3999" y="11.3977" width="9.6" height="2.4" fill="#18B779" fill-opacity="0.32"/>
<rect x="11" y="4.19772" width="9.6" height="2.4" fill="#18B779" fill-opacity="0.32"/>
<path d="M11 2.84772C11 2.84772 8.75 0.597717 6.5 0.597717C4.25 0.597717 0.875 2.84772 0.875 2.84772V18.5977C0.875 18.5977 4.25 16.3477 6.5 16.3477C8.75 16.3477 11 18.5977 11 18.5977C12.4996 17.0981 14.0004 16.3477 15.5 16.3477C16.9996 16.3477 18.875 17.0981 21.125 18.5977V2.84772C18.875 1.34809 16.9996 0.597717 15.5 0.597717C14.0004 0.597717 12.4996 1.34809 11 2.84772Z" stroke="#1B1B1B" stroke-linecap="square"/>
<path d="M11 2.84772V18.5977" stroke="#1C1C1C" stroke-linecap="round"/>
</svg>
