<svg width="40" height="40" viewBox="0 0 40 40" fill="none" xmlns="http://www.w3.org/2000/svg">
    <path d="M9.55078 25.8594L20.0234 8.42188L30.4922 25.8594H9.55078Z" fill="#3F88C9" />
    <path
        d="M30.4922 26.4141H9.55078C9.34375 26.4141 9.15234 26.3086 9.05078 26.1367C8.94922 25.9648 8.94922 25.7539 9.05078 25.5781L19.5234 8.14453C19.625 7.97266 19.8164 7.86719 20.0234 7.86719C20.2305 7.86719 20.4219 7.97266 20.5234 8.14453L30.9961 25.5781C31.0977 25.75 31.0977 25.9609 30.9961 26.1367C30.8906 26.3086 30.6992 26.4141 30.4922 26.4141ZM10.5508 25.3008H29.4922L20.0234 9.53906L10.5508 25.3008Z"
        fill="#696F8C" />
    <path
        d="M20.0234 0.898438C20.0234 0.898438 25.0625 6.04297 25.0625 14.6641C25.0625 23.2852 20.0234 29.3516 20.0234 29.3516C20.0234 29.3516 14.9844 23.2852 14.9844 14.6641C14.9844 6.04297 20.0234 0.898438 20.0234 0.898438Z"
        fill="#F7F9F9" />
    <path
        d="M20.0234 29.9102C19.8477 29.9102 19.6797 29.832 19.5703 29.6992C19.5156 29.6367 18.2539 28.1016 16.9766 25.4766C15.8008 23.0586 14.4023 19.2188 14.4023 14.6641C14.4023 10.0977 15.8086 6.50781 16.9844 4.29688C18.2656 1.89062 19.543 0.574219 19.5977 0.519531C19.707 0.40625 19.8594 0.34375 20.0195 0.34375C20.1797 0.34375 20.332 0.40625 20.4414 0.519531C20.4961 0.574219 21.7734 1.89062 23.0547 4.29688C24.2344 6.50781 25.6367 10.1016 25.6367 14.6641C25.6367 19.2188 24.2383 23.0586 23.0625 25.4766C21.7891 28.1016 20.5234 29.6367 20.4687 29.6992C20.3633 29.832 20.1992 29.9102 20.0234 29.9102ZM20.0234 1.76562C19.5586 2.33203 18.7734 3.37891 18 4.84375C16.8906 6.9375 15.5625 10.3438 15.5625 14.668C15.5625 19.0195 16.9023 22.6914 18.0273 25.0078C18.793 26.582 19.5547 27.75 20.0234 28.4023C20.4922 27.7422 21.2695 26.5586 22.0352 24.9727C23.1523 22.6641 24.4844 19 24.4844 14.6641C24.4844 10.3398 23.1602 6.9375 22.0469 4.83984C21.2695 3.37891 20.4844 2.32812 20.0234 1.76562Z"
        fill="#696F8C" />
    <path
        d="M17.4844 10.8945C17.4844 11.541 17.7519 12.161 18.228 12.6181C18.7042 13.0752 19.35 13.332 20.0234 13.332C20.6968 13.332 21.3427 13.0752 21.8188 12.6181C22.295 12.161 22.5625 11.541 22.5625 10.8945C22.5625 10.2481 22.295 9.62808 21.8188 9.17096C21.3427 8.71384 20.6968 8.45703 20.0234 8.45703C19.35 8.45703 18.7042 8.71384 18.228 9.17096C17.7519 9.62808 17.4844 10.2481 17.4844 10.8945Z"
        fill="#3F88C9" />
    <path
        d="M20.0234 13.8906C18.3047 13.8906 16.9062 12.5469 16.9062 10.8945C16.9062 9.24219 18.3047 7.89844 20.0234 7.89844C21.7422 7.89844 23.1406 9.24219 23.1406 10.8945C23.1406 12.5469 21.7383 13.8906 20.0234 13.8906ZM20.0234 9.01563C18.9453 9.01563 18.0664 9.85938 18.0664 10.8984C18.0664 11.9375 18.9453 12.7813 20.0234 12.7813C21.1016 12.7813 21.9805 11.9375 21.9805 10.8984C21.9805 9.85938 21.1016 9.01563 20.0234 9.01563Z"
        fill="#696F8C" />
    <path
        d="M22.2656 33.6289C22.2656 34.1367 22.3242 33.3359 20.0234 39.1523C17.8281 33.6016 17.7812 34.1367 17.7812 33.6289C17.7812 32.2227 18.7852 31.082 20.0234 31.082C21.2617 31.082 22.2656 32.2227 22.2656 33.6289Z"
        fill="#3F88C9" />
    <path
        d="M20.0195 39.7109C19.7773 39.7109 19.5625 39.5664 19.4766 39.3516C18.2578 36.2695 17.6953 35.0508 17.4531 34.5352C17.2422 34.082 17.1953 33.9766 17.1953 33.6328C17.1953 31.9219 18.4609 30.5273 20.0156 30.5273C21.5703 30.5273 22.8359 31.9219 22.8359 33.6328V33.668C22.8359 33.9688 22.7969 34.0547 22.6289 34.4141C22.4023 34.8984 21.8672 36.0391 20.5547 39.3555C20.4766 39.5664 20.2617 39.7109 20.0195 39.7109ZM20.0195 31.6367C19.1016 31.6367 18.3555 32.5313 18.3555 33.6289C18.3555 33.7344 18.3555 33.7344 18.5156 34.0781C18.7383 34.5586 19.1602 35.4727 20.0195 37.5977C20.957 35.2734 21.3789 34.3711 21.5781 33.9492C21.625 33.8516 21.668 33.7578 21.6836 33.7188V33.6289C21.6836 32.5313 20.9375 31.6367 20.0195 31.6367Z"
        fill="#696F8C" />
</svg>