<svg width="12" height="13" viewBox="0 0 12 13" fill="none" xmlns="http://www.w3.org/2000/svg">
<path d="M9.27271 8.12765C9.25591 8.07984 9.22227 8.03977 9.17809 8.01495C9.16384 8.00404 9.14847 7.99467 9.13226 7.98698C9.12852 7.98545 9.12612 7.98236 9.12229 7.98084C9.11024 7.97814 9.098 7.9763 9.08569 7.97535C9.05127 7.96476 9.01446 7.96476 8.98004 7.97535C8.96782 7.97625 8.95568 7.97806 8.94372 7.98075C8.93998 7.98213 8.93754 7.98536 8.93384 7.98684C8.88693 8.00327 8.8475 8.03603 8.82275 8.07914C8.81116 8.09405 8.80129 8.11022 8.79331 8.12733C8.79187 8.13084 8.78869 8.13305 8.78767 8.13656L7.912 10.543C7.89975 10.5753 7.89404 10.6098 7.89522 10.6443C7.89639 10.6789 7.90441 10.7129 7.91882 10.7443C7.93324 10.7757 7.95375 10.804 7.97917 10.8274C8.00459 10.8509 8.03442 10.8691 8.06691 10.8809C8.09941 10.8927 8.13393 10.898 8.16847 10.8963C8.20302 10.8947 8.23689 10.8862 8.26814 10.8714C8.29938 10.8566 8.32737 10.8357 8.35048 10.81C8.37359 10.7843 8.39135 10.7542 8.40275 10.7215L8.63518 10.0829H9.43106L9.66349 10.7215C9.68781 10.7858 9.73645 10.8378 9.79887 10.8664C9.86128 10.895 9.93246 10.8979 9.99699 10.8744C10.0615 10.851 10.1142 10.803 10.1436 10.741C10.1731 10.6789 10.1769 10.6078 10.1542 10.543L9.27838 8.13698C9.27714 8.13338 9.27414 8.13116 9.27271 8.12765ZM8.82529 9.56068L9.03298 8.98967L9.24067 9.56068H8.82529Z" fill="#1C1C1C"/>
<path d="M3.60243 4.38032C3.6717 4.37802 3.73722 4.3483 3.78457 4.29769C3.83193 4.24708 3.85724 4.17973 3.85494 4.11046C3.85263 4.04119 3.82291 3.97567 3.7723 3.92832C3.72169 3.88096 3.65434 3.85565 3.58507 3.85795C3.45775 3.85592 3.33114 3.83841 3.20804 3.8058C3.48191 3.51457 3.64534 3.13676 3.67004 2.73775H3.94138C4.01065 2.73775 4.07709 2.71024 4.12607 2.66125C4.17505 2.61227 4.20257 2.54584 4.20257 2.47657C4.20257 2.4073 4.17505 2.34086 4.12607 2.29188C4.07709 2.2429 4.01065 2.21538 3.94138 2.21538H3.03049V1.78181C3.03049 1.71254 3.00297 1.64611 2.95399 1.59713C2.90501 1.54815 2.83857 1.52063 2.7693 1.52063C2.70003 1.52063 2.6336 1.54815 2.58462 1.59713C2.53564 1.64611 2.50812 1.71254 2.50812 1.78181V2.21538H1.59741C1.52814 2.21538 1.46171 2.2429 1.41273 2.29188C1.36375 2.34086 1.33623 2.4073 1.33623 2.47657C1.33623 2.54584 1.36375 2.61227 1.41273 2.66125C1.46171 2.71024 1.52814 2.73775 1.59741 2.73775H3.14781C3.13393 2.89754 3.08769 3.05283 3.0119 3.19419C2.93611 3.33554 2.83236 3.45999 2.70695 3.55998C2.55326 3.43571 2.43802 3.27034 2.37464 3.08312C2.35205 3.01763 2.30437 2.9638 2.24209 2.93347C2.17981 2.90314 2.10803 2.89879 2.04254 2.92138C1.97705 2.94397 1.92322 2.99165 1.89289 3.05393C1.86256 3.11621 1.85821 3.18799 1.8808 3.25348C1.95261 3.46426 2.06847 3.65733 2.22067 3.81988C2.12659 3.85311 2.03043 3.88015 1.93281 3.90083C1.86942 3.91387 1.81313 3.94998 1.77485 4.00216C1.73657 4.05435 1.71904 4.11889 1.72564 4.18326C1.73225 4.24764 1.76252 4.30728 1.8106 4.3506C1.85867 4.39393 1.92113 4.41786 1.98584 4.41775C2.00386 4.41788 2.02183 4.41599 2.03943 4.41212C2.26999 4.36376 2.49249 4.28279 2.70021 4.17166C2.96708 4.304 3.25997 4.3755 3.5578 4.38101C3.57312 4.38083 3.58817 4.38083 3.60243 4.38032Z" fill="#1C1C1C"/>
<path d="M5.04628 5.73841H0.492646C0.362018 5.73832 0.236769 5.68638 0.144401 5.59401C0.0520328 5.50164 9.77937e-05 5.37639 0 5.24577V0.692136C0.000195568 0.56158 0.0521766 0.436435 0.144537 0.344162C0.236897 0.251888 0.362091 0.200024 0.492646 0.199951H5.04628C5.17676 0.200122 5.30185 0.252032 5.39412 0.344298C5.48638 0.436563 5.53829 0.561653 5.53846 0.692136V5.24577C5.53839 5.37632 5.48652 5.50152 5.39425 5.59388C5.30198 5.68624 5.17683 5.73822 5.04628 5.73841ZM0.492646 0.66149L0.461538 5.24577L5.04628 5.27687L5.07692 0.692136L5.04628 0.66149H0.492646Z" fill="#1C1C1C"/>
<path d="M11.31 12.2H6.7563C6.62574 12.1998 6.5006 12.1478 6.40832 12.0554C6.31605 11.9631 6.26419 11.8379 6.26411 11.7073V7.15368C6.26429 7.0232 6.31619 6.89811 6.40846 6.80585C6.50073 6.71358 6.62582 6.66167 6.7563 6.6615H11.31C11.4405 6.66157 11.5657 6.71344 11.6581 6.80571C11.7504 6.89799 11.8024 7.02313 11.8026 7.15368V11.7073C11.8025 11.8379 11.7505 11.9632 11.6582 12.0555C11.5658 12.1479 11.4406 12.1999 11.31 12.2ZM6.7563 7.12304L6.72565 11.7073L11.31 11.7384L11.341 7.15368L11.31 7.12304H6.7563Z" fill="#1C1C1C"/>
<path d="M5.09631 9.40186L4.3711 8.63382C4.35026 8.6118 4.3253 8.5941 4.29762 8.58173C4.26995 8.56936 4.2401 8.56256 4.2098 8.56172C4.1795 8.56088 4.14933 8.56602 4.12101 8.57684C4.09269 8.58767 4.06679 8.60396 4.04477 8.62479C4.02275 8.64563 4.00505 8.6706 3.99268 8.69827C3.98031 8.72595 3.97351 8.75579 3.97267 8.78609C3.97183 8.81639 3.97697 8.84656 3.98779 8.87488C3.99862 8.9032 4.01491 8.9291 4.03574 8.95112L4.39316 9.32959H3.42365C3.31139 9.3295 3.20375 9.2849 3.12433 9.20556C3.04491 9.12621 3.0002 9.01861 3.00001 8.90636V6.72503C3.00001 6.66383 2.97569 6.60513 2.93242 6.56185C2.88914 6.51858 2.83044 6.49426 2.76924 6.49426C2.70803 6.49426 2.64934 6.51858 2.60606 6.56185C2.56278 6.60513 2.53847 6.66383 2.53847 6.72503V8.90654C2.53883 9.14115 2.63223 9.36605 2.79816 9.53191C2.9641 9.69777 3.18904 9.79105 3.42365 9.79131H4.40751L4.03261 10.2046C4.01106 10.2268 3.99421 10.2532 3.98304 10.282C3.97188 10.3109 3.96663 10.3417 3.96761 10.3726C3.9686 10.4035 3.97579 10.434 3.98877 10.462C4.00175 10.4901 4.02024 10.5153 4.04315 10.5361C4.06606 10.5569 4.09292 10.5729 4.12214 10.5831C4.15135 10.5933 4.18232 10.5976 4.2132 10.5956C4.24408 10.5936 4.27424 10.5854 4.30189 10.5715C4.32954 10.5576 4.35411 10.5383 4.37414 10.5147L5.09936 9.71557C5.13848 9.67252 5.15991 9.61629 5.15934 9.55812C5.15878 9.49995 5.13627 9.44414 5.09631 9.40186Z" fill="#1C1C1C"/>
<path d="M6.78879 2.36914L7.51401 3.13718C7.55608 3.18165 7.6141 3.20758 7.6753 3.20926C7.73649 3.21095 7.79585 3.18826 7.84031 3.14618C7.88478 3.10411 7.91071 3.04609 7.9124 2.98489C7.91408 2.9237 7.89139 2.86434 7.84931 2.81988L7.4919 2.44141H8.46141C8.57367 2.44149 8.68133 2.48609 8.76076 2.56543C8.84019 2.64477 8.8849 2.75238 8.8851 2.86465V5.04606C8.8851 5.10726 8.90941 5.16596 8.95269 5.20924C8.99597 5.25252 9.05466 5.27683 9.11587 5.27683C9.17707 5.27683 9.23577 5.25252 9.27905 5.20924C9.32232 5.16596 9.34664 5.10726 9.34664 5.04606V2.86455C9.34627 2.62993 9.25287 2.40503 9.08693 2.23917C8.92098 2.07331 8.69603 1.98003 8.46141 1.97978H7.47755L7.8525 1.56648C7.87404 1.54426 7.8909 1.51794 7.90206 1.48908C7.91323 1.46022 7.91848 1.42941 7.91749 1.39848C7.91651 1.36755 7.90931 1.33714 7.89634 1.30904C7.88336 1.28095 7.86487 1.25576 7.84195 1.23496C7.81904 1.21416 7.79218 1.19818 7.76297 1.18797C7.73376 1.17776 7.70279 1.17353 7.67191 1.17553C7.64103 1.17753 7.61087 1.18573 7.58322 1.19962C7.55557 1.21352 7.531 1.23283 7.51096 1.25641L6.78561 2.05552C6.74653 2.09858 6.72514 2.15481 6.72574 2.21295C6.72633 2.2711 6.74885 2.32688 6.78879 2.36914Z" fill="#1C1C1C"/>
</svg>
