<svg width="20" height="20" viewBox="0 0 20 20" fill="none" xmlns="http://www.w3.org/2000/svg">
<path d="M14.5 10C14.5 12.4853 12.4853 14.5 10 14.5C7.51472 14.5 5.5 12.4853 5.5 10C5.5 7.51472 7.51472 5.5 10 5.5C12.4853 5.5 14.5 7.51472 14.5 10Z" stroke="#1C1C1C"/>
<path d="M19 11H18C17.7348 11 17.4804 10.8946 17.2929 10.7071C17.1054 10.5196 17 10.2652 17 10C17 9.73478 17.1054 9.48043 17.2929 9.29289C17.4804 9.10536 17.7348 9 18 9H19C19.2652 9 19.5196 9.10536 19.7071 9.29289C19.8946 9.48043 20 9.73478 20 10C20 10.2652 19.8946 10.5196 19.7071 10.7071C19.5196 10.8946 19.2652 11 19 11Z" fill="#1C1C1C"/>
<path d="M2 11H1C0.734784 11 0.48043 10.8946 0.292893 10.7071C0.105357 10.5196 0 10.2652 0 10C0 9.73478 0.105357 9.48043 0.292893 9.29289C0.48043 9.10536 0.734784 9 1 9H2C2.26522 9 2.51957 9.10536 2.70711 9.29289C2.89464 9.48043 3 9.73478 3 10C3 10.2652 2.89464 10.5196 2.70711 10.7071C2.51957 10.8946 2.26522 11 2 11Z" fill="#1C1C1C"/>
<path d="M15.66 5.34011C15.4116 5.32886 15.1763 5.22547 15 5.05011C14.8138 4.86275 14.7092 4.6093 14.7092 4.34511C14.7092 4.08092 14.8138 3.82747 15 3.64011L15.71 2.93011C15.7997 2.82543 15.91 2.74041 16.034 2.68038C16.1581 2.62036 16.2932 2.58663 16.431 2.58131C16.5687 2.57599 16.706 2.5992 16.8343 2.64947C16.9627 2.69975 17.0792 2.776 17.1767 2.87346C17.2741 2.97091 17.3504 3.08746 17.4006 3.21579C17.4509 3.34411 17.4741 3.48144 17.4688 3.61916C17.4635 3.75688 17.4298 3.89202 17.3697 4.01608C17.3097 4.14015 17.2247 4.25046 17.12 4.34011L16.41 5.05011C16.3119 5.14772 16.1945 5.2239 16.0654 5.27382C15.9363 5.32374 15.7983 5.34631 15.66 5.34011Z" fill="#1C1C1C"/>
<path d="M3.64 17.36C3.50839 17.3607 3.37793 17.3355 3.25609 17.2857C3.13425 17.236 3.02344 17.1627 2.93 17.07C2.74375 16.8826 2.63921 16.6292 2.63921 16.365C2.63921 16.1008 2.74375 15.8473 2.93 15.66L3.64 15C3.8313 14.8362 4.07738 14.7505 4.32905 14.7603C4.58073 14.77 4.81947 14.8743 4.99756 15.0524C5.17566 15.2305 5.27999 15.4693 5.28971 15.7209C5.29943 15.9726 5.21383 16.2187 5.05 16.41L4.34 17.12C4.14594 17.2865 3.89544 17.3724 3.64 17.36Z" fill="#1C1C1C"/>
<path d="M10 3C9.73478 3 9.48043 2.89464 9.29289 2.70711C9.10536 2.51957 9 2.26522 9 2V1C9 0.734784 9.10536 0.48043 9.29289 0.292893C9.48043 0.105357 9.73478 0 10 0C10.2652 0 10.5196 0.105357 10.7071 0.292893C10.8946 0.48043 11 0.734784 11 1V2C11 2.26522 10.8946 2.51957 10.7071 2.70711C10.5196 2.89464 10.2652 3 10 3Z" fill="#1C1C1C"/>
<path d="M10 20C9.73478 20 9.48043 19.8946 9.29289 19.7071C9.10536 19.5196 9 19.2652 9 19V18C9 17.7348 9.10536 17.4804 9.29289 17.2929C9.48043 17.1054 9.73478 17 10 17C10.2652 17 10.5196 17.1054 10.7071 17.2929C10.8946 17.4804 11 17.7348 11 18V19C11 19.2652 10.8946 19.5196 10.7071 19.7071C10.5196 19.8946 10.2652 20 10 20Z" fill="#1C1C1C"/>
<path d="M4.34 5.33991C4.07766 5.33881 3.82626 5.23465 3.64 5.04991L2.93 4.33991C2.76618 4.14861 2.68057 3.90253 2.69029 3.65086C2.70001 3.39918 2.80434 3.16044 2.98244 2.98235C3.16053 2.80425 3.39927 2.69992 3.65095 2.6902C3.90262 2.68048 4.1487 2.76608 4.34 2.92991L5.05 3.63991C5.23625 3.82727 5.34079 4.08072 5.34079 4.34491C5.34079 4.6091 5.23625 4.86255 5.05 5.04991C4.95656 5.14259 4.84575 5.21592 4.72391 5.26568C4.60207 5.31545 4.47161 5.34067 4.34 5.33991Z" fill="#1C1C1C"/>
<path d="M16.36 17.3601C16.0977 17.359 15.8463 17.2549 15.66 17.0701L15 16.3601C14.8943 16.1701 14.8534 15.9509 14.8835 15.7356C14.9136 15.5203 15.0131 15.3206 15.1668 15.1669C15.3205 15.0132 15.5202 14.9138 15.7355 14.8837C15.9508 14.8536 16.17 14.8944 16.36 15.0001L17.07 15.7101C17.2562 15.8975 17.3608 16.1509 17.3608 16.4151C17.3608 16.6793 17.2562 16.9328 17.07 17.1201C16.8734 17.2891 16.6188 17.3752 16.36 17.3601Z" fill="#1C1C1C"/>
</svg>
