<svg width="10" height="10" viewBox="0 0 10 10" fill="none" xmlns="http://www.w3.org/2000/svg">
<path d="M2.25903 7.58325L0.223759 5.54413C0.0804428 5.39996 0 5.20494 0 5.00165C0 4.79836 0.0804428 4.60334 0.223759 4.45917L2.25903 2.42004L2.80152 2.96637L0.766243 5.00165L2.80152 7.03692L2.25903 7.58325Z" fill="#1C1C1C"/>
<path d="M5.99485 4.61682H0.60849V5.3863H5.99485V4.61682Z" fill="#1C1C1C"/>
<path d="M4.99838 10.0032V9.23376C6.12082 9.23376 7.19728 8.78788 7.99096 7.9942C8.78464 7.20052 9.23052 6.12405 9.23052 5.00162C9.23052 3.87919 8.78464 2.80273 7.99096 2.00905C7.19728 1.21537 6.12082 0.76948 4.99838 0.76948V0C6.32489 0 7.59708 0.526955 8.53506 1.46494C9.47305 2.40293 10 3.67511 10 5.00162C10 6.32813 9.47305 7.60031 8.53506 8.5383C7.59708 9.47629 6.32489 10.0032 4.99838 10.0032Z" fill="#1C1C1C"/>
</svg>
