<svg width="18" height="19" viewBox="0 0 18 19" fill="none" xmlns="http://www.w3.org/2000/svg">
<rect x="2.51489" y="0.697266" width="13" height="5" rx="2" fill="#18B779" fill-opacity="0.32"/>
<path d="M0.514893 6.94683C0.514893 6.95203 0.514893 6.95203 0.514893 6.94683C0.525291 7.9555 1.09721 8.82898 1.9395 9.26052V18.3073C1.9395 18.5205 2.11628 18.6973 2.32945 18.6973H10.7575H13.8979H16.1284C16.3416 18.6973 16.5184 18.5205 16.5184 18.3073V9.26052C17.3554 8.82378 17.9326 7.9503 17.943 6.94683C17.943 6.94163 17.943 6.93123 17.943 6.92603V6.92084C17.943 6.91044 17.943 6.90524 17.943 6.89484C17.943 6.88964 17.943 6.88444 17.943 6.87924C17.943 6.87404 17.943 6.86364 17.9378 6.85844C17.9378 6.85324 17.9378 6.84804 17.9326 6.83765C17.9326 6.83245 17.9274 6.82725 17.9274 6.82205C17.9274 6.81685 17.9222 6.80645 17.9222 6.80125C17.9222 6.79605 17.917 6.79085 17.917 6.78565C17.9118 6.77525 17.9118 6.77006 17.9066 6.76486V6.75966L16.248 3.24493V1.9087C16.248 1.24319 15.7073 0.697266 15.0366 0.697266H3.40571C2.7402 0.697266 2.19427 1.23799 2.19427 1.9087V3.27612L0.551288 6.75966V6.76486C0.546088 6.77006 0.546088 6.78045 0.540889 6.78565C0.540889 6.79085 0.53569 6.79605 0.53569 6.80125C0.53569 6.80645 0.53049 6.81685 0.53049 6.82205C0.53049 6.82725 0.525291 6.83245 0.525291 6.83765C0.525291 6.84285 0.525291 6.84805 0.520092 6.85844C0.520092 6.86364 0.520092 6.87404 0.514893 6.87924C0.514893 6.88444 0.514893 6.88964 0.514893 6.89484C0.514893 6.90524 0.514893 6.91044 0.514893 6.92084V6.92603C0.514893 6.93643 0.514893 6.94163 0.514893 6.94683ZM2.84938 3.72326H5.735L5.08508 6.53609H1.51836L2.84938 3.72326ZM11.9222 3.72326L12.5721 6.53609H9.61888V3.72326H11.9222ZM16.9343 6.53609H13.3676L12.7229 3.72326H15.6085L16.9343 6.53609ZM12.8684 7.83591C12.5409 8.41304 11.9222 8.78219 11.2515 8.78219C10.5652 8.78219 9.93604 8.39744 9.61368 7.79432V7.32118H12.7437L12.8684 7.83591ZM5.709 7.31598H8.83898V7.78912C8.52182 8.39224 7.88751 8.77699 7.2012 8.77699C6.53049 8.77699 5.91177 8.40784 5.58422 7.83071L5.709 7.31598ZM8.83898 6.53609H5.88578L6.53569 3.72326H8.83898V6.53609ZM1.33638 7.31598H4.90311L4.80432 7.75272C4.49236 8.37664 3.84765 8.78219 3.14574 8.78219C2.26186 8.78219 1.51836 8.15307 1.33638 7.31598ZM11.1475 17.9226V14.1323C11.1475 14.0855 11.1839 14.0491 11.2307 14.0491H13.43C13.4768 14.0491 13.5132 14.0855 13.5132 14.1323V17.9226H11.1475ZM15.7385 17.9226H14.2879V14.1323C14.2879 13.6591 13.9031 13.2692 13.4248 13.2692H11.2255C10.7523 13.2692 10.3624 13.6539 10.3624 14.1323V17.9226H2.7194V9.52569C2.85978 9.54648 3.00016 9.56208 3.15094 9.56208C3.94124 9.56208 4.68474 9.20333 5.17867 8.60541C5.67261 9.19813 6.41611 9.56208 7.2064 9.56208C7.9967 9.56208 8.7402 9.20333 9.23413 8.60541C9.72806 9.19813 10.4716 9.56208 11.2619 9.56208C12.0522 9.56208 12.7957 9.20333 13.2896 8.60541C13.7835 9.19813 14.527 9.56208 15.3173 9.56208C15.4629 9.56208 15.6085 9.55168 15.7489 9.52569V17.9226H15.7385ZM15.3069 8.78219C14.605 8.78219 13.9603 8.38184 13.6483 7.75272L13.5496 7.31598H17.1163C16.9395 8.15307 16.196 8.78219 15.3069 8.78219ZM2.97936 1.9139C2.97936 1.67993 3.17174 1.48236 3.41091 1.48236H15.0418C15.2757 1.48236 15.4733 1.67473 15.4733 1.9139V2.94337H2.97936V1.9139Z" fill="#1B1B1B"/>
<path d="M8.28276 10.5656H4.05572C3.84255 10.5656 3.66577 10.7423 3.66577 10.9555V14.335C3.66577 14.5482 3.84255 14.725 4.05572 14.725H8.28276C8.49593 14.725 8.6727 14.5482 8.6727 14.335V10.9555C8.6727 10.7371 8.49593 10.5656 8.28276 10.5656ZM7.89281 12.2553H6.55659V11.3454H7.89281V12.2553ZM5.77669 11.3454V12.2553H4.44567V11.3454H5.77669ZM4.44567 13.0352H5.78189V13.9451H4.44567V13.0352ZM6.55659 13.9451V13.0352H7.89281V13.9451H6.55659Z" fill="#18B779"/>
</svg>
