<svg width="39" height="39" viewBox="0 0 39 39" fill="none" xmlns="http://www.w3.org/2000/svg">
    <g clip-path="url(#clip0_4319_8178)">
        <path
            d="M33.085 22.8127C33.085 22.8127 28.3303 16.5448 24.2874 12.5026C20.2445 8.45971 13.9766 3.70508 13.9766 3.70508C13.9766 3.70508 20.6069 3.72107 26.8383 9.95171C33.069 16.1824 33.085 22.8127 33.085 22.8127Z"
            fill="#3F88C9" />
        <path
            d="M26.7121 7.87402L8.59785 25.9883C7.98887 26.5973 7.98887 27.5838 8.59785 28.1928C9.20684 28.8018 10.1934 28.8018 10.8024 28.1928L28.9166 10.0786L26.7121 7.87402Z"
            fill="#696F8C" />
        <path d="M21.9357 12.65L24.1401 14.8545L28.9168 10.0779L26.7123 7.8734L21.9357 12.65Z" fill="#3F88C9" />
        <path
            d="M25.9769 11.5483C25.7744 11.7516 25.4448 11.7508 25.2423 11.5483C25.039 11.3451 25.039 11.0162 25.2423 10.813C25.4448 10.6105 25.7744 10.6105 25.9769 10.813C26.1802 11.0162 26.1802 11.3451 25.9769 11.5483Z"
            fill="#434A54" />
        <path d="M30.8577 23.8973L25.2384 20.334L19.7225 23.8973L17.4951 28.6489H33.0851L30.8577 23.8973Z"
            fill="#CCD1D9" />
        <path d="M33.085 28.6489L30.8576 23.8973L25.2383 20.334L28.0373 25.7905L27.5037 28.6489H33.085Z"
            fill="#AAB2BC" />
    </g>
    <defs>
        <clipPath id="clip0_4319_8178">
            <rect width="24.944" height="24.944" fill="white" transform="translate(8.14111 3.70508)" />
        </clipPath>
    </defs>
</svg>