<svg width="22" height="22" viewBox="0 0 22 22" fill="none" xmlns="http://www.w3.org/2000/svg">
    <path
        d="M10.9999 16.0595C13.7905 16.0595 16.0599 13.7893 16.0599 10.9995C16.0599 8.20958 13.7898 5.93945 10.9999 5.93945C8.21007 5.93945 5.93994 8.20958 5.93994 10.9995C5.93994 13.79 8.21007 16.0595 10.9999 16.0595ZM8.49744 14.813V14.0932C8.49744 12.9966 9.20832 12.041 10.2664 11.7138C10.3619 11.6849 10.43 11.6003 10.4396 11.5013C10.4493 11.4016 10.3977 11.3068 10.3104 11.2593C9.82844 11.0008 9.52869 10.5058 9.52869 9.9682C9.52869 9.15695 10.1887 8.49695 10.9999 8.49695C11.8112 8.49695 12.4712 9.15695 12.4712 9.9682C12.4712 10.5058 12.1714 11.0008 11.6895 11.2593C11.6015 11.3068 11.5506 11.4023 11.5603 11.5013C11.5699 11.601 11.6379 11.6849 11.7335 11.7138C12.7916 12.041 13.5024 12.9966 13.5024 14.0932V14.813C12.7833 15.2867 11.9239 15.5645 10.9999 15.5645C10.0759 15.5645 9.21657 15.2867 8.49744 14.813ZM10.9999 6.43445C13.5169 6.43445 15.5649 8.48252 15.5649 10.9995C15.5649 12.369 14.9558 13.5961 13.9981 14.4335V14.0932C13.9981 12.9375 13.3409 11.9125 12.322 11.4154C12.7283 11.0476 12.9669 10.5258 12.9669 9.9682C12.9669 8.88402 12.0848 8.00195 11.0006 8.00195C9.91644 8.00195 9.03438 8.88402 9.03438 9.9682C9.03438 10.5258 9.27363 11.0476 9.67925 11.4154C8.66038 11.9125 8.00313 12.9375 8.00313 14.0932V14.4342C7.04407 13.5961 6.43494 12.369 6.43494 10.9995C6.43494 8.48252 8.483 6.43445 10.9999 6.43445ZM20.2812 12.4707C19.6611 12.4707 19.1434 12.9155 19.0272 13.502H17.4349V8.49695H19.0272C19.1427 9.08408 19.6611 9.5282 20.2812 9.5282C20.9859 9.5282 21.5599 8.95483 21.5599 8.24945C21.5599 7.54408 20.9859 6.9707 20.2812 6.9707C19.6611 6.9707 19.1427 7.41483 19.0272 8.00195H17.4349V4.81195C17.4349 4.67514 17.3243 4.56445 17.1874 4.56445H13.9974V2.97152C14.5839 2.85602 15.0287 2.33833 15.0287 1.7182C15.0287 1.01352 14.4546 0.439453 13.7499 0.439453C13.0453 0.439453 12.4712 1.01283 12.4712 1.7182C12.4712 2.33833 12.916 2.85602 13.5024 2.97152V4.56445H8.49744V2.97152C9.08457 2.85602 9.52869 2.33833 9.52869 1.7182C9.52869 1.01352 8.95532 0.439453 8.24994 0.439453C7.54457 0.439453 6.97119 1.01283 6.97119 1.7182C6.97119 2.33833 7.41532 2.85602 8.00244 2.97152V4.56445H4.81244C4.67563 4.56445 4.56494 4.67514 4.56494 4.81195V8.00195H2.972C2.8565 7.41483 2.33882 6.9707 1.71869 6.9707C1.014 6.9707 0.439941 7.54408 0.439941 8.24945C0.439941 8.95483 1.01332 9.5282 1.71869 9.5282C2.33882 9.5282 2.8565 9.08408 2.972 8.49695H4.56494V13.502H2.972C2.8565 12.9155 2.33882 12.4707 1.71869 12.4707C1.014 12.4707 0.439941 13.0448 0.439941 13.7495C0.439941 14.4541 1.01332 15.0282 1.71869 15.0282C2.33882 15.0282 2.8565 14.5834 2.972 13.997H4.56494V17.187C4.56494 17.3238 4.67563 17.4345 4.81244 17.4345H8.00244V19.0267C7.41532 19.1422 6.97119 19.6606 6.97119 20.2807C6.97119 20.9854 7.54457 21.5595 8.24994 21.5595C8.95532 21.5595 9.52869 20.9854 9.52869 20.2807C9.52869 19.6606 9.08457 19.1422 8.49744 19.0267V17.4345H13.5024V19.0267C12.916 19.1429 12.4712 19.6606 12.4712 20.2807C12.4712 20.9854 13.0453 21.5595 13.7499 21.5595C14.4546 21.5595 15.0287 20.9854 15.0287 20.2807C15.0287 19.6606 14.5839 19.1429 13.9974 19.0267V17.4345H17.1874C17.3243 17.4345 17.4349 17.3238 17.4349 17.187V13.997H19.0272C19.1434 14.5834 19.6611 15.0282 20.2812 15.0282C20.9859 15.0282 21.5599 14.4541 21.5599 13.7495C21.5599 13.0448 20.9859 12.4707 20.2812 12.4707ZM20.2812 7.4657C20.7136 7.4657 21.0649 7.8177 21.0649 8.24945C21.0649 8.6812 20.7136 9.0332 20.2812 9.0332C19.8488 9.0332 19.4974 8.6812 19.4974 8.24945C19.4974 7.8177 19.8488 7.4657 20.2812 7.4657ZM12.9662 1.7182C12.9662 1.28645 13.3175 0.934453 13.7499 0.934453C14.1824 0.934453 14.5337 1.28645 14.5337 1.7182C14.5337 2.14995 14.1824 2.50195 13.7499 2.50195C13.3175 2.50195 12.9662 2.14995 12.9662 1.7182ZM7.46619 1.7182C7.46619 1.28645 7.81819 0.934453 8.24994 0.934453C8.68169 0.934453 9.03369 1.28645 9.03369 1.7182C9.03369 2.14995 8.68169 2.50195 8.24994 2.50195C7.81819 2.50195 7.46619 2.14995 7.46619 1.7182ZM1.71869 9.0332C1.28694 9.0332 0.934941 8.6812 0.934941 8.24945C0.934941 7.8177 1.28694 7.4657 1.71869 7.4657C2.15044 7.4657 2.50244 7.8177 2.50244 8.24945C2.50244 8.6812 2.15044 9.0332 1.71869 9.0332ZM1.71869 14.5332C1.28694 14.5332 0.934941 14.1819 0.934941 13.7495C0.934941 13.317 1.28694 12.9657 1.71869 12.9657C2.15044 12.9657 2.50244 13.317 2.50244 13.7495C2.50244 14.1819 2.15044 14.5332 1.71869 14.5332ZM9.03369 20.2807C9.03369 20.7131 8.68169 21.0645 8.24994 21.0645C7.81819 21.0645 7.46619 20.7131 7.46619 20.2807C7.46619 19.8483 7.81819 19.497 8.24994 19.497C8.68169 19.497 9.03369 19.8483 9.03369 20.2807ZM14.5337 20.2807C14.5337 20.7131 14.1824 21.0645 13.7499 21.0645C13.3175 21.0645 12.9662 20.7131 12.9662 20.2807C12.9662 19.8483 13.3175 19.497 13.7499 19.497C14.1824 19.497 14.5337 19.8483 14.5337 20.2807ZM16.9399 16.9395H5.05994V5.05945H16.9399V16.9395ZM20.2812 14.5332C19.8488 14.5332 19.4974 14.1819 19.4974 13.7495C19.4974 13.317 19.8488 12.9657 20.2812 12.9657C20.7136 12.9657 21.0649 13.317 21.0649 13.7495C21.0649 14.1819 20.7136 14.5332 20.2812 14.5332Z"
        fill="black" />
</svg>