<svg width="29" height="27" viewBox="0 0 29 27" fill="none" xmlns="http://www.w3.org/2000/svg">
    <path
        d="M23.7378 24.2144C23.7378 25.2007 24.5706 26.0001 25.5979 26.0001C26.6253 26.0001 27.458 25.2007 27.458 24.2144C27.458 23.2282 26.6253 22.4287 25.5979 22.4287C24.5706 22.4287 23.7378 23.2282 23.7378 24.2144Z"
        stroke="#3F88C9" stroke-width="2" stroke-linecap="round" stroke-linejoin="round" />
    <path
        d="M12.5771 24.2144C12.5771 25.2007 13.4099 26.0001 14.4373 26.0001C15.4646 26.0001 16.2974 25.2007 16.2974 24.2144C16.2974 23.2282 15.4646 22.4287 14.4373 22.4287C13.4099 22.4287 12.5771 23.2282 12.5771 24.2144Z"
        stroke="#3F88C9" stroke-width="2" stroke-linecap="round" stroke-linejoin="round" />
    <path
        d="M1.4165 24.2144C1.4165 25.2007 2.24932 26.0001 3.27662 26.0001C4.30393 26.0001 5.13674 25.2007 5.13674 24.2144C5.13674 23.2282 4.30393 22.4287 3.27662 22.4287C2.24932 22.4287 1.4165 23.2282 1.4165 24.2144Z"
        stroke="#3F88C9" stroke-width="2" stroke-linecap="round" stroke-linejoin="round" />
    <path
        d="M23.7378 13.5006C23.7378 14.4868 24.5706 15.2863 25.5979 15.2863C26.6253 15.2863 27.458 14.4868 27.458 13.5006C27.458 12.5143 26.6253 11.7148 25.5979 11.7148C24.5706 11.7148 23.7378 12.5143 23.7378 13.5006Z"
        stroke="#3F88C9" stroke-width="2" stroke-linecap="round" stroke-linejoin="round" />
    <path
        d="M12.5771 13.5006C12.5771 14.4868 13.4099 15.2863 14.4373 15.2863C15.4646 15.2863 16.2974 14.4868 16.2974 13.5006C16.2974 12.5143 15.4646 11.7148 14.4373 11.7148C13.4099 11.7148 12.5771 12.5143 12.5771 13.5006Z"
        stroke="#3F88C9" stroke-width="2" stroke-linecap="round" stroke-linejoin="round" />
    <path
        d="M1.4165 13.5006C1.4165 14.4868 2.24932 15.2863 3.27662 15.2863C4.30393 15.2863 5.13674 14.4868 5.13674 13.5006C5.13674 12.5143 4.30393 11.7148 3.27662 11.7148C2.24932 11.7148 1.4165 12.5143 1.4165 13.5006Z"
        stroke="#3F88C9" stroke-width="2" stroke-linecap="round" stroke-linejoin="round" />
    <path
        d="M23.7378 2.78571C23.7378 3.77193 24.5706 4.57143 25.5979 4.57143C26.6253 4.57143 27.458 3.77193 27.458 2.78571C27.458 1.7995 26.6253 1 25.5979 1C24.5706 1 23.7378 1.7995 23.7378 2.78571Z"
        stroke="#3F88C9" stroke-width="2" stroke-linecap="round" stroke-linejoin="round" />
    <path
        d="M12.5771 2.78571C12.5771 3.77193 13.4099 4.57143 14.4373 4.57143C15.4646 4.57143 16.2974 3.77193 16.2974 2.78571C16.2974 1.7995 15.4646 1 14.4373 1C13.4099 1 12.5771 1.7995 12.5771 2.78571Z"
        stroke="#3F88C9" stroke-width="2" stroke-linecap="round" stroke-linejoin="round" />
    <path
        d="M1.4165 2.78571C1.4165 3.77193 2.24932 4.57143 3.27662 4.57143C4.30393 4.57143 5.13674 3.77193 5.13674 2.78571C5.13674 1.7995 4.30393 1 3.27662 1C2.24932 1 1.4165 1.7995 1.4165 2.78571Z"
        stroke="#3F88C9" stroke-width="2" stroke-linecap="round" stroke-linejoin="round" />
</svg>