<svg width="40" height="40" viewBox="0 0 40 40" fill="none" xmlns="http://www.w3.org/2000/svg">
    <g clip-path="url(#clip0_4325_8460)">
        <path
            d="M24.1247 3.29339C22.8424 3.29339 22.8424 1.34409 24.1247 1.34409H34.8529C35.3915 1.34409 35.8276 1.78063 35.8276 2.31874V38.5094C35.8276 39.048 35.3915 39.4841 34.8529 39.4841H5.1475C4.60892 39.4841 4.17285 39.048 4.17285 38.5094V14.3477C4.17285 13.0654 6.12216 13.0654 6.12216 14.3477V37.5348H33.8783V3.29339H24.1247ZM25.7948 21.5699C24.5125 21.5699 24.5125 19.6206 25.7948 19.6206H29.6929C30.9746 19.6206 30.9746 21.5699 29.6929 21.5699H25.7948ZM25.7948 24.8624C24.5125 24.8624 24.5125 22.9131 25.7948 22.9131H29.6929C30.9746 22.9131 30.9746 24.8624 29.6929 24.8624H25.7948ZM25.7948 28.1544C24.5125 28.1544 24.5125 26.2051 25.7948 26.2051H29.6929C30.9746 26.2051 30.9746 28.1544 29.6929 28.1544H25.7948ZM25.7948 31.4468C24.5125 31.4468 24.5125 29.4975 25.7948 29.4975H29.6929C30.9746 29.4975 30.9746 31.4468 29.6929 31.4468H25.7948ZM25.7948 34.7393C24.5125 34.7393 24.5125 32.7895 25.7948 32.7895H29.6929C30.9746 32.7895 30.9746 34.7393 29.6929 34.7393H25.7948ZM18.0509 28.1544C16.7692 28.1544 16.7692 26.2051 18.0509 26.2051H21.9491C23.2313 26.2051 23.2313 28.1544 21.9491 28.1544H18.0509ZM18.0509 31.4468C16.7692 31.4468 16.7692 29.4975 18.0509 29.4975H21.9491C23.2313 29.4975 23.2313 31.4468 21.9491 31.4468H18.0509ZM18.0509 34.7393C16.7692 34.7393 16.7692 32.7895 18.0509 32.7895H21.9491C23.2313 32.7895 23.2313 34.7393 21.9491 34.7393H18.0509ZM10.3075 31.4468C9.0258 31.4468 9.0258 29.4975 10.3075 29.4975H14.2057C15.4879 29.4975 15.4879 31.4468 14.2057 31.4468H10.3075ZM10.3075 34.7393C9.0258 34.7393 9.0258 32.7895 10.3075 32.7895H14.2057C15.4879 32.7895 15.4879 34.7393 14.2057 34.7393H10.3075ZM13.5674 1.47826C13.5674 0.196048 15.5167 0.196048 15.5167 1.47826V2.05606H17.6744C18.9561 2.05606 18.9561 4.00537 17.6744 4.00537H15.5167V6.76728H16.1214C17.9555 6.76728 19.4517 8.26399 19.4517 10.098C19.4517 11.9316 17.9555 13.4283 16.1214 13.4283H15.5167V14.0061C15.5167 15.2883 13.5674 15.2883 13.5674 14.0061V13.4283H11.4102C10.128 13.4283 10.128 11.479 11.4102 11.479H13.5674V8.71659H12.9627C11.1315 8.71659 9.63242 7.21752 9.63242 5.38632C9.63242 3.55513 11.1315 2.05606 12.9627 2.05606H13.5674V1.47826ZM15.5167 8.71659V11.479H16.1214C16.8792 11.479 17.5024 10.8553 17.5024 10.098C17.5024 9.34021 16.8788 8.71659 16.1214 8.71659H15.5167ZM13.5674 6.76728V4.00537H12.9627C12.2337 4.00537 11.5817 4.72821 11.5817 5.38632C11.5817 6.11531 12.3046 6.76728 12.9627 6.76728H13.5674Z"
            fill="#2D527C" />
    </g>
    <defs>
        <clipPath id="clip0_4325_8460">
            <rect width="40" height="40" fill="white" />
        </clipPath>
    </defs>
</svg>