<svg width="150" height="150" viewBox="0 0 150 150" fill="none" xmlns="http://www.w3.org/2000/svg">
    <g clip-path="url(#clip0_4358_17564)">
        <path
            d="M112.702 27.7221C132.644 47.6638 132.644 79.9954 112.702 99.9371L117.216 104.451C139.65 82.0163 139.65 45.6429 117.216 23.2086C94.7814 0.774202 58.408 0.774202 35.9738 23.2086C13.5393 45.6429 13.5393 82.0163 35.9738 104.451L40.4872 99.9371C20.5455 79.9954 20.5455 47.6638 40.4872 27.7221C60.4289 7.78037 92.7606 7.78037 112.702 27.7221Z"
            fill="url(#paint0_linear_4358_17564)" />
        <path d="M35.1063 150L76.5957 108.511L44.6808 76.5957L3.19141 118.085H35.1063V150Z"
            fill="url(#paint1_linear_4358_17564)" />
        <path d="M35.1064 150V118.085L60.6384 92.5527L76.5958 108.51L35.1064 150Z" fill="#76808F" />
        <path d="M0 9.57447L9.57447 19.1489L19.1489 9.57447L9.57447 0L0 9.57447Z" fill="#474D57" />
        <path d="M132.447 31.9152L138.83 38.2982L145.213 31.9152L138.83 25.5322L132.447 31.9152Z" fill="#474D57" />
        <path d="M145.213 82.9786H150V78.1914H145.213V82.9786Z" fill="#474D57" />
        <path d="M118.085 150L76.5957 108.511L108.511 76.5957L150 118.085H118.085V150Z"
            fill="url(#paint2_linear_4358_17564)" />
        <path d="M118.085 150V118.085L92.5531 92.5527L76.5957 108.51L118.085 150Z" fill="#76808F" />
        <path fill-rule="evenodd" clip-rule="evenodd"
            d="M76.5959 19.1494C101.272 19.1494 121.277 39.1537 121.277 63.8303C121.277 88.5069 101.272 108.511 76.5959 108.511C51.9193 108.511 31.915 88.5069 31.915 63.8303C31.915 39.1537 51.9193 19.1494 76.5959 19.1494ZM76.5959 82.9792L57.447 63.8303L76.5959 44.6813L95.7448 63.8303L76.5959 82.9792Z"
            fill="url(#paint3_linear_4358_17564)" />
    </g>
    <defs>
        <linearGradient id="paint0_linear_4358_17564" x1="69.782" y1="115.034" x2="69.782" y2="6.52382"
            gradientUnits="userSpaceOnUse">
            <stop stop-color="#2B2F36" />
            <stop offset="1" stop-color="#474D57" />
        </linearGradient>
        <linearGradient id="paint1_linear_4358_17564" x1="39.8935" y1="76.5957" x2="39.8935" y2="150"
            gradientUnits="userSpaceOnUse">
            <stop stop-color="#929AA5" />
            <stop offset="1" stop-color="#76808F" />
        </linearGradient>
        <linearGradient id="paint2_linear_4358_17564" x1="113.298" y1="76.5957" x2="113.298" y2="150"
            gradientUnits="userSpaceOnUse">
            <stop stop-color="#929AA5" />
            <stop offset="1" stop-color="#76808F" />
        </linearGradient>
        <linearGradient id="paint3_linear_4358_17564" x1="76.5959" y1="108.511" x2="76.5959" y2="19.1494"
            gradientUnits="userSpaceOnUse">
            <stop stop-color="#F0B90B" />
            <stop offset="1" stop-color="#F8D33A" />
        </linearGradient>
        <clipPath id="clip0_4358_17564">
            <rect width="150" height="150" fill="white" />
        </clipPath>
    </defs>
</svg>