<svg width="40" height="40" viewBox="0 0 40 40" fill="none" xmlns="http://www.w3.org/2000/svg">
    <g clip-path="url(#clip0_4319_8245)">
        <path
            d="M20 39.6875C9.14375 39.6875 0.3125 30.8563 0.3125 20C0.3125 9.14375 9.14375 0.3125 20 0.3125C30.8563 0.3125 39.6875 9.145 39.6875 20C39.6875 30.855 30.8563 39.6875 20 39.6875Z"
            fill="white" />
        <path
            d="M20 0.625C30.6838 0.625 39.375 9.31625 39.375 20C39.375 30.6838 30.6838 39.375 20 39.375C9.31625 39.375 0.625 30.6838 0.625 20C0.625 9.31625 9.31625 0.625 20 0.625ZM20 0C8.95375 0 0 8.95375 0 20C0 31.0462 8.95375 40 20 40C31.0462 40 40 31.0462 40 20C40 8.95375 31.0462 0 20 0Z"
            fill="#D6D6D6" />
        <path
            d="M20 10.5527C21.3807 10.5527 22.5 9.43345 22.5 8.05273C22.5 6.67202 21.3807 5.55273 20 5.55273C18.6193 5.55273 17.5 6.67202 17.5 8.05273C17.5 9.43345 18.6193 10.5527 20 10.5527Z"
            fill="#D6D6D6" />
        <path
            d="M19.8815 16.3711L17.464 11.1299C17.464 11.1299 14.9277 11.1636 14.9277 13.4974C14.9277 15.8311 14.9277 16.3711 14.9277 16.3711C14.9277 16.3711 19.899 16.3711 19.8815 16.3711Z"
            fill="#696F8C" />
        <path
            d="M20.1192 16.3711L22.5367 11.1299C22.5367 11.1299 25.0729 11.1636 25.0729 13.4974C25.0729 15.8311 25.0729 16.3711 25.0729 16.3711C25.0729 16.3711 20.1017 16.3711 20.1192 16.3711Z"
            fill="#696F8C" />
        <path d="M20 11.1299H18.2588L20 14.9849L21.7413 11.1299H20Z" fill="#3F88C9" />
        <path
            d="M12.9189 23.4258C14.2997 23.4258 15.4189 22.3065 15.4189 20.9258C15.4189 19.5451 14.2997 18.4258 12.9189 18.4258C11.5382 18.4258 10.4189 19.5451 10.4189 20.9258C10.4189 22.3065 11.5382 23.4258 12.9189 23.4258Z"
            fill="#D6D6D6" />
        <path
            d="M12.8014 29.2452L10.3839 24.0039C10.3839 24.0039 7.84766 24.0377 7.84766 26.3714C7.84766 28.7052 7.84766 29.2452 7.84766 29.2452C7.84766 29.2452 12.8177 29.2452 12.8014 29.2452Z"
            fill="#696F8C" />
        <path
            d="M13.0376 29.2452L15.4551 24.0039C15.4551 24.0039 17.9914 24.0377 17.9914 26.3714C17.9914 28.7052 17.9914 29.2452 17.9914 29.2452C17.9914 29.2452 13.0214 29.2452 13.0376 29.2452Z"
            fill="#696F8C" />
        <path d="M12.919 24.0039H11.1777L12.919 27.8589L14.6615 24.0039H12.919Z" fill="#3F88C9" />
        <path
            d="M27.0811 23.4258C28.4618 23.4258 29.5811 22.3065 29.5811 20.9258C29.5811 19.5451 28.4618 18.4258 27.0811 18.4258C25.7003 18.4258 24.5811 19.5451 24.5811 20.9258C24.5811 22.3065 25.7003 23.4258 27.0811 23.4258Z"
            fill="#D6D6D6" />
        <path
            d="M26.9625 29.2452L24.545 24.0039C24.545 24.0039 22.0088 24.0377 22.0088 26.3714C22.0088 28.7052 22.0088 29.2452 22.0088 29.2452C22.0088 29.2452 26.9788 29.2452 26.9625 29.2452Z"
            fill="#696F8C" />
        <path
            d="M27.1988 29.2452L29.6163 24.0039C29.6163 24.0039 32.1525 24.0377 32.1525 26.3714C32.1525 28.7052 32.1525 29.2452 32.1525 29.2452C32.1525 29.2452 27.1825 29.2452 27.1988 29.2452Z"
            fill="#696F8C" />
        <path d="M27.0814 24.0039H25.3389L27.0814 27.8589L28.8226 24.0039H27.0814Z" fill="#3F88C9" />
    </g>
    <defs>
        <clipPath id="clip0_4319_8245">
            <rect width="40" height="40" fill="white" />
        </clipPath>
    </defs>
</svg>