<svg width="150" height="150" viewBox="0 0 150 150" fill="none" xmlns="http://www.w3.org/2000/svg">
    <path d="M110.938 12.5L114.062 9.375L117.188 12.5L114.062 15.625L110.938 12.5Z" fill="#474D57" />
    <path d="M6.25 121.875L10.9375 117.188L15.625 121.875L10.9375 126.562L6.25 121.875Z" fill="#474D57" />
    <path d="M137.5 107.031L139.844 104.688L142.188 107.031L139.844 109.375L137.5 107.031Z" fill="#474D57" />
    <path
        d="M126.562 103.345V126.562H103.345L93.4214 143.75L75 133.115L56.5786 143.75L46.6555 126.562H23.4375V103.345L6.25 93.4216L16.8858 75L6.25034 56.5784L23.4375 46.6553V23.4375H46.6552L56.5784 6.25L75 16.8853L93.4216 6.25L103.345 23.4375H126.562V46.6552L143.75 56.5784L133.114 75L143.75 93.4216L126.562 103.345Z"
        fill="#474D57" />
    <path
        d="M117.188 98.1912V117.188H98.1909L90.072 131.25L75 122.548L59.928 131.25L51.8091 117.188H32.8125V98.1911L18.75 90.0722L27.452 75L18.7503 59.9278L32.8125 51.8089V32.8125H51.8088L59.9278 18.75L75 27.4517L90.0722 18.75L98.1912 32.8125H117.188V51.8088L131.25 59.9278L122.548 75L131.25 90.0722L117.188 98.1912Z"
        fill="url(#paint0_linear_4358_17574)" />
    <path
        d="M74.2867 91.7634L65.727 100.323L57.1672 91.7634L42.1875 76.7837L50.7473 68.224L65.727 83.2035L99.2527 49.6777L107.812 58.2376L74.2867 91.7634Z"
        fill="url(#paint1_linear_4358_17574)" />
    <defs>
        <linearGradient id="paint0_linear_4358_17574" x1="75" y1="18.75" x2="75" y2="131.25"
            gradientUnits="userSpaceOnUse">
            <stop stop-color="#929AA5" />
            <stop offset="1" stop-color="#76808F" />
        </linearGradient>
        <linearGradient id="paint1_linear_4358_17574" x1="67.495" y1="100.323" x2="66.1305" y2="63.3248"
            gradientUnits="userSpaceOnUse">
            <stop stop-color="#F0B90B" />
            <stop offset="1" stop-color="#FBDA3C" />
        </linearGradient>
    </defs>
</svg>