<svg width="23" height="17" viewBox="0 0 23 17" fill="none" xmlns="http://www.w3.org/2000/svg">
<circle cx="8.3999" cy="4.43071" r="3" fill="#18B779" fill-opacity="0.32"/>
<path d="M0.399902 16.4307V13.6307C0.399902 13.064 0.545736 12.5432 0.837402 12.0682C1.12907 11.5932 1.51657 11.2307 1.9999 10.9807C3.03324 10.464 4.08324 10.0765 5.1499 9.81821C6.21657 9.55988 7.2999 9.43071 8.3999 9.43071C9.4999 9.43071 10.5832 9.55988 11.6499 9.81821C12.7166 10.0765 13.7666 10.464 14.7999 10.9807C15.2832 11.2307 15.6707 11.5932 15.9624 12.0682C16.2541 12.5432 16.3999 13.064 16.3999 13.6307V16.4307H0.399902ZM18.3999 16.4307V13.4307C18.3999 12.6974 18.1957 11.9932 17.7874 11.3182C17.3791 10.6432 16.7999 10.064 16.0499 9.58071C16.8999 9.68071 17.6999 9.85154 18.4499 10.0932C19.1999 10.3349 19.8999 10.6307 20.5499 10.9807C21.1499 11.314 21.6082 11.6849 21.9249 12.0932C22.2416 12.5015 22.3999 12.9474 22.3999 13.4307V16.4307H18.3999ZM8.3999 8.43071C7.2999 8.43071 6.35824 8.03904 5.5749 7.25571C4.79157 6.47238 4.3999 5.53071 4.3999 4.43071C4.3999 3.33071 4.79157 2.38904 5.5749 1.60571C6.35824 0.822376 7.2999 0.43071 8.3999 0.43071C9.4999 0.43071 10.4416 0.822376 11.2249 1.60571C12.0082 2.38904 12.3999 3.33071 12.3999 4.43071C12.3999 5.53071 12.0082 6.47238 11.2249 7.25571C10.4416 8.03904 9.4999 8.43071 8.3999 8.43071ZM18.3999 4.43071C18.3999 5.53071 18.0082 6.47238 17.2249 7.25571C16.4416 8.03904 15.4999 8.43071 14.3999 8.43071C14.2166 8.43071 13.9832 8.40988 13.6999 8.36821C13.4166 8.32654 13.1832 8.28071 12.9999 8.23071C13.4499 7.69738 13.7957 7.10571 14.0374 6.45571C14.2791 5.80571 14.3999 5.13071 14.3999 4.43071C14.3999 3.73071 14.2791 3.05571 14.0374 2.40571C13.7957 1.75571 13.4499 1.16404 12.9999 0.63071C13.2332 0.547377 13.4666 0.49321 13.6999 0.46821C13.9332 0.44321 14.1666 0.43071 14.3999 0.43071C15.4999 0.43071 16.4416 0.822376 17.2249 1.60571C18.0082 2.38904 18.3999 3.33071 18.3999 4.43071ZM2.3999 14.4307H14.3999V13.6307C14.3999 13.4474 14.3541 13.2807 14.2624 13.1307C14.1707 12.9807 14.0499 12.864 13.8999 12.7807C12.9999 12.3307 12.0916 11.9932 11.1749 11.7682C10.2582 11.5432 9.33324 11.4307 8.3999 11.4307C7.46657 11.4307 6.54157 11.5432 5.6249 11.7682C4.70824 11.9932 3.7999 12.3307 2.8999 12.7807C2.7499 12.864 2.62907 12.9807 2.5374 13.1307C2.44574 13.2807 2.3999 13.4474 2.3999 13.6307V14.4307ZM8.3999 6.43071C8.9499 6.43071 9.42074 6.23488 9.8124 5.84321C10.2041 5.45154 10.3999 4.98071 10.3999 4.43071C10.3999 3.88071 10.2041 3.40988 9.8124 3.01821C9.42074 2.62654 8.9499 2.43071 8.3999 2.43071C7.8499 2.43071 7.37907 2.62654 6.9874 3.01821C6.59574 3.40988 6.3999 3.88071 6.3999 4.43071C6.3999 4.98071 6.59574 5.45154 6.9874 5.84321C7.37907 6.23488 7.8499 6.43071 8.3999 6.43071Z" fill="#1B1B1B"/>
<path d="M0.899902 12.9307C0.899902 11.2739 2.24305 9.93071 3.8999 9.93071H12.8999C14.5568 9.93071 15.8999 11.2739 15.8999 12.9307V15.9307H0.899902V12.9307Z" stroke="#18B779"/>
</svg>
