<svg width="39" height="8" viewBox="0 0 39 8" fill="none" xmlns="http://www.w3.org/2000/svg">
<path d="M2.54457 2.29011C3.08057 2.29011 3.50057 2.41811 3.80457 2.67411C4.10857 2.93011 4.26057 3.28211 4.26057 3.73011C4.26057 4.17811 4.10857 4.53011 3.80457 4.78611C3.50057 5.03811 3.08057 5.16411 2.54457 5.16411H1.41657V6.49011H0.972574V2.29011H2.54457ZM2.53257 4.77411C2.94857 4.77411 3.26657 4.68411 3.48657 4.50411C3.70657 4.32011 3.81657 4.06211 3.81657 3.73011C3.81657 3.39011 3.70657 3.13011 3.48657 2.95011C3.26657 2.76611 2.94857 2.67411 2.53257 2.67411H1.41657V4.77411H2.53257ZM6.20532 3.31011C6.61732 3.31011 6.93332 3.41411 7.15332 3.62211C7.37332 3.82611 7.48332 4.13011 7.48332 4.53411V6.49011H7.07532V5.99811C6.97932 6.16211 6.83732 6.29011 6.64932 6.38211C6.46532 6.47411 6.24532 6.52011 5.98932 6.52011C5.63732 6.52011 5.35732 6.43611 5.14932 6.26811C4.94132 6.10011 4.83732 5.87811 4.83732 5.60211C4.83732 5.33411 4.93332 5.11811 5.12532 4.95411C5.32132 4.79011 5.63132 4.70811 6.05532 4.70811H7.05732V4.51611C7.05732 4.24411 6.98132 4.03811 6.82932 3.89811C6.67732 3.75411 6.45532 3.68211 6.16332 3.68211C5.96332 3.68211 5.77132 3.71611 5.58732 3.78411C5.40332 3.84811 5.24532 3.93811 5.11332 4.05411L4.92132 3.73611C5.08132 3.60011 5.27332 3.49611 5.49732 3.42411C5.72132 3.34811 5.95732 3.31011 6.20532 3.31011ZM6.05532 6.18411C6.29532 6.18411 6.50132 6.13011 6.67332 6.02211C6.84532 5.91011 6.97332 5.75011 7.05732 5.54211V5.02611H6.06732C5.52732 5.02611 5.25732 5.21411 5.25732 5.59011C5.25732 5.77411 5.32732 5.92011 5.46732 6.02811C5.60732 6.13211 5.80332 6.18411 6.05532 6.18411ZM8.64039 3.33411H9.06639V6.49011H8.64039V3.33411ZM8.85639 2.64411C8.76839 2.64411 8.69439 2.61411 8.63439 2.55411C8.57439 2.49411 8.54439 2.42211 8.54439 2.33811C8.54439 2.25811 8.57439 2.18811 8.63439 2.12811C8.69439 2.06811 8.76839 2.03811 8.85639 2.03811C8.94439 2.03811 9.01839 2.06811 9.07839 2.12811C9.13839 2.18411 9.16839 2.25211 9.16839 2.33211C9.16839 2.42011 9.13839 2.49411 9.07839 2.55411C9.01839 2.61411 8.94439 2.64411 8.85639 2.64411ZM10.6597 3.95211C10.7597 3.74011 10.9077 3.58011 11.1037 3.47211C11.3037 3.36411 11.5497 3.31011 11.8417 3.31011V3.72411L11.7397 3.71811C11.4077 3.71811 11.1477 3.82011 10.9597 4.02411C10.7717 4.22811 10.6777 4.51411 10.6777 4.88211V6.49011H10.2517V3.33411H10.6597V3.95211Z" fill="#1B1B1B" fill-opacity="0.4"/>
<path d="M21.8484 1.43811H22.2384L20.2584 7.09011H19.8684L21.8484 1.43811ZM27.7745 2.29011L25.9145 6.49011H25.4765L23.6165 2.29011H24.0965L25.7045 5.93811L27.3245 2.29011H27.7745ZM29.3438 6.52011C29.0398 6.52011 28.7658 6.45211 28.5218 6.31611C28.2778 6.17611 28.0858 5.98411 27.9458 5.74011C27.8058 5.49611 27.7358 5.22011 27.7358 4.91211C27.7358 4.60411 27.8058 4.32811 27.9458 4.08411C28.0858 3.84011 28.2778 3.65011 28.5218 3.51411C28.7658 3.37811 29.0398 3.31011 29.3438 3.31011C29.6478 3.31011 29.9218 3.37811 30.1658 3.51411C30.4098 3.65011 30.5998 3.84011 30.7358 4.08411C30.8758 4.32811 30.9458 4.60411 30.9458 4.91211C30.9458 5.22011 30.8758 5.49611 30.7358 5.74011C30.5998 5.98411 30.4098 6.17611 30.1658 6.31611C29.9218 6.45211 29.6478 6.52011 29.3438 6.52011ZM29.3438 6.14211C29.5678 6.14211 29.7678 6.09211 29.9438 5.99211C30.1238 5.88811 30.2638 5.74211 30.3638 5.55411C30.4638 5.36611 30.5138 5.15211 30.5138 4.91211C30.5138 4.67211 30.4638 4.45811 30.3638 4.27011C30.2638 4.08211 30.1238 3.93811 29.9438 3.83811C29.7678 3.73411 29.5678 3.68211 29.3438 3.68211C29.1198 3.68211 28.9178 3.73411 28.7378 3.83811C28.5618 3.93811 28.4218 4.08211 28.3178 4.27011C28.2178 4.45811 28.1678 4.67211 28.1678 4.91211C28.1678 5.15211 28.2178 5.36611 28.3178 5.55411C28.4218 5.74211 28.5618 5.88811 28.7378 5.99211C28.9178 6.09211 29.1198 6.14211 29.3438 6.14211ZM31.8156 2.03811H32.2416V6.49011H31.8156V2.03811Z" fill="#1B1B1B" fill-opacity="0.4"/>
<path d="M14.0878 3.69245L16.0495 1.76046C16.0941 1.71587 16.213 1.71587 16.2576 1.76046L18.2193 3.69245C18.2639 3.73703 18.2044 3.79647 18.1152 3.79647H14.1918C14.1027 3.79647 14.0432 3.73703 14.0878 3.69245Z" fill="#1B1B1B"/>
<path d="M14.0878 4.52469L16.0495 6.45667C16.0941 6.50126 16.213 6.50126 16.2576 6.45667L18.2193 4.52469C18.2639 4.4801 18.2044 4.42065 18.1152 4.42065H14.1918C14.1027 4.42065 14.0432 4.4801 14.0878 4.52469Z" fill="#1B1B1B"/>
<path d="M34.8176 3.69245L36.7793 1.76046C36.8239 1.71587 36.9428 1.71587 36.9874 1.76046L38.9491 3.69245C38.9937 3.73703 38.9342 3.79647 38.845 3.79647H34.9216C34.8325 3.79647 34.773 3.73703 34.8176 3.69245Z" fill="#1B1B1B" fill-opacity="0.24"/>
<path d="M34.8176 4.52469L36.7793 6.45667C36.8239 6.50126 36.9428 6.50126 36.9874 6.45667L38.9491 4.52469C38.9937 4.4801 38.9342 4.42065 38.845 4.42065H34.9216C34.8325 4.42065 34.773 4.4801 34.8176 4.52469Z" fill="#1B1B1B"/>
</svg>
