<svg width="23" height="26" viewBox="0 0 23 26" fill="none" xmlns="http://www.w3.org/2000/svg">
<path d="M11.5322 2.71236C11.4164 1.74669 12.3452 0.98908 13.2678 1.29664L20.5022 3.70811C21.5319 4.05134 22.0998 5.15322 21.7821 6.19104L18.1058 18.1969C17.9385 18.7434 17.348 19.0387 16.8104 18.8448L15.5556 18.3923C14.7859 18.1147 14.263 17.3963 14.2352 16.5786L13.8613 5.54691C13.8363 4.80817 13.3665 4.15812 12.6729 3.90258L12.3902 3.79845C11.923 3.62629 11.5916 3.2068 11.5322 2.71236Z" fill="#18B779" fill-opacity="0.32"/>
<path d="M15.0343 7.59344L14.4016 8.27483L14.2312 10.3679L14.4016 13.8724L15.8861 14.8459V14.0428L15.1803 12.4852L15.8861 10.7329L18.7579 12.9963L19.1229 12.0958L17.6627 10.0758L16.3485 8.27483L16.8839 6.06025L16.5919 5.08667L15.8861 5.2814L15.0343 7.59344Z" fill="#1C1C1C"/>
<path d="M21.0293 3.58433L13.5293 1.26433C13.0692 1.12475 12.5725 1.17252 12.1474 1.39725C11.7223 1.62197 11.4031 2.00548 11.2593 2.46433L10.9793 3.36433H1.84931C1.61159 3.36425 1.37619 3.41102 1.15656 3.50195C0.936922 3.59288 0.737358 3.7262 0.569268 3.89429C0.401179 4.06238 0.267858 4.26195 0.176925 4.48158C0.0859918 4.70122 0.0392289 4.93662 0.0393078 5.17433V20.6343C0.0387738 21.1155 0.22898 21.5772 0.56825 21.9183C0.90752 22.2595 1.36819 22.4522 1.84931 22.4543H5.62931C5.73621 22.6738 5.88733 22.8689 6.07319 23.0272C6.25904 23.1855 6.47561 23.3037 6.70931 23.3743L14.3993 25.7443C14.5738 25.8002 14.7562 25.8272 14.9393 25.8243C15.2387 25.8248 15.5338 25.7528 15.7993 25.6143C16.0111 25.5003 16.198 25.3451 16.3491 25.158C16.5002 24.9708 16.6124 24.7554 16.6793 24.5243L18.2393 19.2943V19.2743L22.2393 5.83433C22.3735 5.37554 22.3218 4.88236 22.0954 4.46135C21.869 4.04035 21.4861 3.72532 21.0293 3.58433ZM1.84931 21.7643C1.70088 21.7645 1.55387 21.7354 1.41671 21.6786C1.27955 21.6219 1.15492 21.5387 1.04996 21.4338C0.945 21.3288 0.861769 21.2042 0.805031 21.067C0.748293 20.9299 0.719163 20.7829 0.719308 20.6344V5.17443C0.720701 4.87517 0.840202 4.58856 1.05182 4.37694C1.26343 4.16533 1.55004 4.04583 1.84931 4.04443H12.6193C12.9165 4.04433 13.202 4.16031 13.415 4.36765C13.6279 4.575 13.7515 4.85731 13.7593 5.15443L13.8093 8.04443L13.8193 8.76443L13.8393 9.89443L13.8793 12.4444L13.8893 13.3044L13.8993 13.9844L13.9693 17.9644V18.0444L14.0093 20.6144C14.0123 20.7654 13.985 20.9155 13.9289 21.0558C13.8728 21.196 13.7891 21.3235 13.6828 21.4308C13.5765 21.5381 13.4497 21.6229 13.3099 21.6802C13.1702 21.7375 13.0203 21.7662 12.8693 21.7644L1.84931 21.7643ZM16.0293 24.3343C15.9376 24.6249 15.7369 24.8686 15.4693 25.0143C15.306 25.1006 15.124 25.1452 14.9393 25.1443C14.8276 25.1423 14.7166 25.1255 14.6093 25.0943L6.90931 22.7243C6.73948 22.6725 6.58497 22.5798 6.45931 22.4543H12.8693C13.1116 22.4531 13.3512 22.4039 13.5744 22.3095C13.7975 22.2151 13.9997 22.0774 14.1693 21.9043C14.3382 21.7332 14.4712 21.5301 14.5605 21.3068C14.6498 21.0836 14.6936 20.8447 14.6893 20.6043L14.6593 18.4743L17.4893 19.4043L16.0293 24.3343ZM16.0793 8.55433L18.6793 12.0443L18.5893 12.3943L15.9593 10.3043C15.9142 10.2703 15.8619 10.2471 15.8064 10.2367C15.7508 10.2263 15.6937 10.2289 15.6393 10.2443C15.587 10.2653 15.54 10.2977 15.502 10.3393C15.4639 10.3808 15.4356 10.4304 15.4193 10.4843L14.8893 12.4243C14.866 12.504 14.8731 12.5896 14.9093 12.6643L15.6093 14.1643L15.5793 14.2343L14.5793 13.5343L14.5293 10.5643L14.6093 10.2643C14.626 10.2095 14.6283 10.1512 14.616 10.0952C14.6038 10.0392 14.5774 9.98723 14.5393 9.94433L14.5193 9.92433L14.4893 8.48433L15.0193 8.26433C15.0672 8.2454 15.1102 8.21572 15.1449 8.17758C15.1796 8.13944 15.205 8.09386 15.2193 8.04433L15.7093 6.26433C15.8893 5.58433 16.2293 5.43433 16.3793 5.39433C16.4893 5.50433 16.6993 5.80433 16.5193 6.48433L16.0293 8.26433C16.0147 8.31325 16.0116 8.36489 16.0203 8.4152C16.0289 8.46551 16.0492 8.51313 16.0793 8.55433ZM21.5793 5.63433L17.6893 18.7443L14.6393 17.7643L14.5893 14.3643L15.5893 15.0743C15.6486 15.1137 15.7182 15.1345 15.7893 15.1343C15.8271 15.1366 15.8648 15.1298 15.8993 15.1143C15.9507 15.0965 15.9968 15.0661 16.0335 15.026C16.0702 14.9858 16.0962 14.9371 16.1093 14.8843L16.2993 14.2243C16.3176 14.1442 16.3106 14.0603 16.2793 13.9843L15.5793 12.4843L15.9393 11.1643L18.5693 13.2443C18.6144 13.2784 18.6667 13.3015 18.7223 13.3119C18.7778 13.3223 18.835 13.3197 18.8893 13.3043C18.942 13.287 18.9897 13.2569 19.028 13.2168C19.0664 13.1767 19.0943 13.1278 19.1093 13.0743L19.3793 12.0643C19.3939 12.0154 19.397 11.9638 19.3884 11.9135C19.3797 11.8631 19.3595 11.8155 19.3293 11.7743L16.7293 8.28433L17.1693 6.66433C17.5693 5.22433 16.6593 4.75433 16.6193 4.74433C16.5835 4.72075 16.5421 4.70696 16.4993 4.70433C16.4493 4.70433 15.4493 4.63433 15.0493 6.08433L14.6093 7.70433L14.4793 7.75433L14.4393 5.14433C14.4276 4.66902 14.2308 4.21704 13.8909 3.8846C13.551 3.55215 13.0948 3.36549 12.6193 3.36433H11.6893L11.9093 2.66433C11.9535 2.52107 12.0258 2.38804 12.1219 2.27301C12.2181 2.15798 12.3362 2.06324 12.4693 1.99433C12.6335 1.91041 12.8149 1.8659 12.9993 1.86433C13.111 1.86635 13.222 1.88317 13.3293 1.91433L20.8293 4.23433C21.1137 4.32157 21.3522 4.51767 21.4927 4.77992C21.6331 5.04217 21.6643 5.34922 21.5793 5.63433Z" fill="#1C1C1C"/>
<path d="M12.8694 19.2043C12.9142 19.2047 12.9586 19.1961 13 19.1792C13.0414 19.1622 13.079 19.1372 13.1107 19.1056C13.1423 19.0739 13.1674 19.0363 13.1843 18.9949C13.2013 18.9534 13.2098 18.909 13.2094 18.8643C13.2085 18.7744 13.1724 18.6884 13.1088 18.6249C13.0453 18.5613 12.9593 18.5252 12.8694 18.5243H1.84941C1.75953 18.5252 1.67359 18.5613 1.61003 18.6249C1.54647 18.6885 1.51035 18.7744 1.50941 18.8643C1.50903 18.909 1.51756 18.9534 1.53451 18.9949C1.55145 19.0363 1.57648 19.0739 1.60813 19.1056C1.63978 19.1372 1.67742 19.1622 1.71884 19.1792C1.76027 19.1961 1.80466 19.2047 1.84941 19.2043H12.8694Z" fill="#1C1C1C"/>
<path d="M3.05934 13.8144C3.47702 14.5032 4.0555 15.0805 4.7452 15.4967C5.43489 15.913 6.21523 16.1558 7.01934 16.2044C7.0756 16.2127 7.13249 16.216 7.18934 16.2144C7.21577 16.2194 7.24291 16.2194 7.26934 16.2144C7.29859 16.2226 7.32899 16.226 7.35934 16.2244C7.41934 16.2244 7.48934 16.2144 7.54934 16.2144C7.60951 16.216 7.66972 16.2127 7.72934 16.2044C8.528 16.1501 9.30192 15.9047 9.98588 15.4887C10.6698 15.0728 11.2438 14.4985 11.6593 13.8144C11.6848 13.7922 11.7052 13.765 11.7193 13.7344C11.7193 13.7244 11.7293 13.7244 11.7293 13.7144C11.7593 13.6644 11.7793 13.6244 11.8093 13.5744C11.8093 13.5644 11.8193 13.5644 11.8193 13.5544C11.9463 13.317 12.0533 13.0694 12.1393 12.8144C12.3244 12.2839 12.4191 11.7262 12.4193 11.1644C12.4193 11.0344 12.4093 10.9044 12.3993 10.7744C12.3848 10.5492 12.3548 10.3253 12.3093 10.1044C12.2612 9.89008 12.1977 9.67953 12.1193 9.47436C12.0472 9.2619 11.9603 9.05474 11.8593 8.85436C11.8153 8.76441 11.7651 8.67754 11.7093 8.59436V8.58436C11.6951 8.55939 11.6783 8.53593 11.6593 8.51436C11.3564 8.01319 10.967 7.56967 10.5093 7.20436C10.3248 7.05401 10.1273 6.92016 9.91934 6.80436C8.7669 6.12437 7.39159 5.92989 6.0958 6.26368C4.80001 6.59748 3.68982 7.43221 3.00934 8.58436V8.59436C2.54469 9.37109 2.29932 10.2593 2.29932 11.1644C2.29932 12.0695 2.54469 12.9576 3.00934 13.7344C3.01995 13.7644 3.03702 13.7917 3.05934 13.8144ZM3.45934 9.19436C3.86221 9.37211 4.28537 9.49973 4.71934 9.57436C4.63397 10.1001 4.5905 10.6318 4.58934 11.1644C4.59007 11.6937 4.63354 12.222 4.71934 12.7444C4.28799 12.8298 3.86599 12.957 3.45934 13.1244C3.15035 12.5154 2.98932 11.8422 2.98932 11.1594C2.98932 10.4765 3.15035 9.80329 3.45934 9.19436ZM5.26934 11.1644C5.26573 10.6713 5.30926 10.1791 5.39934 9.69436C5.93571 9.77488 6.47699 9.81832 7.01934 9.82436V12.5044C6.47705 12.5116 5.93585 12.555 5.39934 12.6344C5.30926 12.1496 5.26572 11.6574 5.26934 11.1644ZM9.32934 9.69436C9.39026 10.0114 9.43035 10.3321 9.44934 10.6544C9.44934 10.8244 9.45934 10.9944 9.45934 11.1644C9.46299 11.6541 9.41946 12.143 9.32934 12.6244C9.17934 12.6044 9.01934 12.5844 8.85934 12.5644C8.62934 12.5444 8.39934 12.5244 8.15934 12.5144C8.00934 12.5044 7.84934 12.5044 7.69934 12.5044V9.82436C8.14934 9.81436 8.59934 9.78436 9.01934 9.73436C9.12332 9.72656 9.2268 9.71327 9.32934 9.69436ZM7.01934 13.1844V15.4744C6.62593 15.2452 6.28939 14.9301 6.03484 14.5526C5.7803 14.1751 5.61433 13.745 5.54934 13.2944C6.03645 13.2259 6.52748 13.1893 7.01934 13.1844ZM7.99934 15.3244C7.90587 15.3891 7.8052 15.4428 7.69934 15.4844V13.1844H7.94934C8.18934 13.1944 8.41934 13.2144 8.64934 13.2344C8.82934 13.2544 9.00934 13.2744 9.17934 13.2944C9.0269 14.085 8.61093 14.8006 7.99934 15.3244ZM7.69934 9.13436V6.84436C8.09445 7.07507 8.43261 7.39168 8.6888 7.77077C8.94499 8.14986 9.11264 8.58171 9.17934 9.03436C8.68861 9.09891 8.19429 9.13224 7.69934 9.13436ZM7.01934 6.85436V9.13436C6.5277 9.13263 6.03668 9.09923 5.54934 9.03436C5.61439 8.58372 5.78038 8.1536 6.03492 7.77609C6.28946 7.39858 6.62597 7.08363 7.01934 6.85436ZM3.80934 13.7144C4.15366 13.5824 4.50817 13.4787 4.86934 13.4044C5.02758 14.0517 5.30203 14.665 5.67934 15.2144C4.93008 14.8955 4.2831 14.3766 3.80934 13.7144ZM9.05934 15.2044C9.42742 14.6584 9.6981 14.0528 9.85934 13.4144C10.2177 13.4824 10.5691 13.5828 10.9093 13.7144C10.4423 14.3725 9.80189 14.8883 9.05934 15.2044ZM11.6293 10.1944C11.6829 10.4176 11.7163 10.6452 11.7293 10.8744C11.7377 10.9708 11.741 11.0676 11.7393 11.1644C11.7393 11.8456 11.5782 12.5172 11.2693 13.1244C10.8632 12.9556 10.441 12.8283 10.0093 12.7444C10.0952 12.2221 10.1387 11.6937 10.1393 11.1644C10.1393 11.0544 10.1393 10.9444 10.1293 10.8344V10.5944C10.0993 10.2443 10.0593 9.90429 10.0093 9.57436C10.1693 9.54436 10.3193 9.51436 10.4693 9.47436C10.472 9.47436 10.4745 9.4733 10.4764 9.47143C10.4783 9.46955 10.4793 9.46701 10.4793 9.46436C10.7512 9.40174 11.016 9.31126 11.2693 9.19436C11.3605 9.3713 11.4374 9.55521 11.4993 9.74436C11.5545 9.89066 11.5979 10.0412 11.6293 10.1944ZM9.70934 7.47436C9.91503 7.60398 10.1091 7.7512 10.2893 7.91436C10.5218 8.12348 10.7298 8.35832 10.9093 8.61436C10.6124 8.73467 10.3042 8.82512 9.98934 8.88436C9.94934 8.89436 9.89934 8.90436 9.85934 8.91436C9.77716 8.60422 9.67358 8.30016 9.54934 8.00436C9.41497 7.69897 9.25085 7.40756 9.05934 7.13436C9.28691 7.22546 9.50468 7.33944 9.70934 7.47436ZM5.67934 7.12436C5.30326 7.66585 5.03191 8.27298 4.87934 8.91436C4.51775 8.84624 4.163 8.74584 3.81934 8.61436C4.28456 7.95042 4.92992 7.43357 5.67934 7.12436Z" fill="#19A060"/>
</svg>
