<svg width="21" height="8" viewBox="0 0 21 8" fill="none" xmlns="http://www.w3.org/2000/svg">
<path d="M2.26015 2.29011C2.79615 2.29011 3.21615 2.41811 3.52015 2.67411C3.82415 2.93011 3.97615 3.28211 3.97615 3.73011C3.97615 4.17811 3.82415 4.53011 3.52015 4.78611C3.21615 5.03811 2.79615 5.16411 2.26015 5.16411H1.13215V6.49011H0.68815V2.29011H2.26015ZM2.24815 4.77411C2.66415 4.77411 2.98215 4.68411 3.20215 4.50411C3.42215 4.32011 3.53215 4.06211 3.53215 3.73011C3.53215 3.39011 3.42215 3.13011 3.20215 2.95011C2.98215 2.76611 2.66415 2.67411 2.24815 2.67411H1.13215V4.77411H2.24815ZM5.17217 3.95211C5.27217 3.74011 5.42017 3.58011 5.61617 3.47211C5.81617 3.36411 6.06217 3.31011 6.35417 3.31011V3.72411L6.25217 3.71811C5.92017 3.71811 5.66017 3.82011 5.47217 4.02411C5.28417 4.22811 5.19017 4.51411 5.19017 4.88211V6.49011H4.76417V3.33411H5.17217V3.95211ZM7.12549 3.33411H7.55149V6.49011H7.12549V3.33411ZM7.34149 2.64411C7.25349 2.64411 7.17949 2.61411 7.11949 2.55411C7.05949 2.49411 7.02949 2.42211 7.02949 2.33811C7.02949 2.25811 7.05949 2.18811 7.11949 2.12811C7.17949 2.06811 7.25349 2.03811 7.34149 2.03811C7.42949 2.03811 7.50349 2.06811 7.56349 2.12811C7.62349 2.18411 7.65349 2.25211 7.65349 2.33211C7.65349 2.42011 7.62349 2.49411 7.56349 2.55411C7.50349 2.61411 7.42949 2.64411 7.34149 2.64411ZM10.0448 6.52011C9.73282 6.52011 9.45282 6.45211 9.20482 6.31611C8.96082 6.18011 8.76882 5.99011 8.62882 5.74611C8.48882 5.49811 8.41882 5.22011 8.41882 4.91211C8.41882 4.60411 8.48882 4.32811 8.62882 4.08411C8.76882 3.84011 8.96082 3.65011 9.20482 3.51411C9.45282 3.37811 9.73282 3.31011 10.0448 3.31011C10.3168 3.31011 10.5588 3.36411 10.7708 3.47211C10.9868 3.57611 11.1568 3.73011 11.2808 3.93411L10.9628 4.15011C10.8588 3.99411 10.7268 3.87811 10.5668 3.80211C10.4068 3.72211 10.2328 3.68211 10.0448 3.68211C9.81682 3.68211 9.61082 3.73411 9.42682 3.83811C9.24682 3.93811 9.10482 4.08211 9.00082 4.27011C8.90082 4.45811 8.85082 4.67211 8.85082 4.91211C8.85082 5.15611 8.90082 5.37211 9.00082 5.56011C9.10482 5.74411 9.24682 5.88811 9.42682 5.99211C9.61082 6.09211 9.81682 6.14211 10.0448 6.14211C10.2328 6.14211 10.4068 6.10411 10.5668 6.02811C10.7268 5.95211 10.8588 5.83611 10.9628 5.68011L11.2808 5.89611C11.1568 6.10011 10.9868 6.25611 10.7708 6.36411C10.5548 6.46811 10.3128 6.52011 10.0448 6.52011ZM14.8129 5.04411H12.1729C12.1969 5.37211 12.3229 5.63811 12.5509 5.84211C12.7789 6.04211 13.0669 6.14211 13.4149 6.14211C13.6109 6.14211 13.7909 6.10811 13.9549 6.04011C14.1189 5.96811 14.2609 5.86411 14.3809 5.72811L14.6209 6.00411C14.4809 6.17211 14.3049 6.30011 14.0929 6.38811C13.8849 6.47611 13.6549 6.52011 13.4029 6.52011C13.0789 6.52011 12.7909 6.45211 12.5389 6.31611C12.2909 6.17611 12.0969 5.98411 11.9569 5.74011C11.8169 5.49611 11.7469 5.22011 11.7469 4.91211C11.7469 4.60411 11.8129 4.32811 11.9449 4.08411C12.0809 3.84011 12.2649 3.65011 12.4969 3.51411C12.7329 3.37811 12.9969 3.31011 13.2889 3.31011C13.5809 3.31011 13.8429 3.37811 14.0749 3.51411C14.3069 3.65011 14.4889 3.84011 14.6209 4.08411C14.7529 4.32411 14.8189 4.60011 14.8189 4.91211L14.8129 5.04411ZM13.2889 3.67611C12.9849 3.67611 12.7289 3.77411 12.5209 3.97011C12.3169 4.16211 12.2009 4.41411 12.1729 4.72611H14.4109C14.3829 4.41411 14.2649 4.16211 14.0569 3.97011C13.8529 3.77411 13.5969 3.67611 13.2889 3.67611Z" fill="#1B1B1B" fill-opacity="0.4"/>
<path d="M16.8033 3.69245L18.765 1.76046C18.8096 1.71587 18.9285 1.71587 18.9731 1.76046L20.9348 3.69245C20.9794 3.73703 20.9199 3.79647 20.8308 3.79647H16.9073C16.8182 3.79647 16.7587 3.73703 16.8033 3.69245Z" fill="#1B1B1B" fill-opacity="0.24"/>
<path d="M16.8033 4.52469L18.765 6.45667C18.8096 6.50126 18.9285 6.50126 18.9731 6.45667L20.9348 4.52469C20.9794 4.4801 20.9199 4.42065 20.8308 4.42065H16.9073C16.8182 4.42065 16.7587 4.4801 16.8033 4.52469Z" fill="#1B1B1B" fill-opacity="0.24"/>
</svg>
