<svg width="30" height="30" viewBox="0 0 30 30" fill="none" xmlns="http://www.w3.org/2000/svg">
<circle cx="15" cy="15" r="14" stroke="#D9D9D9"/>
<path d="M15.2502 16.3333C17.5513 16.3333 19.4168 14.4679 19.4168 12.1667C19.4168 9.86548 17.5513 8 15.2502 8C12.949 8 11.0835 9.86548 11.0835 12.1667C11.0835 14.4679 12.949 16.3333 15.2502 16.3333Z" stroke="#1A1A1A" stroke-miterlimit="10"/>
<path d="M9 20.5C9.63334 19.2332 10.5444 18.1812 11.6415 17.4498C12.7386 16.7184 13.9831 16.3333 15.25 16.3333C16.5169 16.3333 17.7614 16.7184 18.8585 17.4498C19.9556 18.1812 20.8667 19.2332 21.5 20.5" stroke="#1A1A1A" stroke-linecap="round" stroke-linejoin="round"/>
<circle cx="23" cy="4" r="3" fill="#FFA423"/>
</svg>
