<svg width="30" height="19" viewBox="0 0 30 19" fill="none" xmlns="http://www.w3.org/2000/svg">
<path d="M20.0403 11.4352C19.9745 11.4352 19.9094 11.4419 19.8487 11.455C19.788 11.4681 19.7328 11.4872 19.6864 11.5113C19.64 11.5355 19.6031 11.5641 19.5781 11.5956C19.553 11.6271 19.5402 11.6609 19.5403 11.695V14.1759C19.5403 14.2447 19.593 14.3106 19.6867 14.3593C19.7805 14.4079 19.9077 14.4352 20.0403 14.4352C20.1729 14.4352 20.3001 14.4079 20.3938 14.3593C20.4876 14.3106 20.5403 14.2447 20.5403 14.1759V11.695C20.5404 11.6609 20.5276 11.6271 20.5025 11.5956C20.4774 11.5641 20.4406 11.5355 20.3942 11.5113C20.3477 11.4872 20.2926 11.4681 20.2318 11.455C20.1711 11.4419 20.106 11.4352 20.0403 11.4352Z" fill="#18B779"/>
<path d="M9.04028 11.4352C8.97454 11.4352 8.90945 11.4419 8.84872 11.455C8.788 11.4681 8.73283 11.4872 8.68639 11.5113C8.63995 11.5355 8.60314 11.5641 8.57807 11.5956C8.553 11.6271 8.54016 11.6609 8.54028 11.695V14.1759C8.54028 14.2447 8.59296 14.3106 8.68673 14.3593C8.7805 14.4079 8.90767 14.4352 9.04028 14.4352C9.17289 14.4352 9.30007 14.4079 9.39384 14.3593C9.4876 14.3106 9.54028 14.2447 9.54028 14.1759V11.695C9.54041 11.6609 9.52757 11.6271 9.5025 11.5956C9.47743 11.5641 9.44062 11.5355 9.39417 11.5113C9.34773 11.4872 9.29257 11.4681 9.23185 11.455C9.17112 11.4419 9.10602 11.4352 9.04028 11.4352Z" fill="#18B779"/>
<path d="M27.9886 3.26715H27.9672C28.2213 2.96042 28.3611 2.57603 28.363 2.17885C28.3543 1.72204 28.1654 1.28686 27.8369 0.966864C27.5084 0.646864 27.0666 0.467596 26.6064 0.467596C26.1462 0.467596 25.7044 0.646864 25.376 0.966864C25.0475 1.28686 24.8586 1.72204 24.8499 2.17885C24.8515 2.57597 24.9911 2.96036 25.2451 3.26715H25.2243C24.8128 3.26748 24.4182 3.42988 24.1272 3.71871C23.8362 4.00754 23.6724 4.3992 23.6719 4.80775V6.53765C23.3601 6.28755 22.9814 6.13352 22.5824 6.09456C22.1835 6.05559 21.7818 6.13339 21.4268 6.31837V4.80775C21.4265 4.39937 21.263 4.00779 20.9722 3.71896C20.6814 3.43014 20.287 3.26764 19.8757 3.26715H19.8537C20.1078 2.96042 20.2476 2.57603 20.2495 2.17885C20.2495 1.71641 20.0645 1.27291 19.7351 0.945912C19.4057 0.618916 18.959 0.435211 18.4933 0.435211C18.0275 0.435211 17.5808 0.618916 17.2514 0.945912C16.9221 1.27291 16.737 1.71641 16.737 2.17885C16.7387 2.57597 16.8782 2.96036 17.1322 3.26715H17.114C16.7025 3.26748 16.308 3.4299 16.0171 3.71874C15.7262 4.00759 15.5626 4.39926 15.5622 4.80775V7.61907C15.3947 7.58539 15.2241 7.56843 15.0532 7.56847C14.6592 7.57138 14.2713 7.66572 13.9205 7.84398V4.80775C13.9202 4.39926 13.7566 4.00759 13.4657 3.71874C13.1748 3.4299 12.7803 3.26748 12.3688 3.26715H12.3474C12.6014 2.96036 12.741 2.57597 12.7426 2.17885C12.7426 1.71641 12.5576 1.27291 12.2282 0.945912C11.8989 0.618916 11.4522 0.435211 10.9864 0.435211C10.5206 0.435211 10.0739 0.618916 9.74454 0.945912C9.41518 1.27291 9.23015 1.71641 9.23015 2.17885C9.232 2.57603 9.37179 2.96042 9.62595 3.26715H9.60455C9.19306 3.26748 8.7985 3.42988 8.50747 3.71871C8.21644 4.00754 8.05271 4.3992 8.05221 4.80775V6.1147C7.76228 6.06185 7.46409 6.07427 7.17964 6.15103C6.89518 6.2278 6.6317 6.36696 6.40862 6.55827V4.809C6.40812 4.40045 6.24439 4.00879 5.95336 3.71996C5.66233 3.43113 5.26777 3.26873 4.85627 3.2684H4.83551C5.08948 2.96161 5.22906 2.57721 5.23067 2.1801C5.22196 1.72329 5.03307 1.28811 4.70461 0.968113C4.37614 0.648114 3.93432 0.468845 3.47414 0.468845C3.01395 0.468845 2.57213 0.648114 2.24367 0.968113C1.9152 1.28811 1.72631 1.72329 1.7176 2.1801C1.71944 2.57728 1.85924 2.96167 2.11339 3.2684H2.092C1.68061 3.26889 1.28622 3.43136 0.995322 3.72018C0.704427 4.00899 0.540783 4.40056 0.540283 4.809V7.30795C0.540283 7.39477 0.575022 7.47804 0.636857 7.53943C0.698692 7.60082 0.782559 7.63531 0.870007 7.63531C0.957456 7.63531 1.04132 7.60082 1.10316 7.53943C1.16499 7.47804 1.19973 7.39477 1.19973 7.30795V4.809C1.20006 4.57421 1.2942 4.34914 1.46148 4.18318C1.62876 4.01721 1.85552 3.92391 2.092 3.92375H4.85061C5.0872 3.92375 5.31412 4.01697 5.48154 4.18295C5.64895 4.34894 5.74317 4.5741 5.74351 4.809V7.30795C5.74458 7.34342 5.75159 7.37847 5.76427 7.41166C5.61374 7.78227 5.57469 8.18828 5.65187 8.58048C5.72904 8.97268 5.91912 9.33424 6.19908 9.62135H5.99772C5.50523 9.62185 5.03305 9.81631 4.6848 10.1621C4.33656 10.5078 4.14069 10.9766 4.14019 11.4656V14.5893C4.14019 14.6323 4.14872 14.6748 4.16529 14.7145C4.18186 14.7543 4.20615 14.7904 4.23677 14.8207C4.26738 14.8511 4.30373 14.8753 4.34374 14.8917C4.38374 14.9082 4.42662 14.9166 4.46992 14.9166C4.51322 14.9166 4.55609 14.9082 4.5961 14.8917C4.6361 14.8753 4.67245 14.8511 4.70307 14.8207C4.73368 14.7904 4.75797 14.7543 4.77454 14.7145C4.79111 14.6748 4.79964 14.6323 4.79964 14.5893V11.4656C4.80047 11.151 4.9267 10.8496 5.15073 10.6272C5.37476 10.4047 5.67838 10.2794 5.99521 10.2786H9.45102C9.7681 10.2786 10.0722 10.4036 10.2964 10.6262C10.5206 10.8488 10.6466 11.1508 10.6466 11.4656V18.1215C10.6503 18.206 10.6867 18.2857 10.7482 18.3442C10.8097 18.4026 10.8915 18.4352 10.9766 18.4352C11.0617 18.4352 11.1436 18.4026 11.2051 18.3442C11.2666 18.2857 11.3029 18.206 11.3067 18.1215V14.2132C11.3073 13.7976 11.474 13.3992 11.77 13.1053C12.0661 12.8115 12.4674 12.6462 12.8861 12.6457H17.2052C17.6238 12.6462 18.0252 12.8115 18.3212 13.1053C18.6173 13.3992 18.7839 13.7976 18.7846 14.2132V18.1215C18.7883 18.206 18.8247 18.2857 18.8862 18.3442C18.9477 18.4026 19.0295 18.4352 19.1146 18.4352C19.1998 18.4352 19.2816 18.4026 19.3431 18.3442C19.4046 18.2857 19.441 18.206 19.4447 18.1215V11.4668C19.4447 11.152 19.5706 10.8501 19.7949 10.6275C20.0191 10.4049 20.3232 10.2798 20.6402 10.2798H24.0961C24.4131 10.2798 24.7172 10.4049 24.9415 10.6275C25.1657 10.8501 25.2916 11.152 25.2916 11.4668V14.5905C25.2916 14.6773 25.3264 14.7606 25.3882 14.822C25.45 14.8834 25.5339 14.9179 25.6213 14.9179C25.7088 14.9179 25.7927 14.8834 25.8545 14.822C25.9163 14.7606 25.9511 14.6773 25.9511 14.5905V11.4668C25.9506 10.978 25.7548 10.5093 25.4067 10.1635C25.0586 9.8178 24.5866 9.62327 24.0942 9.6226H23.8928C24.1776 9.32819 24.3692 8.9573 24.4438 8.55587C24.5184 8.15445 24.4727 7.74011 24.3125 7.36418C24.3177 7.34619 24.3212 7.32779 24.3232 7.3092V4.81025C24.3235 4.57535 24.4178 4.35019 24.5852 4.1842C24.7526 4.01822 24.9795 3.925 25.2161 3.925H27.9804C28.098 3.92401 28.2146 3.94608 28.3235 3.98996C28.4325 4.03383 28.5316 4.09864 28.6153 4.18066C28.699 4.26268 28.7655 4.3603 28.8111 4.46791C28.8566 4.57553 28.8803 4.69102 28.8808 4.80775V7.3067C28.8808 7.39352 28.9156 7.47679 28.9774 7.53818C29.0392 7.59957 29.1231 7.63406 29.2106 7.63406C29.298 7.63406 29.3819 7.59957 29.4437 7.53818C29.5055 7.47679 29.5403 7.39352 29.5403 7.3067V4.80775C29.5398 4.39931 29.3761 4.00774 29.0852 3.71893C28.7943 3.43011 28.4 3.26764 27.9886 3.26715ZM2.37201 2.17885C2.37189 1.96346 2.43611 1.75287 2.55655 1.57371C2.67699 1.39456 2.84824 1.25489 3.04863 1.17238C3.24903 1.08987 3.46958 1.06821 3.68237 1.11016C3.89517 1.1521 4.09065 1.25576 4.2441 1.40803C4.39755 1.56029 4.50207 1.75432 4.54444 1.96556C4.58681 2.17681 4.56513 2.39579 4.48213 2.5948C4.39914 2.79381 4.25856 2.96391 4.07819 3.08359C3.89781 3.20327 3.68574 3.26715 3.46879 3.26715C3.17812 3.26682 2.89944 3.15207 2.69384 2.94807C2.48825 2.74406 2.37251 2.46744 2.37201 2.17885ZM17.3965 2.17885C17.3964 1.96346 17.4606 1.75287 17.581 1.57371C17.7015 1.39456 17.8727 1.25489 18.0731 1.17238C18.2735 1.08987 18.4941 1.06821 18.7068 1.11016C18.9196 1.1521 19.1151 1.25576 19.2686 1.40803C19.422 1.56029 19.5265 1.75432 19.5689 1.96556C19.6113 2.17681 19.5896 2.39579 19.5066 2.5948C19.4236 2.79381 19.283 2.96391 19.1027 3.08359C18.9223 3.20327 18.7102 3.26715 18.4933 3.26715C18.2026 3.26665 17.9241 3.15185 17.7185 2.94788C17.5129 2.74391 17.3972 2.46739 17.3965 2.17885ZM16.9491 10.1055C16.9491 10.4784 16.8377 10.843 16.629 11.153C16.4204 11.4631 16.1238 11.7048 15.7768 11.8475C15.4298 11.9902 15.0479 12.0275 14.6795 11.9548C14.3112 11.882 13.9728 11.7024 13.7072 11.4387C13.4416 11.1751 13.2607 10.8391 13.1875 10.4734C13.1142 10.1076 13.1518 9.72851 13.2955 9.38399C13.4393 9.03947 13.6827 8.745 13.995 8.53782C14.3073 8.33065 14.6744 8.22007 15.05 8.22007C15.5535 8.22056 16.0363 8.41937 16.3923 8.77285C16.7484 9.12634 16.9486 9.60562 16.9491 10.1055ZM9.88457 2.17885C9.88457 1.96361 9.94885 1.7532 10.0693 1.57423C10.1897 1.39526 10.3609 1.25577 10.5612 1.1734C10.7615 1.09103 10.9819 1.06948 11.1946 1.11147C11.4072 1.15346 11.6025 1.25711 11.7558 1.40931C11.9091 1.56152 12.0135 1.75543 12.0558 1.96654C12.0981 2.17765 12.0764 2.39647 11.9934 2.59533C11.9105 2.79418 11.77 2.96415 11.5897 3.08374C11.4094 3.20332 11.1975 3.26715 10.9807 3.26715C10.6901 3.26665 10.4116 3.15183 10.2062 2.94785C10.0007 2.74386 9.88507 2.46734 9.88457 2.17885ZM6.2727 8.18008C6.2727 7.89478 6.35791 7.61588 6.51756 7.37866C6.67721 7.14144 6.90413 6.95655 7.16962 6.84737C7.4351 6.73819 7.72724 6.70962 8.00908 6.76528C8.29092 6.82094 8.54981 6.95833 8.753 7.16007C8.9562 7.36181 9.09457 7.61884 9.15064 7.89866C9.2067 8.17848 9.17793 8.46853 9.06796 8.73211C8.95799 8.9957 8.77176 9.22099 8.53283 9.37949C8.2939 9.538 8.01299 9.6226 7.72563 9.6226C7.34044 9.62211 6.97117 9.46997 6.69881 9.19955C6.42644 8.92913 6.2732 8.56251 6.2727 8.18008ZM12.8905 11.991C12.5972 11.9909 12.3067 12.0482 12.0357 12.1596C11.7647 12.2709 11.5185 12.4342 11.3111 12.6401V11.4668C11.3106 10.9779 11.1147 10.5091 10.7665 10.1633C10.4182 9.81756 9.94603 9.6231 9.45353 9.6226H9.25218C9.47857 9.38953 9.64699 9.10717 9.744 8.79803C9.84101 8.48889 9.86394 8.16152 9.81095 7.84203C9.75795 7.52254 9.63051 7.21975 9.43878 6.95782C9.24705 6.69589 8.99633 6.48205 8.70662 6.33336V4.80775C8.70695 4.57296 8.80109 4.34789 8.96837 4.18193C9.13564 4.01596 9.36241 3.92266 9.59889 3.9225H12.3632C12.5996 3.92266 12.8263 4.01598 12.9935 4.18196C13.1606 4.34795 13.2546 4.57302 13.2548 4.80775V8.18133C13.2562 8.21616 13.2632 8.25055 13.2756 8.28317C13.0215 8.52405 12.8207 8.81473 12.6858 9.13677C12.5509 9.45881 12.4849 9.80517 12.492 10.1539C12.4991 10.5026 12.5792 10.846 12.727 11.1624C12.8749 11.4787 13.0874 11.7611 13.3511 11.9916L12.8905 11.991ZM18.789 11.4675V12.6401C18.5816 12.4342 18.3353 12.2709 18.0643 12.1596C17.7933 12.0482 17.5029 11.9909 17.2096 11.991H16.749C17.0599 11.7195 17.2989 11.3765 17.4453 10.992C17.5916 10.6075 17.6407 10.1932 17.5884 9.78549C17.536 9.37775 17.3838 8.98897 17.145 8.65322C16.9062 8.31746 16.5881 8.04496 16.2185 7.85959V4.80775C16.2187 4.69123 16.242 4.57588 16.2871 4.46831C16.3322 4.36073 16.3982 4.26304 16.4814 4.18082C16.5646 4.0986 16.6632 4.03347 16.7718 3.98914C16.8803 3.94481 16.9966 3.92217 17.114 3.9225H19.8789C20.1153 3.92266 20.342 4.01598 20.5092 4.18196C20.6763 4.34795 20.7703 4.57302 20.7705 4.80775V6.8344C20.4308 7.22517 20.2506 7.72803 20.2655 8.24403C20.2804 8.76003 20.4893 9.25181 20.851 9.6226H20.6497C20.1566 9.62227 19.6837 9.81637 19.3347 10.1622C18.9858 10.5081 18.7895 10.9773 18.789 11.4668V11.4675ZM20.9215 8.18071C20.9215 7.89541 21.0067 7.61651 21.1664 7.37929C21.326 7.14207 21.5529 6.95718 21.8184 6.84799C22.0839 6.73881 22.3761 6.71025 22.6579 6.76591C22.9397 6.82157 23.1986 6.95895 23.4018 7.16069C23.605 7.36243 23.7434 7.61947 23.7995 7.89929C23.8555 8.17911 23.8267 8.46915 23.7168 8.73274C23.6068 8.99632 23.4206 9.22161 23.1816 9.38012C22.9427 9.53863 22.6618 9.62323 22.3744 9.62323C21.9891 9.62273 21.6198 9.47051 21.3474 9.19995C21.075 8.9294 20.9219 8.56262 20.9215 8.18008V8.18071ZM25.5093 2.17948C25.5092 1.96408 25.5734 1.75349 25.6939 1.57434C25.8143 1.39518 25.9856 1.25552 26.186 1.173C26.3864 1.09049 26.6069 1.06884 26.8197 1.11078C27.0325 1.15273 27.228 1.25639 27.3814 1.40865C27.5349 1.56091 27.6394 1.75494 27.6818 1.96619C27.7241 2.17743 27.7025 2.39641 27.6195 2.59542C27.5365 2.79443 27.3959 2.96453 27.2155 3.08421C27.0351 3.20389 26.8231 3.26777 26.6061 3.26777C26.3154 3.26728 26.0367 3.15239 25.8311 2.94829C25.6256 2.74418 25.5098 2.4675 25.5093 2.17885V2.17948Z" fill="#1B1B1B"/>
</svg>
