<svg width="11" height="11" viewBox="0 0 11 11" fill="none" xmlns="http://www.w3.org/2000/svg">
<path d="M4.32143 0C1.93875 0 0 1.93875 0 4.32143C0 6.70411 1.93875 8.64286 4.32143 8.64286C6.70411 8.64286 8.64286 6.70411 8.64286 4.32143C8.64286 1.93875 6.70411 0 4.32143 0ZM4.32143 7.85714C2.37207 7.85714 0.785714 6.27118 0.785714 4.32143C0.785714 2.37207 2.37207 0.785714 4.32143 0.785714C6.27118 0.785714 7.85714 2.37207 7.85714 4.32143C7.85714 6.27118 6.27118 7.85714 4.32143 7.85714Z" fill="#BDBDBD"/>
<path d="M10.8849 10.3294L8.52739 7.97226C8.37379 7.81865 8.1255 7.81865 7.97189 7.97226C7.81829 8.12587 7.81829 8.37415 7.97189 8.52776L10.3294 10.8849C10.406 10.9615 10.5066 11 10.6072 11C10.7078 11 10.8083 10.9615 10.8849 10.8849C11.0385 10.7313 11.0385 10.483 10.8849 10.3294Z" fill="#BDBDBD"/>
</svg>
