<svg width="11" height="14" viewBox="0 0 11 14" fill="none" xmlns="http://www.w3.org/2000/svg">
<path d="M9.72121 2.44727L5.21369 0.443933C5.14913 0.414909 5.07914 0.399902 5.00835 0.399902C4.93756 0.399902 4.86757 0.414909 4.80301 0.443933L0.295493 2.44727C0.207621 2.48677 0.133007 2.55078 0.0805959 2.63162C0.0281847 2.71245 0.000201016 2.80669 0 2.90303V7.19018C0.00344985 7.79989 0.134971 8.40208 0.386041 8.95771C0.63711 9.51334 1.00213 10.01 1.45743 10.4156L4.6778 13.2753C4.7692 13.3556 4.88669 13.3999 5.00835 13.3999C5.13001 13.3999 5.24751 13.3556 5.3389 13.2753L8.55927 10.4156C9.01458 10.01 9.37959 9.51334 9.63066 8.95771C9.88173 8.40208 10.0133 7.79989 10.0167 7.19018V2.90303C10.0165 2.80669 9.98852 2.71245 9.93611 2.63162C9.88369 2.55078 9.80908 2.48677 9.72121 2.44727ZM9.01503 7.19018C9.016 7.66322 8.91648 8.13108 8.72308 8.56278C8.52968 8.99448 8.2468 9.38018 7.89316 9.69436L5.00835 12.2486L2.12354 9.68434C1.7699 9.37016 1.48702 8.98446 1.29362 8.55276C1.10022 8.12106 1.00071 7.65321 1.00167 7.18016V3.22858L5.00835 1.4456L9.01503 3.22858V7.19018Z" fill="#1C1C1C"/>
<path d="M3.50585 6.05339C3.41154 5.95908 3.28363 5.9061 3.15025 5.9061C3.01688 5.9061 2.88897 5.95908 2.79466 6.05339C2.70035 6.1477 2.64737 6.27561 2.64737 6.40898C2.64737 6.54235 2.70035 6.67026 2.79466 6.76457L4.04675 8.01666C4.09331 8.0636 4.1487 8.10086 4.20973 8.12629C4.27076 8.15172 4.33622 8.16481 4.40234 8.16481C4.46846 8.16481 4.53392 8.15172 4.59495 8.12629C4.65598 8.10086 4.71137 8.0636 4.75793 8.01666L7.26211 5.51249C7.35642 5.41286 7.40729 5.27986 7.40353 5.14273C7.39978 5.0056 7.3417 4.87558 7.24208 4.78127C7.14245 4.68696 7.00945 4.63609 6.87232 4.63984C6.73519 4.6436 6.60517 4.70168 6.51086 4.8013L4.36227 6.95489L3.50585 6.05339Z" fill="#1C1C1C"/>
</svg>
