<svg width="19" height="19" viewBox="0 0 19 19" fill="none" xmlns="http://www.w3.org/2000/svg">
<rect x="0.445312" y="8.19727" width="9" height="9" rx="4" fill="#18B779"/>
<rect x="9.44531" y="8.19727" width="9" height="9" rx="4" fill="#18B779"/>
<rect x="4.44531" y="1.19727" width="9" height="9" rx="4" fill="#18B779" fill-opacity="0.32"/>
<path d="M9.16631 0.271336C9.25129 0.222796 9.34745 0.197266 9.44531 0.197266C9.54317 0.197266 9.63934 0.222796 9.72431 0.271336L13.9431 2.68226C14.0292 2.73144 14.1007 2.8025 14.1505 2.88824C14.2003 2.97399 14.2265 3.07137 14.2266 3.17052V7.66498L18.1618 9.91503C18.2476 9.96402 18.3189 10.0347 18.3687 10.12C18.4185 10.2054 18.4449 10.3023 18.4453 10.401V15.2229C18.4453 15.322 18.419 15.4194 18.3693 15.5052C18.3195 15.5909 18.2479 15.662 18.1618 15.7111L13.9431 18.1221C13.8581 18.1706 13.7619 18.1961 13.6641 18.1961C13.5662 18.1961 13.47 18.1706 13.3851 18.1221L9.44531 15.872L5.50556 18.1232C5.42059 18.1717 5.32442 18.1973 5.22656 18.1973C5.1287 18.1973 5.03254 18.1717 4.94756 18.1232L0.728813 15.7123C0.64272 15.6631 0.571155 15.592 0.521369 15.5063C0.471583 15.4205 0.445344 15.3232 0.445312 15.224V10.4022C0.445344 10.303 0.471583 10.2056 0.521369 10.1199C0.571155 10.0341 0.64272 9.96308 0.728813 9.91391L4.66406 7.66498V3.17052C4.66409 3.07137 4.69033 2.97399 4.74012 2.88824C4.7899 2.8025 4.86147 2.73144 4.94756 2.68226L9.16631 0.271336ZM5.22656 8.63925L2.14181 10.4022L5.22656 12.1651L8.31131 10.4022L5.22656 8.63925ZM8.88281 11.3719L5.78906 13.1393V16.6652L8.88281 14.8978V11.3719ZM10.0078 14.8978L13.1016 16.6652V13.1393L10.0078 11.3719V14.8978ZM10.5793 10.4022L13.6641 12.1651L16.7488 10.4022L13.6641 8.63925L10.5793 10.4022ZM13.1016 7.66498V4.13916L10.0078 5.9077V9.43352L13.1016 7.66498ZM8.88281 9.43352V5.9077L5.78906 4.13916V7.66498L8.88281 9.43352ZM6.36056 3.17052L9.44531 4.93343L12.5301 3.17052L9.44531 1.40761L6.36056 3.17052ZM17.3203 11.3719L14.2266 13.1393V16.6652L17.3203 14.8978V11.3719ZM4.66406 16.6652V13.1393L1.57031 11.3719V14.8978L4.66406 16.6652Z" fill="#1B1B1B"/>
</svg>
