<svg width="16" height="16" viewBox="0 0 16 16" fill="none" xmlns="http://www.w3.org/2000/svg">
<path d="M1.85864 5.76823L1.85865 5.76825L4.56608 5.46802L5.60715 5.35267L5.74026 5.33792L5.79543 5.2158L6.22676 4.26114C6.57185 3.49742 7.00335 2.54271 7.34888 1.77891L7.34907 1.77849C7.48714 1.47402 7.79565 1.25256 8.16256 1.25256C8.53086 1.25256 8.83413 1.47389 8.97489 1.77084L8.97879 1.77907L8.97871 1.77911L10.1004 4.26109L10.5319 5.2157L10.5872 5.33792L10.7205 5.35269L11.7619 5.46823C12.595 5.56073 13.6366 5.67657 14.4701 5.76989L14.472 5.7701C14.8052 5.80868 15.1096 6.03362 15.2223 6.38272C15.3353 6.73259 15.2187 7.09001 14.9775 7.31573L14.9725 7.32036L14.9725 7.32033C14.3534 7.88409 13.5787 8.58896 12.9589 9.15285L12.184 9.85776L12.0849 9.94791L12.1119 10.0789L12.3237 11.1047C12.4931 11.9253 12.7048 12.9514 12.874 13.7729L12.8748 13.7767L12.8748 13.7767C12.9393 14.1029 12.8217 14.4613 12.524 14.6775C12.5239 14.6775 12.5238 14.6776 12.5237 14.6777L12.2301 14.273C12.1012 14.3671 11.9352 14.3687 11.8024 14.2959L1.85864 5.76823ZM1.85864 5.76823L1.85372 5.76882C1.52195 5.80899 1.21927 6.03317 1.10566 6.38121C0.991263 6.73167 1.10757 7.09273 1.35463 7.3176C1.97389 7.88269 2.74865 8.58826 3.3685 9.15247L4.14346 9.85769L4.24193 9.94726L4.21464 10.0784C4.16136 10.3349 4.08697 10.694 4.00207 11.1043C3.83227 11.925 3.62037 12.9509 3.45115 13.772L3.4511 13.772L3.44978 13.7789C3.38771 14.1031 3.50363 14.4606 3.80147 14.6772C4.10031 14.8951 4.47863 14.893 4.76666 14.7307L4.7682 14.7298C5.49741 14.3154 6.40799 13.7967 7.13616 13.3816L8.04632 12.8626L8.16259 12.7963L1.85864 5.76823Z" stroke="#1B1B1B"/>
</svg>
