<svg width="40" height="40" viewBox="0 0 40 40" fill="none" xmlns="http://www.w3.org/2000/svg">
    <path
        d="M35.93 3.18555H31.2891H23.7631H16.2373H8.71133H4.07047C2.47719 3.18555 1.18555 4.47719 1.18555 6.07047V13.983C1.18555 16.0612 2.87023 17.7459 4.94852 17.7459C7.02672 17.7459 8.71148 16.0612 8.71148 13.983C8.71148 16.0612 10.3962 17.7459 12.4745 17.7459C14.5527 17.7459 16.2374 16.0612 16.2374 13.983C16.2374 16.0612 17.9222 17.7459 20.0004 17.7459C22.0786 17.7459 23.7634 16.0612 23.7634 13.983C23.7634 16.0612 25.4481 17.7459 27.5263 17.7459C29.6045 17.7459 31.2893 16.0612 31.2893 13.983C31.2893 16.0612 32.9741 17.7459 35.0523 17.7459C37.1305 17.7459 38.8152 16.0612 38.8152 13.983V11.9335V8.51391V6.07039C38.8149 4.47711 37.5233 3.18555 35.93 3.18555Z"
        fill="#CEE8FA" />
    <path
        d="M35.9298 2H4.07023C1.82594 2 0 3.82578 0 6.07016V13.9827C0 15.7834 0.967187 17.362 2.40898 18.2277V35.3531C2.40898 36.0077 2.93961 36.5384 3.5943 36.5384H36.4055C37.0601 36.5384 37.5909 36.0077 37.5909 35.3531V23.3918C37.5909 22.7373 37.0601 22.2065 36.4055 22.2065C35.751 22.2065 35.2202 22.7373 35.2202 23.3918V34.168H26.2077V24.0105C26.2077 23.356 25.677 22.8252 25.0224 22.8252H14.9775C14.3229 22.8252 13.7922 23.356 13.7922 24.0105V28.3962C13.7922 29.0507 14.3228 29.5815 14.9775 29.5815C15.6322 29.5815 16.1628 29.0507 16.1628 28.3962V25.1959H23.8373V34.168H4.77961V18.9266C4.8357 18.9285 4.89164 18.9309 4.94812 18.9309C6.45273 18.9309 7.80281 18.2558 8.71109 17.1927C9.61938 18.2558 10.9695 18.9309 12.4741 18.9309C13.9787 18.9309 15.3286 18.2558 16.237 17.1927C17.1453 18.2558 18.4954 18.9309 20 18.9309C21.5046 18.9309 22.8547 18.2558 23.763 17.1927C24.6712 18.2558 26.0213 18.9309 27.5259 18.9309C29.0305 18.9309 30.3805 18.2558 31.2888 17.1927C32.1971 18.2558 33.5472 18.9309 35.0517 18.9309C37.7803 18.9309 40 16.7111 40 13.9828V6.07016C40 3.82578 38.1741 2 35.9298 2ZM37.6294 13.9828C37.6294 15.4041 36.473 16.5604 35.0517 16.5604C33.6305 16.5604 32.4741 15.4041 32.4741 13.9828V10.5384C32.4741 9.88391 31.9434 9.35313 31.2888 9.35313C30.6343 9.35313 30.1035 9.88391 30.1035 10.5384V13.9828C30.1035 15.4041 28.9471 16.5604 27.5259 16.5604C26.1045 16.5604 24.9483 15.4041 24.9483 13.9828V8.28031C24.9483 7.62578 24.4175 7.095 23.763 7.095C23.1084 7.095 22.5777 7.62578 22.5777 8.28031V13.9827C22.5777 15.404 21.4212 16.5602 20 16.5602C18.5788 16.5602 17.4223 15.404 17.4223 13.9827V10.5384C17.4223 9.88391 16.8917 9.35313 16.237 9.35313C15.5823 9.35313 15.0517 9.88391 15.0517 10.5384V13.9828C15.0517 15.4041 13.8955 16.5604 12.4741 16.5604C11.0527 16.5604 9.89641 15.4041 9.89641 13.9828V8.28031C9.89641 7.62578 9.36578 7.095 8.71109 7.095C8.05641 7.095 7.52578 7.62578 7.52578 8.28031V13.9827C7.52578 15.404 6.36937 16.5602 4.94812 16.5602C3.52688 16.5602 2.37055 15.4041 2.37055 13.9828V6.07016C2.37055 5.13305 3.13305 4.37055 4.07016 4.37055H35.9298C36.8669 4.37055 37.6294 5.13305 37.6294 6.07016V13.9828Z"
        fill="#2D527C" />
</svg>