<svg width="89" height="22" viewBox="0 0 89 22" fill="none" xmlns="http://www.w3.org/2000/svg">
    <rect width="89" height="22" rx="5" fill="#098C26" />
    <path
        d="M14.728 15.12C14.128 15.12 13.576 15.012 13.072 14.796C12.576 14.58 12.14 14.28 11.764 13.896C11.396 13.512 11.112 13.06 10.912 12.54C10.712 12.012 10.612 11.432 10.612 10.8C10.612 10.176 10.712 9.604 10.912 9.084C11.112 8.556 11.396 8.1 11.764 7.716C12.14 7.324 12.576 7.02 13.072 6.804C13.576 6.588 14.128 6.48 14.728 6.48C15.32 6.48 15.864 6.588 16.36 6.804C16.864 7.02 17.3 7.324 17.668 7.716C18.044 8.1 18.332 8.556 18.532 9.084C18.74 9.612 18.844 10.184 18.844 10.8C18.844 11.424 18.74 12 18.532 12.528C18.332 13.048 18.044 13.504 17.668 13.896C17.3 14.28 16.864 14.58 16.36 14.796C15.864 15.012 15.32 15.12 14.728 15.12ZM14.728 14.196C15.184 14.196 15.604 14.112 15.988 13.944C16.372 13.776 16.704 13.54 16.984 13.236C17.264 12.932 17.48 12.576 17.632 12.168C17.792 11.752 17.872 11.296 17.872 10.8C17.872 10.312 17.792 9.864 17.632 9.456C17.48 9.04 17.264 8.68 16.984 8.376C16.704 8.064 16.372 7.824 15.988 7.656C15.604 7.488 15.184 7.404 14.728 7.404C14.272 7.404 13.852 7.488 13.468 7.656C13.084 7.824 12.748 8.06 12.46 8.364C12.18 8.668 11.96 9.028 11.8 9.444C11.648 9.86 11.572 10.312 11.572 10.8C11.572 11.456 11.708 12.04 11.98 12.552C12.252 13.064 12.624 13.468 13.096 13.764C13.568 14.052 14.112 14.196 14.728 14.196ZM20.2973 15V8.7H21.2093V10.044L21.0293 10.152C21.1173 9.872 21.2773 9.616 21.5093 9.384C21.7413 9.152 22.0213 8.964 22.3493 8.82C22.6773 8.668 23.0173 8.592 23.3693 8.592C23.8413 8.592 24.2373 8.684 24.5573 8.868C24.8853 9.044 25.1333 9.32 25.3013 9.696C25.4693 10.072 25.5533 10.548 25.5533 11.124V15H24.6413V11.184C24.6413 10.776 24.5813 10.44 24.4613 10.176C24.3493 9.912 24.1773 9.72 23.9453 9.6C23.7213 9.48 23.4373 9.424 23.0933 9.432C22.8213 9.432 22.5693 9.476 22.3373 9.564C22.1133 9.652 21.9173 9.772 21.7493 9.924C21.5813 10.068 21.4493 10.232 21.3533 10.416C21.2573 10.592 21.2093 10.768 21.2093 10.944V15H20.7653C20.6933 15 20.6173 15 20.5373 15C20.4573 15 20.3773 15 20.2973 15ZM30.9584 15V6.6H34.1384C34.7064 6.6 35.2304 6.704 35.7104 6.912C36.1904 7.112 36.6064 7.4 36.9584 7.776C37.3104 8.144 37.5824 8.584 37.7744 9.096C37.9664 9.608 38.0624 10.176 38.0624 10.8C38.0624 11.416 37.9664 11.984 37.7744 12.504C37.5824 13.016 37.3104 13.46 36.9584 13.836C36.6144 14.204 36.1984 14.492 35.7104 14.7C35.2304 14.9 34.7064 15 34.1384 15H30.9584ZM31.9064 14.208L31.8464 14.088H34.0784C34.5184 14.088 34.9224 14.008 35.2904 13.848C35.6664 13.688 35.9864 13.468 36.2504 13.188C36.5224 12.9 36.7304 12.552 36.8744 12.144C37.0184 11.736 37.0904 11.288 37.0904 10.8C37.0904 10.312 37.0184 9.868 36.8744 9.468C36.7304 9.06 36.5224 8.712 36.2504 8.424C35.9784 8.136 35.6584 7.912 35.2904 7.752C34.9224 7.592 34.5184 7.512 34.0784 7.512H31.8224L31.9064 7.404V14.208ZM39.7201 15V8.7H40.6321V15H39.7201ZM40.1641 7.224C39.9561 7.224 39.7921 7.168 39.6721 7.056C39.5601 6.936 39.5041 6.78 39.5041 6.588C39.5041 6.396 39.5601 6.244 39.6721 6.132C39.7921 6.012 39.9561 5.952 40.1641 5.952C40.3721 5.952 40.5321 6.008 40.6441 6.12C40.7641 6.232 40.8241 6.388 40.8241 6.588C40.8241 6.772 40.7681 6.924 40.6561 7.044C40.5441 7.164 40.3801 7.224 40.1641 7.224ZM44.6281 15.12C44.1001 15.12 43.6241 15.028 43.2001 14.844C42.7761 14.652 42.4321 14.38 42.1681 14.028L42.7921 13.488C43.0241 13.776 43.3001 13.992 43.6201 14.136C43.9401 14.28 44.3041 14.352 44.7121 14.352C44.9201 14.352 45.1041 14.328 45.2641 14.28C45.4241 14.224 45.5601 14.152 45.6721 14.064C45.7841 13.968 45.8641 13.86 45.9121 13.74C45.9681 13.612 45.9961 13.476 45.9961 13.332C45.9961 13.068 45.8921 12.856 45.6841 12.696C45.5721 12.616 45.4161 12.54 45.2161 12.468C45.0241 12.388 44.7881 12.312 44.5081 12.24C44.0761 12.136 43.7121 12.016 43.4161 11.88C43.1281 11.736 42.9001 11.572 42.7321 11.388C42.6041 11.244 42.5081 11.088 42.4441 10.92C42.3801 10.752 42.3481 10.56 42.3481 10.344C42.3481 10 42.4441 9.696 42.6361 9.432C42.8281 9.168 43.0881 8.964 43.4161 8.82C43.7521 8.668 44.1321 8.592 44.5561 8.592C44.8441 8.592 45.1281 8.632 45.4081 8.712C45.6961 8.792 45.9601 8.908 46.2001 9.06C46.4401 9.212 46.6481 9.396 46.8241 9.612L46.2841 10.188C46.1241 10.02 45.9481 9.876 45.7561 9.756C45.5721 9.628 45.3801 9.532 45.1801 9.468C44.9801 9.396 44.7841 9.36 44.5921 9.36C44.3841 9.36 44.1961 9.384 44.0281 9.432C43.8601 9.472 43.7161 9.536 43.5961 9.624C43.4841 9.704 43.4001 9.804 43.3441 9.924C43.2881 10.036 43.2601 10.168 43.2601 10.32C43.2681 10.432 43.2961 10.544 43.3441 10.656C43.3921 10.76 43.4601 10.848 43.5481 10.92C43.6601 11.008 43.8201 11.096 44.0281 11.184C44.2361 11.264 44.4881 11.336 44.7841 11.4C45.1681 11.496 45.4921 11.604 45.7561 11.724C46.0201 11.836 46.2321 11.972 46.3921 12.132C46.5601 12.276 46.6801 12.444 46.7521 12.636C46.8241 12.828 46.8601 13.048 46.8601 13.296C46.8601 13.656 46.7641 13.976 46.5721 14.256C46.3801 14.528 46.1161 14.74 45.7801 14.892C45.4441 15.044 45.0601 15.12 44.6281 15.12ZM50.9943 15.12C50.3943 15.12 49.8583 14.976 49.3863 14.688C48.9223 14.4 48.5543 14.012 48.2823 13.524C48.0183 13.028 47.8863 12.468 47.8863 11.844C47.8863 11.228 48.0183 10.676 48.2823 10.188C48.5543 9.692 48.9223 9.304 49.3863 9.024C49.8583 8.736 50.3943 8.592 50.9943 8.592C51.5383 8.592 52.0303 8.7 52.4703 8.916C52.9103 9.124 53.2583 9.416 53.5143 9.792L52.9863 10.416C52.8423 10.224 52.6663 10.056 52.4583 9.912C52.2503 9.76 52.0263 9.644 51.7863 9.564C51.5463 9.476 51.3063 9.432 51.0663 9.432C50.6263 9.432 50.2303 9.536 49.8783 9.744C49.5343 9.952 49.2623 10.24 49.0623 10.608C48.8623 10.968 48.7623 11.38 48.7623 11.844C48.7623 12.308 48.8623 12.724 49.0623 13.092C49.2703 13.46 49.5503 13.752 49.9023 13.968C50.2543 14.184 50.6463 14.292 51.0783 14.292C51.3183 14.292 51.5503 14.256 51.7743 14.184C52.0063 14.104 52.2223 13.992 52.4223 13.848C52.6223 13.704 52.8103 13.528 52.9863 13.32L53.5023 13.956C53.2383 14.3 52.8783 14.58 52.4223 14.796C51.9743 15.012 51.4983 15.12 50.9943 15.12ZM57.489 15.12C56.873 15.12 56.321 14.98 55.833 14.7C55.353 14.412 54.973 14.024 54.693 13.536C54.413 13.04 54.273 12.476 54.273 11.844C54.273 11.212 54.413 10.652 54.693 10.164C54.973 9.676 55.353 9.292 55.833 9.012C56.321 8.732 56.873 8.592 57.489 8.592C58.105 8.592 58.653 8.732 59.133 9.012C59.621 9.292 60.001 9.676 60.273 10.164C60.553 10.652 60.693 11.212 60.693 11.844C60.693 12.476 60.553 13.04 60.273 13.536C60.001 14.024 59.621 14.412 59.133 14.7C58.653 14.98 58.105 15.12 57.489 15.12ZM57.489 14.28C57.929 14.28 58.321 14.176 58.665 13.968C59.017 13.752 59.289 13.46 59.481 13.092C59.681 12.724 59.777 12.308 59.769 11.844C59.777 11.372 59.681 10.956 59.481 10.596C59.289 10.236 59.017 9.952 58.665 9.744C58.321 9.536 57.929 9.432 57.489 9.432C57.049 9.432 56.653 9.536 56.301 9.744C55.957 9.952 55.685 10.24 55.485 10.608C55.285 10.968 55.189 11.38 55.197 11.844C55.189 12.308 55.285 12.724 55.485 13.092C55.685 13.46 55.957 13.752 56.301 13.968C56.653 14.176 57.049 14.28 57.489 14.28ZM64.2838 15.12C63.8198 15.12 63.4198 15.024 63.0838 14.832C62.7478 14.632 62.4878 14.348 62.3038 13.98C62.1278 13.604 62.0398 13.144 62.0398 12.6V8.7H62.9518V12.372C62.9518 13.004 63.0958 13.488 63.3838 13.824C63.6798 14.152 64.0918 14.316 64.6198 14.316C64.8758 14.316 65.1078 14.272 65.3158 14.184C65.5318 14.088 65.7198 13.964 65.8798 13.812C66.0398 13.66 66.1638 13.492 66.2518 13.308C66.3478 13.116 66.3958 12.924 66.3958 12.732V8.7H67.3078V15H66.4078L66.3958 13.632L66.5758 13.536C66.4798 13.824 66.3158 14.092 66.0838 14.34C65.8598 14.58 65.5918 14.772 65.2798 14.916C64.9758 15.052 64.6438 15.12 64.2838 15.12ZM69.0239 15V8.7H69.9359V10.044L69.7559 10.152C69.8439 9.872 70.0039 9.616 70.2359 9.384C70.4679 9.152 70.7479 8.964 71.0759 8.82C71.4039 8.668 71.7439 8.592 72.0959 8.592C72.5679 8.592 72.9639 8.684 73.2839 8.868C73.6119 9.044 73.8599 9.32 74.0279 9.696C74.1959 10.072 74.2799 10.548 74.2799 11.124V15H73.3679V11.184C73.3679 10.776 73.3079 10.44 73.1879 10.176C73.0759 9.912 72.9039 9.72 72.6719 9.6C72.4479 9.48 72.1639 9.424 71.8199 9.432C71.5479 9.432 71.2959 9.476 71.0639 9.564C70.8399 9.652 70.6439 9.772 70.4759 9.924C70.3079 10.068 70.1759 10.232 70.0799 10.416C69.9839 10.592 69.9359 10.768 69.9359 10.944V15H69.4919C69.4199 15 69.3439 15 69.2639 15C69.1839 15 69.1039 15 69.0239 15ZM76.8497 15V7.092H77.7617V15H76.8497ZM75.3977 9.588V8.7H79.3337V9.588H75.3977Z"
        fill="white" />
</svg>