<svg width="21" height="22" viewBox="0 0 21 22" fill="none" xmlns="http://www.w3.org/2000/svg">
<path d="M4.49541 8.71453L4.91457 9.44347L5.10958 9.78253H8.19546L8.3705 9.44347L8.79348 8.62421H8.79302C8.84858 8.51402 8.8727 8.38518 8.84896 8.24875C8.80531 7.99572 8.59975 7.79398 8.34546 7.75706C8.12083 7.72485 7.91612 7.8164 7.78855 7.97326C7.74701 8.02454 7.6711 8.02412 7.62961 7.97326C7.51937 7.83763 7.35116 7.75075 7.16294 7.75075C6.97437 7.75075 6.8065 7.83763 6.69588 7.97326C6.65434 8.02454 6.57843 8.02454 6.53694 7.97326C6.42632 7.83763 6.25849 7.75075 6.06984 7.75075C5.88171 7.75075 5.71345 7.83763 5.60321 7.97326C5.56172 8.02412 5.48577 8.02454 5.44427 7.97326C5.32348 7.82449 5.13318 7.73464 4.92212 7.75329C4.64409 7.77787 4.41522 7.99788 4.37962 8.2746C4.35885 8.44078 4.4059 8.59463 4.49575 8.71457L4.49541 8.71453Z" fill="#18B779"/>
<path d="M6.39087 10.4928C6.39087 10.6482 6.51721 10.7745 6.67254 10.7745C6.82788 10.7745 6.95426 10.6482 6.95426 10.4928C6.95426 10.3375 6.82788 10.2111 6.67254 10.2111C6.51721 10.2111 6.39087 10.3375 6.39087 10.4928Z" fill="black"/>
<path d="M6.80417 13.728C6.56704 13.6592 6.51622 13.6163 6.51622 13.5209C6.51622 13.452 6.55746 13.3713 6.69347 13.3713C6.86092 13.3713 6.88749 13.4714 6.90233 13.5329H7.22626C7.21058 13.3536 7.10848 13.1861 6.83685 13.1437V12.896H6.56623V13.1453C6.35394 13.1853 6.1892 13.3257 6.1892 13.5535C6.1892 13.7632 6.29905 13.9025 6.67367 14.0128C6.87753 14.0723 6.93479 14.1246 6.93479 14.2326C6.93479 14.3186 6.88643 14.3964 6.7247 14.3964C6.59412 14.3964 6.50732 14.3258 6.4827 14.2107H6.15894C6.17619 14.4288 6.32457 14.5849 6.58098 14.6245V14.9083H6.85346V14.6242C7.09653 14.5874 7.26012 14.448 7.26012 14.1936C7.26012 13.9566 7.13306 13.822 6.80417 13.728Z" fill="black"/>
<path d="M8.21304 10.1216H7.16877C7.2465 10.2253 7.29317 10.3535 7.29317 10.4928C7.29317 10.8351 7.01467 11.1135 6.67239 11.1135C6.3301 11.1135 6.05165 10.8351 6.05165 10.4928C6.05165 10.3535 6.09831 10.2253 6.17604 10.1216H5.10139L3.72306 12.337C3.53789 12.6341 3.43994 12.9773 3.43994 13.3275V16.654C3.43994 16.7591 3.46579 16.8587 3.51157 16.9457C3.61663 17.1474 3.82732 17.2847 4.0706 17.2847H9.24383C9.48706 17.2847 9.69775 17.1474 9.80286 16.9457C9.84859 16.8587 9.87444 16.7592 9.87444 16.654V13.3275C9.87444 12.9773 9.7765 12.6341 9.59175 12.337L8.21304 10.1216ZM6.67239 15.736C5.65961 15.736 4.83849 14.9149 4.83849 13.9021C4.83849 12.8893 5.65957 12.0682 6.67239 12.0682C7.68521 12.0682 8.50624 12.8893 8.50624 13.9021C8.50624 14.9149 7.68521 15.736 6.67239 15.736Z" fill="#18B779"/>
<path d="M6.08237 5.4002H6.49607V5.81389C6.49607 5.90752 6.57198 5.98342 6.6656 5.98342C6.75922 5.98342 6.83513 5.90752 6.83513 5.81389V5.4002H7.24883C7.34245 5.4002 7.41836 5.32429 7.41836 5.23066C7.41836 5.13704 7.34245 5.06113 7.24883 5.06113H6.83513V4.64744C6.83513 4.55381 6.75922 4.47791 6.6656 4.47791C6.57198 4.47791 6.49607 4.55381 6.49607 4.64744V5.06113H6.08237C5.98875 5.06113 5.91284 5.13704 5.91284 5.23066C5.91284 5.32429 5.98875 5.4002 6.08237 5.4002Z" fill="#18B779" fill-opacity="0.32"/>
<path d="M5.12144 5.43071C5.21506 5.43071 5.29097 5.3548 5.29097 5.26118V4.09214C5.29097 3.99851 5.21506 3.92261 5.12144 3.92261C5.02781 3.92261 4.9519 3.99851 4.9519 4.09214V5.26118C4.9519 5.3548 5.02781 5.43071 5.12144 5.43071Z" fill="#18B779" fill-opacity="0.32"/>
<path d="M8.20957 5.43071C8.30319 5.43071 8.3791 5.3548 8.3791 5.26118V4.09214C8.3791 3.99851 8.30319 3.92261 8.20957 3.92261C8.11595 3.92261 8.04004 3.99851 8.04004 4.09214V5.26118C8.04004 5.3548 8.11595 5.43071 8.20957 5.43071Z" fill="#18B779" fill-opacity="0.32"/>
<path d="M8.20957 6.86511C8.30319 6.86511 8.3791 6.78921 8.3791 6.69558V6.03573C8.3791 5.9421 8.30319 5.8662 8.20957 5.8662C8.11595 5.8662 8.04004 5.9421 8.04004 6.03573V6.69558C8.04004 6.78921 8.11595 6.86511 8.20957 6.86511Z" fill="#18B779" fill-opacity="0.32"/>
<path d="M5.12144 6.86511C5.21506 6.86511 5.29097 6.78921 5.29097 6.69558V6.03573C5.29097 5.9421 5.21506 5.8662 5.12144 5.8662C5.02781 5.8662 4.9519 5.9421 4.9519 6.03573V6.69558C4.9519 6.78921 5.02781 6.86511 5.12144 6.86511Z" fill="#18B779" fill-opacity="0.32"/>
<path d="M20.3389 14.5839C20.3372 14.2071 20.0316 13.902 19.6548 13.902H19.3217V12.7432C19.3217 12.6347 19.2336 12.5466 19.1251 12.5466H18.3041V11.3862C18.3041 11.2776 18.2159 11.1895 18.1074 11.1895H12.5256V10.1905H15.7594C15.8531 10.1905 15.929 10.1147 15.929 10.021C15.929 9.92735 15.8531 9.85148 15.7594 9.85148H12.5256V9.16738H17.4531C17.5463 9.16738 17.6226 9.09152 17.6226 8.99785C17.6226 8.90418 17.5463 8.82832 17.4531 8.82832H12.5256V1.13145C12.5256 0.691898 12.1689 0.335205 11.7294 0.335205H1.45689C1.26337 0.335205 1.08523 0.404162 0.947364 0.519485C0.842848 0.606497 0.761049 0.72021 0.71214 0.849943C0.678657 0.937421 0.660645 1.03215 0.660645 1.13149V20.539C0.660645 20.9785 1.01734 21.3352 1.45689 21.3352H11.7294C12.1689 21.3352 12.5256 20.9785 12.5256 20.539V12.8857H17.965H18.3041H18.9004C18.9457 12.8857 18.9826 12.9225 18.9826 12.9678V13.902H12.5256V14.2406L19.6119 14.241C19.6353 14.241 19.6586 14.2431 19.6807 14.247C19.7031 14.2512 19.7247 14.2571 19.7455 14.2643C19.7573 14.2686 19.7692 14.2737 19.7802 14.2792C19.9103 14.3419 20.0001 14.475 20.0001 14.6293V14.9857C20.0001 15.1116 19.9124 15.2235 19.7882 15.2472C19.7471 15.2553 19.7043 15.2595 19.6606 15.2595H18.5159C18.3989 15.2595 18.304 15.3545 18.304 15.4714V18.9879H12.5255V19.327H18.304V19.8149C18.304 19.9318 18.3989 20.0268 18.5159 20.0268H19.5873C20.0023 20.0268 20.3391 19.6902 20.3391 19.2749V14.581C20.3393 14.5818 20.3389 14.5827 20.3389 14.5839ZM7.60938 1.0129H8.2875C8.38112 1.0129 8.45703 1.08881 8.45703 1.18244C8.45703 1.27606 8.38112 1.35197 8.2875 1.35197H7.60938C7.51579 1.35197 7.43984 1.27606 7.43984 1.18244C7.43984 1.08881 7.51579 1.0129 7.60938 1.0129ZM4.89688 1.0129H6.59219C6.68581 1.0129 6.76172 1.08881 6.76172 1.18244C6.76172 1.27606 6.68581 1.35197 6.59219 1.35197H4.89688C4.8033 1.35197 4.72735 1.27606 4.72735 1.18244C4.72735 1.08881 4.8033 1.0129 4.89688 1.0129ZM6.59155 20.5117C6.36417 20.5117 6.17981 20.3273 6.17981 20.0999C6.17981 19.8725 6.36417 19.6881 6.59155 19.6881C6.81898 19.6881 7.00334 19.8725 7.00334 20.0999C7.00334 20.3273 6.81898 20.5117 6.59155 20.5117ZM11.8477 18.7089C11.8477 18.8603 11.7249 18.9832 11.5734 18.9832H1.61099C1.45956 18.9832 1.33678 18.8604 1.33678 18.7089V2.64337C1.33678 2.49193 1.45952 2.36915 1.61099 2.36915H11.5735C11.7249 2.36915 11.8477 2.49189 11.8477 2.64337L11.8477 18.7089ZM12.5256 12.5466V11.5285H17.8828C17.9281 11.5285 17.965 11.5654 17.965 11.6107V12.5466H12.5256V12.5466Z" fill="#1B1B1B"/>
<path d="M16.2489 16.6139C16.2489 15.7721 15.5664 15.0897 14.7246 15.0897C13.8829 15.0897 13.2004 15.7721 13.2004 16.6139C13.2004 17.4557 13.8829 18.1381 14.7246 18.1381C15.5664 18.1381 16.2489 17.4557 16.2489 16.6139ZM14.1741 16.9224H14.4978C14.5225 17.0375 14.6092 17.1082 14.7398 17.1082C14.9016 17.1082 14.9499 17.0303 14.9499 16.9443C14.9499 16.8364 14.8926 16.7841 14.6888 16.7245C14.3142 16.6142 14.2043 16.475 14.2043 16.2652C14.2043 16.0374 14.3691 15.897 14.5814 15.857V15.6078H14.852V15.8554C15.1236 15.8979 15.2257 16.0653 15.2414 16.2447H14.9174C14.9026 16.1832 14.876 16.0831 14.7086 16.0831C14.5726 16.083 14.5313 16.1637 14.5313 16.2327C14.5313 16.3281 14.5822 16.371 14.8193 16.4398C15.1482 16.5338 15.2752 16.6684 15.2752 16.9053C15.2752 17.1597 15.1117 17.2991 14.8686 17.3359V17.62H14.5961V17.3362C14.3397 17.2966 14.1913 17.1406 14.1741 16.9224Z" fill="#18B779"/>
<path d="M18.3033 9.16748H19.1463C19.2399 9.16748 19.3158 9.09157 19.3158 8.99795C19.3158 8.90432 19.2399 8.82841 19.1463 8.82841H18.3033C18.2097 8.82841 18.1338 8.90432 18.1338 8.99795C18.1338 9.09157 18.2097 9.16748 18.3033 9.16748Z" fill="#18B779" fill-opacity="0.32"/>
</svg>
