<svg width="40" height="40" viewBox="0 0 40 40" fill="none" xmlns="http://www.w3.org/2000/svg">
    <path
        d="M38.2974 29.7459C38.2963 29.7502 38.2939 29.7539 38.2904 29.7566C38.287 29.7593 38.2827 29.7608 38.2783 29.7608C38.274 29.7608 38.2697 29.7593 38.2663 29.7566C38.2628 29.7539 38.2604 29.7502 38.2593 29.7459C38.1846 29.4309 38.0295 28.9112 37.7926 28.6878C37.5203 28.458 37.1891 28.3092 36.8365 28.2581C36.8339 28.258 36.8314 28.2575 36.829 28.2564C36.8267 28.2554 36.8245 28.2539 36.8228 28.252C36.821 28.2501 36.8196 28.2479 36.8187 28.2455C36.8178 28.2431 36.8173 28.2405 36.8174 28.2379C36.8175 28.2354 36.818 28.2328 36.8191 28.2305C36.8201 28.2281 36.8217 28.226 36.8235 28.2242C36.8254 28.2224 36.8276 28.221 36.83 28.2201C36.8324 28.2192 36.835 28.2188 36.8376 28.2188C37.2598 28.1578 37.609 28.0313 37.874 27.7006C38.1167 27.3976 38.197 27.0839 38.2357 26.7178C38.2362 26.7132 38.2383 26.709 38.2416 26.7058C38.2448 26.7026 38.2491 26.7006 38.2537 26.7003C38.2583 26.6999 38.2628 26.7011 38.2666 26.7038C38.2703 26.7064 38.273 26.7103 38.2742 26.7147C38.3504 27.0438 38.5324 27.5187 38.6927 27.7223C38.9333 28.0279 39.2503 28.1215 39.7495 28.2167C39.7548 28.2169 39.7597 28.2192 39.7632 28.223C39.7667 28.2269 39.7686 28.2319 39.7684 28.2371C39.7681 28.2424 39.7659 28.2473 39.762 28.2508C39.7582 28.2543 39.7531 28.2562 39.7479 28.256C39.359 28.2865 38.9932 28.4527 38.7144 28.7256C38.4689 28.9488 38.3501 29.5299 38.2974 29.7459Z"
        fill="white" />
    <path
        d="M1.71106 9.38398C1.71003 9.38827 1.70759 9.3921 1.70413 9.39483C1.70066 9.39756 1.69638 9.39905 1.69196 9.39905C1.68755 9.39905 1.68326 9.39756 1.6798 9.39483C1.67633 9.3921 1.67389 9.38827 1.67286 9.38398C1.59823 9.06896 1.44318 8.5493 1.20622 8.32589C0.933935 8.0961 0.602684 7.94723 0.250064 7.89618C0.247485 7.89611 0.244945 7.89553 0.242589 7.89447C0.240234 7.89342 0.238108 7.89192 0.236335 7.89004C0.234561 7.88817 0.233174 7.88596 0.232253 7.88355C0.231331 7.88114 0.230894 7.87858 0.230964 7.876C0.231035 7.87342 0.231614 7.87088 0.232666 7.86852C0.233719 7.86617 0.235225 7.86404 0.237099 7.86227C0.238973 7.86049 0.241177 7.85911 0.243587 7.85819C0.245997 7.85726 0.248565 7.85683 0.251144 7.8569C0.673398 7.79592 1.02269 7.66934 1.28753 7.3387C1.53038 7.03547 1.61041 6.72182 1.64969 6.35574C1.65011 6.35112 1.65215 6.34681 1.65545 6.34355C1.65874 6.3403 1.66308 6.33832 1.6677 6.33795C1.67232 6.33759 1.67692 6.33887 1.68068 6.34156C1.68445 6.34426 1.68714 6.3482 1.68828 6.35269C1.76448 6.68176 1.94644 7.15655 2.1068 7.36031C2.34739 7.6659 2.66437 7.75948 3.16361 7.85464C3.16882 7.85486 3.17373 7.85714 3.17726 7.86098C3.18078 7.86482 3.18264 7.8699 3.18242 7.87511C3.1822 7.88032 3.17992 7.88523 3.17608 7.88876C3.17224 7.89228 3.16715 7.89414 3.16195 7.89392C2.77304 7.92444 2.40724 8.09069 2.1285 8.3636C1.88291 8.58671 1.76409 9.16795 1.71106 9.38398Z"
        fill="white" />
    <path
        d="M38.1307 29.5794L38.1196 29.5928L38.2865 29.5241H38.2704L38.4374 29.5928L38.4265 29.5793L38.487 29.6832C38.3967 29.3072 38.2777 28.9005 38.0284 28.5969C37.895 28.4461 37.7314 28.325 37.5483 28.2415C37.4472 28.1919 37.3429 28.1489 37.2362 28.1129C37.1804 28.094 37.1239 28.0776 37.0667 28.0638C37.0401 28.0573 36.9402 28.043 36.9412 28.0441L37.0579 28.2477V28.2303L36.9412 28.4339C36.9392 28.4352 37.0296 28.4256 37.0504 28.4215C37.0986 28.4117 37.1466 28.4019 37.1942 28.3889C37.2939 28.3622 37.3914 28.3279 37.4858 28.2862C37.6723 28.2059 37.8402 28.0879 37.9789 27.9395C38.2956 27.5968 38.4208 27.1723 38.4714 26.7184L38.4392 26.8374L38.449 26.8216L38.2455 26.9384L38.2624 26.937L38.0954 26.8683L38.1072 26.8823L38.0466 26.7783C38.1417 27.1774 38.2906 27.6265 38.5671 27.9389C38.8527 28.2623 39.2805 28.3666 39.6865 28.4449L39.5826 28.3843L39.5974 28.396L39.5286 28.229L39.5279 28.2464L39.6446 28.0429L39.6288 28.0528L39.7477 28.0206C39.2881 28.066 38.7993 28.2532 38.4932 28.6168C38.2436 28.9135 38.1594 29.3161 38.0699 29.6835C37.9982 29.9781 38.4529 30.1038 38.5245 29.8088C38.5723 29.5457 38.654 29.2899 38.7675 29.0477C38.8978 28.8087 39.1949 28.6272 39.4628 28.548C39.6374 28.4963 39.9312 28.5259 39.9908 28.3088C40.0059 28.253 40.0022 28.1937 39.9801 28.1403C39.9581 28.0868 39.9189 28.0422 39.8688 28.0134C39.7697 27.9737 39.6656 27.948 39.5594 27.9369C39.2899 27.8741 39.0159 27.7781 38.8586 27.5509C38.7734 27.4202 38.7041 27.2799 38.6519 27.1329C38.6206 27.0512 38.5919 26.9684 38.5656 26.8848C38.5455 26.7965 38.5203 26.7094 38.4899 26.6241C38.4701 26.5761 38.4361 26.5354 38.3925 26.5073C38.3489 26.4792 38.2977 26.4652 38.2459 26.4669C38.0729 26.4733 38.0145 26.6118 37.9959 26.7588C37.9784 26.9233 37.9394 27.0847 37.8798 27.239C37.8177 27.3948 37.7223 27.5351 37.6001 27.6501C37.4779 27.765 37.3321 27.8517 37.1728 27.9042C37.0917 27.93 37.0092 27.9509 36.9256 27.9668C36.8168 27.9881 36.711 27.9924 36.6377 28.0874C36.5985 28.1391 36.5809 28.204 36.5887 28.2684C36.5965 28.3329 36.629 28.3917 36.6794 28.4326C36.7653 28.4828 36.8611 28.5137 36.9602 28.5231C37.1552 28.5712 37.3406 28.6519 37.5087 28.7619C37.6386 28.852 37.741 28.9765 37.8045 29.1214C37.8834 29.2902 37.9458 29.4663 37.991 29.6471C38.003 29.7456 38.04 29.8394 38.0984 29.9196C38.1224 29.9441 38.1511 29.9634 38.1828 29.9764C38.2145 29.9894 38.2485 29.9958 38.2828 29.9952C38.3171 29.9946 38.3508 29.987 38.3821 29.9728C38.4133 29.9587 38.4413 29.9384 38.4644 29.913C38.5069 29.868 38.5307 29.8084 38.5307 29.7464C38.5307 29.6844 38.5069 29.6248 38.4644 29.5797C38.42 29.5358 38.3601 29.5111 38.2976 29.511C38.2351 29.5109 38.1752 29.5355 38.1307 29.5794Z"
        fill="#211715" />
    <path
        d="M1.5443 9.21655L1.5333 9.23011L1.70024 9.16137H1.68404L1.85097 9.23011L1.83998 9.21655L1.90066 9.32055C1.81032 8.94445 1.6913 8.53781 1.44198 8.23418C1.3086 8.0834 1.14504 7.96233 0.961884 7.8788C0.860763 7.82918 0.756517 7.78621 0.649809 7.75016C0.594032 7.7313 0.537535 7.71494 0.480318 7.70106C0.453706 7.69458 0.353838 7.68034 0.354722 7.68142L0.471284 7.88449V7.86711L0.35482 8.07068C0.352857 8.07205 0.443199 8.06233 0.464017 8.0583C0.512233 8.04848 0.560252 8.03817 0.60778 8.0257C0.707498 7.99903 0.805005 7.96469 0.89943 7.92299C1.08591 7.84278 1.25378 7.72486 1.39248 7.57664C1.70917 7.23402 1.83487 6.80951 1.88495 6.35564L1.85284 6.47456L1.86266 6.45885L1.65949 6.57501L1.67638 6.57364L1.50944 6.5049L1.52122 6.51894L1.46054 6.41495C1.55569 6.81403 1.70456 7.26309 1.98099 7.57556C2.26665 7.89893 2.6944 8.00321 3.10045 8.08148L2.99646 8.02089L3.01129 8.03258L2.94255 7.86564L2.94186 7.88302L3.05862 7.67955L3.04281 7.68937L3.16173 7.65716C2.70196 7.70263 2.21333 7.88979 1.90724 8.25342C1.65752 8.54998 1.57337 8.9527 1.48391 9.32006C1.41222 9.61465 1.86688 9.74044 1.93847 9.44546C1.98624 9.1823 2.06793 8.92646 2.18151 8.68432C2.31162 8.44579 2.60867 8.26403 2.87715 8.18547C3.05165 8.13382 3.34546 8.16338 3.40506 7.94626C3.42013 7.89044 3.41628 7.83121 3.39413 7.7778C3.37197 7.7244 3.33276 7.67984 3.28261 7.65107C3.1835 7.6114 3.07937 7.58566 2.97319 7.57458C2.70373 7.51183 2.42966 7.41579 2.27244 7.18856C2.18726 7.0579 2.11784 6.91761 2.06564 6.77063C2.03441 6.68879 2.00567 6.60608 1.97942 6.52248C1.9593 6.43417 1.93401 6.34711 1.90371 6.26176C1.88403 6.21361 1.85007 6.17265 1.80641 6.14438C1.76275 6.11611 1.71147 6.1019 1.65949 6.10366C1.48646 6.11004 1.42813 6.2485 1.40947 6.39551C1.39199 6.55997 1.35297 6.72141 1.2934 6.8757C1.23133 7.03151 1.13585 7.17182 1.0137 7.28675C0.891542 7.40168 0.745677 7.48843 0.586373 7.54089C0.505314 7.56671 0.422776 7.58763 0.339207 7.60355C0.230403 7.62476 0.124643 7.62898 0.0512888 7.72413C0.0120769 7.77583 -0.00549239 7.84075 0.00229612 7.90516C0.0100846 7.96958 0.0426203 8.02844 0.0930232 8.0693C0.1789 8.11956 0.274715 8.15046 0.373773 8.15984C0.568756 8.20796 0.754211 8.28867 0.92231 8.39856C1.0521 8.48886 1.15431 8.61337 1.21759 8.75826C1.29644 8.92715 1.35892 9.10321 1.40417 9.28402C1.41636 9.38257 1.45354 9.47638 1.51219 9.55652C1.53617 9.581 1.56489 9.60033 1.5966 9.61333C1.62831 9.62632 1.66234 9.63271 1.6966 9.63209C1.73086 9.63147 1.76464 9.62387 1.79586 9.60974C1.82708 9.59562 1.85509 9.57527 1.87817 9.54994C1.92074 9.50488 1.94446 9.44524 1.94446 9.38325C1.94446 9.32126 1.92074 9.26162 1.87817 9.21655C1.8337 9.17266 1.77373 9.14804 1.71124 9.14804C1.64875 9.14804 1.58877 9.17266 1.5443 9.21655Z"
        fill="#211715" />
    <path
        d="M5.27641 9.07528C5.54135 8.90383 5.85032 8.81289 6.16589 8.81348C11.4804 8.81427 27.5036 8.81741 33.0715 8.81809C33.2867 8.81802 33.4998 8.86032 33.6986 8.9426C33.8974 9.02488 34.078 9.14551 34.2302 9.29761C34.3824 9.44971 34.5032 9.6303 34.5856 9.82906C34.668 10.0278 34.7104 10.2409 34.7104 10.456C34.7124 13.7603 34.7176 21.5402 34.7197 25.9529H34.6863C34.2287 25.9794 6.88039 26.0049 4.57272 26.0049H4.56614C4.55544 21.6911 4.53344 14.0587 4.52686 10.4563C4.52607 10.1818 4.5943 9.91141 4.72527 9.67009C4.85624 9.42877 5.04576 9.22424 5.27641 9.07528Z"
        fill="white" />
    <path
        d="M16.0323 33.6538H14.8308C14.5755 33.6538 14.5518 32.9753 14.6296 32.807C14.7073 32.6386 14.8612 32.5305 15.1277 32.4799C16.0508 32.3042 16.2793 31.8058 16.356 30.9226C16.3888 30.5441 16.4228 30.3092 16.4414 29.932C16.4535 29.6881 16.4746 29.4158 16.5111 29.045C18.5547 29.043 20.6791 29.0402 22.7263 29.0371C22.7631 29.4119 22.7845 29.6863 22.7965 29.932C22.8152 30.3092 22.8492 30.5441 22.8821 30.9226C22.9587 31.8058 23.1873 32.3042 24.1103 32.4799C24.3769 32.5305 24.5306 32.6386 24.6085 32.807C24.6864 32.9753 24.698 33.6557 24.4361 33.6557C24.0446 33.6555 18.5614 33.6542 16.0323 33.6538Z"
        fill="white" />
    <path
        d="M5.47199 28.8669C5.6985 28.9809 5.94844 29.0405 6.202 29.0411C11.45 29.0613 27.714 29.0285 33.0845 29.0192C33.5189 29.0187 33.9353 28.8458 34.2422 28.5384C34.5491 28.2309 34.7213 27.8142 34.721 27.3799C34.721 26.9615 34.721 26.4815 34.7199 25.9531H34.6866C34.2289 25.9796 6.88065 26.0052 4.57299 26.0052H4.56641C4.56749 26.5241 4.56857 26.9949 4.56945 27.405C4.56999 27.7083 4.65463 28.0055 4.81396 28.2636C4.9733 28.5217 5.20108 28.7305 5.47199 28.8669Z"
        fill="#D9D9D9" />
    <path
        d="M16.8163 33.6538H14.8308C14.5755 33.6538 14.5518 32.9752 14.6296 32.8069C14.7073 32.6386 14.8612 32.5305 15.1277 32.4798C15.3429 32.4447 15.55 32.3712 15.7391 32.2627C17.8163 32.2627 21.4864 32.2627 23.4994 32.2627C23.6882 32.3715 23.8952 32.4452 24.1103 32.4801C24.3769 32.5308 24.5306 32.6389 24.6085 32.8072C24.6864 32.9755 24.698 33.6559 24.4361 33.6559L16.8163 33.6538Z"
        fill="white" />
    <path
        d="M22.5012 29.1481C22.5556 29.7233 22.5902 30.3 22.6422 30.8754C22.6796 31.2888 22.7297 31.7353 22.9753 32.0849C23.2306 32.4482 23.6249 32.6171 24.0476 32.7065C24.1403 32.7199 24.2293 32.7516 24.3095 32.7998C24.3404 32.8241 24.3664 32.8541 24.3859 32.8882C24.4009 32.9088 24.4086 32.9606 24.3911 32.894C24.3954 32.9101 24.4009 32.9258 24.4044 32.942C24.4089 32.9616 24.4122 32.9808 24.4152 33.0002C24.408 32.9533 24.4152 33.0038 24.4159 33.0155C24.4187 33.0609 24.4217 33.1061 24.4214 33.1516C24.4232 33.2311 24.4139 33.3104 24.3937 33.3873C24.3881 33.4115 24.3869 33.447 24.3688 33.4477L24.3843 33.4299L24.3725 33.4429L24.3945 33.4274C24.3721 33.4405 24.3761 33.4391 24.4066 33.4233C24.4349 33.4036 24.4361 33.4204 24.3984 33.4187C24.3536 33.4167 24.3082 33.4187 24.2635 33.4187H23.7739H22.1536L17.8171 33.4178H15.9519C15.5951 33.4178 15.2366 33.4079 14.8798 33.4178C14.8429 33.4187 14.8241 33.4023 14.8609 33.4223C14.8895 33.4379 14.8885 33.423 14.8969 33.4469C14.8905 33.4289 14.8757 33.4111 14.8674 33.3932C14.8844 33.4316 14.8629 33.3736 14.8605 33.3643C14.8395 33.2953 14.8284 33.2237 14.8273 33.1516C14.8254 33.1103 14.8251 33.0689 14.8273 33.0275C14.8283 33.0046 14.83 32.982 14.832 32.9593C14.8372 32.8991 14.8232 32.9912 14.835 32.9426C14.8394 32.9248 14.8668 32.8614 14.8455 32.9006C14.8618 32.8646 14.8867 32.8332 14.9181 32.8092C15.011 32.7503 15.116 32.7129 15.2253 32.6999C15.4432 32.6589 15.6529 32.5824 15.846 32.4733C16.0112 32.3695 16.154 32.2337 16.2659 32.0739C16.3778 31.914 16.4565 31.7333 16.4973 31.5426C16.5498 31.3081 16.5841 31.07 16.5998 30.8302C16.6261 30.5461 16.6587 30.2628 16.6747 29.9779C16.6899 29.7007 16.7105 29.4242 16.7367 29.1481C16.7362 29.0857 16.7112 29.026 16.6671 28.9819C16.623 28.9378 16.5633 28.9128 16.501 28.9124C16.4389 28.9137 16.3797 28.939 16.3358 28.9829C16.2918 29.0268 16.2666 29.086 16.2653 29.1481C16.2095 29.7388 16.1741 30.331 16.1203 30.922C16.1058 31.1296 16.0687 31.3349 16.0097 31.5344C15.9668 31.6857 15.8868 31.8238 15.7769 31.9361C15.7277 31.9881 15.6706 32.032 15.6078 32.0662C15.519 32.119 15.4239 32.1602 15.3247 32.1887C15.0693 32.2673 14.8056 32.2838 14.595 32.4664C14.3021 32.7207 14.2978 33.2147 14.4281 33.5546C14.5012 33.7451 14.6324 33.8814 14.8452 33.8885C14.8966 33.8903 14.9483 33.8885 14.9996 33.8885H15.529H17.2384L21.7183 33.8895H23.5274C23.8268 33.8895 24.1289 33.9016 24.4281 33.8895C24.868 33.872 24.919 33.3166 24.8837 32.9801C24.8789 32.878 24.853 32.7779 24.8077 32.6863C24.7624 32.5946 24.6986 32.5134 24.6203 32.4476C24.4043 32.2737 24.1375 32.261 23.8838 32.178C23.718 32.1291 23.567 32.0397 23.4444 31.9178C23.3379 31.8011 23.2611 31.6605 23.2205 31.5078C23.1634 31.3008 23.1276 31.0884 23.1138 30.8741C23.0874 30.5825 23.0527 30.2916 23.0361 29.9991C23.0199 29.7143 22.9997 29.4307 22.9727 29.1468C22.9711 29.0848 22.9458 29.0258 22.9019 28.9819C22.8581 28.9381 22.7991 28.9127 22.7371 28.9111C22.6747 28.9116 22.615 28.9366 22.5709 28.9807C22.5268 29.0248 22.5019 29.0844 22.5014 29.1468L22.5012 29.1481Z"
        fill="#211715" />
    <path
        d="M16.8693 32.4977H22.3782C22.6815 32.4977 22.682 32.0264 22.3782 32.0264H16.8693C16.566 32.0264 16.5655 32.4977 16.8693 32.4977Z"
        fill="#211715" />
    <path
        d="M4.29103 10.4562C4.29398 12.048 4.29768 13.6399 4.30213 15.2318C4.30717 17.1705 4.31228 19.1092 4.31745 21.0481C4.3221 22.7692 4.32655 24.4903 4.3308 26.2114L4.33316 27.1968C4.33414 27.6466 4.39395 28.0733 4.65663 28.4526C4.92372 28.8445 5.32828 29.1217 5.79013 29.2294C6.09347 29.2965 6.41075 29.2774 6.71968 29.2785C7.97767 29.2821 9.23569 29.2836 10.4937 29.2831C12.1304 29.2835 13.7672 29.2829 15.4043 29.2813C17.2087 29.2794 19.0132 29.2773 20.8179 29.2749C22.5786 29.2725 24.3393 29.2698 26.1 29.2668C27.6104 29.2643 29.1209 29.2616 30.6314 29.2589L32.3965 29.2557C32.6597 29.2557 32.9268 29.2679 33.1897 29.2509C33.6693 29.2218 34.1198 29.0111 34.4497 28.6617C34.778 28.3055 34.9592 27.8381 34.9567 27.3537C34.9578 27.0371 34.9567 26.7205 34.9567 26.4039C34.9563 25.6318 34.9559 24.8597 34.9554 24.0875L34.951 18.4767C34.9499 16.6661 34.9488 14.8556 34.9475 13.0452C34.9471 12.3342 34.9467 11.6231 34.9463 10.9121C34.9463 10.5331 34.9638 10.1527 34.8237 9.79266C34.6547 9.34987 34.3252 8.98697 33.9006 8.77621C33.3067 8.49035 32.5848 8.58256 31.9418 8.58246H30.0055L25.254 8.58168L19.847 8.5807L14.4247 8.57971L9.62783 8.57824H7.65738H6.8111C6.54233 8.57824 6.26551 8.56027 5.99782 8.58659C5.53308 8.63347 5.10196 8.85014 4.78703 9.19511C4.4721 9.54008 4.29549 9.98911 4.29103 10.4562C4.28769 10.7595 4.75905 10.7598 4.76239 10.4562C4.7629 10.242 4.81173 10.0307 4.90524 9.83798C4.99876 9.64528 5.13454 9.47615 5.30248 9.34321C5.61446 9.10046 5.96748 9.04861 6.34996 9.04861H7.97584L12.255 9.0494L17.3876 9.05028L22.8012 9.05126L27.8479 9.05215L31.9546 9.05283H32.7567C33.1123 9.05283 33.4488 9.05421 33.7682 9.23764C33.9518 9.34357 34.1093 9.48932 34.2291 9.66415C34.349 9.83899 34.4281 10.0385 34.4607 10.2479C34.5071 10.5506 34.4749 10.8796 34.4751 11.1855C34.476 12.7731 34.477 14.3607 34.4781 15.9481L34.4816 21.5955C34.4826 23.2282 34.4836 24.8608 34.4845 26.4934C34.4845 26.8154 34.4987 27.1415 34.4829 27.4627C34.4707 27.6685 34.4133 27.8692 34.3149 28.0503C34.2165 28.2315 34.0794 28.3888 33.9133 28.5111C33.3997 28.8856 32.7029 28.7828 32.1015 28.7839L28.1494 28.7909C26.5037 28.7938 24.8582 28.7965 23.2126 28.7991C21.4346 28.8018 19.6567 28.8041 17.8788 28.8062C16.1623 28.8081 14.4459 28.8095 12.7294 28.8102C11.2832 28.8108 9.83686 28.8104 8.39053 28.809C7.83368 28.8083 7.27679 28.8072 6.71988 28.8058C6.44256 28.805 6.14659 28.8313 5.87615 28.7645C5.67178 28.7137 5.48126 28.618 5.31837 28.4845C5.15549 28.351 5.02431 28.183 4.93433 27.9926C4.77486 27.6551 4.80442 27.2856 4.80353 26.9227C4.80281 26.5898 4.80203 26.2569 4.80117 25.9239C4.79921 25.1153 4.79715 24.3068 4.79499 23.4984C4.79008 21.6139 4.78507 19.7294 4.77996 17.8449C4.77525 16.0565 4.77073 14.268 4.76641 12.4796C4.76471 11.8053 4.76337 11.1309 4.76239 10.4562C4.76131 10.1529 4.28995 10.1524 4.29103 10.4562Z"
        fill="#211715" />
    <path
        d="M4.56599 26.2412C5.01188 26.2412 5.45773 26.2409 5.90355 26.2405C6.73457 26.2399 7.5656 26.2392 8.39662 26.2384C9.50999 26.2374 10.6233 26.2364 11.7366 26.2352C13.0429 26.2339 14.3492 26.2325 15.6556 26.231C17.0478 26.2293 18.4401 26.2276 19.8323 26.2258C21.2182 26.2239 22.6041 26.2219 23.9901 26.2198C25.2727 26.2178 26.5552 26.2156 27.8378 26.2132C28.9201 26.2112 30.0025 26.2088 31.0849 26.2061C31.8724 26.204 32.6599 26.2015 33.4474 26.1986C33.8367 26.197 34.2264 26.198 34.6159 26.1909C34.6507 26.1903 34.6853 26.1891 34.72 26.1891C35.0233 26.1891 35.0238 25.7178 34.72 25.7178C34.4312 25.7178 34.1422 25.7239 33.8534 25.7253C33.1536 25.7289 32.4539 25.7314 31.7541 25.7329C30.7354 25.7357 29.7167 25.7381 28.698 25.7402C27.4505 25.7426 26.2029 25.7448 24.9552 25.7468C23.5854 25.7491 22.2155 25.7512 20.8456 25.753C19.446 25.7549 18.0465 25.7567 16.6469 25.7584L12.6502 25.7629L9.14568 25.7664C8.2357 25.7672 7.32573 25.768 6.41576 25.7687C5.8682 25.7691 5.32065 25.7695 4.77309 25.7697H4.56599C4.26275 25.7697 4.26226 26.2412 4.56599 26.2412Z"
        fill="#211715" />
    <path
        d="M20.2763 27.5373C20.2776 27.6211 20.2615 27.7043 20.2291 27.7816C20.1967 27.8589 20.1487 27.9287 20.088 27.9866C20.0274 28.0445 19.9555 28.0892 19.8768 28.118C19.7981 28.1468 19.7142 28.1591 19.6306 28.154C19.1952 28.154 18.9708 27.8565 18.9708 27.537C18.9696 27.4533 18.9852 27.3703 19.0167 27.2928C19.0481 27.2153 19.0948 27.1449 19.154 27.0857C19.2131 27.0266 19.2835 26.9799 19.361 26.9484C19.4385 26.9169 19.5216 26.9013 19.6052 26.9024C19.7779 26.8995 19.9448 26.9643 20.0703 27.083C20.1957 27.2017 20.2697 27.3647 20.2763 27.5373Z"
        fill="#211715" />
    <path
        d="M10.9925 18.494C10.9944 19.3595 10.9987 21.3477 10.9987 21.6288C11.7978 21.6273 12.7588 21.6253 13.8198 21.6231C13.8198 21.2338 13.8198 18.2655 13.8198 18.0967H10.9917C10.9918 18.1214 10.9921 18.2705 10.9925 18.494Z"
        fill="white" />
    <path
        d="M15.7193 16.851C15.7193 16.5476 15.7188 16.3522 15.7188 16.3291H18.5469V21.6127L15.7246 21.619C15.7246 21.2722 15.7208 18.1189 15.7193 16.851Z"
        fill="white" />
    <path
        d="M20.4458 15.1355C20.4458 14.7953 20.4458 14.5823 20.4458 14.5615H23.2732V21.6018L20.452 21.6084C20.4522 21.1623 20.4475 16.7379 20.4458 15.1355Z"
        fill="white" />
    <path
        d="M25.1723 13.9527C25.1723 13.2704 25.1714 12.8216 25.1714 12.7939H27.9995V21.5913C27.1974 21.5929 26.2367 21.5951 25.1783 21.5975C25.1781 21.0831 25.1741 16.2239 25.1723 13.9527Z"
        fill="#3F88C9" />
    <path
        d="M11.2341 21.6302C11.2341 20.6022 11.2302 19.5743 11.2281 18.5468C11.2277 18.397 11.2274 18.2472 11.2272 18.0974L10.9915 18.3331H13.8197L13.584 18.0974V21.6247C13.584 21.9279 14.0553 21.9284 14.0553 21.6247V18.097C14.0544 18.0348 14.0293 17.9753 13.9853 17.9313C13.9413 17.8873 13.8819 17.8622 13.8197 17.8613H10.9915C10.9293 17.8622 10.8699 17.8873 10.8258 17.9313C10.7818 17.9753 10.7567 18.0348 10.7559 18.097C10.7559 19.0858 10.76 20.0744 10.7618 21.0632C10.7622 21.2522 10.7625 21.4412 10.7627 21.6302C10.7627 21.9334 11.2341 21.9339 11.2341 21.6302Z"
        fill="#211715" />
    <path
        d="M15.9606 21.6204C15.9606 20.9744 15.96 20.3285 15.9587 19.6826L15.9554 16.9848C15.9554 16.7663 15.9552 16.5478 15.9548 16.3294L15.7191 16.5651H18.5472L18.3115 16.3294V21.6145C18.3115 21.9177 18.7829 21.9182 18.7829 21.6145V16.3294C18.782 16.2672 18.7569 16.2078 18.7129 16.1638C18.6689 16.1198 18.6094 16.0946 18.5472 16.0938H15.7191C15.6568 16.0946 15.5974 16.1198 15.5534 16.1638C15.5094 16.2078 15.4843 16.2672 15.4834 16.3294C15.4834 16.9031 15.4841 17.4768 15.4854 18.0506C15.4865 18.97 15.4875 19.8894 15.4885 20.8088C15.4885 21.0793 15.4888 21.3498 15.4893 21.6204C15.4893 21.9236 15.9606 21.9241 15.9606 21.6204Z"
        fill="#211715" />
    <path
        d="M20.6879 21.6096C20.6879 20.7454 20.6871 19.8813 20.6855 19.0171C20.6844 17.8187 20.6831 16.6203 20.6818 15.4218C20.6818 15.1351 20.6815 14.8485 20.681 14.5618L20.4453 14.7975H23.2733L23.0376 14.5618V21.6027C23.0376 21.9059 23.5089 21.9064 23.5089 21.6027V14.5618C23.5081 14.4996 23.4829 14.4402 23.4389 14.3962C23.3949 14.3522 23.3355 14.3271 23.2733 14.3262H20.4451C20.3829 14.3271 20.3235 14.3522 20.2795 14.3962C20.2355 14.4402 20.2104 14.4996 20.2095 14.5618C20.2095 15.3268 20.2103 16.0918 20.2118 16.8567C20.213 18.0829 20.2142 19.309 20.2155 20.5353C20.2159 20.8933 20.2161 21.2514 20.2163 21.6096C20.2163 21.9128 20.6877 21.9133 20.6877 21.6096H20.6879Z"
        fill="#211715" />
    <path
        d="M25.4138 21.5988C25.4138 20.5181 25.413 19.4375 25.4114 18.3568C25.4102 16.8569 25.409 15.3569 25.4077 13.857C25.4077 13.5027 25.4074 13.1484 25.4069 12.7943L25.1712 13.0299H27.9993L27.7637 12.7943V21.5919C27.7637 21.8951 28.235 21.8956 28.235 21.5919V12.7943C28.2341 12.732 28.209 12.6726 28.165 12.6286C28.121 12.5846 28.0616 12.5595 27.9993 12.5586H25.1712C25.109 12.5595 25.0496 12.5846 25.0056 12.6286C24.9616 12.6726 24.9364 12.732 24.9355 12.7943C24.9355 13.7448 24.9363 14.6954 24.9379 15.6461C24.9391 17.1823 24.9403 18.7187 24.9415 20.255C24.9419 20.7029 24.9422 21.1508 24.9424 21.5988C24.9424 21.902 25.4138 21.9025 25.4138 21.5988Z"
        fill="#211715" />
    <path
        d="M30.317 21.3516C30.0173 21.3516 29.7176 21.352 29.418 21.3527C28.8783 21.3537 28.3386 21.3548 27.7989 21.356C27.0788 21.3575 26.359 21.3591 25.6397 21.3607L23.0865 21.3665L20.318 21.3729L17.5021 21.3793L14.8073 21.3852C14.0092 21.387 13.211 21.3887 12.4127 21.3903C11.7628 21.3916 11.1128 21.3928 10.4627 21.3939C10.0211 21.3947 9.57952 21.3953 9.13802 21.3957H8.92935C8.62601 21.3957 8.62552 21.867 8.92935 21.867C9.31153 21.867 9.69372 21.8666 10.0759 21.8658L11.889 21.8626C12.6553 21.8611 13.4216 21.8596 14.1879 21.8579L16.8277 21.8521L19.6295 21.8457L22.4251 21.8392L25.046 21.8332L27.3138 21.8282L29.083 21.8246C29.4464 21.8239 29.8098 21.8233 30.173 21.8229H30.3168C30.6201 21.8229 30.6206 21.3516 30.3168 21.3516H30.317Z"
        fill="#211715" />
</svg>