<svg width="30" height="30" viewBox="0 0 30 30" fill="none" xmlns="http://www.w3.org/2000/svg">
    <g clip-path="url(#clip0_4414_11554)">
        <path
            d="M11.875 16.25C11.5435 16.25 11.2255 16.3817 10.9911 16.6161C10.7567 16.8505 10.625 17.1685 10.625 17.5V25H4.375V17.5C4.375 17.1685 4.2433 16.8505 4.00888 16.6161C3.77446 16.3817 3.45652 16.25 3.125 16.25C2.79348 16.25 2.47554 16.3817 2.24112 16.6161C2.0067 16.8505 1.875 17.1685 1.875 17.5V26.25C1.875 26.5815 2.0067 26.8995 2.24112 27.1339C2.47554 27.3683 2.79348 27.5 3.125 27.5H11.875C12.2065 27.5 12.5245 27.3683 12.7589 27.1339C12.9933 26.8995 13.125 26.5815 13.125 26.25V17.5C13.125 17.1685 12.9933 16.8505 12.7589 16.6161C12.5245 16.3817 12.2065 16.25 11.875 16.25Z"
            fill="black" />
        <path
            d="M26.875 16.25C26.5435 16.25 26.2255 16.3817 25.9911 16.6161C25.7567 16.8505 25.625 17.1685 25.625 17.5V25H19.375V17.5C19.375 17.1685 19.2433 16.8505 19.0089 16.6161C18.7745 16.3817 18.4565 16.25 18.125 16.25C17.7935 16.25 17.4755 16.3817 17.2411 16.6161C17.0067 16.8505 16.875 17.1685 16.875 17.5V26.25C16.875 26.5815 17.0067 26.8995 17.2411 27.1339C17.4755 27.3683 17.7935 27.5 18.125 27.5H26.875C27.2065 27.5 27.5245 27.3683 27.7589 27.1339C27.9933 26.8995 28.125 26.5815 28.125 26.25V17.5C28.125 17.1685 27.9933 16.8505 27.7589 16.6161C27.5245 16.3817 27.2065 16.25 26.875 16.25Z"
            fill="black" />
        <path
            d="M21.25 10V10.75L19.625 9.125C19.5047 8.98913 19.3549 8.88263 19.1871 8.81367C19.0193 8.74472 18.8379 8.71514 18.6568 8.72721C18.4758 8.73928 18.2999 8.79267 18.1427 8.8833C17.9855 8.97393 17.8512 9.09937 17.75 9.25C17.5684 9.50083 17.4814 9.80778 17.5043 10.1166C17.5271 10.4254 17.6585 10.7162 17.875 10.9375L21.625 14.625C21.7362 14.7462 21.8715 14.843 22.0221 14.9093C22.1727 14.9755 22.3355 15.0097 22.5 15.0097C22.6645 15.0097 22.8273 14.9755 22.9779 14.9093C23.1285 14.843 23.2638 14.7462 23.375 14.625L27.125 10.9375C27.3415 10.7162 27.4729 10.4254 27.4957 10.1166C27.5186 9.80778 27.4316 9.50083 27.25 9.25C27.1488 9.09937 27.0145 8.97393 26.8573 8.8833C26.7001 8.79267 26.5242 8.73928 26.3432 8.72721C26.1621 8.71514 25.9807 8.74472 25.8129 8.81367C25.6451 8.88263 25.4953 8.98913 25.375 9.125L23.75 10.75V10C23.75 7.67936 22.8281 5.45376 21.1872 3.81282C19.5462 2.17187 17.3206 1.25 15 1.25C12.6794 1.25 10.4538 2.17187 8.81282 3.81282C7.17187 5.45376 6.25 7.67936 6.25 10V13.75C6.25 14.0815 6.3817 14.3995 6.61612 14.6339C6.85054 14.8683 7.16848 15 7.5 15C7.83152 15 8.14946 14.8683 8.38388 14.6339C8.6183 14.3995 8.75 14.0815 8.75 13.75V10C8.75 8.3424 9.40848 6.75269 10.5806 5.58058C11.7527 4.40848 13.3424 3.75 15 3.75C16.6576 3.75 18.2473 4.40848 19.4194 5.58058C20.5915 6.75269 21.25 8.3424 21.25 10Z"
            fill="#3F88C9" />
    </g>
    <defs>
        <clipPath id="clip0_4414_11554">
            <rect width="30" height="30" fill="white" />
        </clipPath>
    </defs>
</svg>