<svg width="21" height="20" viewBox="0 0 21 20" fill="none" xmlns="http://www.w3.org/2000/svg">
<rect x="1.94531" y="11.4352" width="18" height="7" fill="#18B779" fill-opacity="0.32"/>
<path d="M18.218 3.88976H15.4908V3.02612C15.4908 2.33897 15.2034 1.67996 14.692 1.19407C14.1805 0.708181 13.4868 0.435211 12.7635 0.435211H9.12713C8.40381 0.435211 7.71012 0.708181 7.19866 1.19407C6.68719 1.67996 6.39986 2.33897 6.39986 3.02612V3.88976H3.67259C2.94927 3.88976 2.25558 4.16273 1.74411 4.64862C1.23265 5.13451 0.945313 5.79351 0.945312 6.48067V16.8443C0.945313 17.5315 1.23265 18.1905 1.74411 18.6764C2.25558 19.1622 2.94927 19.4352 3.67259 19.4352H18.218C18.9414 19.4352 19.6351 19.1622 20.1465 18.6764C20.658 18.1905 20.9453 17.5315 20.9453 16.8443V6.48067C20.9453 5.79351 20.658 5.13451 20.1465 4.64862C19.6351 4.16273 18.9414 3.88976 18.218 3.88976ZM8.21804 3.02612C8.21804 2.79707 8.31382 2.5774 8.48431 2.41544C8.65479 2.25347 8.88602 2.16248 9.12713 2.16248H12.7635C13.0046 2.16248 13.2358 2.25347 13.4063 2.41544C13.5768 2.5774 13.6726 2.79707 13.6726 3.02612V3.88976H8.21804V3.02612ZM2.76349 6.48067C2.76349 6.25162 2.85927 6.03195 3.02976 5.86998C3.20025 5.70802 3.43148 5.61703 3.67259 5.61703H18.218C18.4591 5.61703 18.6904 5.70802 18.8609 5.86998C19.0314 6.03195 19.1271 6.25162 19.1271 6.48067V8.20794C19.1271 8.89509 18.8398 9.5541 18.3283 10.04C17.8169 10.5259 17.1232 10.7988 16.3999 10.7988H5.49077C4.76745 10.7988 4.07376 10.5259 3.56229 10.04C3.05083 9.5541 2.76349 8.89509 2.76349 8.20794V6.48067ZM18.218 17.7079H3.67259C3.43148 17.7079 3.20025 17.6169 3.02976 17.455C2.85927 17.293 2.76349 17.0734 2.76349 16.8443V11.6625C3.54778 12.2276 4.50641 12.5312 5.49077 12.5261C17.3089 12.5261 17.4999 12.8111 19.1271 11.6625V16.8443C19.1271 17.0734 19.0314 17.293 18.8609 17.455C18.6904 17.6169 18.4591 17.7079 18.218 17.7079Z" fill="#1B1B1B"/>
<path d="M9.94531 11.4352H11.9453C12.2105 11.4352 12.4649 11.3299 12.6524 11.1423C12.84 10.9548 12.9453 10.7004 12.9453 10.4352C12.9453 10.17 12.84 9.91564 12.6524 9.7281C12.4649 9.54057 12.2105 9.43521 11.9453 9.43521H9.94531C9.6801 9.43521 9.42574 9.54057 9.23821 9.7281C9.05067 9.91564 8.94531 10.17 8.94531 10.4352C8.94531 10.7004 9.05067 10.9548 9.23821 11.1423C9.42574 11.3299 9.6801 11.4352 9.94531 11.4352Z" fill="#18B779"/>
</svg>
