<svg width="13" height="13" viewBox="0 0 13 13" fill="none" xmlns="http://www.w3.org/2000/svg">
<path d="M12.6428 2.31414C12.7611 2.31414 12.8571 2.21814 12.8571 2.09985V1.67128C12.8571 1.08028 12.3767 0.599854 11.7857 0.599854H11.3571C11.2388 0.599854 11.1428 0.695854 11.1428 0.814139C11.1428 0.932425 11.2388 1.02842 11.3571 1.02842H11.7857C12.1401 1.02842 12.4286 1.31685 12.4286 1.67128V2.09985C12.4286 2.21814 12.5246 2.31414 12.6428 2.31414Z" fill="#1C1C1C"/>
<path d="M-1.52588e-05 11.5285V11.0999C-1.52588e-05 10.9816 0.0959847 10.8856 0.21427 10.8856H9.21427C9.33256 10.8856 9.42856 10.9816 9.42856 11.0999V11.5285C9.42856 11.8829 9.71698 12.1713 10.0714 12.1713C10.1897 12.1713 10.2857 12.2673 10.2857 12.3856C10.2857 12.5039 10.1897 12.5999 10.0714 12.5999H1.07141C0.480413 12.5999 -1.52588e-05 12.1195 -1.52588e-05 11.5285ZM8.99998 11.5285V11.3142H0.428556V11.5285C0.428556 11.8829 0.716985 12.1713 1.07141 12.1713H9.2147C9.08013 11.9922 8.99998 11.7698 8.99998 11.5285Z" fill="#1C1C1C"/>
<path d="M9.00471 7.46132C8.92114 7.54532 8.92114 7.68074 9.00471 7.76474L9.61071 8.37074C9.69428 8.45432 9.83014 8.45432 9.91371 8.37074C9.99728 8.28717 9.99728 8.15131 9.91371 8.06774L9.30771 7.46132C9.22371 7.37732 9.08828 7.37732 9.00471 7.46132Z" fill="#1C1C1C"/>
<path d="M6.85715 8.74276C4.96672 8.74276 3.42857 7.20462 3.42857 5.31419C3.42857 3.42376 4.96672 1.88562 6.85715 1.88562C7.56857 1.88562 8.25086 2.10162 8.83072 2.51048C8.92757 2.57819 8.95072 2.71233 8.88257 2.80876C8.81443 2.90562 8.68029 2.92919 8.58386 2.86019C8.07686 2.50276 7.47986 2.31419 6.85715 2.31419C5.20286 2.31419 3.85715 3.66033 3.85715 5.31419C3.85715 6.96805 5.20286 8.31419 6.85715 8.31419C8.51143 8.31419 9.85715 6.96805 9.85715 5.31419C9.85715 5.00605 9.81086 4.70262 9.71914 4.41205C9.68357 4.29891 9.74614 4.17848 9.85929 4.14333C9.97243 4.10862 10.0924 4.17033 10.128 4.28305C10.2326 4.61562 10.2857 4.96276 10.2857 5.31419C10.2857 7.20462 8.74757 8.74276 6.85715 8.74276Z" fill="#1C1C1C"/>
<path d="M10.2857 8.31419C10.3954 8.31419 10.5051 8.35619 10.5887 8.43976L12.303 10.154C12.4706 10.3216 12.4706 10.5925 12.303 10.76C12.2194 10.8436 12.1097 10.8856 12 10.8856C11.8903 10.8856 11.7806 10.8436 11.697 10.76L9.98272 9.04576C9.81514 8.87819 9.81514 8.60733 9.98272 8.43976C10.0663 8.35619 10.176 8.31419 10.2857 8.31419ZM10.2857 7.88562C10.0569 7.88562 9.84172 7.97476 9.67972 8.13676C9.51772 8.29876 9.42857 8.51391 9.42857 8.74276C9.42857 8.97162 9.51772 9.18676 9.67972 9.34876L11.394 11.063C11.556 11.225 11.7711 11.3142 12 11.3142C12.2289 11.3142 12.444 11.225 12.606 11.063C12.768 10.901 12.8571 10.6859 12.8571 10.457C12.8571 10.2282 12.768 10.013 12.606 9.85105L10.8917 8.13676C10.7297 7.97476 10.5146 7.88562 10.2857 7.88562Z" fill="#1C1C1C"/>
<path d="M6.64286 6.59986C6.64115 6.59986 6.63943 6.59986 6.63772 6.59986C6.57558 6.59815 6.51772 6.57029 6.47786 6.52272L5.40643 5.23701C5.33101 5.14572 5.34343 5.01072 5.43386 4.93486C5.52515 4.85943 5.65972 4.87186 5.73601 4.96229L6.65015 6.05986L9.69901 2.81215C9.77958 2.72472 9.91501 2.71958 10.0016 2.79886C10.0886 2.87901 10.0946 3.01444 10.0144 3.10186L6.80058 6.53044C6.75986 6.57458 6.70329 6.59986 6.64286 6.59986Z" fill="#1C1C1C"/>
<path d="M11.7857 1.02842C11.904 1.02842 12 0.932425 12 0.814139C12 0.695854 11.904 0.599854 11.7857 0.599854H3.21428C2.62328 0.599854 2.14285 1.08028 2.14285 1.67128V10.2427C2.14285 10.361 2.23885 10.457 2.35714 10.457C2.47542 10.457 2.57142 10.361 2.57142 10.2427V1.67128C2.57142 1.31685 2.85985 1.02842 3.21428 1.02842H10.929C10.7944 1.20757 10.7143 1.43042 10.7143 1.67128V7.24271C10.7143 7.361 10.8103 7.457 10.9286 7.457C11.0469 7.457 11.1429 7.361 11.1429 7.24271V1.67128C11.1429 1.31685 11.4313 1.02842 11.7857 1.02842Z" fill="#1C1C1C"/>
<path d="M10.0714 12.1712H9.32141V12.5998H10.0714C10.6624 12.5998 11.1428 12.1194 11.1428 11.5284C11.1428 11.4101 11.0468 11.3141 10.9286 11.3141C10.8103 11.3141 10.7143 11.4101 10.7143 11.5284C10.7143 11.8828 10.4258 12.1712 10.0714 12.1712Z" fill="#1C1C1C"/>
</svg>
