<svg width="34" height="38" viewBox="0 0 34 38" fill="none" xmlns="http://www.w3.org/2000/svg">
<path d="M32.2142 15.5954C32.3131 15.5954 32.3932 15.5153 32.3932 15.4164C32.3932 15.3175 32.3131 15.2373 32.2142 15.2373C32.1153 15.2373 32.0351 15.3175 32.0351 15.4164C32.0351 15.5153 32.1153 15.5954 32.2142 15.5954Z" fill="#1C1C1C"/>
<path d="M2.08904 8.53525C2.18793 8.53525 2.2681 8.45508 2.2681 8.35619C2.2681 8.25729 2.18793 8.17712 2.08904 8.17712C1.99014 8.17712 1.90997 8.25729 1.90997 8.35619C1.90997 8.45508 1.99014 8.53525 2.08904 8.53525Z" fill="#1C1C1C"/>
<path d="M13.4382 0.358124C13.537 0.358124 13.6172 0.277956 13.6172 0.179062C13.6172 0.0801689 13.537 0 13.4382 0C13.3393 0 13.2591 0.0801689 13.2591 0.179062C13.2591 0.277956 13.3393 0.358124 13.4382 0.358124Z" fill="#1C1C1C"/>
<path d="M28.2322 1.14255C28.3311 1.14255 28.4112 1.06238 28.4112 0.963486C28.4112 0.864593 28.3311 0.784424 28.2322 0.784424C28.1333 0.784424 28.0531 0.864593 28.0531 0.963486C28.0531 1.06238 28.1333 1.14255 28.2322 1.14255Z" fill="#1C1C1C"/>
<path d="M0.477463 20.0464C0.576356 20.0464 0.656526 19.9662 0.656526 19.8673C0.656526 19.7684 0.576356 19.6882 0.477463 19.6882C0.37857 19.6882 0.298401 19.7684 0.298401 19.8673C0.298401 19.9662 0.37857 20.0464 0.477463 20.0464Z" fill="#1C1C1C"/>
<path d="M2.08905 1.85029H1.79061V1.55185C1.79061 1.38985 1.65418 1.25342 1.49217 1.25342C1.33017 1.25342 1.19374 1.38985 1.19374 1.55185V1.85029H0.8953C0.733291 1.85029 0.596863 1.98672 0.596863 2.14873C0.596863 2.31074 0.733291 2.44717 0.8953 2.44717H1.19374V2.7456C1.19374 2.90761 1.33017 3.04404 1.49217 3.04404C1.65418 3.04404 1.79061 2.90761 1.79061 2.7456V2.44717H2.08905C2.25106 2.44717 2.38748 2.31074 2.38748 2.14873C2.38748 1.98672 2.25106 1.85029 2.08905 1.85029Z" fill="#F16723"/>
<path d="M26.1687 0.630955C26.3147 0.630955 26.433 0.51261 26.433 0.366625C26.433 0.220639 26.3147 0.102295 26.1687 0.102295C26.0227 0.102295 25.9044 0.220639 25.9044 0.366625C25.9044 0.51261 26.0227 0.630955 26.1687 0.630955Z" fill="#1C1C1C"/>
<path d="M31.3188 13.0886C31.4648 13.0886 31.5832 12.9703 31.5832 12.8243C31.5832 12.6783 31.4648 12.5599 31.3188 12.5599C31.1728 12.5599 31.0545 12.6783 31.0545 12.8243C31.0545 12.9703 31.1728 13.0886 31.3188 13.0886Z" fill="#1C1C1C"/>
<path d="M30.5429 5.26961C29.9801 5.26961 29.5282 4.81769 29.5282 4.25492C29.5282 3.69215 29.9801 3.24023 30.5429 3.24023C31.1057 3.24023 31.5576 3.69215 31.5576 4.25492C31.5576 4.81769 31.1057 5.26961 30.5429 5.26961ZM30.5429 3.83711C30.3127 3.83711 30.1251 4.0247 30.1251 4.25492C30.1251 4.48514 30.3127 4.67273 30.5429 4.67273C30.7731 4.67273 30.9607 4.48514 30.9607 4.25492C30.9607 4.0247 30.7731 3.83711 30.5429 3.83711Z" fill="#FBD20A"/>
<path d="M33.4079 28.1127H33.1095V27.8143C33.1095 27.6523 32.973 27.5159 32.811 27.5159C32.649 27.5159 32.5126 27.6523 32.5126 27.8143V28.1127H32.2141C32.0521 28.1127 31.9157 28.2492 31.9157 28.4112C31.9157 28.5732 32.0521 28.7096 32.2141 28.7096H32.5126V29.0081C32.5126 29.1701 32.649 29.3065 32.811 29.3065C32.973 29.3065 33.1095 29.1701 33.1095 29.0081V28.7096H33.4079C33.5699 28.7096 33.7063 28.5732 33.7063 28.4112C33.7063 28.2492 33.5699 28.1127 33.4079 28.1127Z" fill="#4E9BD4"/>
<path d="M1.49218 23.6192H1.19375V23.3208C1.19375 23.1588 1.05732 23.0223 0.895311 23.0223C0.733302 23.0223 0.596874 23.1588 0.596874 23.3208V23.6192H0.298437C0.136428 23.6192 0 23.7556 0 23.9176C0 24.0797 0.136428 24.2161 0.298437 24.2161H0.596874V24.5145C0.596874 24.6765 0.733302 24.813 0.895311 24.813C1.05732 24.813 1.19375 24.6765 1.19375 24.5145V24.2161H1.49218C1.65419 24.2161 1.79062 24.0797 1.79062 23.9176C1.79062 23.7556 1.65419 23.6192 1.49218 23.6192Z" fill="#FBD20A"/>
<path d="M3.76032 35.7528C3.36808 35.7528 3.04407 35.4288 3.04407 35.0366C3.04407 34.6443 3.36808 34.3203 3.76032 34.3203C4.15255 34.3203 4.47656 34.6443 4.47656 35.0366C4.47656 35.4288 4.15255 35.7528 3.76032 35.7528ZM3.76032 34.9172C3.6921 34.9172 3.64094 34.9683 3.64094 35.0366C3.64094 35.1048 3.6921 35.1559 3.76032 35.1559C3.82853 35.1559 3.87969 35.1048 3.87969 35.0366C3.87969 34.9683 3.82853 34.9172 3.76032 34.9172Z" fill="#4E9BD4"/>
<path d="M24.3183 2.31079H3.62378V31.3871H24.3183V2.31079Z" fill="white"/>
<path d="M24.3183 31.8986H3.62385C3.34247 31.8986 3.11224 31.6683 3.11224 31.387V2.31068C3.11224 2.0293 3.34247 1.79907 3.62385 1.79907H24.3183C24.5997 1.79907 24.8299 2.0293 24.8299 2.31068V31.387C24.8299 31.6683 24.5997 31.8986 24.3183 31.8986ZM4.13546 30.8754H23.8067V2.82228H4.13546V30.8754Z" fill="#1C1C1C"/>
<path d="M26.8764 4.9541H6.18188V34.0304H26.8764V4.9541Z" fill="white"/>
<path d="M26.8764 34.542H6.18189C5.90051 34.542 5.67029 34.3118 5.67029 34.0304V4.95411C5.67029 4.67273 5.90051 4.4425 6.18189 4.4425H26.8764C27.1577 4.4425 27.388 4.67273 27.388 4.95411V34.0304C27.388 34.3118 27.1577 34.542 26.8764 34.542ZM6.6935 33.5188H26.3648V5.46572H6.6935V33.5188Z" fill="#1C1C1C"/>
<path d="M29.4345 7.51208H8.73999V36.5884H29.4345V7.51208Z" fill="white"/>
<path d="M29.4344 37.1H8.73994C8.45856 37.1 8.22833 36.8698 8.22833 36.5884V7.51209C8.22833 7.23071 8.45856 7.00049 8.73994 7.00049H29.4344C29.7158 7.00049 29.946 7.23071 29.946 7.51209V36.5884C29.946 36.8698 29.7158 37.1 29.4344 37.1ZM9.25154 36.0768H28.9228V8.0237H9.25154V36.0768Z" fill="#1C1C1C"/>
<path d="M26.4244 16.8489H11.7584C11.477 16.8489 11.2468 16.6187 11.2468 16.3373C11.2468 16.0559 11.477 15.8257 11.7584 15.8257H26.4244C26.7058 15.8257 26.936 16.0559 26.936 16.3373C26.936 16.6187 26.7058 16.8489 26.4244 16.8489Z" fill="#1C1C1C"/>
<path d="M21.675 13.1056H11.7584C11.477 13.1056 11.2468 12.8754 11.2468 12.594C11.2468 12.3126 11.477 12.0824 11.7584 12.0824H21.675C21.9564 12.0824 22.1866 12.3126 22.1866 12.594C22.1866 12.8754 21.9564 13.1056 21.675 13.1056Z" fill="#1C1C1C"/>
<path d="M26.4244 19.1511H11.7584C11.477 19.1511 11.2468 18.9209 11.2468 18.6395C11.2468 18.3582 11.477 18.1279 11.7584 18.1279H26.4244C26.7058 18.1279 26.936 18.3582 26.936 18.6395C26.936 18.9209 26.7058 19.1511 26.4244 19.1511Z" fill="#1C1C1C"/>
<path d="M26.4244 21.4534H11.7584C11.477 21.4534 11.2468 21.2232 11.2468 20.9418C11.2468 20.6604 11.477 20.4302 11.7584 20.4302H26.4244C26.7058 20.4302 26.936 20.6604 26.936 20.9418C26.936 21.2232 26.7058 21.4534 26.4244 21.4534Z" fill="#1C1C1C"/>
<path d="M26.4244 23.7555H11.7584C11.477 23.7555 11.2468 23.5253 11.2468 23.2439C11.2468 22.9625 11.477 22.7323 11.7584 22.7323H26.4244C26.7058 22.7323 26.936 22.9625 26.936 23.2439C26.936 23.5253 26.7058 23.7555 26.4244 23.7555Z" fill="#1C1C1C"/>
<path d="M26.4244 26.0578H11.7584C11.477 26.0578 11.2468 25.8275 11.2468 25.5462C11.2468 25.2648 11.477 25.0345 11.7584 25.0345H26.4244C26.7058 25.0345 26.936 25.2648 26.936 25.5462C26.936 25.8275 26.7058 26.0578 26.4244 26.0578Z" fill="#1C1C1C"/>
<path d="M26.4244 28.3601H11.7584C11.477 28.3601 11.2468 28.1299 11.2468 27.8485C11.2468 27.5671 11.477 27.3369 11.7584 27.3369H26.4244C26.7058 27.3369 26.936 27.5671 26.936 27.8485C26.936 28.1299 26.7058 28.3601 26.4244 28.3601Z" fill="#1C1C1C"/>
<path d="M26.4244 30.6623H11.7584C11.477 30.6623 11.2468 30.432 11.2468 30.1506C11.2468 29.8693 11.477 29.639 11.7584 29.639H26.4244C26.7058 29.639 26.936 29.8693 26.936 30.1506C26.936 30.432 26.7058 30.6623 26.4244 30.6623Z" fill="#1C1C1C"/>
<path d="M21.675 32.9645H11.7584C11.477 32.9645 11.2468 32.7343 11.2468 32.4529C11.2468 32.1715 11.477 31.9413 11.7584 31.9413H21.675C21.9564 31.9413 22.1866 32.1715 22.1866 32.4529C22.1866 32.7343 21.9564 32.9645 21.675 32.9645Z" fill="#1C1C1C"/>
</svg>
