<svg width="15" height="20" viewBox="0 0 15 20" fill="none" xmlns="http://www.w3.org/2000/svg">
<path d="M14.5575 3.06594L7.8075 0.0659359C7.71081 0.0224726 7.60601 0 7.5 0C7.39399 0 7.28919 0.0224726 7.1925 0.0659359L0.4425 3.06594C0.310913 3.12509 0.199178 3.22093 0.120692 3.34199C0.0422066 3.46304 0.000301021 3.60417 0 3.74844V10.1684C0.00516615 11.0815 0.202119 11.9833 0.578096 12.8153C0.954072 13.6474 1.50068 14.3911 2.1825 14.9984L7.005 19.2809C7.14187 19.4012 7.31782 19.4675 7.5 19.4675C7.68218 19.4675 7.85813 19.4012 7.995 19.2809L12.8175 14.9984C13.4993 14.3911 14.0459 13.6474 14.4219 12.8153C14.7979 11.9833 14.9948 11.0815 15 10.1684V3.74844C14.9997 3.60417 14.9578 3.46304 14.8793 3.34199C14.8008 3.22093 14.6891 3.12509 14.5575 3.06594ZM13.5 10.1684C13.5014 10.8768 13.3524 11.5774 13.0628 12.2239C12.7732 12.8704 12.3496 13.448 11.82 13.9184L7.5 17.7434L3.18 13.9034C2.65042 13.433 2.22681 12.8554 1.93719 12.2089C1.64757 11.5624 1.49855 10.8618 1.5 10.1534V4.23594L7.5 1.56594L13.5 4.23594V10.1684Z" fill="#19A060"/>
<path d="M5.24998 8.46607C5.10876 8.32484 4.91721 8.2455 4.71748 8.2455C4.51776 8.2455 4.32621 8.32484 4.18498 8.46607C4.04376 8.6073 3.96442 8.79885 3.96442 8.99857C3.96442 9.1983 4.04376 9.38984 4.18498 9.53107L6.05998 11.4061C6.12971 11.4764 6.21266 11.5322 6.30405 11.5702C6.39545 11.6083 6.49348 11.6279 6.59248 11.6279C6.69149 11.6279 6.78952 11.6083 6.88092 11.5702C6.97231 11.5322 7.05526 11.4764 7.12498 11.4061L10.875 7.65607C11.0162 7.50689 11.0924 7.30771 11.0868 7.10236C11.0811 6.89701 10.9942 6.7023 10.845 6.56107C10.6958 6.41984 10.4966 6.34366 10.2913 6.34929C10.0859 6.35492 9.89121 6.44189 9.74998 6.59107L6.53249 9.81607L5.24998 8.46607Z" fill="#19A060"/>
</svg>
