<svg width="20" height="18" viewBox="0 0 20 18" fill="none" xmlns="http://www.w3.org/2000/svg">
<path d="M5 4L14 0.5L15.5 4.5H5V4Z" fill="#18B779"/>
<path d="M0 12H20V15C20 16.6569 18.6569 18 17 18H3C1.34315 18 0 16.6569 0 15V12Z" fill="#18B779" fill-opacity="0.13"/>
<path fill-rule="evenodd" clip-rule="evenodd" d="M20 15.8046C20 17.0173 19.027 18 17.8261 18H2.17391C0.973043 18 0 17.0173 0 15.8046V3.07098C0 2.10104 0.778696 1.31463 1.73913 1.31463H10.5091L14.0304 0.0263408C14.2535 -0.0557688 14.5004 0.0605899 14.5817 0.284964L14.9526 1.31463H16.5217C17.4822 1.31463 18.2609 2.10104 18.2609 3.07098V3.94916C19.2213 3.94916 20 4.73557 20 5.70551V15.8046ZM1.73913 2.1928C1.25913 2.1928 0.869565 2.58623 0.869565 3.07098C0.869565 3.55574 1.25913 3.94916 1.73913 3.94916H3.23696H3.31913C3.32478 3.94696 3.32826 3.94213 3.33391 3.93994L8.1087 2.1928H1.73913ZM14.3817 2.27228L13.92 0.988384L13.0278 1.31463H13.0291L10.6317 2.1928H10.6274L5.82783 3.94916H14.9852L14.3817 2.27228ZM17.3913 3.07098C17.3913 2.58623 17.0017 2.1928 16.5217 2.1928H15.2683L15.9004 3.94916H17.3913V3.07098ZM18.2609 4.82734H1.73913C1.42087 4.82734 1.12609 4.73469 0.869565 4.58364V15.8046C0.869565 16.5321 1.45391 17.1218 2.17391 17.1218H17.8261C18.5465 17.1218 19.1304 16.5321 19.1304 15.8046V12.7309H17.3913C16.4309 12.7309 15.6522 11.9445 15.6522 10.9746C15.6522 10.0046 16.4309 9.21823 17.3913 9.21823H19.1304V5.70551C19.1304 5.22076 18.7409 4.82734 18.2609 4.82734ZM19.1304 11.8528V10.0964H17.3913C16.9113 10.0964 16.5217 10.4898 16.5217 10.9746C16.5217 11.4593 16.9113 11.8528 17.3913 11.8528H19.1304ZM17.3913 10.5355H18.2609V11.4137H17.3913V10.5355Z" fill="#1C1C1C"/>
</svg>
