<svg width="375" height="372" viewBox="0 0 375 372" fill="none" xmlns="http://www.w3.org/2000/svg">
    <path
        d="M188.066 241.841C187.161 241.841 186.293 241.65 185.638 241.27L130.969 209.703C130.261 209.292 129.873 208.713 129.873 208.059C129.873 207.305 130.406 206.567 131.335 206.026L185.273 174.886C186.925 173.934 189.345 173.843 190.792 174.673L245.461 206.24C246.169 206.651 246.557 207.229 246.557 207.884C246.557 208.637 246.024 209.376 245.095 209.916L191.157 241.057C190.266 241.574 189.14 241.841 188.066 241.841ZM186.057 240.539C187.229 241.216 189.368 241.118 190.731 240.326L244.669 209.185C245.316 208.812 245.704 208.325 245.704 207.891C245.704 207.457 245.339 207.153 245.034 206.978L190.365 175.411C189.193 174.741 187.054 174.833 185.692 175.624L131.753 206.765C131.106 207.138 130.718 207.625 130.718 208.059C130.718 208.493 131.083 208.797 131.388 208.972L186.057 240.539Z"
        fill="#6193F2" />
    <path opacity="0.5"
        d="M123.898 245.472C123.753 245.472 123.608 245.396 123.532 245.259C123.418 245.053 123.487 244.795 123.685 244.68L158.22 224.745C158.418 224.631 158.684 224.699 158.799 224.897C158.913 225.102 158.844 225.361 158.646 225.475L124.111 245.411C124.042 245.449 123.966 245.472 123.898 245.472Z"
        fill="url(#paint0_linear_403_8077)" />
    <path opacity="0.5"
        d="M252.456 245.358C252.38 245.358 252.312 245.343 252.243 245.297L217.898 225.468C217.693 225.354 217.624 225.095 217.746 224.889C217.86 224.684 218.126 224.615 218.324 224.737L252.67 244.566C252.875 244.68 252.944 244.939 252.822 245.145C252.746 245.282 252.601 245.358 252.456 245.358Z"
        fill="url(#paint1_linear_403_8077)" />
    <path opacity="0.5"
        d="M188.074 311.955C186.681 311.955 185.288 311.598 184.047 310.874C169.973 302.714 123.091 275.616 121.972 275.113C121.743 275.045 121.637 274.817 121.698 274.596C121.758 274.375 122.01 274.246 122.238 274.314C122.969 274.527 183.857 309.786 184.473 310.144C186.696 311.43 189.459 311.43 191.682 310.144L253.605 274.253C253.803 274.139 254.062 274.2 254.184 274.405C254.298 274.611 254.229 274.87 254.032 274.984L192.108 310.874C190.86 311.598 189.467 311.955 188.074 311.955Z"
        fill="url(#paint2_linear_403_8077)" />
    <path d="M246.131 184.881V191.587L188.074 225.11L130.01 191.587V184.873L246.131 184.881Z"
        fill="url(#paint3_linear_403_8077)" />
    <path d="M188.074 218.396L130.01 184.873L188.074 151.357L246.131 184.881L188.074 218.396Z" fill="#9ABCFF" />
    <path
        d="M188.074 217.612L130.695 184.484L130.01 184.873L188.074 218.396L246.131 184.88L245.453 184.484L188.074 217.612Z"
        fill="white" />
    <path d="M188.074 210.662L143.415 184.88L188.074 159.099L232.726 184.88L188.074 210.662Z" fill="#00014C" />
    <path opacity="0.5" d="M188.074 210.67L143.415 184.88L188.074 159.099L232.726 184.888L188.074 210.67Z"
        fill="url(#paint4_linear_403_8077)" />
    <path opacity="0.5" d="M188.074 152.598L232.726 178.379V184.88L188.074 159.098V152.598Z"
        fill="url(#paint5_linear_403_8077)" />
    <path opacity="0.5" d="M188.074 159.098L143.415 184.88V178.379L188.074 152.598V159.098Z"
        fill="url(#paint6_linear_403_8077)" />
    <path opacity="0.5" d="M188.074 204.161L143.415 178.379L188.074 152.598L232.726 178.379L188.074 204.161Z"
        fill="url(#paint7_linear_403_8077)" />
    <path opacity="0.5" d="M188.074 188.686L170.231 178.379L188.074 168.08L205.916 178.379L188.074 188.686Z"
        fill="#379FE8" />
    <path opacity="0.5"
        d="M188.074 169.024L205.094 178.859L205.916 178.379L188.074 168.08L170.231 178.379L171.054 178.859L188.074 169.024Z"
        fill="#379FE8" />
    <path opacity="0.5" d="M188.074 204.161V210.669L232.726 184.88V178.379L188.074 204.161Z"
        fill="url(#paint8_linear_403_8077)" />
    <path opacity="0.5" d="M143.415 178.379V184.88L188.074 210.669V204.161L143.415 178.379Z"
        fill="url(#paint9_linear_403_8077)" />
    <path opacity="0.8"
        d="M188.074 203.453L144.031 178.029L143.415 178.379L188.074 204.161L232.726 178.379L232.117 178.029L188.074 203.453Z"
        fill="#379FE8" />
    <g opacity="0.11">
        <path
            d="M102.181 232.509C99.8442 231.161 96.9669 231.161 94.6224 232.501L49.59 258.442C48.8821 258.854 48.8821 259.874 49.59 260.285L94.9954 286.5C97.0582 287.688 99.6006 287.688 101.663 286.5L147.137 260.307C147.845 259.896 147.845 258.876 147.137 258.465L102.181 232.509Z"
            fill="url(#paint10_linear_403_8077)" />
    </g>
    <g opacity="0.11">
        <path
            d="M102.181 224.927C99.8442 223.58 96.9669 223.58 94.6224 224.927L49.59 250.869C48.8821 251.28 48.8821 252.3 49.59 252.711L94.9954 278.927C97.0582 280.114 99.6006 280.114 101.663 278.927L147.137 252.734C147.845 252.323 147.845 251.303 147.137 250.892L102.181 224.927Z"
            fill="url(#paint11_linear_403_8077)" />
    </g>
    <g opacity="0.11">
        <path
            d="M102.181 217.339C99.8442 215.991 96.9669 215.991 94.6224 217.331L49.59 243.273C48.8821 243.684 48.8821 244.704 49.59 245.115L94.9954 271.33C97.0582 272.518 99.6006 272.518 101.663 271.33L147.137 245.137C147.845 244.726 147.845 243.706 147.137 243.295L102.181 217.339Z"
            fill="url(#paint12_linear_403_8077)" />
    </g>
    <g opacity="0.11">
        <path
            d="M102.181 209.749C99.8437 208.401 96.9664 208.401 94.6219 209.741L49.5895 235.683C48.8816 236.094 48.8816 237.114 49.5895 237.525L94.9949 263.74C97.0577 264.928 99.6001 264.928 101.663 263.74L147.137 237.548C147.845 237.137 147.845 236.117 147.137 235.706L102.181 209.749Z"
            fill="url(#paint13_linear_403_8077)" />
    </g>
    <path opacity="0.5"
        d="M147.145 235.713L102.181 209.757C99.8441 208.409 96.9668 208.409 94.6223 209.749L49.59 235.691C49.2322 235.896 49.0571 236.254 49.0571 236.612V251.866C49.0571 252.224 49.2322 252.581 49.59 252.787L94.9953 279.003C97.0582 280.19 99.6006 280.19 101.663 279.003L147.137 252.81C147.495 252.604 147.67 252.247 147.67 251.889V236.634C147.678 236.277 147.503 235.919 147.145 235.713Z"
        fill="url(#paint14_linear_403_8077)" />
    <g opacity="0.11">
        <path
            d="M102.181 209.749C99.8437 208.401 96.9664 208.401 94.6219 209.741L49.5895 235.683C48.8816 236.094 48.8816 237.114 49.5895 237.525L94.9949 263.74C97.0577 264.928 99.6001 264.928 101.663 263.74L147.137 237.548C147.845 237.137 147.845 236.117 147.137 235.706L102.181 209.749Z"
            fill="url(#paint15_linear_403_8077)" />
    </g>
    <g opacity="0.5">
        <path
            d="M99.9885 224.623C98.9989 224.053 97.7734 224.053 96.7838 224.623L76.6045 236.247C76.2848 236.43 76.2848 236.886 76.6045 237.069L96.8676 248.769C97.7886 249.301 98.9228 249.301 99.8438 248.769L120.137 237.084C120.457 236.902 120.457 236.445 120.137 236.262L99.9885 224.623Z"
            fill="#2983E8" />
    </g>
    <path
        d="M76.6121 236.969L96.7914 225.345C97.7809 224.775 99.0065 224.775 99.996 225.345L120.145 236.977C120.168 236.992 120.175 237.007 120.191 237.022C120.449 236.817 120.442 236.421 120.145 236.246L99.996 224.615C99.0065 224.044 97.7809 224.044 96.7914 224.615L76.6121 236.238C76.3152 236.406 76.3076 236.809 76.5664 237.015C76.5816 236.999 76.5892 236.984 76.6121 236.969Z"
        fill="#2983E8" />
    <path
        d="M147.145 236.506L101.671 262.698C99.608 263.886 97.0656 263.886 95.0027 262.698L49.5974 236.483C49.4223 236.384 49.2929 236.239 49.2015 236.087C48.9275 236.566 49.0645 237.221 49.5974 237.533L95.0027 263.749C97.0656 264.936 99.608 264.936 101.671 263.749L147.145 237.556C147.678 237.244 147.807 236.589 147.541 236.11C147.457 236.27 147.32 236.407 147.145 236.506Z"
        fill="url(#paint16_linear_403_8077)" />
    <g opacity="0.11">
        <path
            d="M281.587 232.509C279.25 231.161 276.373 231.161 274.029 232.501L228.996 258.442C228.288 258.854 228.288 259.874 228.996 260.285L274.402 286.5C276.464 287.688 279.007 287.688 281.07 286.5L326.544 260.307C327.251 259.896 327.251 258.876 326.544 258.465L281.587 232.509Z"
            fill="url(#paint17_linear_403_8077)" />
    </g>
    <g opacity="0.11">
        <path
            d="M281.587 224.927C279.25 223.58 276.373 223.58 274.029 224.927L228.996 250.869C228.288 251.28 228.288 252.3 228.996 252.711L274.402 278.927C276.464 280.114 279.007 280.114 281.07 278.927L326.544 252.734C327.251 252.323 327.251 251.303 326.544 250.892L281.587 224.927Z"
            fill="url(#paint18_linear_403_8077)" />
    </g>
    <g opacity="0.11">
        <path
            d="M281.587 217.339C279.25 215.991 276.373 215.991 274.029 217.331L228.996 243.273C228.288 243.684 228.288 244.704 228.996 245.115L274.402 271.33C276.464 272.518 279.007 272.518 281.07 271.33L326.544 245.137C327.251 244.726 327.251 243.706 326.544 243.295L281.587 217.339Z"
            fill="url(#paint19_linear_403_8077)" />
    </g>
    <g opacity="0.11">
        <path
            d="M281.587 209.749C279.25 208.401 276.373 208.401 274.029 209.741L228.996 235.683C228.288 236.094 228.288 237.114 228.996 237.525L274.402 263.74C276.464 264.928 279.007 264.928 281.07 263.74L326.544 237.548C327.251 237.137 327.251 236.117 326.544 235.706L281.587 209.749Z"
            fill="url(#paint20_linear_403_8077)" />
    </g>
    <path opacity="0.5"
        d="M326.551 235.713L281.587 209.757C279.25 208.409 276.373 208.409 274.029 209.749L228.996 235.691C228.638 235.896 228.463 236.254 228.463 236.612V251.866C228.463 252.224 228.638 252.581 228.996 252.787L274.402 279.003C276.464 280.19 279.007 280.19 281.07 279.003L326.544 252.81C326.901 252.604 327.076 252.247 327.076 251.889V236.634C327.084 236.277 326.901 235.919 326.551 235.713Z"
        fill="url(#paint21_linear_403_8077)" />
    <g opacity="0.11">
        <path
            d="M281.587 209.749C279.25 208.401 276.373 208.401 274.029 209.741L228.996 235.683C228.288 236.094 228.288 237.114 228.996 237.525L274.402 263.74C276.464 264.928 279.007 264.928 281.07 263.74L326.544 237.548C327.251 237.137 327.251 236.117 326.544 235.706L281.587 209.749Z"
            fill="url(#paint22_linear_403_8077)" />
    </g>
    <g opacity="0.5">
        <path
            d="M279.388 224.623C278.398 224.053 277.173 224.053 276.183 224.623L256.004 236.247C255.684 236.43 255.684 236.886 256.004 237.069L276.267 248.769C277.188 249.301 278.322 249.301 279.243 248.769L299.537 237.084C299.856 236.902 299.856 236.445 299.537 236.262L279.388 224.623Z"
            fill="#37A7E8" />
    </g>
    <path
        d="M256.011 236.969L276.191 225.345C277.18 224.775 278.406 224.775 279.395 225.345L299.544 236.977C299.567 236.992 299.575 237.007 299.59 237.022C299.849 236.817 299.841 236.421 299.544 236.246L279.395 224.615C278.406 224.044 277.18 224.044 276.191 224.615L256.011 236.238C255.715 236.406 255.707 236.809 255.966 237.015C255.981 236.999 255.989 236.984 256.011 236.969Z"
        fill="#37A7E8" />
    <path
        d="M326.551 236.506L281.077 262.698C279.014 263.886 276.472 263.886 274.409 262.698L229.004 236.483C228.829 236.384 228.699 236.239 228.608 236.087C228.334 236.566 228.471 237.221 229.004 237.533L274.409 263.749C276.472 264.936 279.014 264.936 281.077 263.749L326.551 237.556C327.084 237.244 327.213 236.589 326.947 236.11C326.855 236.27 326.726 236.407 326.551 236.506Z"
        fill="url(#paint23_linear_403_8077)" />
    <path opacity="0.502"
        d="M314.866 173.052V146.083C314.242 136.888 310.603 128.126 304.499 120.118V147.088C310.603 155.103 314.242 163.864 314.866 173.052ZM301.378 143.304V116.335C299.224 113.907 296.841 111.563 294.238 109.302V136.271C296.841 138.524 299.224 140.876 301.378 143.304ZM289.815 132.671V105.701C286.984 103.54 283.946 101.469 280.711 99.5052V126.474C283.946 128.446 286.984 130.509 289.815 132.671ZM274.606 130.973V88.0645C299.452 101.248 314.965 120.103 314.965 140.96V183.876C314.965 163.012 299.452 144.157 274.606 130.973Z"
        fill="#37A7E8" />
    <path opacity="0.502"
        d="M229.164 110.374V102.625C227.268 102.26 225.35 101.925 223.417 101.613V109.362C225.35 109.674 227.268 110.009 229.164 110.374ZM218.827 100.928V94.0695C216.863 93.7955 214.876 93.5519 212.882 93.3388V100.197C214.876 100.41 216.863 100.654 218.827 100.928ZM239.113 104.802V95.4549C237.293 95.0058 235.451 94.5795 233.586 94.1761V103.524C235.451 103.927 237.293 104.353 239.113 104.802ZM208.132 99.7328V85.9247C206.107 85.7496 204.067 85.605 202.012 85.4832V99.2837C204.067 99.4055 206.107 99.5577 208.132 99.7328ZM185.92 98.9488V85.1483C183.842 85.1787 181.772 85.2396 179.716 85.331V99.1315C181.772 99.0477 183.842 98.9868 185.92 98.9488ZM174.89 99.3979V82.035C172.858 82.172 170.841 82.3319 168.831 82.5222V99.885C170.841 99.6947 172.858 99.5273 174.89 99.3979ZM197.133 99.063V79.2033C195.275 79.1348 193.403 79.0968 191.523 79.0739C191.302 79.0739 191.081 79.0663 190.853 79.0663V98.9259C191.073 98.9259 191.294 98.9259 191.523 98.9336C193.403 98.9564 195.275 99.0021 197.133 99.063ZM164.135 100.372V75.5344C162.156 75.7627 160.192 76.0215 158.243 76.3108V101.156C160.192 100.867 162.156 100.608 164.135 100.372ZM145.6 73.4106C159.88 70.3659 175.378 68.775 191.53 68.9348C213.095 69.1479 233.297 72.4744 250.865 78.1377V121.054C233.297 115.383 213.095 112.064 191.53 111.851C175.378 111.691 159.88 113.282 145.6 116.327V73.4106Z"
        fill="#37A7E8" />
    <path opacity="0.502"
        d="M72.5853 131.612V122.972C70.0201 126.664 67.9648 130.516 66.4881 134.482V160.073C67.9724 156.1 70.0201 152.255 72.5853 148.564V139.924C73.3313 138.851 74.1153 137.793 74.945 136.75V141.408C76.5207 139.429 78.241 137.496 80.1059 135.616V130.957C88.1974 122.812 98.9836 115.665 111.749 109.91V101.605C109.48 102.633 107.273 103.699 105.126 104.81C104.053 105.366 103.003 105.929 101.96 106.508C93.7618 111.06 86.6446 116.243 80.8367 121.929C80.5931 122.173 80.3495 122.409 80.1059 122.653V117.994C78.241 119.874 76.5131 121.8 74.945 123.787V128.445C74.1153 129.488 73.3313 130.546 72.5853 131.612ZM64.8135 131.345C69.6927 110.405 90.207 92.3722 119.308 81.1445V124.061C90.207 135.288 69.6927 153.321 64.8135 174.262V131.345Z"
        fill="#37A7E8" />
    <path opacity="0.7529"
        d="M80.1061 122.653C80.3497 122.409 80.5932 122.165 80.8368 121.929V130.242C85.1756 125.994 90.2452 122.028 95.9466 118.39C97.88 117.157 99.882 115.969 101.96 114.82V106.508C102.995 105.929 104.053 105.366 105.127 104.81V113.122C107.266 112.011 109.473 110.945 111.749 109.918V101.605V109.918C98.9837 115.672 88.2052 122.82 80.1061 130.965V122.653ZM72.5854 131.612C73.3314 130.539 74.1155 129.48 74.9452 128.438V136.75C74.1155 137.793 73.3314 138.851 72.5854 139.924V131.612Z"
        fill="#37A7E8" />
    <path opacity="0.8784"
        d="M105.126 104.81C107.265 103.699 109.473 102.633 111.749 101.605V109.918C109.481 110.945 107.273 112.011 105.126 113.122V104.81Z"
        fill="#37A7E8" />
    <path opacity="0.8784"
        d="M80.8364 121.93C85.1752 117.682 90.2448 113.717 95.9462 110.078V118.39C90.2448 122.021 85.1676 125.995 80.8364 130.242V121.93Z"
        fill="#37A7E8" />
    <path opacity="0.9725"
        d="M95.9463 110.077C97.8797 108.844 99.8817 107.656 101.96 106.507V114.819C99.8893 115.969 97.8797 117.164 95.9463 118.389V110.077Z"
        fill="#37A7E8" />
    <path opacity="0.7529"
        d="M66.4878 134.489C67.9721 130.515 70.0197 126.671 72.585 122.979V131.619C70.0197 135.311 67.9645 139.163 66.4878 143.128V151.441C67.9721 147.467 70.0197 143.623 72.585 139.931V148.571C70.0197 152.263 67.9645 156.114 66.4878 160.08V134.489Z"
        fill="#37A7E8" />
    <path opacity="0.8784"
        d="M66.4878 143.128C67.9721 139.155 70.0197 135.311 72.585 131.619V139.931C70.0197 143.623 67.9645 147.475 66.4878 151.441V143.128Z"
        fill="#37A7E8" />
    <path opacity="0.7529"
        d="M74.9448 136.75C76.5205 134.771 78.2408 132.837 80.1057 130.957V135.616C78.2408 137.496 76.5129 139.422 74.9448 141.409V136.75ZM74.9448 123.787C76.5205 121.808 78.2408 119.874 80.1057 117.994V122.653C78.2408 124.533 76.5129 126.459 74.9448 128.445V123.787Z"
        fill="#37A7E8" />
    <path opacity="0.8784"
        d="M74.9448 128.444C76.5205 126.465 78.2408 124.532 80.1057 122.651V130.964C78.2408 132.844 76.5129 134.77 74.9448 136.756V128.444Z"
        fill="#37A7E8" />
    <path opacity="0.7529"
        d="M304.499 120.118C310.604 128.126 314.242 136.887 314.867 146.083V173.052C314.242 163.857 310.604 155.095 304.499 147.087V120.118Z"
        fill="#37A7E8" />
    <path
        d="M294.238 109.293C296.842 111.554 299.224 113.898 301.378 116.326V143.296C299.224 140.867 296.842 138.523 294.238 136.262V109.293Z"
        fill="#37A7E8" />
    <path opacity="0.7529"
        d="M280.719 99.5039C283.947 101.468 286.992 103.538 289.823 105.7V132.669C286.992 130.507 283.954 128.437 280.719 126.473V99.5039Z"
        fill="#37A7E8" />
    <path opacity="0.7529"
        d="M233.594 94.1758C235.459 94.5792 237.301 95.0055 239.12 95.4546V104.802C237.301 104.353 235.459 103.927 233.594 103.523V94.1758Z"
        fill="#37A7E8" />
    <path opacity="0.7529"
        d="M223.416 101.613C225.349 101.925 227.268 102.26 229.163 102.626V110.375C227.268 110.009 225.349 109.674 223.416 109.362V101.613Z"
        fill="#37A7E8" />
    <path opacity="0.7529"
        d="M212.874 93.3311C214.875 93.5518 216.855 93.7954 218.818 94.0618V100.92C216.855 100.646 214.868 100.403 212.874 100.189V93.3311Z"
        fill="#37A7E8" />
    <path opacity="0.7529"
        d="M202.012 85.4922C204.067 85.614 206.107 85.7586 208.132 85.9337V99.7342C206.107 99.5591 204.067 99.4145 202.012 99.2927V85.4922Z"
        fill="#37A7E8" />
    <path opacity="0.7529"
        d="M190.86 79.0732C191.081 79.0732 191.302 79.0732 191.53 79.0809C193.41 79.0961 195.283 79.1418 197.14 79.2103V99.0699C195.283 99.0014 193.41 98.9633 191.53 98.9405C191.309 98.9405 191.089 98.9329 190.86 98.9329V79.0732Z"
        fill="#37A7E8" />
    <path
        d="M179.716 85.3311C181.771 85.2398 183.842 85.1789 185.92 85.1484V98.9489C183.842 98.9794 181.771 99.0403 179.716 99.1316V85.3311Z"
        fill="#37A7E8" />
    <path opacity="0.7529"
        d="M168.831 82.5223C170.833 82.332 172.858 82.1722 174.89 82.0352V99.398C172.858 99.5351 170.841 99.6949 168.831 99.8852V82.5223Z"
        fill="#37A7E8" />
    <path
        d="M158.243 76.3106C160.191 76.029 162.155 75.7702 164.134 75.5342V100.372C162.155 100.6 160.191 100.859 158.243 101.148V76.3106Z"
        fill="#37A7E8" />
    <g opacity="0.11">
        <path
            d="M184.298 288.282C186.498 287.01 189.2 287.01 191.4 288.282L233.738 312.67C234.408 313.058 234.408 314.018 233.738 314.398L191.05 339.046C189.109 340.165 186.719 340.165 184.778 339.046L142.021 314.421C141.352 314.033 141.352 313.074 142.021 312.693L184.298 288.282Z"
            fill="url(#paint24_linear_403_8077)" />
    </g>
    <g opacity="0.11">
        <path
            d="M184.298 281.151C186.498 279.879 189.2 279.879 191.4 281.151L233.738 305.539C234.408 305.928 234.408 306.887 233.738 307.267L191.05 331.915C189.109 333.034 186.719 333.034 184.778 331.915L142.021 307.29C141.352 306.902 141.352 305.943 142.021 305.562L184.298 281.151Z"
            fill="url(#paint25_linear_403_8077)" />
    </g>
    <g opacity="0.11">
        <path
            d="M184.298 274.019C186.498 272.748 189.2 272.748 191.4 274.019L233.738 298.408C234.408 298.796 234.408 299.755 233.738 300.135L191.05 324.783C189.109 325.902 186.719 325.902 184.778 324.783L142.021 300.158C141.352 299.77 141.352 298.811 142.021 298.43L184.298 274.019Z"
            fill="url(#paint26_linear_403_8077)" />
    </g>
    <g opacity="0.11">
        <path
            d="M184.298 266.885C186.498 265.614 189.2 265.614 191.4 266.885L233.738 291.274C234.408 291.662 234.408 292.621 233.738 293.002L191.05 317.649C189.109 318.768 186.719 318.768 184.778 317.649L142.021 293.025C141.352 292.636 141.352 291.677 142.021 291.297L184.298 266.885Z"
            fill="url(#paint27_linear_403_8077)" />
    </g>
    <path opacity="0.11"
        d="M142.021 291.289L184.298 266.885C186.498 265.614 189.2 265.614 191.4 266.885L233.738 291.274C234.073 291.464 234.24 291.807 234.24 292.142V313.539C234.24 313.874 234.073 314.209 233.738 314.407L191.05 339.046C189.109 340.165 186.719 340.165 184.778 339.046L142.021 314.422C141.687 314.231 141.519 313.889 141.519 313.554V292.157C141.527 291.822 141.694 291.487 142.021 291.289Z"
        fill="url(#paint28_linear_403_8077)" />
    <g opacity="0.11">
        <path
            d="M183.537 249.392C186.201 247.855 189.482 247.855 192.154 249.385L243.489 278.957C244.296 279.422 244.296 280.594 243.489 281.058L191.727 310.943C189.375 312.298 186.475 312.298 184.123 310.943L132.278 281.081C131.471 280.617 131.471 279.444 132.278 278.98L183.537 249.392Z"
            fill="url(#paint29_linear_403_8077)" />
    </g>
    <g opacity="0.11">
        <path
            d="M183.537 240.744C186.201 239.206 189.482 239.206 192.154 240.736L243.489 270.309C244.296 270.773 244.296 271.945 243.489 272.41L191.727 302.294C189.375 303.649 186.475 303.649 184.123 302.294L132.278 272.433C131.471 271.968 131.471 270.796 132.278 270.332L183.537 240.744Z"
            fill="url(#paint30_linear_403_8077)" />
    </g>
    <g opacity="0.11">
        <path
            d="M183.537 232.098C186.201 230.561 189.482 230.561 192.154 232.091L243.489 261.663C244.296 262.128 244.296 263.3 243.489 263.764L191.727 293.649C189.375 295.004 186.475 295.004 184.123 293.649L132.278 263.787C131.471 263.323 131.471 262.151 132.278 261.686L183.537 232.098Z"
            fill="url(#paint31_linear_403_8077)" />
    </g>
    <g opacity="0.11">
        <path
            d="M183.537 223.451C186.201 221.913 189.482 221.913 192.154 223.443L243.489 253.016C244.296 253.48 244.296 254.652 243.489 255.117L191.727 285.001C189.375 286.356 186.475 286.356 184.123 285.001L132.278 255.14C131.471 254.675 131.471 253.503 132.278 253.039L183.537 223.451Z"
            fill="url(#paint32_linear_403_8077)" />
    </g>
    <path opacity="0.5"
        d="M132.278 253.046L183.537 223.451C186.202 221.913 189.482 221.913 192.154 223.443L243.489 253.016C243.893 253.252 244.098 253.655 244.098 254.066V280.008C244.098 280.419 243.893 280.822 243.489 281.058L191.728 310.943C189.376 312.298 186.476 312.298 184.123 310.943L132.278 281.081C131.875 280.845 131.669 280.442 131.669 280.031V254.089C131.669 253.686 131.875 253.275 132.278 253.046Z"
        fill="url(#paint33_linear_403_8077)" />
    <g opacity="0.11">
        <path
            d="M183.537 223.451C186.201 221.913 189.482 221.913 192.154 223.443L243.489 253.016C244.296 253.48 244.296 254.652 243.489 255.117L191.727 285.001C189.375 286.356 186.475 286.356 184.123 285.001L132.278 255.14C131.471 254.675 131.471 253.503 132.278 253.039L183.537 223.451Z"
            fill="url(#paint34_linear_403_8077)" />
    </g>
    <path
        d="M132.278 253.951L184.123 283.813C186.475 285.168 189.375 285.168 191.728 283.813L243.489 253.929C243.687 253.814 243.839 253.655 243.938 253.479C244.25 254.028 244.098 254.774 243.489 255.124L191.728 285.008C189.375 286.363 186.475 286.363 184.123 285.008L132.278 255.146C131.669 254.796 131.517 254.05 131.829 253.502C131.928 253.677 132.08 253.837 132.278 253.951Z"
        fill="url(#paint35_linear_403_8077)" />
    <path opacity="0.2"
        d="M187.884 270.477C203.493 270.477 216.147 263.17 216.147 254.157C216.147 245.144 203.493 237.837 187.884 237.837C172.274 237.837 159.621 245.144 159.621 254.157C159.621 263.17 172.274 270.477 187.884 270.477Z"
        fill="#09175B" />
    <path
        d="M198.639 240.318C198.639 240.318 199.325 241.034 200.04 241.879C200.756 242.724 202.758 243.896 203.602 244.421C204.447 244.946 208.299 247.869 209.106 250.747C209.913 253.624 207.157 254.005 204.333 253.51C201.517 253.007 198.875 250.412 198.114 249.468C197.353 248.524 194.681 246.4 191.218 244.604C187.754 242.815 189.848 240.402 189.848 240.402L198.639 240.318Z"
        fill="#11183C" />
    <path
        d="M172.949 248.875C172.949 248.875 172.378 250.169 172.219 251.836C172.059 253.503 171.823 257.111 171.739 258.169C171.655 259.227 171.617 261.808 173.475 264.282C175.332 266.755 176.291 267.73 178.765 266.763C181.239 265.789 181.178 261.64 180.744 259.509C180.31 257.378 179.899 252.605 179.945 252.102C179.99 251.6 179.8 251.28 179.8 251.28L172.949 248.875Z"
        fill="#11183C" />
    <path
        d="M207.165 191.406C207.165 191.406 206.647 210.42 202.209 220.514C202.209 220.514 199.035 229.404 198.616 239.977C198.616 239.977 199.347 241.797 198.312 243.281C197.269 244.758 190.769 246.113 189.695 241.256C188.622 236.392 189.033 227.296 190.213 223.505C191.393 219.714 189.794 209.256 189.794 209.256C189.794 209.256 188.013 210.39 185.684 217.903C183.354 225.416 181.634 228.278 180.835 230.356C180.036 232.434 179.297 245.161 179.807 251.38C179.807 251.38 174.54 252.126 173.017 249.607C171.495 247.087 170.985 234.063 171.373 229.907C171.761 225.751 173.497 212.445 173.261 208.335C173.025 204.216 172.165 200.875 173.109 196.764C174.053 192.654 201.852 183.52 201.852 183.52L207.165 191.406Z"
        fill="#474F61" />
    <path
        d="M173.253 208.32C173.017 204.201 172.157 200.86 173.101 196.749C173.459 195.204 177.607 192.951 182.647 190.736C191.157 189.959 201.943 189.061 202.689 189.168C203.359 189.267 205.117 189.937 206.579 190.523L207.172 191.406C207.172 191.406 207.142 192.563 207.028 194.451C205.041 195.044 201.227 194.428 201.227 194.428C200.687 195.76 197.376 200.502 193.25 202.55C189.124 204.597 177.059 203.897 176.367 204.673C175.674 205.45 175.537 215.863 175.613 217.187C175.689 218.512 174.479 226.847 173.352 234.208C172.249 241.454 173.931 250.269 173.984 250.551C173.596 250.3 173.253 249.995 173.017 249.599C171.495 247.08 170.985 234.056 171.373 229.899C171.754 225.743 173.489 212.438 173.253 208.32Z"
        fill="#11183C" />
    <path
        d="M197.863 129.216C197.863 129.216 204.028 130.624 206.106 131.111C206.449 131.195 206.731 131.431 206.86 131.766C207.461 133.281 208.961 137.992 207.827 144.874C206.434 153.331 206.875 159.017 206.875 159.017L209.73 173.86C209.73 173.86 213.315 188.003 213.003 188.384C212.691 188.772 204.744 194.816 202.262 193.971C199.781 193.118 200.595 191.71 200.595 191.71C200.595 191.71 198.586 201.956 189.672 201.857C180.766 201.758 173.489 201.788 171.974 198.188C170.46 194.587 172.385 179.455 173.961 173.457C175.529 167.466 179.267 155.515 179.267 155.515L166.22 141.075L177.371 132.557C177.371 132.557 180.035 127.61 181.132 126.978C182.228 126.346 182.799 126.879 182.799 126.879L197.863 129.216Z"
        fill="#5E6580" />
    <path
        d="M202.11 190.706C202.103 191.223 202.4 191.984 204.006 192.532C205.734 193.126 209.973 190.546 212.752 188.612C211.366 189.762 204.538 194.748 202.263 193.971C201.768 193.804 201.41 193.613 201.144 193.415C201.654 192.274 201.95 191.284 202.11 190.706Z"
        fill="url(#paint36_linear_403_8077)" />
    <path
        d="M172.043 196.994C173.642 200.792 181.314 200.762 190.715 200.868C193.105 200.891 195.024 200.214 196.561 199.186C194.932 200.739 192.702 201.904 189.672 201.866C180.766 201.767 173.489 201.797 171.974 198.197C171.48 197.017 171.35 194.589 171.464 191.65C171.442 194.033 171.609 195.959 172.043 196.994Z"
        fill="url(#paint37_linear_403_8077)" />
    <path
        d="M181.368 126.863C181.368 126.863 179.092 129.618 182.365 133.34C184.382 135.632 187.853 140.564 190.807 145.695C192.656 148.899 194.361 150.604 195.328 153.36C195.328 153.36 195.465 150.094 195.595 145.04C195.716 140.275 195.785 135.327 195.572 134.079C195.138 131.514 183.887 125.614 181.368 126.863Z"
        fill="#F0F2FF" />
    <path
        d="M189.885 135.153C189.885 135.153 191.05 135.876 191.453 135.815C191.857 135.754 193.151 134.498 193.151 134.498C193.151 134.498 196.386 134.437 196.736 133.052C197.086 131.667 197.322 130.274 197.65 129.551C197.977 128.827 199.37 125.372 199.385 123.971C199.393 122.57 199.339 120.066 199.948 118.734C200.557 117.41 201.372 104.134 188.553 104.515C175.735 104.895 179.716 118.194 179.716 118.194C179.716 118.194 178.78 118.589 179.343 120.302C179.906 122.015 180.035 122.19 180.325 123.042C180.614 123.895 180.759 124.435 181.573 125.128L181.786 126.704C181.786 126.704 181.177 129.117 182.768 131.454C184.367 133.813 189.885 135.153 189.885 135.153Z"
        fill="#FAD9C5" />
    <path
        d="M206.457 131.263C206.457 131.263 207.82 131.468 212.257 142.62C214.731 148.846 218.553 155.286 219.359 159.914C220.166 164.542 219.717 169.482 218.804 169.833C217.921 170.167 201.997 176.128 197.011 178.008C196.737 178.114 196.432 177.939 196.387 177.65L195.009 169.954L204.897 166.133C204.897 166.133 206.777 163.834 208.55 162.967C208.55 162.967 206.571 159.313 206.693 158.316C206.823 157.318 206.518 147.004 207.675 142.802C208.824 138.616 206.457 131.263 206.457 131.263Z"
        fill="#474F61" />
    <path
        d="M200.664 160.736C200.664 160.736 202.027 159.823 202.362 159.693C202.696 159.564 204.516 158.94 204.866 158.787C205.125 158.673 206.183 158.757 206.716 158.81C206.906 158.833 207.073 158.94 207.165 159.115C207.583 159.899 208.756 162.167 208.626 163.035C208.626 163.035 205.338 165.113 204.965 166.042L204.44 166.156C204.447 166.148 202.24 161.421 200.664 160.736Z"
        fill="#FAD9C5" />
    <path
        d="M173.962 173.463C174.342 172.024 174.845 170.236 175.393 168.355L195.412 176.934C195.412 176.934 189.421 184.303 178.917 183.831C176.047 183.701 173.954 182.666 172.409 181.775C172.873 178.495 173.436 175.465 173.962 173.463Z"
        fill="#474F61" />
    <path
        d="M166.22 141.082C166.22 141.082 171.503 141.805 175.765 148.572C180.028 155.332 183.141 163.157 183.141 163.157L183.286 164.04C183.667 166.339 186.118 167.655 188.249 166.704C192.755 164.694 199.423 161.65 200.664 160.736C200.664 160.736 204.653 162.944 205.741 168.15C206.609 172.306 206.388 172.314 206.388 172.314C206.388 172.314 188.614 180.611 181.748 180.527C174.882 180.444 166.174 157.874 165.215 153.208C164.256 148.549 163.198 142.399 166.22 141.082Z"
        fill="#474F61" />
    <path
        d="M166.22 141.082C166.22 141.082 171.503 141.805 175.765 148.572C180.028 155.332 183.141 163.157 183.141 163.157L183.286 164.04C183.667 166.339 186.118 167.655 188.249 166.704C192.755 164.694 199.423 161.65 200.664 160.736C200.664 160.736 204.653 162.944 205.741 168.15C206.609 172.306 206.388 172.314 206.388 172.314C206.388 172.314 188.614 180.611 181.748 180.527C174.882 180.444 166.174 157.874 165.215 153.208C164.256 148.549 163.198 142.399 166.22 141.082Z"
        fill="#747691" />
    <path
        d="M185.691 167.754C185.691 167.754 183.446 169.848 182.471 168.706C181.497 167.557 181.786 167.427 181.786 167.427C181.786 167.427 179.769 167.412 179.526 166.148C179.282 164.885 178.285 165.555 178.232 164.146C178.171 162.738 179.868 163.027 179.868 163.027L185.691 167.754Z"
        fill="#5E6580" />
    <path
        d="M188.401 166.628C188.401 166.628 187.784 166.057 186.993 165.38C186.201 164.71 184.915 161.924 184.694 161.68C184.473 161.437 181.794 159.374 180.5 159.344C179.206 159.305 180.165 160.752 180.462 160.957C180.759 161.163 182.022 161.787 182.022 161.787C182.022 161.787 183.324 162.875 183.468 163.035C183.613 163.195 179.86 162.777 179.259 163.142C178.665 163.507 178.802 164.466 179.221 164.733C179.64 164.992 179.967 164.984 179.967 164.984C179.967 164.984 179.541 166.118 180.675 166.643C181.801 167.169 182.06 166.879 182.06 166.879C182.06 166.879 182.159 168.836 184.016 168.447L188.401 166.628Z"
        fill="#FAD9C5" />
    <path
        d="M200.238 111.966C200.238 111.966 201.912 117.295 197.505 115.78C193.105 114.265 189.117 111.73 187.739 112.697C186.689 113.436 186.734 115.689 186.818 116.716C186.848 117.066 186.757 117.417 186.552 117.706L185.25 119.601C185.105 119.814 185.014 120.066 184.999 120.324L184.907 121.641C184.884 121.976 184.618 122.235 184.283 122.258L183.986 122.273C183.651 122.296 183.354 122.06 183.294 121.725L182.951 119.784C182.951 119.784 181.916 117.173 179.724 118.201C179.724 118.201 178.262 116.229 178.742 112.027C179.229 107.818 181.117 103.441 189.376 102.741C197.635 102.048 200.238 111.966 200.238 111.966Z"
        fill="#A88983" />
    <path
        d="M187.617 139.841L188.85 138.882C188.85 138.882 189.992 139.834 190.441 140.838C190.89 141.843 190.441 145.048 190.441 145.048L190.814 145.695L191.279 144.85L191.667 141.067C191.667 141.067 191.248 138.273 191.202 138.197C191.164 138.129 188.82 138.448 188.82 138.448C188.82 138.448 188.013 139.065 187.617 139.841Z"
        fill="#C3C6D6" />
    <path
        d="M193.555 136.073C193.555 136.073 194.879 136.165 195.473 136.652C195.473 136.652 194.088 136.72 193.867 136.743C193.646 136.774 193.555 136.073 193.555 136.073Z"
        fill="#C3C6D6" />
    <path
        d="M191.042 136.37L188.827 138.441C188.827 138.441 190.776 139.339 191.316 141.074C191.316 141.074 193.729 141.524 193.95 140.648C194.171 139.773 193.942 137.573 194.232 136.599C194.513 135.632 191.042 136.37 191.042 136.37Z"
        fill="#474F61" />
    <path
        d="M193.852 140.603C193.852 140.603 194.263 142.414 194.712 143.168C195.161 143.914 195.625 144.759 195.625 144.759L195.572 155.393C195.572 155.393 191.659 147.332 190.814 145.703C190.814 145.703 190.944 141.82 191.317 141.082C191.682 140.344 193.852 140.603 193.852 140.603Z"
        fill="#474F61" />
    <path
        d="M183.355 124.891C185.927 132.305 193.151 134.505 193.151 134.505C193.151 134.505 191.857 135.761 191.454 135.821C191.05 135.882 189.886 135.159 189.886 135.159C189.886 135.159 184.367 133.819 182.776 131.475C181.185 129.13 181.794 126.725 181.794 126.725L181.581 125.149C182.723 125.522 183.355 124.891 183.355 124.891Z"
        fill="#D9BCB1" />
    <path
        d="M177.478 133.569C177.478 133.569 178.49 137.071 178.62 137.2C178.749 137.33 181.17 137.056 181.17 137.056L179.998 139.278C179.998 139.278 192.161 152.325 194.689 159.343C194.689 159.343 188.934 150.445 178.803 139.826L180.234 137.657L177.744 138.144L177.478 133.569Z"
        fill="#474F61" />
    <path
        d="M197.459 130.479L198.106 131.217L197.345 131.925L199.598 133.957C199.598 133.957 200.283 148.23 197.536 157.684C197.536 157.684 201.265 149.014 200.42 133.569L197.985 131.917L198.784 131.133L197.459 130.479Z"
        fill="#474F61" />
    <path
        d="M189.794 209.247C189.794 209.247 189.763 209.263 189.71 209.316L192.862 205.959C191.408 208.014 193.082 217.407 193.257 219.554C193.432 221.708 191.575 226.146 190.882 231.352C190.19 236.551 191.613 243.966 191.613 243.988C190.715 243.463 189.992 242.595 189.695 241.248C188.622 236.384 189.033 227.288 190.213 223.497C191.392 219.699 189.794 209.247 189.794 209.247Z"
        fill="#11183C" />
    <path
        d="M181.748 180.536C174.882 180.452 166.174 157.882 165.215 153.216C165.055 152.44 164.895 151.618 164.75 150.788C164.773 150.857 166.555 155.728 168.267 160.052C169.995 164.406 179.168 177.59 183.856 178.45C188.081 179.226 203.29 172.124 206.236 170.724C206.502 172.307 206.388 172.322 206.388 172.322C206.388 172.322 188.614 180.619 181.748 180.536Z"
        fill="url(#paint38_linear_403_8077)" />
    <path
        d="M183.978 122.274C183.644 122.297 183.347 122.061 183.286 121.726L182.943 119.785C182.943 119.785 181.908 117.174 179.716 118.201C179.716 118.201 178.338 116.329 178.711 112.355C181.147 116.009 186.551 117.699 186.551 117.699L185.25 119.594C185.105 119.808 185.014 120.059 184.998 120.318L184.907 121.634C184.884 121.969 184.618 122.228 184.283 122.251L183.978 122.274Z"
        fill="#91736D" />
    <path opacity="0.502"
        d="M103.589 230.202V222.948C105.043 223.725 106.527 224.486 108.042 225.224V232.478C106.527 231.74 105.043 230.979 103.589 230.202ZM89.3167 221.137V207.778C90.527 208.683 91.7677 209.582 93.0465 210.457V223.816C91.7601 222.941 90.5194 222.05 89.3167 221.137ZM96.1218 225.841V210.084C97.4539 210.929 98.824 211.759 100.225 212.566V228.322C98.824 227.515 97.4539 226.686 96.1218 225.841ZM77.8607 210.792V193.307C78.7893 194.327 79.756 195.332 80.7608 196.322V213.806C79.756 212.817 78.7817 211.812 77.8607 210.792ZM83.2119 216.113V197.167C84.2852 198.133 85.3965 199.085 86.5383 200.021V218.967C85.3965 218.031 84.2852 217.079 83.2119 216.113ZM69.5636 199.359V178.822C70.1802 179.933 70.8424 181.037 71.5503 182.125V202.662C70.8424 201.566 70.1802 200.47 69.5636 199.359ZM73.2935 205.197V178.479C74.0699 179.545 74.892 180.603 75.7522 181.646V208.364C74.892 207.321 74.0699 206.263 73.2935 205.197ZM66.7168 193.3V163.126C67.1659 164.275 67.6606 165.417 68.2011 166.544V196.717C67.6606 195.591 67.1659 194.449 66.7168 193.3ZM117.207 199.991C88.4946 188.428 68.6654 170.152 64.5093 149.219V192.135C68.6654 213.068 88.5022 231.337 117.207 242.907V199.991Z"
        fill="#37A7E8" />
    <path opacity="0.502"
        d="M201.387 247.664V237.982C206.327 237.715 211.184 237.281 215.941 236.688V246.37C211.184 246.956 206.327 247.39 201.387 247.664ZM178.171 247.702V230.058C181.132 230.21 184.123 230.301 187.138 230.332C189.2 230.355 191.248 230.347 193.288 230.309V247.953C191.248 247.991 189.2 247.999 187.138 247.976C184.123 247.946 181.132 247.854 178.171 247.702ZM155.799 245.388V218.419C160.481 219.157 165.268 219.751 170.155 220.177V247.147C165.268 246.72 160.473 246.134 155.799 245.388ZM223.591 245.274V216.79C228.235 216.036 232.771 215.131 237.186 214.088V242.572C232.771 243.622 228.235 244.52 223.591 245.274ZM248.635 204.52C230.343 210.145 209.365 213.25 187.138 213.03C171.647 212.877 156.857 211.119 143.247 208.036V250.953C156.857 254.035 171.647 255.786 187.138 255.946C209.365 256.167 230.343 253.069 248.635 247.436V204.52Z"
        fill="#37A7E8" />
    <path opacity="0.502"
        d="M279.464 216.797V208.485C299.491 196.664 312.522 180.892 314.654 163.354V171.666C312.522 189.204 299.491 204.968 279.464 216.797ZM314.943 185.155V142.238C314.304 163.224 298.083 181.965 272.712 194.883V237.799C298.083 224.881 314.304 206.141 314.943 185.155Z"
        fill="#37A7E8" />
    <path opacity="0.7529"
        d="M314.653 163.354C312.522 180.891 299.483 196.656 279.463 208.485V216.797C299.49 204.976 312.522 189.204 314.653 171.666V163.354Z"
        fill="#37A7E8" />
    <path
        d="M170.155 220.178C165.269 219.752 160.481 219.158 155.799 218.42V245.389C160.481 246.127 165.269 246.721 170.155 247.147V220.178Z"
        fill="#37A7E8" />
    <path
        d="M215.942 236.688C211.184 237.274 206.328 237.708 201.388 237.982V247.664C206.328 247.398 211.184 246.964 215.942 246.37V236.688Z"
        fill="#37A7E8" />
    <path
        d="M237.187 214.088C232.772 215.131 228.235 216.037 223.592 216.79V245.274C228.235 244.521 232.772 243.615 237.187 242.572V214.088Z"
        fill="#37A7E8" />
    <path opacity="0.7529"
        d="M193.288 230.309C191.248 230.347 189.201 230.354 187.138 230.332C184.123 230.301 181.132 230.21 178.171 230.058V247.702C181.132 247.854 184.123 247.946 187.138 247.976C189.201 247.999 191.248 247.991 193.288 247.953V230.309Z"
        fill="#37A7E8" />
    <path
        d="M68.2011 166.544C67.6607 165.417 67.1583 164.275 66.7168 163.126V193.3C67.1659 194.449 67.6607 195.591 68.2011 196.718V166.544Z"
        fill="#37A7E8" />
    <path
        d="M71.5502 182.117C70.8423 181.029 70.18 179.925 69.5635 178.813V199.351C70.18 200.462 70.8423 201.566 71.5502 202.654V182.117Z"
        fill="#37A7E8" />
    <path opacity="0.7529"
        d="M75.7521 181.645C74.892 180.602 74.0699 179.544 73.2935 178.479V205.197C74.0699 206.262 74.892 207.32 75.7521 208.363V181.645Z"
        fill="#37A7E8" />
    <path
        d="M80.761 196.321C79.7562 195.331 78.7819 194.327 77.8608 193.307V210.791C78.7895 211.811 79.7562 212.816 80.761 213.806V196.321Z"
        fill="#37A7E8" />
    <path opacity="0.7529"
        d="M86.5383 200.028C85.3889 199.092 84.2776 198.141 83.2119 197.174V216.12C84.2852 217.087 85.3965 218.038 86.5383 218.974V200.028Z"
        fill="#37A7E8" />
    <path opacity="0.7529"
        d="M93.0463 210.456C91.7675 209.58 90.5267 208.69 89.3164 207.776V221.135C90.5267 222.041 91.7675 222.939 93.0463 223.815V210.456Z"
        fill="#37A7E8" />
    <path opacity="0.7529"
        d="M100.224 212.565C98.8238 211.759 97.4537 210.929 96.1216 210.084V225.841C97.4537 226.686 98.8238 227.515 100.224 228.322V212.565Z"
        fill="#37A7E8" />
    <path opacity="0.7529"
        d="M108.05 225.224C106.535 224.486 105.051 223.725 103.597 222.948V230.202C105.051 230.979 106.535 231.74 108.05 232.478V225.224Z"
        fill="#37A7E8" />
    <defs>
        <linearGradient id="paint0_linear_403_8077" x1="123.474" y1="235.077" x2="158.857" y2="235.077"
            gradientUnits="userSpaceOnUse">
            <stop stop-color="#6B57D7" />
            <stop offset="0.03" stop-color="#685BD8" />
            <stop offset="0.2993" stop-color="#537CDF" />
            <stop offset="0.5572" stop-color="#4494E4" />
            <stop offset="0.7967" stop-color="#3AA2E7" />
            <stop offset="1" stop-color="#37A7E8" />
        </linearGradient>
        <linearGradient id="paint1_linear_403_8077" x1="217.69" y1="235.02" x2="252.879" y2="235.02"
            gradientUnits="userSpaceOnUse">
            <stop stop-color="#37A7E8" />
            <stop offset="0.2033" stop-color="#3AA2E7" />
            <stop offset="0.4428" stop-color="#4494E4" />
            <stop offset="0.7007" stop-color="#537CDF" />
            <stop offset="0.97" stop-color="#685BD8" />
            <stop offset="1" stop-color="#6B57D7" />
        </linearGradient>
        <linearGradient id="paint2_linear_403_8077" x1="121.68" y1="293.076" x2="254.243" y2="293.076"
            gradientUnits="userSpaceOnUse">
            <stop stop-color="#6B57D7" />
            <stop offset="0.03" stop-color="#685BD8" />
            <stop offset="0.2993" stop-color="#537CDF" />
            <stop offset="0.5572" stop-color="#4494E4" />
            <stop offset="0.7967" stop-color="#3AA2E7" />
            <stop offset="1" stop-color="#37A7E8" />
        </linearGradient>
        <linearGradient id="paint3_linear_403_8077" x1="101.306" y1="204.991" x2="250.105" y2="204.991"
            gradientUnits="userSpaceOnUse">
            <stop stop-color="#1656D7" />
            <stop offset="0.1372" stop-color="#1D5BD9" />
            <stop offset="0.3379" stop-color="#316BDF" />
            <stop offset="0.5777" stop-color="#5183E9" />
            <stop offset="0.8453" stop-color="#7DA6F6" />
            <stop offset="1" stop-color="#9ABCFF" />
        </linearGradient>
        <linearGradient id="paint4_linear_403_8077" x1="143.416" y1="184.884" x2="232.729" y2="184.884"
            gradientUnits="userSpaceOnUse">
            <stop stop-color="#379FE8" />
            <stop offset="0.2142" stop-color="#359AE7" />
            <stop offset="0.4667" stop-color="#2E8CE4" />
            <stop offset="0.7373" stop-color="#2474DE" />
            <stop offset="1" stop-color="#1656D7" />
        </linearGradient>
        <linearGradient id="paint5_linear_403_8077" x1="188.072" y1="168.742" x2="232.729" y2="168.742"
            gradientUnits="userSpaceOnUse">
            <stop stop-color="#379FE8" />
            <stop offset="0.2142" stop-color="#359AE7" />
            <stop offset="0.4667" stop-color="#2E8CE4" />
            <stop offset="0.7373" stop-color="#2474DE" />
            <stop offset="1" stop-color="#1656D7" />
        </linearGradient>
        <linearGradient id="paint6_linear_403_8077" x1="143.416" y1="168.741" x2="188.073" y2="168.741"
            gradientUnits="userSpaceOnUse">
            <stop stop-color="#379FE8" />
            <stop offset="0.2142" stop-color="#359AE7" />
            <stop offset="0.4667" stop-color="#2E8CE4" />
            <stop offset="0.7373" stop-color="#2474DE" />
            <stop offset="1" stop-color="#1656D7" />
        </linearGradient>
        <linearGradient id="paint7_linear_403_8077" x1="143.416" y1="178.382" x2="232.729" y2="178.382"
            gradientUnits="userSpaceOnUse">
            <stop stop-color="#379FE8" />
            <stop offset="0.2142" stop-color="#359AE7" />
            <stop offset="0.4667" stop-color="#2E8CE4" />
            <stop offset="0.7373" stop-color="#2474DE" />
            <stop offset="1" stop-color="#1656D7" />
        </linearGradient>
        <linearGradient id="paint8_linear_403_8077" x1="188.074" y1="194.524" x2="232.729" y2="194.524"
            gradientUnits="userSpaceOnUse">
            <stop stop-color="#379FE8" />
            <stop offset="0.2142" stop-color="#359AE7" />
            <stop offset="0.4667" stop-color="#2E8CE4" />
            <stop offset="0.7373" stop-color="#2474DE" />
            <stop offset="1" stop-color="#1656D7" />
        </linearGradient>
        <linearGradient id="paint9_linear_403_8077" x1="143.416" y1="194.523" x2="188.073" y2="194.523"
            gradientUnits="userSpaceOnUse">
            <stop stop-color="#379FE8" />
            <stop offset="0.2142" stop-color="#359AE7" />
            <stop offset="0.4667" stop-color="#2E8CE4" />
            <stop offset="0.7373" stop-color="#2474DE" />
            <stop offset="1" stop-color="#1656D7" />
        </linearGradient>
        <linearGradient id="paint10_linear_403_8077" x1="49.0649" y1="259.446" x2="147.68" y2="259.446"
            gradientUnits="userSpaceOnUse">
            <stop stop-color="#5891D7" />
            <stop offset="0.0517" stop-color="#5490D9" />
            <stop offset="0.4" stop-color="#3C89E1" />
            <stop offset="0.7246" stop-color="#2E84E6" />
            <stop offset="1" stop-color="#2983E8" />
        </linearGradient>
        <linearGradient id="paint11_linear_403_8077" x1="49.0649" y1="251.861" x2="147.68" y2="251.861"
            gradientUnits="userSpaceOnUse">
            <stop stop-color="#5891D7" />
            <stop offset="0.0517" stop-color="#5490D9" />
            <stop offset="0.4" stop-color="#3C89E1" />
            <stop offset="0.7246" stop-color="#2E84E6" />
            <stop offset="1" stop-color="#2983E8" />
        </linearGradient>
        <linearGradient id="paint12_linear_403_8077" x1="49.0649" y1="244.275" x2="147.68" y2="244.275"
            gradientUnits="userSpaceOnUse">
            <stop stop-color="#5891D7" />
            <stop offset="0.0517" stop-color="#5490D9" />
            <stop offset="0.4" stop-color="#3C89E1" />
            <stop offset="0.7246" stop-color="#2E84E6" />
            <stop offset="1" stop-color="#2983E8" />
        </linearGradient>
        <linearGradient id="paint13_linear_403_8077" x1="49.0645" y1="236.688" x2="147.68" y2="236.688"
            gradientUnits="userSpaceOnUse">
            <stop stop-color="#5891D7" />
            <stop offset="0.0517" stop-color="#5490D9" />
            <stop offset="0.4" stop-color="#3C89E1" />
            <stop offset="0.7246" stop-color="#2E84E6" />
            <stop offset="1" stop-color="#2983E8" />
        </linearGradient>
        <linearGradient id="paint14_linear_403_8077" x1="49.0649" y1="244.314" x2="147.68" y2="244.314"
            gradientUnits="userSpaceOnUse">
            <stop stop-color="#5891D7" />
            <stop offset="0.0517" stop-color="#5490D9" />
            <stop offset="0.4" stop-color="#3C89E1" />
            <stop offset="0.7246" stop-color="#2E84E6" />
            <stop offset="1" stop-color="#2983E8" />
        </linearGradient>
        <linearGradient id="paint15_linear_403_8077" x1="49.0645" y1="236.688" x2="147.68" y2="236.688"
            gradientUnits="userSpaceOnUse">
            <stop stop-color="#5891D7" />
            <stop offset="0.0517" stop-color="#5490D9" />
            <stop offset="0.4" stop-color="#3C89E1" />
            <stop offset="0.7246" stop-color="#2E84E6" />
            <stop offset="1" stop-color="#2983E8" />
        </linearGradient>
        <linearGradient id="paint16_linear_403_8077" x1="49.0653" y1="250.361" x2="147.679" y2="250.361"
            gradientUnits="userSpaceOnUse">
            <stop stop-color="#5891D7" />
            <stop offset="0.0517" stop-color="#5490D9" />
            <stop offset="0.4" stop-color="#3C89E1" />
            <stop offset="0.7246" stop-color="#2E84E6" />
            <stop offset="1" stop-color="#2983E8" />
        </linearGradient>
        <linearGradient id="paint17_linear_403_8077" x1="228.466" y1="259.446" x2="327.081" y2="259.446"
            gradientUnits="userSpaceOnUse">
            <stop stop-color="#2565D7" />
            <stop offset="0.2189" stop-color="#2B7CDD" />
            <stop offset="0.5057" stop-color="#3294E3" />
            <stop offset="0.7731" stop-color="#36A2E7" />
            <stop offset="1" stop-color="#37A7E8" />
        </linearGradient>
        <linearGradient id="paint18_linear_403_8077" x1="228.466" y1="251.861" x2="327.081" y2="251.861"
            gradientUnits="userSpaceOnUse">
            <stop stop-color="#2565D7" />
            <stop offset="0.2189" stop-color="#2B7CDD" />
            <stop offset="0.5057" stop-color="#3294E3" />
            <stop offset="0.7731" stop-color="#36A2E7" />
            <stop offset="1" stop-color="#37A7E8" />
        </linearGradient>
        <linearGradient id="paint19_linear_403_8077" x1="228.466" y1="244.275" x2="327.081" y2="244.275"
            gradientUnits="userSpaceOnUse">
            <stop stop-color="#2565D7" />
            <stop offset="0.2189" stop-color="#2B7CDD" />
            <stop offset="0.5057" stop-color="#3294E3" />
            <stop offset="0.7731" stop-color="#36A2E7" />
            <stop offset="1" stop-color="#37A7E8" />
        </linearGradient>
        <linearGradient id="paint20_linear_403_8077" x1="228.466" y1="236.688" x2="327.081" y2="236.688"
            gradientUnits="userSpaceOnUse">
            <stop stop-color="#2565D7" />
            <stop offset="0.2189" stop-color="#2B7CDD" />
            <stop offset="0.5057" stop-color="#3294E3" />
            <stop offset="0.7731" stop-color="#36A2E7" />
            <stop offset="1" stop-color="#37A7E8" />
        </linearGradient>
        <linearGradient id="paint21_linear_403_8077" x1="228.466" y1="244.314" x2="327.081" y2="244.314"
            gradientUnits="userSpaceOnUse">
            <stop stop-color="#2565D7" />
            <stop offset="0.2189" stop-color="#2B7CDD" />
            <stop offset="0.5057" stop-color="#3294E3" />
            <stop offset="0.7731" stop-color="#36A2E7" />
            <stop offset="1" stop-color="#37A7E8" />
        </linearGradient>
        <linearGradient id="paint22_linear_403_8077" x1="228.466" y1="236.688" x2="327.081" y2="236.688"
            gradientUnits="userSpaceOnUse">
            <stop stop-color="#2565D7" />
            <stop offset="0.2189" stop-color="#2B7CDD" />
            <stop offset="0.5057" stop-color="#3294E3" />
            <stop offset="0.7731" stop-color="#36A2E7" />
            <stop offset="1" stop-color="#37A7E8" />
        </linearGradient>
        <linearGradient id="paint23_linear_403_8077" x1="228.466" y1="250.361" x2="327.08" y2="250.361"
            gradientUnits="userSpaceOnUse">
            <stop stop-color="#2565D7" />
            <stop offset="0.2189" stop-color="#2B7CDD" />
            <stop offset="0.5057" stop-color="#3294E3" />
            <stop offset="0.7731" stop-color="#36A2E7" />
            <stop offset="1" stop-color="#37A7E8" />
        </linearGradient>
        <linearGradient id="paint24_linear_403_8077" x1="234.24" y1="313.605" x2="141.525" y2="313.605"
            gradientUnits="userSpaceOnUse">
            <stop stop-color="#1154D7" />
            <stop offset="0.0501" stop-color="#145BD8" />
            <stop offset="0.3138" stop-color="#237CDF" />
            <stop offset="0.5664" stop-color="#2E94E4" />
            <stop offset="0.8009" stop-color="#35A2E7" />
            <stop offset="1" stop-color="#37A7E8" />
        </linearGradient>
        <linearGradient id="paint25_linear_403_8077" x1="234.24" y1="306.474" x2="141.525" y2="306.474"
            gradientUnits="userSpaceOnUse">
            <stop stop-color="#1154D7" />
            <stop offset="0.0501" stop-color="#145BD8" />
            <stop offset="0.3138" stop-color="#237CDF" />
            <stop offset="0.5664" stop-color="#2E94E4" />
            <stop offset="0.8009" stop-color="#35A2E7" />
            <stop offset="1" stop-color="#37A7E8" />
        </linearGradient>
        <linearGradient id="paint26_linear_403_8077" x1="234.24" y1="299.342" x2="141.525" y2="299.342"
            gradientUnits="userSpaceOnUse">
            <stop stop-color="#1154D7" />
            <stop offset="0.0501" stop-color="#145BD8" />
            <stop offset="0.3138" stop-color="#237CDF" />
            <stop offset="0.5664" stop-color="#2E94E4" />
            <stop offset="0.8009" stop-color="#35A2E7" />
            <stop offset="1" stop-color="#37A7E8" />
        </linearGradient>
        <linearGradient id="paint27_linear_403_8077" x1="234.24" y1="292.209" x2="141.525" y2="292.209"
            gradientUnits="userSpaceOnUse">
            <stop stop-color="#1154D7" />
            <stop offset="0.0501" stop-color="#145BD8" />
            <stop offset="0.3138" stop-color="#237CDF" />
            <stop offset="0.5664" stop-color="#2E94E4" />
            <stop offset="0.8009" stop-color="#35A2E7" />
            <stop offset="1" stop-color="#37A7E8" />
        </linearGradient>
        <linearGradient id="paint28_linear_403_8077" x1="234.24" y1="302.907" x2="141.525" y2="302.907"
            gradientUnits="userSpaceOnUse">
            <stop stop-color="#1154D7" />
            <stop offset="0.0501" stop-color="#145BD8" />
            <stop offset="0.3138" stop-color="#237CDF" />
            <stop offset="0.5664" stop-color="#2E94E4" />
            <stop offset="0.8009" stop-color="#35A2E7" />
            <stop offset="1" stop-color="#37A7E8" />
        </linearGradient>
        <linearGradient id="paint29_linear_403_8077" x1="244.093" y1="280.103" x2="131.671" y2="280.103"
            gradientUnits="userSpaceOnUse">
            <stop stop-color="#1154D7" />
            <stop offset="0.0501" stop-color="#145BD8" />
            <stop offset="0.3138" stop-color="#237CDF" />
            <stop offset="0.5664" stop-color="#2E94E4" />
            <stop offset="0.8009" stop-color="#35A2E7" />
            <stop offset="1" stop-color="#37A7E8" />
        </linearGradient>
        <linearGradient id="paint30_linear_403_8077" x1="244.093" y1="271.453" x2="131.671" y2="271.453"
            gradientUnits="userSpaceOnUse">
            <stop stop-color="#1154D7" />
            <stop offset="0.0501" stop-color="#145BD8" />
            <stop offset="0.3138" stop-color="#237CDF" />
            <stop offset="0.5664" stop-color="#2E94E4" />
            <stop offset="0.8009" stop-color="#35A2E7" />
            <stop offset="1" stop-color="#37A7E8" />
        </linearGradient>
        <linearGradient id="paint31_linear_403_8077" x1="244.093" y1="262.807" x2="131.671" y2="262.807"
            gradientUnits="userSpaceOnUse">
            <stop stop-color="#1154D7" />
            <stop offset="0.0501" stop-color="#145BD8" />
            <stop offset="0.3138" stop-color="#237CDF" />
            <stop offset="0.5664" stop-color="#2E94E4" />
            <stop offset="0.8009" stop-color="#35A2E7" />
            <stop offset="1" stop-color="#37A7E8" />
        </linearGradient>
        <linearGradient id="paint32_linear_403_8077" x1="244.093" y1="254.158" x2="131.671" y2="254.158"
            gradientUnits="userSpaceOnUse">
            <stop stop-color="#1154D7" />
            <stop offset="0.0501" stop-color="#145BD8" />
            <stop offset="0.3138" stop-color="#237CDF" />
            <stop offset="0.5664" stop-color="#2E94E4" />
            <stop offset="0.8009" stop-color="#35A2E7" />
            <stop offset="1" stop-color="#37A7E8" />
        </linearGradient>
        <linearGradient id="paint33_linear_403_8077" x1="244.094" y1="267.131" x2="131.672" y2="267.131"
            gradientUnits="userSpaceOnUse">
            <stop stop-color="#1154D7" />
            <stop offset="0.0501" stop-color="#145BD8" />
            <stop offset="0.3138" stop-color="#237CDF" />
            <stop offset="0.5664" stop-color="#2E94E4" />
            <stop offset="0.8009" stop-color="#35A2E7" />
            <stop offset="1" stop-color="#37A7E8" />
        </linearGradient>
        <linearGradient id="paint34_linear_403_8077" x1="244.093" y1="254.158" x2="131.671" y2="254.158"
            gradientUnits="userSpaceOnUse">
            <stop stop-color="#1154D7" />
            <stop offset="0.0501" stop-color="#145BD8" />
            <stop offset="0.3138" stop-color="#237CDF" />
            <stop offset="0.5664" stop-color="#2E94E4" />
            <stop offset="0.8009" stop-color="#35A2E7" />
            <stop offset="1" stop-color="#37A7E8" />
        </linearGradient>
        <linearGradient id="paint35_linear_403_8077" x1="244.093" y1="269.745" x2="131.672" y2="269.745"
            gradientUnits="userSpaceOnUse">
            <stop stop-color="#1154D7" />
            <stop offset="0.0501" stop-color="#145BD8" />
            <stop offset="0.3138" stop-color="#237CDF" />
            <stop offset="0.5664" stop-color="#2E94E4" />
            <stop offset="0.8009" stop-color="#35A2E7" />
            <stop offset="1" stop-color="#37A7E8" />
        </linearGradient>
        <linearGradient id="paint36_linear_403_8077" x1="212.887" y1="191.04" x2="201.045" y2="191.727"
            gradientUnits="userSpaceOnUse">
            <stop stop-color="#3963D7" />
            <stop offset="0.00106919" stop-color="#3963D7" />
            <stop offset="0.2783" stop-color="#5A7DCD" />
            <stop offset="0.5439" stop-color="#7290C5" />
            <stop offset="0.7907" stop-color="#809BC1" />
            <stop offset="1" stop-color="#859FBF" />
        </linearGradient>
        <linearGradient id="paint37_linear_403_8077" x1="196.368" y1="195.852" x2="171.591" y2="197.289"
            gradientUnits="userSpaceOnUse">
            <stop stop-color="#3963D7" />
            <stop offset="0.00106919" stop-color="#3963D7" />
            <stop offset="0.2783" stop-color="#5A7DCD" />
            <stop offset="0.5439" stop-color="#7290C5" />
            <stop offset="0.7907" stop-color="#809BC1" />
            <stop offset="1" stop-color="#859FBF" />
        </linearGradient>
        <linearGradient id="paint38_linear_403_8077" x1="205.931" y1="163.776" x2="165.635" y2="166.113"
            gradientUnits="userSpaceOnUse">
            <stop stop-color="#3963D7" />
            <stop offset="0.00106919" stop-color="#3963D7" />
            <stop offset="0.2783" stop-color="#5A7DCD" />
            <stop offset="0.5439" stop-color="#7290C5" />
            <stop offset="0.7907" stop-color="#809BC1" />
            <stop offset="1" stop-color="#859FBF" />
        </linearGradient>
    </defs>
</svg>