<svg width="375" height="293" viewBox="0 0 375 293" fill="none" xmlns="http://www.w3.org/2000/svg">
    <path opacity="0.2"
        d="M-2 81.4419C-2 81.4419 54.4587 1.08416 106 4.94189C152.746 8.4407 152.074 87.9244 198.5 81.4419C238.606 75.842 230.862 -9.99747 268.5 4.94189C290.952 13.8535 279.61 52.3697 303.5 55.9419C330.418 59.9668 325.203 13.6199 351 4.94189C404.718 -13.129 357.837 134.226 414.5 135.442C471.775 136.671 424.5 10.6766 481.5 4.94189C529.045 0.158371 529.393 77.3198 577 81.4419C630.576 86.0808 638.851 -6.01552 691.5 4.94189C723.541 11.6104 725.698 61.2029 758 55.9419C784.995 51.5452 781.488 17.0747 806 4.94189C872.095 -27.7732 871.244 154.452 942.5 135.442C1000.16 120.059 962.374 7.37891 1022 4.94189C1074.7 2.78797 1064.76 108.275 1117.5 108.275C1170.24 108.275 1160.81 12.5449 1213 4.94189C1260.38 -1.96039 1276.99 61.8969 1324.5 55.9419C1362.08 51.2311 1369.15 3.64214 1407 4.94189C1442.88 6.17397 1448.33 63.1569 1483.5 55.9419C1510.96 50.3097 1534 4.94189 1534 4.94189M-2 236.442C-2 236.442 54.4587 156.084 106 159.942C152.746 163.441 152.074 242.924 198.5 236.442C238.606 230.842 230.862 145.003 268.5 159.942C290.952 168.853 279.61 207.37 303.5 210.942C330.418 214.967 325.203 168.62 351 159.942C404.718 141.871 357.837 289.226 414.5 290.442C471.775 291.671 424.5 165.677 481.5 159.942C529.045 155.158 529.393 232.32 577 236.442C630.576 241.081 638.851 148.984 691.5 159.942C723.541 166.61 725.698 216.203 758 210.942C784.995 206.545 781.488 172.075 806 159.942C872.095 127.227 871.244 309.452 942.5 290.442C1000.16 275.059 962.374 162.379 1022 159.942C1074.7 157.788 1064.76 263.275 1117.5 263.275C1170.24 263.275 1160.81 167.545 1213 159.942C1260.38 153.04 1276.99 216.897 1324.5 210.942C1362.08 206.231 1369.15 158.642 1407 159.942C1442.88 161.174 1448.33 218.157 1483.5 210.942C1510.96 205.31 1534 159.942 1534 159.942M-2 88.8227C-2 88.8227 54.4587 8.46502 106 12.3227C152.746 15.8216 152.074 95.3052 198.5 88.8227C238.606 83.2228 230.862 -2.61661 268.5 12.3227C290.952 21.2343 279.61 59.7506 303.5 63.3228C330.418 67.3477 325.203 21.0008 351 12.3227C404.718 -5.74817 357.837 141.607 414.5 142.823C471.775 144.052 424.5 18.0575 481.5 12.3227C529.045 7.53923 529.393 84.7007 577 88.8227C630.576 93.4617 638.851 1.36534 691.5 12.3227C723.541 18.9913 725.698 68.5838 758 63.3228C784.995 58.9261 781.488 24.4556 806 12.3227C872.095 -20.3923 871.244 161.833 942.5 142.823C1000.16 127.44 962.374 14.7598 1022 12.3227C1074.7 10.1688 1064.76 115.656 1117.5 115.656C1170.24 115.656 1160.81 19.9257 1213 12.3227C1260.38 5.42047 1276.99 69.2778 1324.5 63.3228C1362.08 58.612 1369.15 11.023 1407 12.3227C1442.88 13.5548 1448.33 70.5377 1483.5 63.3228C1510.96 57.6905 1534 12.3227 1534 12.3227M-2 96.2036C-2 96.2036 54.4587 15.8459 106 19.7036C152.746 23.2024 152.074 102.686 198.5 96.2036C238.606 90.6037 230.862 4.76425 268.5 19.7036C290.952 28.6152 279.61 67.1314 303.5 70.7036C330.418 74.7285 325.203 28.3816 351 19.7036C404.718 1.63269 357.837 148.988 414.5 150.204C471.775 151.433 424.5 25.4383 481.5 19.7036C529.045 14.9201 529.393 92.0815 577 96.2036C630.576 100.843 638.851 8.74619 691.5 19.7036C723.541 26.3721 725.698 75.9646 758 70.7036C784.995 66.307 781.488 31.8364 806 19.7036C872.095 -13.0115 871.244 169.214 942.5 150.204C1000.16 134.821 962.374 22.1406 1022 19.7036C1074.7 17.5497 1064.76 123.037 1117.5 123.037C1170.24 123.037 1160.81 27.3066 1213 19.7036C1260.38 12.8013 1276.99 76.6586 1324.5 70.7036C1362.08 65.9929 1369.15 18.4039 1407 19.7036C1442.88 20.9357 1448.33 77.9186 1483.5 70.7036C1510.96 65.0714 1534 19.7036 1534 19.7036M-2 103.585C-2 103.585 54.4587 23.2272 106 27.085C152.746 30.5838 152.074 110.067 198.5 103.585C238.606 97.985 230.862 12.1456 268.5 27.085C290.952 35.9965 279.61 74.5128 303.5 78.085C330.418 82.1099 325.203 35.763 351 27.085C404.718 9.01404 357.837 156.369 414.5 157.585C471.775 158.814 424.5 32.8197 481.5 27.085C529.045 22.3014 529.393 99.4629 577 103.585C630.576 108.224 638.851 16.1275 691.5 27.085C723.541 33.7535 725.698 83.346 758 78.085C784.995 73.6883 781.488 39.2178 806 27.085C872.095 -5.63013 871.244 176.595 942.5 157.585C1000.16 142.202 962.374 29.522 1022 27.085C1074.7 24.931 1064.76 130.418 1117.5 130.418C1170.24 130.418 1160.81 34.6879 1213 27.085C1260.38 20.1827 1276.99 84.04 1324.5 78.085C1362.08 73.3742 1369.15 25.7852 1407 27.085C1442.88 28.317 1448.33 85.2999 1483.5 78.085C1510.96 72.4527 1534 27.085 1534 27.085M-2 110.966C-2 110.966 54.4587 30.6081 106 34.4658C152.746 37.9646 152.074 117.448 198.5 110.966C238.606 105.366 230.862 19.5265 268.5 34.4658C290.952 43.3774 279.61 81.8936 303.5 85.4658C330.418 89.4907 325.203 43.1438 351 34.4658C404.718 16.3949 357.837 163.75 414.5 164.966C471.775 166.195 424.5 40.2006 481.5 34.4658C529.045 29.6823 529.393 106.844 577 110.966C630.576 115.605 638.851 23.5084 691.5 34.4658C723.541 41.1343 725.698 90.7268 758 85.4658C784.995 81.0692 781.488 46.5986 806 34.4658C872.095 1.75073 871.244 183.976 942.5 164.966C1000.16 149.583 962.374 36.9028 1022 34.4658C1074.7 32.3119 1064.76 137.799 1117.5 137.799C1170.24 137.799 1160.81 42.0688 1213 34.4658C1260.38 27.5635 1276.99 91.4209 1324.5 85.4658C1362.08 80.7551 1369.15 33.1661 1407 34.4658C1442.88 35.6979 1448.33 92.6808 1483.5 85.4658C1510.96 79.8336 1534 34.4658 1534 34.4658M-2 118.347C-2 118.347 54.4587 37.9889 106 41.8467C152.746 45.3455 152.074 124.829 198.5 118.347C238.606 112.747 230.862 26.9073 268.5 41.8467C290.952 50.7583 279.61 89.2745 303.5 92.8467C330.418 96.8716 325.203 50.5247 351 41.8467C404.718 23.7758 357.837 171.131 414.5 172.347C471.775 173.576 424.5 47.5814 481.5 41.8467C529.045 37.0632 529.393 114.225 577 118.347C630.576 122.986 638.851 30.8893 691.5 41.8467C723.541 48.5152 725.698 98.1077 758 92.8467C784.995 88.45 781.488 53.9795 806 41.8467C872.095 9.13159 871.244 191.357 942.5 172.347C1000.16 156.964 962.374 44.2837 1022 41.8467C1074.7 39.6928 1064.76 145.18 1117.5 145.18C1170.24 145.18 1160.81 49.4497 1213 41.8467C1260.38 34.9444 1276.99 98.8017 1324.5 92.8467C1362.08 88.1359 1369.15 40.5469 1407 41.8467C1442.88 43.0787 1448.33 100.062 1483.5 92.8467C1510.96 87.2145 1534 41.8467 1534 41.8467M-2 125.728C-2 125.728 54.4587 45.3698 106 49.2275C152.746 52.7263 152.074 132.21 198.5 125.728C238.606 120.128 230.862 34.2882 268.5 49.2275C290.952 58.1391 279.61 96.6554 303.5 100.228C330.418 104.252 325.203 57.9055 351 49.2275C404.718 31.1566 357.837 178.512 414.5 179.728C471.775 180.957 424.5 54.9623 481.5 49.2275C529.045 44.444 529.393 121.605 577 125.728C630.576 130.366 638.851 38.2701 691.5 49.2275C723.541 55.896 725.698 105.489 758 100.228C784.995 95.8309 781.488 61.3603 806 49.2275C872.095 16.5124 871.244 198.738 942.5 179.728C1000.16 164.345 962.374 51.6646 1022 49.2275C1074.7 47.0736 1064.76 152.561 1117.5 152.561C1170.24 152.561 1160.81 56.8305 1213 49.2275C1260.38 42.3253 1276.99 106.183 1324.5 100.228C1362.08 95.5168 1369.15 47.9278 1407 49.2275C1442.88 50.4596 1448.33 107.443 1483.5 100.228C1510.96 94.5953 1534 49.2275 1534 49.2275M-2 133.108C-2 133.108 54.4587 52.7507 106 56.6084C152.746 60.1072 152.074 139.591 198.5 133.108C238.606 127.508 230.862 41.669 268.5 56.6084C290.952 65.52 279.61 104.036 303.5 107.608C330.418 111.633 325.203 65.2864 351 56.6084C404.718 38.5375 357.837 185.892 414.5 187.108C471.775 188.337 424.5 62.3431 481.5 56.6084C529.045 51.8249 529.393 128.986 577 133.108C630.576 137.747 638.851 45.651 691.5 56.6084C723.541 63.2769 725.698 112.869 758 107.608C784.995 103.212 781.488 68.7412 806 56.6084C872.095 23.8933 871.244 206.119 942.5 187.108C1000.16 171.726 962.374 59.0454 1022 56.6084C1074.7 54.4545 1064.76 159.942 1117.5 159.942C1170.24 159.942 1160.81 64.2114 1213 56.6084C1260.38 49.7061 1276.99 113.563 1324.5 107.608C1362.08 102.898 1369.15 55.3086 1407 56.6084C1442.88 57.8405 1448.33 114.823 1483.5 107.608C1510.96 101.976 1534 56.6084 1534 56.6084M-2 140.49C-2 140.49 54.4587 60.132 106 63.9897C152.746 67.4886 152.074 146.972 198.5 140.49C238.606 134.89 230.862 49.0504 268.5 63.9897C290.952 72.9013 279.61 111.418 303.5 114.99C330.418 119.015 325.203 72.6678 351 63.9897C404.718 45.9188 357.837 193.274 414.5 194.49C471.775 195.719 424.5 69.7245 481.5 63.9897C529.045 59.2062 529.393 136.368 577 140.49C630.576 145.129 638.851 53.0323 691.5 63.9897C723.541 70.6583 725.698 120.251 758 114.99C784.995 110.593 781.488 76.1226 806 63.9897C872.095 31.2747 871.244 213.5 942.5 194.49C1000.16 179.107 962.374 66.4268 1022 63.9897C1074.7 61.8358 1064.76 167.323 1117.5 167.323C1170.24 167.323 1160.81 71.5927 1213 63.9897C1260.38 57.0875 1276.99 120.945 1324.5 114.99C1362.08 110.279 1369.15 62.69 1407 63.9897C1442.88 65.2218 1448.33 122.205 1483.5 114.99C1510.96 109.358 1534 63.9897 1534 63.9897M-2 147.871C-2 147.871 54.4587 67.5129 106 71.3706C152.746 74.8694 152.074 154.353 198.5 147.871C238.606 142.271 230.862 56.4312 268.5 71.3706C290.952 80.2822 279.61 118.798 303.5 122.371C330.418 126.396 325.203 80.0486 351 71.3706C404.718 53.2997 357.837 200.655 414.5 201.871C471.775 203.1 424.5 77.1053 481.5 71.3706C529.045 66.5871 529.393 143.749 577 147.871C630.576 152.509 638.851 60.4132 691.5 71.3706C723.541 78.0391 725.698 127.632 758 122.371C784.995 117.974 781.488 83.5034 806 71.3706C872.095 38.6555 871.244 220.881 942.5 201.871C1000.16 186.488 962.374 73.8076 1022 71.3706C1074.7 69.2167 1064.76 174.704 1117.5 174.704C1170.24 174.704 1160.81 78.9736 1213 71.3706C1260.38 64.4683 1276.99 128.326 1324.5 122.371C1362.08 117.66 1369.15 70.0709 1407 71.3706C1442.88 72.6027 1448.33 129.586 1483.5 122.371C1510.96 116.738 1534 71.3706 1534 71.3706M-2 155.251C-2 155.251 54.4587 74.8937 106 78.7515C152.746 82.2503 152.074 161.734 198.5 155.251C238.606 149.652 230.862 63.8121 268.5 78.7515C290.952 87.663 279.61 126.179 303.5 129.751C330.418 133.776 325.203 87.4295 351 78.7515C404.718 60.6805 357.837 208.036 414.5 209.251C471.775 210.48 424.5 84.4862 481.5 78.7515C529.045 73.9679 529.393 151.129 577 155.251C630.576 159.89 638.851 67.794 691.5 78.7515C723.541 85.42 725.698 135.012 758 129.751C784.995 125.355 781.488 90.8843 806 78.7515C872.095 46.0364 871.244 228.262 942.5 209.251C1000.16 193.869 962.374 81.1885 1022 78.7515C1074.7 76.5975 1064.76 182.085 1117.5 182.085C1170.24 182.085 1160.81 86.3545 1213 78.7515C1260.38 71.8492 1276.99 135.707 1324.5 129.751C1362.08 125.041 1369.15 77.4517 1407 78.7515C1442.88 79.9835 1448.33 136.966 1483.5 129.751C1510.96 124.119 1534 78.7515 1534 78.7515M-2 162.632C-2 162.632 54.4587 82.2746 106 86.1323C152.746 89.6311 152.074 169.115 198.5 162.632C238.606 157.032 230.862 71.193 268.5 86.1323C290.952 95.0439 279.61 133.56 303.5 137.132C330.418 141.157 325.203 94.8103 351 86.1323C404.718 68.0614 357.837 215.416 414.5 216.632C471.775 217.861 424.5 91.8671 481.5 86.1323C529.045 81.3488 529.393 158.51 577 162.632C630.576 167.271 638.851 75.1749 691.5 86.1323C723.541 92.8008 725.698 142.393 758 137.132C784.995 132.736 781.488 98.2651 806 86.1323C872.095 53.4172 871.244 235.642 942.5 216.632C1000.16 201.25 962.374 88.5693 1022 86.1323C1074.7 83.9784 1064.76 189.466 1117.5 189.466C1170.24 189.466 1160.81 93.7353 1213 86.1323C1260.38 79.23 1276.99 143.087 1324.5 137.132C1362.08 132.422 1369.15 84.8326 1407 86.1323C1442.88 87.3644 1448.33 144.347 1483.5 137.132C1510.96 131.5 1534 86.1323 1534 86.1323M-2 170.013C-2 170.013 54.4587 89.6554 106 93.5132C152.746 97.012 152.074 176.496 198.5 170.013C238.606 164.413 230.862 78.5738 268.5 93.5132C290.952 102.425 279.61 140.941 303.5 144.513C330.418 148.538 325.203 102.191 351 93.5132C404.718 75.4423 357.837 222.797 414.5 224.013C471.775 225.242 424.5 99.2479 481.5 93.5132C529.045 88.7297 529.393 165.891 577 170.013C630.576 174.652 638.851 82.5558 691.5 93.5132C723.541 100.182 725.698 149.774 758 144.513C784.995 140.117 781.488 105.646 806 93.5132C872.095 60.7981 871.244 243.023 942.5 224.013C1000.16 208.631 962.374 95.9502 1022 93.5132C1074.7 91.3593 1064.76 196.847 1117.5 196.847C1170.24 196.847 1160.81 101.116 1213 93.5132C1260.38 86.6109 1276.99 150.468 1324.5 144.513C1362.08 139.802 1369.15 92.2134 1407 93.5132C1442.88 94.7453 1448.33 151.728 1483.5 144.513C1510.96 138.881 1534 93.5132 1534 93.5132M-2 177.394C-2 177.394 54.4587 97.0363 106 100.894C152.746 104.393 152.074 183.877 198.5 177.394C238.606 171.794 230.862 85.9547 268.5 100.894C290.952 109.806 279.61 148.322 303.5 151.894C330.418 155.919 325.203 109.572 351 100.894C404.718 82.8231 357.837 230.178 414.5 231.394C471.775 232.623 424.5 106.629 481.5 100.894C529.045 96.1105 529.393 173.272 577 177.394C630.576 182.033 638.851 89.9366 691.5 100.894C723.541 107.563 725.698 157.155 758 151.894C784.995 147.497 781.488 113.027 806 100.894C872.095 68.179 871.244 250.404 942.5 231.394C1000.16 216.012 962.374 103.331 1022 100.894C1074.7 98.7401 1064.76 204.228 1117.5 204.228C1170.24 204.228 1160.81 108.497 1213 100.894C1260.38 93.9918 1276.99 157.849 1324.5 151.894C1362.08 147.183 1369.15 99.5943 1407 100.894C1442.88 102.126 1448.33 159.109 1483.5 151.894C1510.96 146.262 1534 100.894 1534 100.894M-2 184.775C-2 184.775 54.4587 104.418 106 108.275C152.746 111.774 152.074 191.258 198.5 184.775C238.606 179.175 230.862 93.336 268.5 108.275C290.952 117.187 279.61 155.703 303.5 159.275C330.418 163.3 325.203 116.953 351 108.275C404.718 90.2045 357.837 237.559 414.5 238.775C471.775 240.004 424.5 114.01 481.5 108.275C529.045 103.492 529.393 180.653 577 184.775C630.576 189.414 638.851 97.318 691.5 108.275C723.541 114.944 725.698 164.536 758 159.275C784.995 154.879 781.488 120.408 806 108.275C872.095 75.5603 871.244 257.786 942.5 238.775C1000.16 223.393 962.374 110.712 1022 108.275C1074.7 106.121 1064.76 211.609 1117.5 211.609C1170.24 211.609 1160.81 115.878 1213 108.275C1260.38 101.373 1276.99 165.23 1324.5 159.275C1362.08 154.565 1369.15 106.976 1407 108.275C1442.88 109.507 1448.33 166.49 1483.5 159.275C1510.96 153.643 1534 108.275 1534 108.275M-2 192.156C-2 192.156 54.4587 111.799 106 115.656C152.746 119.155 152.074 198.639 198.5 192.156C238.606 186.556 230.862 100.717 268.5 115.656C290.952 124.568 279.61 163.084 303.5 166.656C330.418 170.681 325.203 124.334 351 115.656C404.718 97.5853 357.837 244.94 414.5 246.156C471.775 247.385 424.5 121.391 481.5 115.656C529.045 110.873 529.393 188.034 577 192.156C630.576 196.795 638.851 104.699 691.5 115.656C723.541 122.325 725.698 171.917 758 166.656C784.995 162.26 781.488 127.789 806 115.656C872.095 82.9412 871.244 265.166 942.5 246.156C1000.16 230.774 962.374 118.093 1022 115.656C1074.7 113.502 1064.76 218.99 1117.5 218.99C1170.24 218.99 1160.81 123.259 1213 115.656C1260.38 108.754 1276.99 172.611 1324.5 166.656C1362.08 161.946 1369.15 114.356 1407 115.656C1442.88 116.888 1448.33 173.871 1483.5 166.656C1510.96 161.024 1534 115.656 1534 115.656M-2 199.537C-2 199.537 54.4587 119.179 106 123.037C152.746 126.536 152.074 206.02 198.5 199.537C238.606 193.937 230.862 108.098 268.5 123.037C290.952 131.949 279.61 170.465 303.5 174.037C330.418 178.062 325.203 131.715 351 123.037C404.718 104.966 357.837 252.321 414.5 253.537C471.775 254.766 424.5 128.772 481.5 123.037C529.045 118.254 529.393 195.415 577 199.537C630.576 204.176 638.851 112.08 691.5 123.037C723.541 129.706 725.698 179.298 758 174.037C784.995 169.64 781.488 135.17 806 123.037C872.095 90.322 871.244 272.547 942.5 253.537C1000.16 238.155 962.374 125.474 1022 123.037C1074.7 120.883 1064.76 226.371 1117.5 226.371C1170.24 226.371 1160.81 130.64 1213 123.037C1260.38 116.135 1276.99 179.992 1324.5 174.037C1362.08 169.326 1369.15 121.737 1407 123.037C1442.88 124.269 1448.33 181.252 1483.5 174.037C1510.96 168.405 1534 123.037 1534 123.037M-2 206.918C-2 206.918 54.4587 126.56 106 130.418C152.746 133.917 152.074 213.4 198.5 206.918C238.606 201.318 230.862 115.479 268.5 130.418C290.952 139.33 279.61 177.846 303.5 181.418C330.418 185.443 325.203 139.096 351 130.418C404.718 112.347 357.837 259.702 414.5 260.918C471.775 262.147 424.5 136.153 481.5 130.418C529.045 125.634 529.393 202.796 577 206.918C630.576 211.557 638.851 119.461 691.5 130.418C723.541 137.086 725.698 186.679 758 181.418C784.995 177.021 781.488 142.551 806 130.418C872.095 97.7029 871.244 279.928 942.5 260.918C1000.16 245.535 962.374 132.855 1022 130.418C1074.7 128.264 1064.76 233.751 1117.5 233.751C1170.24 233.751 1160.81 138.021 1213 130.418C1260.38 123.516 1276.99 187.373 1324.5 181.418C1362.08 176.707 1369.15 129.118 1407 130.418C1442.88 131.65 1448.33 188.633 1483.5 181.418C1510.96 175.786 1534 130.418 1534 130.418M-2 214.299C-2 214.299 54.4587 133.941 106 137.799C152.746 141.298 152.074 220.781 198.5 214.299C238.606 208.699 230.862 122.859 268.5 137.799C290.952 146.71 279.61 185.227 303.5 188.799C330.418 192.824 325.203 146.477 351 137.799C404.718 119.728 357.837 267.083 414.5 268.299C471.775 269.528 424.5 143.534 481.5 137.799C529.045 133.015 529.393 210.177 577 214.299C630.576 218.938 638.851 126.841 691.5 137.799C723.541 144.467 725.698 194.06 758 188.799C784.995 184.402 781.488 149.932 806 137.799C872.095 105.084 871.244 287.309 942.5 268.299C1000.16 252.916 962.374 140.236 1022 137.799C1074.7 135.645 1064.76 241.132 1117.5 241.132C1170.24 241.132 1160.81 145.402 1213 137.799C1260.38 130.897 1276.99 194.754 1324.5 188.799C1362.08 184.088 1369.15 136.499 1407 137.799C1442.88 139.031 1448.33 196.014 1483.5 188.799C1510.96 183.167 1534 137.799 1534 137.799M-2 221.68C-2 221.68 54.4587 141.322 106 145.18C152.746 148.679 152.074 228.163 198.5 221.68C238.606 216.08 230.862 130.241 268.5 145.18C290.952 154.092 279.61 192.608 303.5 196.18C330.418 200.205 325.203 153.858 351 145.18C404.718 127.109 357.837 274.464 414.5 275.68C471.775 276.909 424.5 150.915 481.5 145.18C529.045 140.397 529.393 217.558 577 221.68C630.576 226.319 638.851 134.223 691.5 145.18C723.541 151.849 725.698 201.441 758 196.18C784.995 191.784 781.488 157.313 806 145.18C872.095 112.465 871.244 294.69 942.5 275.68C1000.16 260.298 962.374 147.617 1022 145.18C1074.7 143.026 1064.76 248.514 1117.5 248.514C1170.24 248.514 1160.81 152.783 1213 145.18C1260.38 138.278 1276.99 202.135 1324.5 196.18C1362.08 191.469 1369.15 143.88 1407 145.18C1442.88 146.412 1448.33 203.395 1483.5 196.18C1510.96 190.548 1534 145.18 1534 145.18M-2 229.061C-2 229.061 54.4587 148.703 106 152.561C152.746 156.06 152.074 235.544 198.5 229.061C238.606 223.461 230.862 137.622 268.5 152.561C290.952 161.473 279.61 199.989 303.5 203.561C330.418 207.586 325.203 161.239 351 152.561C404.718 134.49 357.837 281.845 414.5 283.061C471.775 284.29 424.5 158.296 481.5 152.561C529.045 147.778 529.393 224.939 577 229.061C630.576 233.7 638.851 141.604 691.5 152.561C723.541 159.23 725.698 208.822 758 203.561C784.995 199.164 781.488 164.694 806 152.561C872.095 119.846 871.244 302.071 942.5 283.061C1000.16 267.678 962.374 154.998 1022 152.561C1074.7 150.407 1064.76 255.895 1117.5 255.895C1170.24 255.895 1160.81 160.164 1213 152.561C1260.38 145.659 1276.99 209.516 1324.5 203.561C1362.08 198.85 1369.15 151.261 1407 152.561C1442.88 153.793 1448.33 210.776 1483.5 203.561C1510.96 197.929 1534 152.561 1534 152.561"
        stroke="url(#paint0_linear_403_8230)" />
    <defs>
        <linearGradient id="paint0_linear_403_8230" x1="766" y1="1" x2="766" y2="291.836"
            gradientUnits="userSpaceOnUse">
            <stop stop-color="#2F66F6" />
            <stop offset="1" stop-color="#2F66F6" stop-opacity="0" />
        </linearGradient>
    </defs>
</svg>