<svg width="346" height="237" viewBox="0 0 346 237" fill="none" xmlns="http://www.w3.org/2000/svg">
    <path opacity="0.4"
        d="M71.0656 179.575C110.203 179.575 141.93 161.255 141.93 138.657C141.93 116.058 110.203 97.7383 71.0656 97.7383C31.9285 97.7383 0.20166 116.058 0.20166 138.657C0.20166 161.255 31.9285 179.575 71.0656 179.575Z"
        fill="url(#paint0_radial_403_9308)" />
    <path opacity="0.3"
        d="M50.4968 154.427C46.0535 154.427 41.5342 153.827 37.2515 152.569C28.6606 150.043 22.7898 145.304 21.1341 139.569C19.9769 135.548 21.0666 131.375 24.2005 127.818L24.5384 127.438C32.0649 118.907 49.3479 115.578 63.8857 119.853C72.4765 122.378 78.3474 127.117 80.003 132.853C81.1603 136.874 80.0706 141.047 76.9367 144.603L76.5987 144.983C71.2854 150.998 61.1234 154.427 50.4968 154.427ZM27.1824 130.446C24.9439 132.98 24.1752 135.75 24.9523 138.462C26.2025 142.804 31.2202 146.647 38.3665 148.751C51.3162 152.56 67.1209 149.688 73.6 142.348L73.9379 141.968C76.1764 139.433 76.9451 136.663 76.168 133.951C74.9178 129.609 69.9001 125.766 62.7537 123.662C49.8041 119.853 33.9993 122.725 27.5203 130.065L27.1824 130.446Z"
        fill="#6EE8FC" />
    <path
        d="M50.3359 152.661C46.087 152.661 41.7704 152.096 37.7326 150.913C29.7246 148.556 24.2762 144.248 22.7895 139.087C21.7842 135.606 22.7219 132.101 25.4926 128.959L25.8305 128.578C32.8332 120.646 49.6855 117.47 63.3954 121.508C71.4034 123.865 76.8518 128.173 78.3386 133.334C79.3438 136.814 78.4061 140.32 75.6354 143.462L75.2975 143.843C70.3559 149.435 60.5149 152.661 50.3359 152.661ZM25.8896 129.305C23.2372 132.304 22.3417 135.64 23.2963 138.943C24.7154 143.851 30.1639 148.142 37.8847 150.415C51.4172 154.393 68.0245 151.293 74.9005 143.496L75.2384 143.116C77.8908 140.117 78.7862 136.781 77.8317 133.478C76.4126 128.57 70.9641 124.279 63.2433 122.006C49.7108 118.028 33.1035 121.128 26.2275 128.925L25.8896 129.305Z"
        fill="#1050FA" />
    <path
        d="M50.5721 149.511C44.1606 149.511 37.7491 148.1 32.8666 145.287C28.1108 142.542 25.4922 138.884 25.4922 134.99C25.4922 131.096 28.1108 127.438 32.8666 124.693C42.6316 119.058 58.5125 119.058 68.269 124.693C73.0248 127.438 75.6435 131.096 75.6435 134.99C75.6435 138.884 73.0248 142.542 68.269 145.287C63.395 148.1 56.9835 149.511 50.5721 149.511ZM50.5721 120.731C44.2113 120.731 37.8505 122.133 33.0102 124.929C28.3474 127.624 25.7709 131.197 25.7709 134.99C25.7709 138.783 28.3389 142.356 33.0102 145.05C42.6992 150.642 58.4533 150.642 68.1423 145.05C72.8052 142.356 75.3816 138.783 75.3816 134.99C75.3816 131.197 72.8137 127.624 68.1423 124.929C63.2936 122.125 56.9328 120.731 50.5721 120.731Z"
        fill="white" />
    <path opacity="0.6"
        d="M50.5717 147.144C62.2022 147.144 71.6307 141.702 71.6307 134.989C71.6307 128.275 62.2022 122.833 50.5717 122.833C38.9411 122.833 29.5127 128.275 29.5127 134.989C29.5127 141.702 38.9411 147.144 50.5717 147.144Z"
        fill="#0C0F38" />
    <path
        d="M75.5075 128.739V120.588H71.0895C70.2448 119.878 69.2903 119.203 68.2006 118.569C58.4609 112.943 42.673 112.943 32.9333 118.569C31.8436 119.203 30.8891 119.878 30.0444 120.588H25.6265V128.748C25.6265 132.431 28.0593 136.114 32.9333 138.927C42.673 144.553 58.4609 144.553 68.2006 138.927C73.0831 136.122 75.5159 132.431 75.5075 128.739Z"
        fill="url(#paint1_linear_403_9308)" />
    <path
        d="M25.8633 128.536V120.587H25.6353V128.747C25.6353 132.041 27.6035 135.336 31.5061 138.014C27.7471 135.234 25.8633 131.889 25.8633 128.536Z"
        fill="white" />
    <path
        d="M75.1193 120.587V128.477C75.1277 132.168 72.6949 135.86 67.8124 138.672C58.0727 144.298 42.2848 144.298 32.5452 138.672C32.0468 138.385 31.5991 138.09 31.1514 137.786C31.7089 138.183 32.3002 138.571 32.9422 138.934C42.6819 144.56 58.4698 144.56 68.2094 138.934C73.0835 136.121 75.5163 132.43 75.5163 128.739V120.587H75.1193Z"
        fill="white" />
    <path
        d="M50.5715 134.99C64.3434 134.99 75.5078 128.541 75.5078 120.587C75.5078 112.633 64.3434 106.185 50.5715 106.185C36.7996 106.185 25.6353 112.633 25.6353 120.587C25.6353 128.541 36.7996 134.99 50.5715 134.99Z"
        fill="url(#paint2_linear_403_9308)" />
    <path
        d="M33.6099 110.56C38.56 107.705 45.0221 106.26 51.5011 106.218C44.8109 106.075 38.0447 107.46 32.9341 110.408C25.3485 114.792 23.5999 121.372 27.9333 126.601C24.2081 121.246 26.1003 114.893 33.6099 110.56Z"
        fill="white" />
    <path
        d="M68.21 110.408C65.6251 108.913 62.601 107.832 59.3911 107.131C62.28 107.832 64.9831 108.854 67.3399 110.214C77.0796 115.84 77.0796 124.955 67.3399 130.58C60.1851 134.711 49.7781 135.792 40.8916 133.858C49.9639 136.063 60.8271 135.041 68.21 130.775C77.9497 125.149 77.9497 116.034 68.21 110.408Z"
        fill="white" />
    <path
        d="M50.4536 129.787C59.257 129.787 66.3936 125.668 66.3936 120.588C66.3936 115.507 59.257 111.389 50.4536 111.389C41.6502 111.389 34.5137 115.507 34.5137 120.588C34.5137 125.668 41.6502 129.787 50.4536 129.787Z"
        fill="#50ACE9" />
    <path
        d="M39.1851 119.016C45.4107 115.426 55.4967 115.426 61.7224 119.016C63.7328 120.182 65.0928 121.576 65.8024 123.054C67.2891 119.962 65.9375 116.516 61.7224 114.083C55.4967 110.493 45.4107 110.493 39.1851 114.083C34.9784 116.516 33.6268 119.962 35.1051 123.054C35.8147 121.576 37.1662 120.174 39.1851 119.016Z"
        fill="#18D0F7" />
    <path
        d="M39.1852 117.276C45.4108 113.686 55.4968 113.686 61.7225 117.276C64.1299 118.662 65.5913 120.393 66.1404 122.184C67.0104 119.329 65.5406 116.288 61.7225 114.083C55.4968 110.493 45.4108 110.493 39.1852 114.083C35.3671 116.288 33.9057 119.329 34.7673 122.184C35.3164 120.385 36.7778 118.662 39.1852 117.276Z"
        fill="#25BFEC" />
    <path
        d="M39.1847 115.722C45.4103 112.132 55.4963 112.132 61.7219 115.722C64.4757 117.31 66.0047 119.337 66.3257 121.407C66.7311 118.788 65.2022 116.085 61.7219 114.083C55.4963 110.493 45.4103 110.493 39.1847 114.083C35.7128 116.085 34.1839 118.788 34.5809 121.407C34.9019 119.329 36.4309 117.31 39.1847 115.722Z"
        fill="#267FE5" />
    <path
        d="M63.4791 109.471C62.9722 109.294 62.3218 109.387 62.0093 109.674C61.6967 109.961 61.8572 110.341 62.3556 110.527C62.8624 110.704 63.5129 110.611 63.8254 110.324C64.138 110.029 63.9775 109.648 63.4791 109.471Z"
        fill="#163572" />
    <path opacity="0.8"
        d="M67.0013 111.177C66.5789 110.949 65.9116 110.965 65.5146 111.21C65.1176 111.455 65.1429 111.844 65.5737 112.072C65.9961 112.3 66.6634 112.283 67.0604 112.038C67.449 111.785 67.4237 111.405 67.0013 111.177Z"
        fill="#163572" />
    <path opacity="0.6"
        d="M69.8907 113.238C69.5528 112.967 68.8939 112.908 68.4208 113.102C67.9478 113.297 67.8464 113.677 68.1843 113.947C68.5222 114.218 69.1811 114.277 69.6542 114.082C70.1188 113.888 70.2286 113.516 69.8907 113.238Z"
        fill="#163572" />
    <path opacity="0.4"
        d="M72.0187 115.594C71.7738 115.29 71.1571 115.155 70.6249 115.299C70.1012 115.442 69.8647 115.797 70.1096 116.101C70.3546 116.405 70.9713 116.54 71.5034 116.397C72.0272 116.253 72.2637 115.898 72.0187 115.594Z"
        fill="#163572" />
    <path opacity="0.2"
        d="M73.32 118.138C73.1849 117.809 72.6189 117.614 72.053 117.69C71.487 117.766 71.1406 118.096 71.2758 118.425C71.411 118.755 71.9769 118.949 72.5429 118.873C73.1089 118.788 73.4552 118.459 73.32 118.138Z"
        fill="#163572" />
    <path opacity="0.1"
        d="M73.6328 121.069C73.8862 120.765 73.675 120.402 73.1513 120.258C72.6276 120.114 72.0025 120.233 71.7491 120.537C71.4957 120.841 71.7068 121.204 72.2306 121.348C72.7459 121.491 73.3794 121.373 73.6328 121.069Z"
        fill="#163572" />
    <path
        d="M75.5075 111.193V103.05H71.0895C70.2448 102.34 69.2903 101.664 68.2006 101.031C58.4609 95.4051 42.673 95.4051 32.9333 101.031C31.8436 101.664 30.8891 102.34 30.0444 103.05H25.6265V111.21C25.6265 114.893 28.0593 118.576 32.9333 121.389C42.673 127.015 58.4609 127.015 68.2006 121.389C73.0831 118.576 75.5159 114.884 75.5075 111.193Z"
        fill="url(#paint3_linear_403_9308)" />
    <path
        d="M25.8633 111V103.051H25.6353V111.211C25.6353 114.505 27.6035 117.8 31.5061 120.477C27.7471 117.698 25.8633 114.345 25.8633 111Z"
        fill="white" />
    <path
        d="M75.1193 103.051V110.941C75.1277 114.632 72.6949 118.323 67.8124 121.136C58.0727 126.762 42.2848 126.762 32.5452 121.136C32.0468 120.849 31.5991 120.553 31.1514 120.249C31.7089 120.646 32.3002 121.035 32.9422 121.398C42.6819 127.024 58.4698 127.024 68.2094 121.398C73.0835 118.585 75.5163 114.894 75.5163 111.202V103.051H75.1193Z"
        fill="white" />
    <path
        d="M50.5715 117.444C64.3434 117.444 75.5078 111 75.5078 103.05C75.5078 95.1007 64.3434 88.6562 50.5715 88.6562C36.7996 88.6562 25.6353 95.1007 25.6353 103.05C25.6353 111 36.7996 117.444 50.5715 117.444Z"
        fill="url(#paint4_linear_403_9308)" />
    <path
        d="M33.6099 93.0151C38.56 90.1599 45.0221 88.7154 51.5011 88.6732C44.8109 88.5296 38.0447 89.9149 32.9341 92.863C25.3485 97.2472 23.5999 103.828 27.9333 109.056C24.2081 103.709 26.1003 97.357 33.6099 93.0151Z"
        fill="white" />
    <path
        d="M68.21 92.8635C65.6251 91.3683 62.601 90.2871 59.3911 89.5859C62.28 90.2871 64.9831 91.3092 67.3399 92.6692C77.0796 98.2951 77.0796 107.41 67.3399 113.035C60.1851 117.166 49.7781 118.247 40.8916 116.313C49.9639 118.518 60.8271 117.496 68.21 113.23C77.9497 107.604 77.9497 98.4893 68.21 92.8635Z"
        fill="white" />
    <path
        d="M61.7221 109.554C55.4965 113.144 45.4105 113.144 39.1848 109.554C32.9592 105.964 32.9592 100.135 39.1848 96.5451C45.4105 92.955 55.4965 92.955 61.7221 96.5451C67.9477 100.135 67.9477 105.955 61.7221 109.554Z"
        fill="#72B8ED" />
    <path
        d="M39.1846 101.47C45.4102 97.8804 55.4962 97.8804 61.7219 101.47C63.7323 102.636 65.0923 104.03 65.8019 105.508C67.2886 102.417 65.937 98.9701 61.7219 96.5373C55.4962 92.9472 45.4102 92.9472 39.1846 96.5373C34.9779 98.9701 33.6263 102.417 35.1046 105.508C35.8142 104.03 37.1657 102.636 39.1846 101.47Z"
        fill="#72B8ED" />
    <path
        d="M39.1852 99.7304C45.4108 96.1403 55.4968 96.1403 61.7225 99.7304C64.1299 101.116 65.5913 102.847 66.1404 104.638C67.0104 101.783 65.5406 98.742 61.7225 96.5373C55.4968 92.9472 45.4108 92.9472 39.1852 96.5373C35.3671 98.742 33.9057 101.783 34.7673 104.638C35.3164 102.839 36.7778 101.116 39.1852 99.7304Z"
        fill="#72B8ED" />
    <path
        d="M39.1847 98.1761C45.4103 94.586 55.4963 94.586 61.7219 98.1761C64.4757 99.7641 66.0047 101.791 66.3257 103.861C66.7311 101.242 65.2022 98.5393 61.7219 96.5373C55.4963 92.9472 45.4103 92.9472 39.1847 96.5373C35.7128 98.5393 34.1839 101.242 34.5809 103.861C34.9019 101.791 36.4309 99.7641 39.1847 98.1761Z"
        fill="#72B8ED" />
    <path
        d="M63.4791 91.9261C62.9722 91.7487 62.3218 91.8417 62.0093 92.1289C61.6967 92.4161 61.8572 92.7962 62.3556 92.982C62.8624 93.1594 63.5129 93.0665 63.8254 92.7793C64.138 92.4837 63.9775 92.1035 63.4791 91.9261Z"
        fill="#163572" />
    <path opacity="0.8"
        d="M67.0018 93.6327C66.5794 93.4046 65.9121 93.4215 65.5151 93.6665C65.1181 93.9114 65.1434 94.3 65.5742 94.5281C65.9966 94.7562 66.6639 94.7393 67.0609 94.4943C67.4495 94.2493 67.4242 93.8608 67.0018 93.6327Z"
        fill="#163572" />
    <path opacity="0.6"
        d="M69.8912 95.7025C69.5533 95.4322 68.8944 95.3731 68.4213 95.5673C67.9483 95.7616 67.8469 96.1418 68.1848 96.4121C68.5227 96.6824 69.1816 96.7415 69.6546 96.5472C70.1192 96.3529 70.2291 95.9728 69.8912 95.7025Z"
        fill="#163572" />
    <path opacity="0.4"
        d="M72.0187 98.0504C71.7738 97.7463 71.1571 97.6112 70.6249 97.7548C70.1012 97.8984 69.8647 98.2532 70.1096 98.5573C70.3546 98.8614 70.9713 98.9965 71.5034 98.8529C72.0272 98.7178 72.2637 98.3545 72.0187 98.0504Z"
        fill="#163572" />
    <path opacity="0.2"
        d="M73.3205 100.593C73.1854 100.264 72.6194 100.069 72.0535 100.145C71.4875 100.221 71.1411 100.551 71.2763 100.88C71.4114 101.21 71.9774 101.404 72.5434 101.328C73.1093 101.252 73.4557 100.922 73.3205 100.593Z"
        fill="#163572" />
    <path opacity="0.1"
        d="M73.6328 103.524C73.8862 103.22 73.675 102.857 73.1513 102.713C72.6276 102.569 72.0025 102.688 71.7491 102.992C71.4957 103.296 71.7068 103.659 72.2306 103.803C72.7459 103.955 73.3794 103.828 73.6328 103.524Z"
        fill="#163572" />
    <path
        d="M75.5079 93.6584V85.5068H71.09C70.2453 84.7973 69.2908 84.1215 68.2011 83.488C58.4614 77.8621 42.6735 77.8621 32.9338 83.488C31.8441 84.1215 30.8896 84.7973 30.0449 85.5068H25.627V93.6669C25.627 97.3499 28.0598 101.033 32.9338 103.846C42.6735 109.472 58.4614 109.472 68.2011 103.846C73.0836 101.033 75.5164 97.3499 75.5079 93.6584Z"
        fill="url(#paint5_linear_403_9308)" />
    <path
        d="M25.8638 93.4547V85.5059H25.6357V93.6659C25.6357 96.9603 27.6039 100.255 31.5066 102.933C27.7476 100.153 25.8638 96.8083 25.8638 93.4547Z"
        fill="white" />
    <path
        d="M75.1193 85.5059V93.3956C75.1277 97.087 72.6949 100.778 67.8124 103.591C58.0727 109.217 42.2848 109.217 32.5452 103.591C32.0468 103.304 31.5991 103.009 31.1514 102.704C31.7089 103.101 32.3002 103.49 32.9422 103.853C42.6819 109.479 58.4698 109.479 68.2094 103.853C73.0835 101.04 75.5163 97.3489 75.5163 93.6575V85.5059H75.1193Z"
        fill="white" />
    <path
        d="M50.572 99.9086C64.3439 99.9086 75.5083 93.4604 75.5083 85.5061C75.5083 77.5518 64.3439 71.1035 50.572 71.1035C36.8001 71.1035 25.6357 77.5518 25.6357 85.5061C25.6357 93.4604 36.8001 99.9086 50.572 99.9086Z"
        fill="url(#paint6_linear_403_9308)" />
    <path
        d="M33.6104 75.4711C38.5604 72.616 45.0226 71.1715 51.5016 71.1293C44.8114 70.9856 38.0452 72.371 32.9346 75.3191C25.349 79.7032 23.6004 86.2836 27.9338 91.5124C24.2086 86.1653 26.1008 79.813 33.6104 75.4711Z"
        fill="white" />
    <path
        d="M68.21 75.3273C65.6251 73.8322 62.601 72.7509 59.3911 72.0498C62.28 72.7509 64.9831 73.773 67.3399 75.133C77.0796 80.7589 77.0796 89.8735 67.3399 95.4994C60.1851 99.6301 49.7781 100.711 40.8916 98.7769C49.9639 100.982 60.8271 99.9595 68.21 95.6936C77.9497 90.0678 77.9497 80.9532 68.21 75.3273Z"
        fill="white" />
    <path
        d="M50.4536 94.7057C59.257 94.7057 66.3936 90.5872 66.3936 85.5067C66.3936 80.4262 59.257 76.3076 50.4536 76.3076C41.6502 76.3076 34.5137 80.4262 34.5137 85.5067C34.5137 90.5872 41.6502 94.7057 50.4536 94.7057Z"
        fill="#72B8ED" />
    <path
        d="M39.1851 83.9353C45.4107 80.3452 55.4967 80.3452 61.7224 83.9353C63.7328 85.101 65.0928 86.4948 65.8024 87.9731C67.2891 84.8814 65.9375 81.4349 61.7224 79.0021C55.4967 75.4121 45.4107 75.4121 39.1851 79.0021C34.9784 81.4349 33.6268 84.8814 35.1051 87.9731C35.8147 86.4948 37.1662 85.0926 39.1851 83.9353Z"
        fill="#18D0F7" />
    <path
        d="M39.1852 82.1874C45.4108 78.5973 55.4968 78.5973 61.7225 82.1874C64.1299 83.5727 65.5913 85.3044 66.1404 87.0952C67.0104 84.2401 65.5406 81.199 61.7225 78.9943C55.4968 75.4042 45.4108 75.4042 39.1852 78.9943C35.3671 81.199 33.9057 84.2401 34.7673 87.0952C35.3164 85.3044 36.7778 83.5812 39.1852 82.1874Z"
        fill="#25BFEC" />
    <path
        d="M39.1847 80.6409C45.4103 77.0508 55.4963 77.0508 61.7219 80.6409C64.4757 82.229 66.0047 84.2563 66.3257 86.3259C66.7311 83.7072 65.2022 81.0041 61.7219 79.0021C55.4963 75.4121 45.4103 75.4121 39.1847 79.0021C35.7128 81.0041 34.1839 83.7072 34.5809 86.3259C34.9019 84.2479 36.4309 82.229 39.1847 80.6409Z"
        fill="#267FE5" />
    <path
        d="M63.4791 74.389C62.9722 74.2116 62.3218 74.3046 62.0093 74.5918C61.6967 74.879 61.8572 75.2591 62.3556 75.4449C62.8624 75.6223 63.5129 75.5294 63.8254 75.2422C64.138 74.9465 63.9775 74.5664 63.4791 74.389Z"
        fill="#163572" />
    <path
        d="M67.0018 76.0956C66.5794 75.8675 65.9121 75.8844 65.5151 76.1294C65.1181 76.3743 65.1434 76.7629 65.5742 76.991C65.9966 77.2191 66.6639 77.2022 67.0609 76.9572C67.4495 76.7038 67.4242 76.3236 67.0018 76.0956Z"
        fill="#163572" />
    <path
        d="M69.8912 78.1566C69.5533 77.8863 68.8944 77.8272 68.4213 78.0214C67.9483 78.2157 67.8469 78.5959 68.1848 78.8662C68.5227 79.1365 69.1816 79.1956 69.6546 79.0013C70.1192 78.807 70.2291 78.4269 69.8912 78.1566Z"
        fill="#163572" />
    <path
        d="M72.0187 80.5124C71.7738 80.2083 71.1571 80.0731 70.6249 80.2167C70.1012 80.3603 69.8647 80.7151 70.1096 81.0192C70.3546 81.3233 70.9713 81.4584 71.5034 81.3148C72.0272 81.1712 72.2637 80.8165 72.0187 80.5124Z"
        fill="#163572" />
    <path
        d="M73.3205 83.0559C73.1854 82.7265 72.6194 82.5322 72.0535 82.6082C71.4875 82.6843 71.1411 83.0137 71.2763 83.3431C71.4114 83.6726 71.9774 83.8669 72.5434 83.7908C73.1093 83.7064 73.4557 83.3769 73.3205 83.0559Z"
        fill="#163572" />
    <path
        d="M73.6328 85.9869C73.8862 85.6828 73.675 85.3196 73.1513 85.176C72.6276 85.0324 72.0025 85.1506 71.7491 85.4547C71.4957 85.7588 71.7068 86.1221 72.2306 86.2657C72.7459 86.4093 73.3794 86.2826 73.6328 85.9869Z"
        fill="#163572" />
    <path
        d="M75.5075 76.1125V67.9609H71.0895C70.2448 67.2514 69.2903 66.5756 68.2006 65.9421C58.4609 60.3162 42.673 60.3162 32.9333 65.9421C31.8436 66.5756 30.8891 67.2514 30.0444 67.9609H25.6265V76.121C25.6265 79.804 28.0593 83.487 32.9333 86.2999C42.673 91.9258 58.4609 91.9258 68.2006 86.2999C73.0831 83.4954 75.5159 79.804 75.5075 76.1125Z"
        fill="url(#paint7_linear_403_9308)" />
    <path
        d="M25.8633 75.9186V67.9697H25.6353V76.1298C25.6353 79.4242 27.6035 82.7186 31.5061 85.3964C27.7471 82.6173 25.8633 79.2637 25.8633 75.9186Z"
        fill="white" />
    <path
        d="M75.1193 67.9697V75.8594C75.1277 79.5509 72.6949 83.2423 67.8124 86.0553C58.0727 91.6811 42.2848 91.6811 32.5452 86.0553C32.0468 85.7681 31.5991 85.4724 31.1514 85.1683C31.7089 85.5653 32.3002 85.9539 32.9422 86.3171C42.6819 91.943 58.4698 91.943 68.2094 86.3171C73.0835 83.5042 75.5163 79.8128 75.5163 76.1213V67.9697H75.1193Z"
        fill="white" />
    <path
        d="M50.5715 82.3634C64.3434 82.3634 75.5078 75.919 75.5078 67.9693C75.5078 60.0197 64.3434 53.5752 50.5715 53.5752C36.7996 53.5752 25.6353 60.0197 25.6353 67.9693C25.6353 75.919 36.7996 82.3634 50.5715 82.3634Z"
        fill="url(#paint8_linear_403_9308)" />
    <path
        d="M33.6099 57.934C38.56 55.0789 45.0221 53.6344 51.5011 53.5921C44.8109 53.4485 38.0447 54.8339 32.9341 57.782C25.3485 62.1661 23.5999 68.7465 27.9333 73.9753C24.2081 68.6282 26.1003 62.2675 33.6099 57.934Z"
        fill="white" />
    <path
        d="M68.21 57.7824C65.6251 56.2873 62.601 55.206 59.3911 54.5049C62.28 55.206 64.9831 56.2281 67.3399 57.5881C77.0796 63.214 77.0796 72.3286 67.3399 77.9544C60.1851 82.0851 49.7781 83.1664 40.8916 81.232C49.9639 83.4367 60.8271 82.4146 68.21 78.1487C77.9497 72.5229 77.9497 63.4083 68.21 57.7824Z"
        fill="white" />
    <path
        d="M61.7221 74.4738C55.4965 78.0639 45.4105 78.0639 39.1848 74.4738C32.9592 70.8837 32.9592 65.0551 39.1848 61.465C45.4105 57.8749 55.4965 57.8749 61.7221 61.465C67.9477 65.0551 67.9477 70.8752 61.7221 74.4738Z"
        fill="#72B8ED" />
    <path
        d="M39.1846 66.3894C45.4102 62.7994 55.4962 62.7994 61.7219 66.3894C63.7323 67.5552 65.0923 68.9489 65.8019 70.4272C67.2886 67.3355 65.937 63.889 61.7219 61.4562C55.4962 57.8662 45.4102 57.8662 39.1846 61.4562C34.9779 63.889 33.6263 67.3355 35.1046 70.4272C35.8142 68.9489 37.1657 67.5552 39.1846 66.3894Z"
        fill="#18D0F7" />
    <path
        d="M39.1852 64.6493C45.4108 61.0592 55.4968 61.0592 61.7225 64.6493C64.1299 66.0346 65.5913 67.7663 66.1404 69.5571C67.0104 66.702 65.5406 63.661 61.7225 61.4562C55.4968 57.8662 45.4108 57.8662 39.1852 61.4562C35.3671 63.661 33.9057 66.702 34.7673 69.5571C35.3164 67.7579 36.7778 66.0346 39.1852 64.6493Z"
        fill="#25BFEC" />
    <path
        d="M39.1847 63.095C45.4103 59.5049 55.4963 59.5049 61.7219 63.095C64.4757 64.6831 66.0047 66.7104 66.3257 68.78C66.7311 66.1613 65.2022 63.4582 61.7219 61.4562C55.4963 57.8662 45.4103 57.8662 39.1847 61.4562C35.7128 63.4582 34.1839 66.1613 34.5809 68.78C34.9019 66.7104 36.4309 64.6831 39.1847 63.095Z"
        fill="#267FE5" />
    <path
        d="M63.4791 56.8451C62.9722 56.6677 62.3218 56.7606 62.0093 57.0478C61.6967 57.335 61.8572 57.7152 62.3556 57.901C62.8624 58.0784 63.5129 57.9855 63.8254 57.6983C64.138 57.4026 63.9775 57.0225 63.4791 56.8451Z"
        fill="#163572" />
    <path opacity="0.8"
        d="M67.0018 58.5507C66.5794 58.3226 65.9121 58.3395 65.5151 58.5844C65.1181 58.8294 65.1434 59.218 65.5742 59.4461C65.9966 59.6741 66.6639 59.6572 67.0609 59.4123C67.4495 59.1673 67.4242 58.7787 67.0018 58.5507Z"
        fill="#163572" />
    <path opacity="0.6"
        d="M69.8912 60.6214C69.5533 60.3511 68.8944 60.292 68.4213 60.4863C67.9483 60.6806 67.8469 61.0607 68.1848 61.331C68.5227 61.6013 69.1816 61.6605 69.6546 61.4662C70.1192 61.2719 70.2291 60.8918 69.8912 60.6214Z"
        fill="#163572" />
    <path opacity="0.4"
        d="M72.0187 62.9694C71.7738 62.6653 71.1571 62.5301 70.6249 62.6737C70.1012 62.8173 69.8647 63.1721 70.1096 63.4762C70.3546 63.7803 70.9713 63.9155 71.5034 63.7719C72.0272 63.6367 72.2637 63.2735 72.0187 62.9694Z"
        fill="#163572" />
    <path opacity="0.2"
        d="M73.3205 65.512C73.1854 65.1825 72.6194 64.9883 72.0535 65.0643C71.4875 65.1403 71.1411 65.4697 71.2763 65.7992C71.4114 66.1286 71.9774 66.3229 72.5434 66.2469C73.1093 66.1709 73.4557 65.8414 73.3205 65.512Z"
        fill="#163572" />
    <path opacity="0.1"
        d="M73.6328 68.443C73.8862 68.1389 73.675 67.7756 73.1513 67.632C72.6276 67.4884 72.0025 67.6067 71.7491 67.9108C71.4957 68.2149 71.7068 68.5781 72.2306 68.7217C72.7459 68.8738 73.3794 68.7471 73.6328 68.443Z"
        fill="#163572" />
    <path
        d="M75.5075 58.5754V50.4238H71.0895C70.2448 49.7143 69.2903 49.0385 68.2006 48.4049C58.4609 42.7791 42.673 42.7791 32.9333 48.4049C31.8436 49.0385 30.8891 49.7143 30.0444 50.4238H25.6265V58.5839C25.6265 62.2669 28.0593 65.9499 32.9333 68.7628C42.673 74.3887 58.4609 74.3887 68.2006 68.7628C73.0831 65.9499 75.5159 62.2669 75.5075 58.5754Z"
        fill="url(#paint9_linear_403_9308)" />
    <path
        d="M25.8633 58.3727V50.4238H25.6353V58.5839C25.6353 61.8783 27.6035 65.1727 31.5061 67.8505C27.7471 65.0714 25.8633 61.7262 25.8633 58.3727Z"
        fill="white" />
    <path
        d="M75.1193 50.4238V58.3136C75.1277 62.005 72.6949 65.6965 67.8124 68.5094C58.0727 74.1352 42.2848 74.1352 32.5452 68.5094C32.0468 68.2222 31.5991 67.9265 31.1514 67.6224C31.7089 68.0194 32.3002 68.408 32.9422 68.7712C42.6819 74.3971 58.4698 74.3971 68.2094 68.7712C73.0835 65.9583 75.5163 62.2669 75.5163 58.5754V50.4238H75.1193Z"
        fill="white" />
    <path
        d="M68.2097 60.6023C58.47 66.2282 42.6821 66.2282 32.9425 60.6023C23.2028 54.9764 23.2028 45.8619 32.9425 40.236C42.6821 34.6101 58.47 34.6101 68.2097 40.236C77.9494 45.8619 77.9494 54.9849 68.2097 60.6023Z"
        fill="url(#paint10_linear_403_9308)" />
    <path
        d="M33.6099 40.3881C38.56 37.533 45.0221 36.0885 51.5011 36.0462C44.8109 35.9026 38.0447 37.288 32.9341 40.2361C25.3485 44.6202 23.5999 51.2006 27.9333 56.4294C24.2081 51.0823 26.1003 44.73 33.6099 40.3881Z"
        fill="white" />
    <path
        d="M68.21 40.2453C65.6251 38.7501 62.601 37.6689 59.3911 36.9678C62.28 37.6689 64.9831 38.691 67.3399 40.051C77.0796 45.6769 77.0796 54.7915 67.3399 60.4173C60.1851 64.548 49.7781 65.6293 40.8916 63.6949C49.9639 65.8996 60.8271 64.8775 68.21 60.6116C77.9497 54.9857 77.9497 45.8627 68.21 40.2453Z"
        fill="white" />
    <path
        d="M50.4536 59.6217C59.257 59.6217 66.3936 55.5032 66.3936 50.4227C66.3936 45.3422 59.257 41.2236 50.4536 41.2236C41.6502 41.2236 34.5137 45.3422 34.5137 50.4227C34.5137 55.5032 41.6502 59.6217 50.4536 59.6217Z"
        fill="#72B8ED" />
    <path
        d="M39.1851 48.8513C45.4107 45.2613 55.4967 45.2613 61.7224 48.8513C63.7328 50.0171 65.0928 51.4108 65.8024 52.8891C67.2891 49.7974 65.9375 46.351 61.7224 43.9181C55.4967 40.3281 45.4107 40.3281 39.1851 43.9181C34.9784 46.351 33.6268 49.7974 35.1051 52.8891C35.8147 51.4108 37.1662 50.0086 39.1851 48.8513Z"
        fill="#0094F9" />
    <path
        d="M39.1852 47.1034C45.4108 43.5133 55.4968 43.5133 61.7225 47.1034C64.1299 48.4887 65.5913 50.2204 66.1404 52.0112C67.0104 49.1561 65.5406 46.1151 61.7225 43.9103C55.4968 40.3203 45.4108 40.3203 39.1852 43.9103C35.3671 46.1151 33.9057 49.1561 34.7673 52.0112C35.3164 50.2204 36.7778 48.4972 39.1852 47.1034Z"
        fill="#0094F9" />
    <path
        d="M39.1851 45.5569C45.4108 41.9668 55.4968 41.9668 61.7224 45.5569C64.4762 47.145 66.0051 49.1723 66.3261 51.2419C66.7316 48.6233 65.2027 45.9201 61.7224 43.9181C55.4968 40.3281 45.4108 40.3281 39.1851 43.9181C35.7133 45.9201 34.1844 48.6233 34.5814 51.2419C34.9024 49.1639 36.4313 47.145 39.1851 45.5569Z"
        fill="#0094F9" />
    <path
        d="M63.4791 39.307C62.9722 39.1296 62.3218 39.2225 62.0093 39.5097C61.6967 39.7969 61.8572 40.1771 62.3556 40.3629C62.8624 40.5403 63.5129 40.4474 63.8254 40.1602C64.138 39.8645 63.9775 39.4844 63.4791 39.307Z"
        fill="#163572" />
    <path opacity="0.8"
        d="M67.0018 41.0126C66.5794 40.7845 65.9121 40.8014 65.5151 41.0464C65.1181 41.2913 65.1434 41.6799 65.5742 41.908C65.9966 42.136 66.6639 42.1192 67.0609 41.8742C67.4495 41.6208 67.4242 41.2406 67.0018 41.0126Z"
        fill="#163572" />
    <path opacity="0.6"
        d="M69.8912 43.0736C69.5533 42.8033 68.8944 42.7441 68.4213 42.9384C67.9483 43.1327 67.8469 43.5128 68.1848 43.7832C68.5227 44.0535 69.1816 44.1126 69.6546 43.9183C70.1192 43.724 70.2291 43.3439 69.8912 43.0736Z"
        fill="#163572" />
    <path opacity="0.4"
        d="M72.0187 45.4225C71.7738 45.1184 71.1571 44.9833 70.6249 45.1269C70.1012 45.2705 69.8647 45.6253 70.1096 45.9294C70.3546 46.2335 70.9713 46.3686 71.5034 46.225C72.0272 46.0898 72.2637 45.7351 72.0187 45.4225Z"
        fill="#163572" />
    <path opacity="0.2"
        d="M73.3205 47.9739C73.1854 47.6445 72.6194 47.4502 72.0535 47.5262C71.4875 47.6022 71.1411 47.9317 71.2763 48.2611C71.4114 48.5905 71.9774 48.7848 72.5434 48.7088C73.1093 48.6243 73.4557 48.2949 73.3205 47.9739Z"
        fill="#163572" />
    <path opacity="0.1"
        d="M73.6328 50.9049C73.8862 50.6008 73.675 50.2375 73.1513 50.0939C72.6276 49.9503 72.0025 50.0686 71.7491 50.3727C71.4957 50.6768 71.7068 51.04 72.2306 51.1836C72.7459 51.3272 73.3794 51.2005 73.6328 50.9049Z"
        fill="#163572" />
    <path
        d="M50.9275 70.352C51.7906 70.352 52.4902 69.6524 52.4902 68.7893C52.4902 67.9262 51.7906 67.2266 50.9275 67.2266C50.0644 67.2266 49.3647 67.9262 49.3647 68.7893C49.3647 69.6524 50.0644 70.352 50.9275 70.352Z"
        fill="url(#paint11_radial_403_9308)" />
    <path
        d="M50.9271 69.7697C50.1584 69.7697 49.5249 69.2206 49.3897 68.4941C49.3728 68.5871 49.356 68.6884 49.356 68.7898C49.356 69.6514 50.0571 70.3525 50.9187 70.3525C51.7803 70.3525 52.4814 69.6514 52.4814 68.7898C52.4814 68.6884 52.473 68.5955 52.4477 68.4941C52.3294 69.2206 51.6958 69.7697 50.9271 69.7697Z"
        fill="url(#paint12_radial_403_9308)" />
    <path
        d="M50.9275 87.8872C51.7906 87.8872 52.4902 87.1875 52.4902 86.3245C52.4902 85.4614 51.7906 84.7617 50.9275 84.7617C50.0644 84.7617 49.3647 85.4614 49.3647 86.3245C49.3647 87.1875 50.0644 87.8872 50.9275 87.8872Z"
        fill="url(#paint13_radial_403_9308)" />
    <path
        d="M50.9271 87.3048C50.1584 87.3048 49.5249 86.7558 49.3897 86.0293C49.3728 86.1222 49.356 86.2236 49.356 86.3249C49.356 87.1866 50.0571 87.8877 50.9187 87.8877C51.7803 87.8877 52.4814 87.1866 52.4814 86.3249C52.4814 86.2236 52.473 86.1307 52.4477 86.0293C52.3294 86.7558 51.6958 87.3048 50.9271 87.3048Z"
        fill="url(#paint14_radial_403_9308)" />
    <path
        d="M50.9275 105.433C51.7906 105.433 52.4902 104.733 52.4902 103.87C52.4902 103.007 51.7906 102.308 50.9275 102.308C50.0644 102.308 49.3647 103.007 49.3647 103.87C49.3647 104.733 50.0644 105.433 50.9275 105.433Z"
        fill="url(#paint15_radial_403_9308)" />
    <path
        d="M50.9271 104.851C50.1584 104.851 49.5249 104.302 49.3897 103.575C49.3728 103.668 49.356 103.769 49.356 103.871C49.356 104.732 50.0571 105.434 50.9187 105.434C51.7803 105.434 52.4814 104.732 52.4814 103.871C52.4814 103.769 52.473 103.677 52.4477 103.575C52.3294 104.302 51.6958 104.851 50.9271 104.851Z"
        fill="url(#paint16_radial_403_9308)" />
    <path
        d="M50.9275 122.969C51.7906 122.969 52.4902 122.27 52.4902 121.406C52.4902 120.543 51.7906 119.844 50.9275 119.844C50.0644 119.844 49.3647 120.543 49.3647 121.406C49.3647 122.27 50.0644 122.969 50.9275 122.969Z"
        fill="url(#paint17_radial_403_9308)" />
    <path
        d="M50.9271 122.387C50.1584 122.387 49.5249 121.838 49.3897 121.111C49.3728 121.204 49.356 121.306 49.356 121.407C49.356 122.269 50.0571 122.97 50.9187 122.97C51.7803 122.97 52.4814 122.269 52.4814 121.407C52.4814 121.306 52.473 121.213 52.4477 121.111C52.3294 121.838 51.6958 122.387 50.9271 122.387Z"
        fill="url(#paint18_radial_403_9308)" />
    <path
        d="M50.9275 140.514C51.7906 140.514 52.4902 139.814 52.4902 138.951C52.4902 138.088 51.7906 137.389 50.9275 137.389C50.0644 137.389 49.3647 138.088 49.3647 138.951C49.3647 139.814 50.0644 140.514 50.9275 140.514Z"
        fill="url(#paint19_radial_403_9308)" />
    <path
        d="M50.9271 139.932C50.1584 139.932 49.5249 139.383 49.3897 138.656C49.3728 138.749 49.356 138.851 49.356 138.952C49.356 139.814 50.0571 140.515 50.9187 140.515C51.7803 140.515 52.4814 139.814 52.4814 138.952C52.4814 138.851 52.473 138.758 52.4477 138.656C52.3294 139.383 51.6958 139.932 50.9271 139.932Z"
        fill="url(#paint20_radial_403_9308)" />
    <path opacity="0.3"
        d="M184.766 226.829C183.355 226.829 181.936 226.508 180.838 225.874L141.136 202.914C140.595 202.602 140.409 201.909 140.722 201.369C141.034 200.828 141.735 200.642 142.267 200.955L181.969 223.914C183.482 224.793 186.041 224.793 187.562 223.914L313.105 151.935C313.62 151.64 313.924 151.276 313.924 150.981C313.924 150.677 313.611 150.322 313.096 150.026L273.394 127.067C272.853 126.754 272.668 126.061 272.98 125.521C273.293 124.98 273.985 124.794 274.526 125.107L314.228 148.066C315.47 148.784 316.188 149.849 316.188 150.989C316.188 152.13 315.47 153.194 314.228 153.912L188.685 225.891C187.595 226.516 186.185 226.829 184.766 226.829Z"
        fill="#6EE8FC" />
    <path
        d="M184.765 225.925C183.506 225.925 182.247 225.646 181.293 225.097L141.591 202.137L141.819 201.749L181.521 224.708C183.312 225.747 186.226 225.747 188.017 224.708L313.56 152.738C314.388 152.265 314.835 151.64 314.835 150.989C314.835 150.339 314.379 149.722 313.56 149.241L273.858 126.281L274.086 125.893L313.788 148.852C314.759 149.41 315.292 150.17 315.292 150.989C315.292 151.809 314.759 152.569 313.788 153.126L188.245 225.097C187.282 225.646 186.023 225.925 184.765 225.925Z"
        fill="#2F66F6" />
    <path
        d="M279.255 129.136C278.977 129.626 278.352 129.786 277.862 129.507C277.372 129.229 277.211 128.604 277.49 128.114C277.769 127.624 278.394 127.463 278.884 127.742C279.374 128.029 279.534 128.654 279.255 129.136Z"
        fill="white" />
    <path
        d="M284.544 132.193C284.265 132.683 283.64 132.844 283.15 132.565C282.66 132.286 282.499 131.661 282.778 131.171C283.057 130.681 283.682 130.521 284.172 130.8C284.662 131.087 284.822 131.712 284.544 132.193Z"
        fill="white" />
    <path
        d="M289.832 135.252C289.553 135.742 288.928 135.902 288.438 135.624C287.948 135.345 287.787 134.72 288.066 134.23C288.345 133.74 288.97 133.579 289.46 133.858C289.95 134.145 290.11 134.77 289.832 135.252Z"
        fill="white" />
    <path
        d="M295.12 138.309C294.841 138.798 294.216 138.959 293.726 138.68C293.236 138.401 293.075 137.776 293.354 137.286C293.633 136.796 294.258 136.636 294.748 136.915C295.238 137.202 295.398 137.827 295.12 138.309Z"
        fill="white" />
    <path
        d="M300.408 141.367C300.129 141.857 299.504 142.018 299.014 141.739C298.524 141.46 298.364 140.835 298.642 140.345C298.921 139.855 299.546 139.695 300.036 139.973C300.526 140.261 300.687 140.886 300.408 141.367Z"
        fill="white" />
    <path
        d="M305.695 144.425C305.417 144.915 304.791 145.075 304.302 144.796C303.812 144.518 303.651 143.893 303.93 143.403C304.209 142.913 304.834 142.752 305.324 143.031C305.814 143.318 305.974 143.943 305.695 144.425Z"
        fill="white" />
    <path
        d="M310.983 147.483C310.705 147.973 310.08 148.134 309.59 147.855C309.1 147.576 308.939 146.951 309.218 146.461C309.497 145.971 310.122 145.811 310.612 146.09C311.102 146.377 311.262 147.002 310.983 147.483Z"
        fill="white" />
    <path
        d="M314.979 151.478C314.709 151.385 314.498 151.216 314.329 151.09C314.16 150.963 314.042 150.887 314.008 150.786C313.957 150.6 314.067 150.034 314.439 149.62C314.641 149.426 314.912 149.324 315.199 149.4C315.494 149.459 315.799 149.738 315.942 150.161C316.077 150.591 315.967 151.039 315.748 151.276C315.537 151.521 315.241 151.563 314.979 151.478Z"
        fill="white" />
    <path
        d="M310.096 154.968C309.817 154.479 309.986 153.862 310.476 153.575C310.966 153.296 311.583 153.465 311.87 153.955C312.149 154.445 311.98 155.061 311.49 155.349C311 155.627 310.375 155.458 310.096 154.968Z"
        fill="white" />
    <path
        d="M304.8 158.01C304.522 157.52 304.69 156.903 305.18 156.616C305.67 156.337 306.287 156.506 306.574 156.996C306.853 157.486 306.684 158.102 306.194 158.39C305.704 158.66 305.079 158.491 304.8 158.01Z"
        fill="white" />
    <path
        d="M299.496 161.041C299.217 160.551 299.386 159.934 299.876 159.647C300.366 159.368 300.982 159.537 301.27 160.027C301.548 160.517 301.379 161.134 300.889 161.421C300.399 161.7 299.783 161.531 299.496 161.041Z"
        fill="white" />
    <path
        d="M294.199 164.083C293.92 163.593 294.089 162.976 294.579 162.689C295.069 162.41 295.685 162.579 295.973 163.069C296.251 163.559 296.082 164.176 295.593 164.463C295.103 164.742 294.477 164.573 294.199 164.083Z"
        fill="white" />
    <path
        d="M288.902 167.124C288.624 166.634 288.793 166.017 289.282 165.73C289.772 165.451 290.389 165.62 290.676 166.11C290.955 166.6 290.786 167.217 290.296 167.504C289.798 167.774 289.181 167.605 288.902 167.124Z"
        fill="white" />
    <path
        d="M283.597 170.156C283.318 169.666 283.487 169.049 283.977 168.762C284.467 168.483 285.084 168.652 285.371 169.142C285.65 169.632 285.481 170.249 284.991 170.536C284.501 170.815 283.876 170.646 283.597 170.156Z"
        fill="white" />
    <path
        d="M278.302 173.196C278.023 172.706 278.192 172.089 278.682 171.802C279.172 171.523 279.788 171.692 280.076 172.182C280.354 172.672 280.185 173.289 279.696 173.576C279.206 173.855 278.581 173.686 278.302 173.196Z"
        fill="white" />
    <path
        d="M273.005 176.238C272.726 175.748 272.895 175.131 273.385 174.844C273.875 174.565 274.492 174.734 274.779 175.224C275.058 175.714 274.889 176.331 274.399 176.618C273.9 176.897 273.284 176.728 273.005 176.238Z"
        fill="white" />
    <path
        d="M267.7 179.27C267.421 178.78 267.59 178.164 268.08 177.876C268.57 177.598 269.186 177.767 269.474 178.257C269.752 178.747 269.583 179.363 269.093 179.65C268.604 179.929 267.978 179.76 267.7 179.27Z"
        fill="white" />
    <path
        d="M262.403 182.31C262.125 181.82 262.293 181.204 262.783 180.916C263.273 180.638 263.89 180.807 264.177 181.297C264.456 181.787 264.287 182.403 263.797 182.69C263.307 182.969 262.682 182.8 262.403 182.31Z"
        fill="white" />
    <path
        d="M257.107 185.352C256.828 184.862 256.997 184.246 257.487 183.958C257.977 183.68 258.594 183.849 258.881 184.339C259.16 184.829 258.991 185.445 258.501 185.732C258.002 186.011 257.386 185.842 257.107 185.352Z"
        fill="white" />
    <path
        d="M251.802 188.385C251.523 187.895 251.692 187.278 252.182 186.991C252.672 186.712 253.289 186.881 253.576 187.371C253.855 187.861 253.686 188.477 253.196 188.765C252.706 189.043 252.081 188.874 251.802 188.385Z"
        fill="white" />
    <path
        d="M246.505 191.426C246.227 190.936 246.396 190.319 246.886 190.032C247.375 189.753 247.992 189.922 248.279 190.412C248.558 190.902 248.389 191.518 247.899 191.806C247.409 192.084 246.784 191.915 246.505 191.426Z"
        fill="white" />
    <path
        d="M241.201 194.467C240.922 193.977 241.091 193.36 241.581 193.073C242.071 192.794 242.687 192.963 242.975 193.453C243.253 193.943 243.084 194.559 242.594 194.847C242.105 195.125 241.488 194.956 241.201 194.467Z"
        fill="white" />
    <path
        d="M235.905 197.508C235.626 197.018 235.795 196.401 236.285 196.114C236.775 195.835 237.391 196.004 237.679 196.494C237.957 196.984 237.789 197.6 237.299 197.888C236.809 198.158 236.184 197.989 235.905 197.508Z"
        fill="white" />
    <path
        d="M230.608 200.54C230.329 200.05 230.498 199.433 230.988 199.146C231.478 198.867 232.095 199.036 232.382 199.526C232.661 200.016 232.492 200.633 232.002 200.92C231.503 201.199 230.887 201.03 230.608 200.54Z"
        fill="white" />
    <path
        d="M225.303 203.581C225.024 203.091 225.193 202.474 225.683 202.187C226.173 201.908 226.789 202.077 227.077 202.567C227.355 203.057 227.186 203.674 226.697 203.961C226.207 204.24 225.581 204.071 225.303 203.581Z"
        fill="white" />
    <path
        d="M220.007 206.623C219.728 206.133 219.897 205.516 220.387 205.229C220.877 204.95 221.494 205.119 221.781 205.609C222.06 206.099 221.891 206.716 221.401 207.003C220.911 207.273 220.286 207.104 220.007 206.623Z"
        fill="white" />
    <path
        d="M214.71 209.655C214.432 209.165 214.601 208.548 215.091 208.261C215.581 207.982 216.197 208.151 216.484 208.641C216.763 209.131 216.594 209.748 216.104 210.035C215.606 210.314 214.989 210.145 214.71 209.655Z"
        fill="white" />
    <path
        d="M209.406 212.696C209.127 212.206 209.296 211.589 209.786 211.302C210.276 211.023 210.892 211.192 211.18 211.682C211.458 212.172 211.29 212.789 210.8 213.076C210.31 213.355 209.685 213.186 209.406 212.696Z"
        fill="white" />
    <path
        d="M204.109 215.737C203.83 215.247 203.999 214.63 204.489 214.343C204.979 214.064 205.596 214.233 205.883 214.723C206.162 215.213 205.993 215.83 205.503 216.117C205.013 216.387 204.388 216.219 204.109 215.737Z"
        fill="white" />
    <path
        d="M198.813 218.769C198.534 218.279 198.703 217.663 199.193 217.375C199.683 217.097 200.3 217.266 200.587 217.756C200.866 218.246 200.697 218.862 200.207 219.149C199.708 219.428 199.092 219.259 198.813 218.769Z"
        fill="white" />
    <path
        d="M193.508 221.811C193.229 221.321 193.398 220.705 193.888 220.417C194.378 220.139 194.995 220.308 195.282 220.798C195.56 221.288 195.392 221.904 194.902 222.191C194.412 222.47 193.787 222.301 193.508 221.811Z"
        fill="white" />
    <path
        d="M188.211 224.851C187.933 224.361 188.102 223.745 188.592 223.458C189.081 223.179 189.698 223.348 189.985 223.838C190.264 224.328 190.095 224.944 189.605 225.231C189.115 225.502 188.49 225.333 188.211 224.851Z"
        fill="white" />
    <path
        d="M182.29 225.29C182.492 224.766 182.999 224.471 183.464 224.555C183.928 224.648 184.3 225.113 184.283 225.679C184.266 226.236 183.726 226.676 183.084 226.549C182.433 226.439 182.087 225.814 182.29 225.29Z"
        fill="white" />
    <path
        d="M176.96 222.326C177.238 221.837 177.863 221.676 178.353 221.955C178.843 222.234 179.004 222.859 178.725 223.349C178.446 223.839 177.821 223.999 177.331 223.72C176.841 223.433 176.672 222.808 176.96 222.326Z"
        fill="white" />
    <path
        d="M171.671 219.268C171.95 218.778 172.575 218.617 173.065 218.896C173.555 219.175 173.716 219.8 173.437 220.29C173.158 220.78 172.533 220.94 172.043 220.662C171.553 220.374 171.384 219.749 171.671 219.268Z"
        fill="white" />
    <path
        d="M166.384 216.21C166.663 215.72 167.288 215.56 167.778 215.839C168.268 216.117 168.428 216.742 168.149 217.232C167.871 217.722 167.245 217.883 166.756 217.604C166.266 217.317 166.097 216.692 166.384 216.21Z"
        fill="white" />
    <path
        d="M161.095 213.153C161.374 212.663 161.999 212.502 162.489 212.781C162.979 213.06 163.139 213.685 162.861 214.175C162.582 214.665 161.957 214.825 161.467 214.546C160.977 214.259 160.808 213.634 161.095 213.153Z"
        fill="white" />
    <path
        d="M155.808 210.095C156.086 209.605 156.711 209.445 157.201 209.723C157.691 210.002 157.852 210.627 157.573 211.117C157.294 211.607 156.669 211.768 156.179 211.489C155.689 211.202 155.52 210.577 155.808 210.095Z"
        fill="white" />
    <path
        d="M150.52 207.036C150.798 206.546 151.423 206.386 151.913 206.665C152.403 206.943 152.564 207.569 152.285 208.059C152.006 208.548 151.381 208.709 150.891 208.43C150.401 208.143 150.232 207.518 150.52 207.036Z"
        fill="white" />
    <path
        d="M145.231 203.979C145.51 203.489 146.135 203.328 146.625 203.607C147.115 203.886 147.276 204.511 146.997 205.001C146.718 205.491 146.093 205.651 145.603 205.373C145.113 205.085 144.944 204.46 145.231 203.979Z"
        fill="white" />
    <path opacity="0.6"
        d="M117.653 236.154L26.3042 183.41C24.1248 182.151 24.4035 179.955 26.9124 178.502L212.659 71.2639C215.176 69.811 218.977 69.6505 221.157 70.9092L312.505 123.654C314.685 124.912 314.406 127.109 311.897 128.562L126.151 235.799C123.633 237.252 119.832 237.404 117.653 236.154Z"
        fill="#0C0F38" fill-opacity="0.5" />
    <path
        d="M313.975 104.353L309.321 107.15L221.157 56.2549C218.978 54.9962 215.176 55.1567 212.659 56.6096L29.8352 162.158L24.8345 159.919V166.728C24.8767 167.488 25.3582 168.206 26.2958 168.747L117.644 221.491C119.824 222.75 123.625 222.59 126.142 221.137L311.889 113.899C313.299 113.079 314.009 112.032 313.967 111.044V104.353H313.975Z"
        fill="url(#paint21_linear_403_9308)" />
    <path opacity="0.5"
        d="M29.8352 162.157L24.8345 159.918V166.727C24.8767 167.487 25.3582 168.205 26.2958 168.745L26.4901 168.855C26.2198 168.5 26.0762 168.112 26.0509 167.715V160.906L31.0516 163.145L38.1135 159.065C37.7925 158.685 37.4631 158.305 37.1168 157.941L29.8352 162.157Z"
        fill="#11183C" />
    <path opacity="0.5"
        d="M309.321 107.157L266.046 82.1699C265.606 82.4571 265.176 82.7359 264.736 83.0231L308.147 108.086L312.801 105.29V111.972C312.826 112.597 312.556 113.247 311.999 113.839C313.35 113.028 314.026 112.006 313.984 111.043V104.361L309.321 107.157Z"
        fill="#11183C" />
    <path
        d="M117.653 214.75L26.3042 162.005C24.1248 160.747 24.4035 158.55 26.9124 157.097L212.659 49.8596C215.176 48.4067 218.977 48.2462 221.157 49.5049L312.505 102.249C314.685 103.508 314.406 105.704 311.897 107.157L126.151 214.395C123.633 215.848 119.832 216.009 117.653 214.75Z"
        fill="url(#paint22_linear_403_9308)" />
    <path opacity="0.5"
        d="M118.92 214.749L27.5712 162.005C25.3918 160.746 25.6705 158.55 28.1794 157.097L213.926 49.859C215.142 49.1579 216.654 48.7693 218.141 48.6848C216.283 48.5581 214.221 48.9636 212.667 49.859L26.9123 157.105C24.395 158.558 24.1247 160.754 26.3041 162.013L117.653 214.758C118.776 215.408 120.339 215.67 121.935 215.585C120.803 215.501 119.747 215.222 118.92 214.749Z"
        fill="#11183C" />
    <path opacity="0.5"
        d="M312.505 102.249L221.157 49.5043C220.033 48.8539 218.47 48.592 216.882 48.6765C218.031 48.7525 219.104 49.0228 219.94 49.5043L311.289 102.249C313.468 103.508 313.189 105.704 310.681 107.157L124.926 214.395C123.709 215.096 122.197 215.484 120.71 215.569C122.56 215.687 124.596 215.29 126.15 214.395L311.897 107.157C314.414 105.704 314.685 103.508 312.505 102.249Z"
        fill="#11183C" />
    <path d="M128.076 211.507L31.9214 155.991L209.609 53.3994L305.764 108.915L128.076 211.507Z"
        fill="url(#paint23_radial_403_9308)" />
    <path d="M137.892 192.467L64.9082 150.323L199.794 72.4482L272.786 114.583L137.892 192.467Z" fill="#72B8ED" />
    <path
        d="M266.628 81.9836L256.263 75.9945C255.875 75.7665 255.917 75.3779 256.373 75.116C256.829 74.8542 257.505 74.8288 257.902 75.0569L268.267 81.046C268.656 81.2741 268.613 81.6626 268.157 81.9245C267.701 82.1864 267.017 82.2117 266.628 81.9836Z"
        fill="#0A0F29" />
    <path
        d="M112.635 89.9417C112.635 89.9417 117.095 40.6773 126.649 46.2187C136.203 51.7517 131.59 80.3118 141.499 86.039C151.256 91.6733 145.942 4.47243 160.666 12.9704C171.233 19.0777 167.854 85.3041 177.29 90.7526C187.883 96.8684 184.85 71.9152 194.235 73.0472C199.625 73.6976 202.454 89.8994 210.091 93.5571C217.735 97.2147 214.086 27.0266 226.174 34.004C238.406 41.0659 241.937 164.666 241.937 164.666L112.635 89.9417Z"
        fill="url(#paint24_linear_403_9308)" />
    <path
        d="M127.072 45.7539C127.072 46.8774 126.159 47.7812 125.044 47.7812C123.929 47.7812 123.017 46.8689 123.017 45.7539C123.017 44.6304 123.929 43.7266 125.044 43.7266C126.159 43.7266 127.072 44.6389 127.072 45.7539Z"
        fill="white" />
    <path
        d="M160.759 12.3877C160.759 13.5112 159.846 14.415 158.731 14.415C157.616 14.415 156.704 13.5027 156.704 12.3877C156.704 11.2642 157.616 10.3604 158.731 10.3604C159.846 10.3604 160.759 11.2642 160.759 12.3877Z"
        fill="white" />
    <path
        d="M195.993 72.8946C195.993 74.0181 195.08 74.9219 193.965 74.9219C192.842 74.9219 191.938 74.0096 191.938 72.8946C191.938 71.7711 192.85 70.8672 193.965 70.8672C195.089 70.8588 195.993 71.7711 195.993 72.8946Z"
        fill="white" />
    <path
        d="M226.614 33.3115C226.614 34.435 225.701 35.3389 224.586 35.3389C223.463 35.3389 222.559 34.4266 222.559 33.3115C222.559 32.188 223.471 31.2842 224.586 31.2842C225.71 31.2842 226.614 32.188 226.614 33.3115Z"
        fill="white" />
    <path opacity="0.8"
        d="M82.9766 104.581C82.9766 104.581 86.3048 55.6456 93.4343 59.7848C100.564 63.9239 97.1173 92.5685 104.517 96.8428C111.799 101.05 107.828 25.8184 118.827 32.1623C126.716 36.7154 124.191 61.8966 131.236 65.9597C139.142 70.5212 137.774 58.0109 143.881 61.5334C149.98 65.0559 150.014 80.9874 155.716 83.5469C161.418 86.1064 158.698 29.1044 167.719 34.3079C176.851 39.579 179.486 160.366 179.486 160.366L82.9766 104.581Z"
        fill="url(#paint25_linear_403_9308)" />
    <path
        d="M94.8784 59.5664C94.8784 60.6899 93.9661 61.5937 92.8511 61.5937C91.7276 61.5937 90.8237 60.6814 90.8237 59.5664C90.8237 58.4429 91.736 57.5391 92.8511 57.5391C93.9661 57.5391 94.8784 58.4429 94.8784 59.5664Z"
        fill="white" />
    <path
        d="M119.655 31.7744C119.655 32.8979 118.742 33.8017 117.627 33.8017C116.504 33.8017 115.6 32.8894 115.6 31.7744C115.6 30.6509 116.512 29.7471 117.627 29.7471C118.751 29.7471 119.655 30.6594 119.655 31.7744Z"
        fill="white" />
    <path
        d="M143.966 61.0186C143.966 62.142 143.054 63.0459 141.938 63.0459C140.823 63.0459 139.911 62.1336 139.911 61.0186C139.911 59.8951 140.823 58.9912 141.938 58.9912C143.054 58.9912 143.966 59.8951 143.966 61.0186Z"
        fill="white" />
    <path
        d="M168.53 34.1309C168.53 35.2544 167.618 36.1582 166.503 36.1582C165.379 36.1582 164.476 35.246 164.476 34.1309C164.476 33.0159 165.388 32.1036 166.503 32.1036C167.626 32.0951 168.53 33.0074 168.53 34.1309Z"
        fill="white" />
    <path opacity="0.8" d="M122.206 164.133L107.592 155.703L112.702 152.755L127.308 161.185L122.206 164.133Z"
        fill="white" />
    <path opacity="0.8" d="M131.303 158.955L116.697 150.516L121.808 147.568L136.413 155.999L131.303 158.955Z"
        fill="#2F66F6" />
    <path opacity="0.4"
        d="M92.8511 110.713C92.6146 110.713 92.4287 110.527 92.4287 110.291V59.5649C92.4287 59.3284 92.6146 59.1426 92.8511 59.1426C93.0876 59.1426 93.2734 59.3284 93.2734 59.5649V110.291C93.2734 110.519 93.0791 110.713 92.8511 110.713Z"
        fill="white" />
    <path opacity="0.4"
        d="M117.626 125.032C117.39 125.032 117.204 124.846 117.204 124.609V31.7739C117.204 31.5374 117.39 31.3516 117.626 31.3516C117.863 31.3516 118.049 31.5374 118.049 31.7739V124.609C118.049 124.846 117.863 125.032 117.626 125.032Z"
        fill="white" />
    <path opacity="0.4"
        d="M141.938 139.087C141.702 139.087 141.516 138.901 141.516 138.664V61.0171C141.516 60.7806 141.702 60.5947 141.938 60.5947C142.175 60.5947 142.361 60.7806 142.361 61.0171V138.664C142.361 138.892 142.167 139.087 141.938 139.087Z"
        fill="white" />
    <path opacity="0.4"
        d="M166.503 153.178C166.266 153.178 166.081 152.992 166.081 152.755V34.3081C166.081 34.0716 166.266 33.8857 166.503 33.8857C166.739 33.8857 166.925 34.0716 166.925 34.3081V152.764C166.925 152.992 166.739 153.178 166.503 153.178Z"
        fill="white" />
    <path
        d="M62.9226 81.1815C62.7874 81.1815 62.6607 81.1223 62.5763 81.0041C62.4411 80.8098 62.4833 80.5479 62.6776 80.4128L92.564 59.244L117.314 31.4948C117.399 31.4019 117.509 31.3596 117.635 31.3512C117.762 31.3512 117.872 31.4103 117.956 31.5032L141.955 60.3759L166.199 33.8431L194.978 0.147048C195.13 -0.0303446 195.401 -0.047237 195.578 0.0963662C195.755 0.248417 195.772 0.518728 195.62 0.69612L166.832 34.4091L142.259 61.3135C142.175 61.4065 142.065 61.4572 141.938 61.4487C141.82 61.4487 141.702 61.3896 141.626 61.2967L117.627 32.4324L93.1722 59.8522C93.1468 59.8775 93.1299 59.8944 93.1046 59.9198L63.176 81.1139C63.0915 81.1561 63.0071 81.1815 62.9226 81.1815Z"
        fill="url(#paint26_linear_403_9308)" />
    <path opacity="0.4"
        d="M326.494 187.92C309.54 192.211 288.566 186.577 279.654 175.334C270.742 164.09 277.255 151.504 294.208 147.213C311.162 142.922 332.136 148.556 341.048 159.799C349.96 171.043 343.447 183.629 326.494 187.92Z"
        fill="url(#paint27_radial_403_9308)" />
    <path opacity="0.4"
        d="M279.628 184.491C301.429 184.491 319.102 174.287 319.102 161.7C319.102 149.113 301.429 138.909 279.628 138.909C257.827 138.909 240.154 149.113 240.154 161.7C240.154 174.287 257.827 184.491 279.628 184.491Z"
        fill="url(#paint28_radial_403_9308)" />
    <path opacity="0.6"
        d="M290.153 171.534L279.789 165.553C278.53 164.826 278.69 163.559 280.143 162.715L290.128 156.937C291.581 156.101 293.777 156.008 295.036 156.734L305.401 162.715C306.659 163.441 306.499 164.708 305.046 165.553L295.061 171.331C293.608 172.167 291.412 172.26 290.153 171.534Z"
        fill="#0C0F38" />
    <path
        d="M292.231 173.73C291.235 173.73 290.289 173.527 289.579 173.122L277.288 166.034C276.553 165.612 276.156 165.021 276.156 164.362C276.156 163.585 276.722 162.816 277.711 162.242L289.554 155.391C291.344 154.36 294.064 154.251 295.627 155.146L307.918 162.233C308.653 162.656 309.05 163.247 309.05 163.914C309.05 164.691 308.484 165.46 307.496 166.034L295.653 172.885C294.673 173.443 293.422 173.73 292.231 173.73ZM292.966 155.028C291.868 155.028 290.702 155.298 289.799 155.822L277.956 162.672C277.128 163.154 276.655 163.762 276.655 164.362C276.655 164.835 276.967 165.274 277.533 165.604L289.824 172.691C291.243 173.51 293.743 173.4 295.399 172.446L307.242 165.595C308.07 165.114 308.543 164.505 308.543 163.914C308.543 163.441 308.23 163.002 307.665 162.672L295.374 155.585C294.723 155.213 293.87 155.028 292.966 155.028Z"
        fill="url(#paint29_linear_403_9308)" />
    <path
        d="M306.254 152.476H297.477L295.044 151.074C293.786 150.347 291.589 150.44 290.136 151.277L287.729 152.679H278.944V158.567C278.91 159.057 279.18 159.53 279.788 159.884L290.153 165.865C291.412 166.591 293.608 166.499 295.061 165.662L305.046 159.884C305.797 159.445 306.203 158.896 306.245 158.364H306.254V152.476Z"
        fill="url(#paint30_linear_403_9308)" />
    <path
        d="M305.046 159.479L295.061 165.257C293.608 166.094 291.412 166.187 290.153 165.46L279.788 159.479C279.18 159.133 278.91 158.652 278.944 158.162V158.567C278.91 159.057 279.18 159.53 279.788 159.885L290.153 165.866C291.412 166.592 293.608 166.499 295.061 165.663L305.046 159.885C305.797 159.446 306.203 158.897 306.245 158.364H306.254V157.959H306.245C306.203 158.491 305.806 159.049 305.046 159.479Z"
        fill="url(#paint31_linear_403_9308)" />
    <path
        d="M279.501 158.981V153.093H288.269L290.677 151.691C292.13 150.855 294.326 150.762 295.585 151.488L298.018 152.89H306.237V152.485H297.46L295.027 151.083C293.769 150.356 291.572 150.449 290.119 151.285L287.712 152.688H278.944V158.575C278.91 159.065 279.18 159.538 279.788 159.893L279.89 159.952C279.611 159.657 279.476 159.327 279.501 158.981Z"
        fill="url(#paint32_linear_403_9308)" />
    <path
        d="M290.153 159.977L279.789 153.996C278.53 153.27 278.69 152.003 280.143 151.158L290.128 145.38C291.581 144.544 293.777 144.451 295.036 145.177L305.401 151.158C306.659 151.885 306.499 153.152 305.046 153.996L295.061 159.774C293.608 160.611 291.412 160.703 290.153 159.977Z"
        fill="url(#paint33_linear_403_9308)" />
    <path
        d="M305.401 151.158L295.036 145.177C294.386 144.797 293.482 144.645 292.561 144.696C293.228 144.738 293.862 144.89 294.343 145.177L304.708 151.158C305.967 151.885 305.806 153.152 304.353 153.996L294.369 159.774C293.668 160.18 292.798 160.408 291.936 160.459C293 160.526 294.166 160.29 295.061 159.774L305.046 153.996C306.499 153.16 306.66 151.885 305.401 151.158Z"
        fill="url(#paint34_linear_403_9308)" />
    <path
        d="M290.947 159.977L280.583 153.997C279.324 153.27 279.484 152.003 280.937 151.158L290.922 145.38C291.615 144.983 292.468 144.755 293.313 144.705C292.231 144.629 291.032 144.857 290.128 145.38L280.143 151.158C278.69 151.995 278.53 153.27 279.789 153.997L290.153 159.977C290.812 160.357 291.733 160.51 292.671 160.45C292.029 160.408 291.42 160.248 290.947 159.977Z"
        fill="url(#paint35_linear_403_9308)" />
    <path
        d="M297.663 155.508C294.867 157.122 290.33 157.122 287.526 155.508C284.721 153.895 284.73 151.276 287.526 149.654C290.322 148.041 294.858 148.041 297.663 149.654C300.459 151.268 300.459 153.886 297.663 155.508Z"
        fill="#50ACE9" />
    <path
        d="M287.527 151.191C290.323 149.578 294.859 149.578 297.663 151.191C298.719 151.8 299.378 152.56 299.64 153.346C300.062 152.045 299.412 150.651 297.663 149.646C294.867 148.032 290.331 148.032 287.527 149.646C285.787 150.651 285.128 152.045 285.558 153.346C285.82 152.56 286.471 151.808 287.527 151.191Z"
        fill="#267FE5" />
    <path opacity="0.4"
        d="M286.336 211.708C269.382 215.999 248.408 210.365 239.496 199.122C230.584 187.879 237.097 175.292 254.051 171.001C271.004 166.71 291.979 172.344 300.891 183.587C309.811 194.822 303.29 207.417 286.336 211.708Z"
        fill="url(#paint36_radial_403_9308)" />
    <path opacity="0.4"
        d="M239.479 208.27C261.28 208.27 278.953 198.066 278.953 185.479C278.953 172.892 261.28 162.688 239.479 162.688C217.678 162.688 200.005 172.892 200.005 185.479C200.005 198.066 217.678 208.27 239.479 208.27Z"
        fill="url(#paint37_radial_403_9308)" />
    <path opacity="0.6"
        d="M250.004 195.312L239.639 189.331C238.38 188.605 238.541 187.338 239.994 186.493L249.979 180.715C251.431 179.879 253.628 179.786 254.886 180.512L265.251 186.493C266.51 187.219 266.349 188.487 264.896 189.331L254.912 195.109C253.459 195.945 251.263 196.038 250.004 195.312Z"
        fill="#0C0F38" />
    <path
        d="M252.074 197.516C251.077 197.516 250.131 197.313 249.421 196.908L237.13 189.821C236.396 189.398 235.999 188.807 235.999 188.148C235.999 187.371 236.564 186.602 237.553 186.028L249.396 179.177C251.187 178.146 253.907 178.037 255.469 178.932L267.76 186.019C268.495 186.442 268.892 187.033 268.892 187.7C268.892 188.477 268.326 189.246 267.338 189.821L255.495 196.671C254.523 197.229 253.265 197.516 252.074 197.516ZM252.809 178.814C251.71 178.814 250.545 179.084 249.641 179.608L237.798 186.459C236.97 186.94 236.497 187.548 236.497 188.148C236.497 188.621 236.809 189.06 237.375 189.39L249.666 196.477C251.085 197.296 253.586 197.187 255.241 196.232L267.084 189.381C267.912 188.9 268.385 188.292 268.385 187.7C268.385 187.227 268.073 186.788 267.507 186.459L255.216 179.371C254.574 178.991 253.712 178.814 252.809 178.814Z"
        fill="url(#paint38_linear_403_9308)" />
    <path
        d="M266.096 176.263H257.319L254.887 174.861C253.628 174.135 251.432 174.227 249.979 175.064L247.571 176.466H238.803V182.354C238.769 182.844 239.04 183.317 239.648 183.671L250.013 189.652C251.271 190.379 253.468 190.286 254.92 189.449L264.905 183.671C265.657 183.232 266.062 182.683 266.105 182.151H266.113V176.263H266.096Z"
        fill="url(#paint39_linear_403_9308)" />
    <path
        d="M264.896 183.266L254.912 189.044C253.459 189.88 251.262 189.973 250.004 189.246L239.639 183.266C239.031 182.919 238.761 182.438 238.794 181.948V182.353C238.761 182.843 239.031 183.316 239.639 183.671L250.004 189.652C251.262 190.378 253.459 190.285 254.912 189.449L264.896 183.671C265.648 183.232 266.054 182.683 266.096 182.151H266.104V181.745H266.096C266.054 182.277 265.648 182.826 264.896 183.266Z"
        fill="url(#paint40_linear_403_9308)" />
    <path
        d="M239.352 182.759V176.871H248.12L250.528 175.469C251.981 174.633 254.177 174.54 255.436 175.266L257.869 176.669H266.088V176.263H257.319L254.887 174.861C253.628 174.135 251.432 174.227 249.979 175.064L247.571 176.466H238.803V182.354C238.769 182.844 239.04 183.317 239.648 183.671L239.749 183.731C239.454 183.443 239.327 183.105 239.352 182.759Z"
        fill="#1050FA" />
    <path
        d="M250.004 183.755L239.639 177.775C238.38 177.048 238.541 175.781 239.994 174.936L249.979 169.158C251.431 168.322 253.628 168.229 254.886 168.956L265.251 174.936C266.51 175.663 266.349 176.93 264.896 177.775L254.912 183.553C253.459 184.389 251.263 184.482 250.004 183.755Z"
        fill="url(#paint41_linear_403_9308)" />
    <path
        d="M265.251 174.945L254.886 168.965C254.236 168.584 253.332 168.432 252.411 168.483C253.079 168.525 253.712 168.677 254.194 168.965L264.558 174.945C265.817 175.672 265.657 176.939 264.204 177.784L254.219 183.561C253.518 183.967 252.648 184.195 251.786 184.246C252.85 184.313 254.016 184.077 254.912 183.561L264.896 177.784C266.349 176.939 266.51 175.672 265.251 174.945Z"
        fill="#1050FA" />
    <path
        d="M250.798 183.756L240.433 177.775C239.175 177.049 239.335 175.781 240.788 174.937L250.773 169.159C251.465 168.762 252.318 168.534 253.163 168.483C252.082 168.407 250.882 168.635 249.979 169.159L239.994 174.937C238.541 175.773 238.38 177.049 239.639 177.775L250.004 183.756C250.663 184.136 251.584 184.288 252.521 184.229C251.871 184.186 251.271 184.026 250.798 183.756Z"
        fill="#1050FA" />
    <path
        d="M257.514 179.288C254.718 180.901 250.182 180.901 247.377 179.288C244.581 177.674 244.581 175.056 247.377 173.434C250.173 171.82 254.71 171.82 257.514 173.434C260.31 175.056 260.31 177.674 257.514 179.288Z"
        fill="#50ACE9" />
    <path
        d="M247.377 174.98C250.173 173.366 254.709 173.366 257.514 174.98C258.57 175.588 259.229 176.348 259.491 177.134C259.913 175.833 259.263 174.439 257.514 173.434C254.718 171.82 250.182 171.82 247.377 173.434C245.637 174.439 244.978 175.833 245.401 177.134C245.662 176.348 246.321 175.588 247.377 174.98Z"
        fill="#267FE5" />
    <path opacity="0.4"
        d="M246.185 235.487C229.232 239.778 208.257 234.143 199.345 222.9C190.433 211.657 196.946 199.07 213.9 194.779C230.853 190.488 251.828 196.122 260.74 207.366C269.652 218.609 263.139 231.195 246.185 235.487Z"
        fill="url(#paint42_radial_403_9308)" />
    <path opacity="0.4"
        d="M199.32 232.057C221.121 232.057 238.794 221.853 238.794 209.266C238.794 196.679 221.121 186.476 199.32 186.476C177.519 186.476 159.846 196.679 159.846 209.266C159.846 221.853 177.519 232.057 199.32 232.057Z"
        fill="url(#paint43_radial_403_9308)" />
    <path opacity="0.6"
        d="M209.844 219.099L199.479 213.118C198.221 212.392 198.381 211.125 199.834 210.28L209.819 204.502C211.272 203.666 213.468 203.573 214.727 204.299L225.092 210.28C226.35 211.007 226.19 212.274 224.737 213.118L214.752 218.896C213.299 219.733 211.103 219.826 209.844 219.099Z"
        fill="#0C0F38" />
    <path
        d="M211.922 221.295C210.925 221.295 209.979 221.093 209.27 220.687L196.979 213.6C196.244 213.177 195.847 212.586 195.847 211.927C195.847 211.15 196.413 210.381 197.401 209.807L209.245 202.956C211.035 201.926 213.755 201.816 215.318 202.711L227.609 209.799C228.344 210.221 228.741 210.812 228.741 211.48C228.741 212.257 228.175 213.025 227.186 213.6L215.343 220.451C214.364 221.008 213.113 221.295 211.922 221.295ZM212.657 202.593C211.559 202.593 210.393 202.863 209.489 203.387L197.646 210.238C196.819 210.719 196.346 211.328 196.346 211.927C196.346 212.4 196.658 212.84 197.224 213.169L209.515 220.256C210.934 221.076 213.434 220.966 215.09 220.011L226.933 213.161C227.761 212.679 228.234 212.071 228.234 211.48C228.234 211.007 227.921 210.567 227.355 210.238L215.065 203.151C214.414 202.779 213.561 202.593 212.657 202.593Z"
        fill="url(#paint44_linear_403_9308)" />
    <path
        d="M225.945 200.042H217.168L214.735 198.639C213.477 197.913 211.28 198.006 209.827 198.842L207.42 200.244H198.652V206.132C198.618 206.622 198.888 207.095 199.496 207.45L209.861 213.43C211.12 214.157 213.316 214.064 214.769 213.228L224.754 207.45C225.506 207.011 225.911 206.461 225.953 205.929H225.962V200.042H225.945Z"
        fill="url(#paint45_linear_403_9308)" />
    <path
        d="M224.737 207.045L214.752 212.823C213.3 213.659 211.103 213.752 209.845 213.026L199.48 207.045C198.872 206.699 198.601 206.226 198.635 205.727V206.133C198.601 206.623 198.872 207.096 199.48 207.45L209.845 213.431C211.103 214.158 213.3 214.065 214.752 213.228L224.737 207.45C225.489 207.011 225.894 206.462 225.937 205.93H225.945V205.524H225.937C225.894 206.057 225.497 206.614 224.737 207.045Z"
        fill="url(#paint46_linear_403_9308)" />
    <path
        d="M199.193 206.546V200.659H207.961L210.368 199.256C211.821 198.42 214.018 198.327 215.276 199.054L217.709 200.456H225.928V200.05H217.152L214.719 198.648C213.46 197.922 211.264 198.015 209.811 198.851L207.403 200.253H198.635V206.141C198.601 206.631 198.872 207.104 199.48 207.459L199.581 207.518C199.302 207.222 199.167 206.893 199.193 206.546Z"
        fill="#1050FA" />
    <path
        d="M209.844 207.543L199.479 201.563C198.221 200.836 198.381 199.569 199.834 198.724L209.819 192.947C211.272 192.11 213.468 192.017 214.727 192.744L225.092 198.724C226.35 199.451 226.19 200.718 224.737 201.563L214.752 207.341C213.299 208.177 211.103 208.27 209.844 207.543Z"
        fill="url(#paint47_linear_403_9308)" />
    <path
        d="M225.092 198.725L214.727 192.744C214.077 192.364 213.173 192.212 212.252 192.262C212.919 192.305 213.553 192.457 214.034 192.744L224.399 198.725C225.658 199.451 225.497 200.718 224.044 201.563L214.06 207.341C213.359 207.746 212.489 207.974 211.627 208.025C212.691 208.093 213.857 207.856 214.752 207.341L224.737 201.563C226.19 200.718 226.351 199.451 225.092 198.725Z"
        fill="#1050FA" />
    <path
        d="M210.638 207.543L200.274 201.562C199.015 200.836 199.175 199.569 200.628 198.724L210.613 192.946C211.306 192.549 212.159 192.321 213.004 192.27C211.922 192.194 210.723 192.422 209.819 192.946L199.834 198.724C198.381 199.56 198.221 200.836 199.479 201.562L209.844 207.543C210.503 207.923 211.424 208.075 212.362 208.016C211.711 207.965 211.111 207.813 210.638 207.543Z"
        fill="url(#paint48_linear_403_9308)" />
    <path
        d="M217.354 203.066C214.558 204.679 210.022 204.679 207.217 203.066C204.413 201.453 204.421 198.834 207.217 197.212C210.013 195.599 214.55 195.599 217.354 197.212C220.15 198.834 220.15 201.453 217.354 203.066Z"
        fill="#50ACE9" />
    <path
        d="M207.217 198.758C210.013 197.144 214.549 197.144 217.354 198.758C218.41 199.366 219.069 200.126 219.33 200.912C219.753 199.611 219.102 198.217 217.354 197.212C214.558 195.599 210.022 195.599 207.217 197.212C205.477 198.217 204.818 199.611 205.249 200.912C205.502 200.126 206.161 199.375 207.217 198.758Z"
        fill="#267FE5" />
    <defs>
        <radialGradient id="paint0_radial_403_9308" cx="0" cy="0" r="1" gradientUnits="userSpaceOnUse"
            gradientTransform="translate(71.0691 138.656) rotate(30.0007) scale(57.8617 50.1104)">
            <stop offset="0.0108" stop-color="#25BFEC" />
            <stop offset="0.348" stop-color="#3AB3F1" />
            <stop offset="0.6951" stop-color="#47ACF5" />
            <stop offset="1" stop-color="#4CA9F6" />
        </radialGradient>
        <linearGradient id="paint1_linear_403_9308" x1="25.6348" y1="128.752" x2="75.5108" y2="128.752"
            gradientUnits="userSpaceOnUse">
            <stop stop-color="#4BA1F4" />
            <stop offset="0.045" stop-color="#4A9DF3" />
            <stop offset="0.2288" stop-color="#4994EF" />
            <stop offset="0.4785" stop-color="#4891EE" />
            <stop offset="1" stop-color="#437CE5" />
        </linearGradient>
        <linearGradient id="paint2_linear_403_9308" x1="32.9393" y1="110.407" x2="50.5744" y2="140.951"
            gradientUnits="userSpaceOnUse">
            <stop stop-color="#4C65F6" />
            <stop offset="0.5367" stop-color="#486DEE" />
            <stop offset="1" stop-color="#4279E4" />
        </linearGradient>
        <linearGradient id="paint3_linear_403_9308" x1="25.6348" y1="111.209" x2="75.5108" y2="111.209"
            gradientUnits="userSpaceOnUse">
            <stop stop-color="#4BA1F4" />
            <stop offset="0.00263433" stop-color="#4BA1F4" />
            <stop offset="0.4785" stop-color="#4CA4F6" />
            <stop offset="0.7991" stop-color="#3989EB" />
            <stop offset="1" stop-color="#2C75E4" />
        </linearGradient>
        <linearGradient id="paint4_linear_403_9308" x1="32.9395" y1="92.8657" x2="50.5745" y2="123.41"
            gradientUnits="userSpaceOnUse">
            <stop stop-color="#4C66F5" />
            <stop offset="0.3582" stop-color="#446BF1" />
            <stop offset="0.928" stop-color="#2C77E6" />
            <stop offset="1" stop-color="#2979E4" />
        </linearGradient>
        <linearGradient id="paint5_linear_403_9308" x1="25.6353" y1="93.6705" x2="75.5113" y2="93.6705"
            gradientUnits="userSpaceOnUse">
            <stop stop-color="#4CA4F6" />
            <stop offset="0.6197" stop-color="#4586E9" />
            <stop offset="1" stop-color="#4279E4" />
        </linearGradient>
        <linearGradient id="paint6_linear_403_9308" x1="32.9398" y1="75.3254" x2="50.5749" y2="105.869"
            gradientUnits="userSpaceOnUse">
            <stop stop-color="#4C66F5" />
            <stop offset="0.7335" stop-color="#476EEE" />
            <stop offset="1" stop-color="#4573EA" />
        </linearGradient>
        <linearGradient id="paint7_linear_403_9308" x1="32.724" y1="76.1286" x2="31.9662" y2="76.1286"
            gradientUnits="userSpaceOnUse">
            <stop stop-color="#4CA4F6" />
            <stop offset="0.6197" stop-color="#4586E9" />
            <stop offset="1" stop-color="#4279E4" />
        </linearGradient>
        <linearGradient id="paint8_linear_403_9308" x1="32.9394" y1="57.7842" x2="50.5745" y2="88.3281"
            gradientUnits="userSpaceOnUse">
            <stop stop-color="#4C66F5" />
            <stop offset="0.6612" stop-color="#476EEE" />
            <stop offset="1" stop-color="#4475E8" />
        </linearGradient>
        <linearGradient id="paint9_linear_403_9308" x1="25.6348" y1="58.5871" x2="75.5108" y2="58.5871"
            gradientUnits="userSpaceOnUse">
            <stop stop-color="#4CA4F6" />
            <stop offset="0.6197" stop-color="#4586E9" />
            <stop offset="1" stop-color="#4279E4" />
        </linearGradient>
        <linearGradient id="paint10_linear_403_9308" x1="32.9398" y1="40.2423" x2="50.5748" y2="70.7862"
            gradientUnits="userSpaceOnUse">
            <stop stop-color="#4C65F6" />
            <stop offset="0.5367" stop-color="#486DEE" />
            <stop offset="1" stop-color="#4279E4" />
        </linearGradient>
        <radialGradient id="paint11_radial_403_9308" cx="0" cy="0" r="1" gradientUnits="userSpaceOnUse"
            gradientTransform="translate(50.9311 68.7861) scale(1.56646 1.56646)">
            <stop offset="0.0108" stop-color="#4CA9F6" />
            <stop offset="0.1137" stop-color="#4199F7" />
            <stop offset="0.3545" stop-color="#2C79F8" />
            <stop offset="0.5875" stop-color="#1C62F9" />
            <stop offset="0.8073" stop-color="#1355FA" />
            <stop offset="1" stop-color="#1050FA" />
        </radialGradient>
        <radialGradient id="paint12_radial_403_9308" cx="0" cy="0" r="1" gradientUnits="userSpaceOnUse"
            gradientTransform="translate(50.9307 69.4229) scale(1.2882)">
            <stop offset="0.0108" stop-color="#4CA9F6" />
            <stop offset="0.1137" stop-color="#4199F7" />
            <stop offset="0.3545" stop-color="#2C79F8" />
            <stop offset="0.5875" stop-color="#1C62F9" />
            <stop offset="0.8073" stop-color="#1355FA" />
            <stop offset="1" stop-color="#1050FA" />
        </radialGradient>
        <radialGradient id="paint13_radial_403_9308" cx="0" cy="0" r="1" gradientUnits="userSpaceOnUse"
            gradientTransform="translate(50.9311 86.3256) scale(1.56646 1.56646)">
            <stop offset="0.0108" stop-color="#4CA9F6" />
            <stop offset="0.1137" stop-color="#4199F7" />
            <stop offset="0.3545" stop-color="#2C79F8" />
            <stop offset="0.5875" stop-color="#1C62F9" />
            <stop offset="0.8073" stop-color="#1355FA" />
            <stop offset="1" stop-color="#1050FA" />
        </radialGradient>
        <radialGradient id="paint14_radial_403_9308" cx="0" cy="0" r="1" gradientUnits="userSpaceOnUse"
            gradientTransform="translate(50.9307 86.9625) scale(1.2882)">
            <stop offset="0.0108" stop-color="#4CA9F6" />
            <stop offset="0.1137" stop-color="#4199F7" />
            <stop offset="0.3545" stop-color="#2C79F8" />
            <stop offset="0.5875" stop-color="#1C62F9" />
            <stop offset="0.8073" stop-color="#1355FA" />
            <stop offset="1" stop-color="#1050FA" />
        </radialGradient>
        <radialGradient id="paint15_radial_403_9308" cx="0" cy="0" r="1" gradientUnits="userSpaceOnUse"
            gradientTransform="translate(50.9311 103.868) scale(1.56646)">
            <stop offset="0.0108" stop-color="#4CA9F6" />
            <stop offset="0.1137" stop-color="#4199F7" />
            <stop offset="0.3545" stop-color="#2C79F8" />
            <stop offset="0.5875" stop-color="#1C62F9" />
            <stop offset="0.8073" stop-color="#1355FA" />
            <stop offset="1" stop-color="#1050FA" />
        </radialGradient>
        <radialGradient id="paint16_radial_403_9308" cx="0" cy="0" r="1" gradientUnits="userSpaceOnUse"
            gradientTransform="translate(50.9307 104.504) scale(1.2882 1.28821)">
            <stop offset="0.0108" stop-color="#4CA9F6" />
            <stop offset="0.1137" stop-color="#4199F7" />
            <stop offset="0.3545" stop-color="#2C79F8" />
            <stop offset="0.5875" stop-color="#1C62F9" />
            <stop offset="0.8073" stop-color="#1355FA" />
            <stop offset="1" stop-color="#1050FA" />
        </radialGradient>
        <radialGradient id="paint17_radial_403_9308" cx="0" cy="0" r="1" gradientUnits="userSpaceOnUse"
            gradientTransform="translate(50.9311 121.408) scale(1.56646 1.56646)">
            <stop offset="0.0108" stop-color="#4CA9F6" />
            <stop offset="0.1137" stop-color="#4199F7" />
            <stop offset="0.3545" stop-color="#2C79F8" />
            <stop offset="0.5875" stop-color="#1C62F9" />
            <stop offset="0.8073" stop-color="#1355FA" />
            <stop offset="1" stop-color="#1050FA" />
        </radialGradient>
        <radialGradient id="paint18_radial_403_9308" cx="0" cy="0" r="1" gradientUnits="userSpaceOnUse"
            gradientTransform="translate(50.9307 122.045) scale(1.2882)">
            <stop offset="0.0108" stop-color="#4CA9F6" />
            <stop offset="0.1137" stop-color="#4199F7" />
            <stop offset="0.3545" stop-color="#2C79F8" />
            <stop offset="0.5875" stop-color="#1C62F9" />
            <stop offset="0.8073" stop-color="#1355FA" />
            <stop offset="1" stop-color="#1050FA" />
        </radialGradient>
        <radialGradient id="paint19_radial_403_9308" cx="0" cy="0" r="1" gradientUnits="userSpaceOnUse"
            gradientTransform="translate(50.9311 138.949) scale(1.56646)">
            <stop offset="0.0108" stop-color="#4CA9F6" />
            <stop offset="0.1137" stop-color="#4199F7" />
            <stop offset="0.3545" stop-color="#2C79F8" />
            <stop offset="0.5875" stop-color="#1C62F9" />
            <stop offset="0.8073" stop-color="#1355FA" />
            <stop offset="1" stop-color="#1050FA" />
        </radialGradient>
        <radialGradient id="paint20_radial_403_9308" cx="0" cy="0" r="1" gradientUnits="userSpaceOnUse"
            gradientTransform="translate(50.9307 139.586) scale(1.2882 1.28821)">
            <stop offset="0.0108" stop-color="#4CA9F6" />
            <stop offset="0.1137" stop-color="#4199F7" />
            <stop offset="0.3545" stop-color="#2C79F8" />
            <stop offset="0.5875" stop-color="#1C62F9" />
            <stop offset="0.8073" stop-color="#1355FA" />
            <stop offset="1" stop-color="#1050FA" />
        </radialGradient>
        <linearGradient id="paint21_linear_403_9308" x1="-33.1251" y1="138.871" x2="385.47" y2="138.871"
            gradientUnits="userSpaceOnUse">
            <stop stop-color="#696F8C" />
            <stop offset="0.1687" stop-color="#616784" />
            <stop offset="0.4377" stop-color="#4B506C" />
            <stop offset="0.7716" stop-color="#272C47" />
            <stop offset="1" stop-color="#0A0F29" />
        </linearGradient>
        <linearGradient id="paint22_linear_403_9308" x1="119.783" y1="103.48" x2="169.41" y2="189.429"
            gradientUnits="userSpaceOnUse">
            <stop stop-color="#747691" />
            <stop offset="1" stop-color="#747691" />
        </linearGradient>
        <radialGradient id="paint23_radial_403_9308" cx="0" cy="0" r="1" gradientUnits="userSpaceOnUse"
            gradientTransform="translate(72.7291 67.7142) rotate(29.9987) scale(221.381 244.237)">
            <stop stop-color="#747691" />
            <stop offset="1" stop-color="#747691" />
        </radialGradient>
        <linearGradient id="paint24_linear_403_9308" x1="177.289" y1="164.669" x2="177.289" y2="12.389"
            gradientUnits="userSpaceOnUse">
            <stop stop-color="white" />
            <stop offset="0.0791" stop-color="#D8E3F9" />
            <stop offset="0.1746" stop-color="#B0C7F4" />
            <stop offset="0.2766" stop-color="#8EAFEF" />
            <stop offset="0.3846" stop-color="#729BEB" />
            <stop offset="0.5007" stop-color="#5D8CE8" />
            <stop offset="0.6288" stop-color="#4E81E6" />
            <stop offset="0.7782" stop-color="#457BE4" />
            <stop offset="1" stop-color="#4279E4" />
        </linearGradient>
        <linearGradient id="paint25_linear_403_9308" x1="131.227" y1="146.48" x2="131.227" y2="28.0834"
            gradientUnits="userSpaceOnUse">
            <stop stop-color="white" />
            <stop offset="0.00142676" stop-color="#FFFEFE" />
            <stop offset="0.0696" stop-color="#FDE8CE" />
            <stop offset="0.1414" stop-color="#FCD4A4" />
            <stop offset="0.2194" stop-color="#FBC37F" />
            <stop offset="0.3027" stop-color="#F9B460" />
            <stop offset="0.3928" stop-color="#F9A846" />
            <stop offset="0.4924" stop-color="#F89E32" />
            <stop offset="0.6065" stop-color="#F79825" />
            <stop offset="0.748" stop-color="#F7941C" />
            <stop offset="1" stop-color="#F7931A" />
        </linearGradient>
        <linearGradient id="paint26_linear_403_9308" x1="62.4969" y1="40.5904" x2="195.715" y2="40.5904"
            gradientUnits="userSpaceOnUse">
            <stop stop-color="#4C65F6" />
            <stop offset="0.5367" stop-color="#486DEE" />
            <stop offset="1" stop-color="#4279E4" />
        </linearGradient>
        <radialGradient id="paint27_radial_403_9308" cx="0" cy="0" r="1" gradientUnits="userSpaceOnUse"
            gradientTransform="translate(310.35 167.569) rotate(51.5841) scale(25.977 28.8789)">
            <stop offset="0.0108" stop-color="#25BFEC" />
            <stop offset="0.0804" stop-color="#2BBBEB" />
            <stop offset="0.4117" stop-color="#42ADE9" />
            <stop offset="0.7251" stop-color="#4FA5E7" />
            <stop offset="1" stop-color="#54A2E7" />
        </radialGradient>
        <radialGradient id="paint28_radial_403_9308" cx="0" cy="0" r="1" gradientUnits="userSpaceOnUse"
            gradientTransform="translate(279.632 161.7) rotate(30.0007) scale(32.2301 27.9125)">
            <stop offset="0.0108" stop-color="#54A2E7" />
            <stop offset="0.0693" stop-color="#4F9DE3" />
            <stop offset="0.4046" stop-color="#3A86D0" />
            <stop offset="0.7218" stop-color="#2D79C5" />
            <stop offset="1" stop-color="#2874C1" />
        </radialGradient>
        <linearGradient id="paint29_linear_403_9308" x1="276.15" y1="164.136" x2="309.043" y2="164.136"
            gradientUnits="userSpaceOnUse">
            <stop offset="1" stop-color="#6EE8FC" />
        </linearGradient>
        <linearGradient id="paint30_linear_403_9308" x1="276.362" y1="158.472" x2="309.631" y2="158.472"
            gradientUnits="userSpaceOnUse">
            <stop stop-color="#97D0F1" />
            <stop offset="0.1078" stop-color="#85C1EF" />
            <stop offset="0.3755" stop-color="#5FA0EA" />
            <stop offset="0.6223" stop-color="#4388E7" />
            <stop offset="0.8384" stop-color="#327AE5" />
            <stop offset="1" stop-color="#2C75E4" />
        </linearGradient>
        <linearGradient id="paint31_linear_403_9308" x1="276.362" y1="162.16" x2="309.631" y2="162.16"
            gradientUnits="userSpaceOnUse">
            <stop stop-color="#1050FA" />
        </linearGradient>
        <linearGradient id="paint32_linear_403_9308" x1="278.946" y1="155.268" x2="306.251" y2="155.268"
            gradientUnits="userSpaceOnUse">
            <stop stop-color="#1050FA" />
        </linearGradient>
        <linearGradient id="paint33_linear_403_9308" x1="278.741" y1="152.58" x2="304.316" y2="158.909"
            gradientUnits="userSpaceOnUse">
            <stop stop-color="#97D0F1" />
            <stop offset="0.3683" stop-color="#69ACEC" />
            <stop offset="0.789" stop-color="#3B87E6" />
            <stop offset="1" stop-color="#2979E4" />
        </linearGradient>
        <linearGradient id="paint34_linear_403_9308" x1="291.94" y1="152.58" x2="306.252" y2="152.58"
            gradientUnits="userSpaceOnUse">
            <stop stop-color="#1050FA" />
        </linearGradient>
        <linearGradient id="paint35_linear_403_9308" x1="278.942" y1="152.579" x2="293.317" y2="152.579"
            gradientUnits="userSpaceOnUse">
            <stop stop-color="#1050FA" />
        </linearGradient>
        <radialGradient id="paint36_radial_403_9308" cx="0" cy="0" r="1" gradientUnits="userSpaceOnUse"
            gradientTransform="translate(270.196 191.352) rotate(51.5841) scale(25.977 28.8789)">
            <stop offset="0.0108" stop-color="#25BFEC" />
            <stop offset="0.0804" stop-color="#2BBBEB" />
            <stop offset="0.4117" stop-color="#42ADE9" />
            <stop offset="0.7251" stop-color="#4FA5E7" />
            <stop offset="1" stop-color="#54A2E7" />
        </radialGradient>
        <radialGradient id="paint37_radial_403_9308" cx="0" cy="0" r="1" gradientUnits="userSpaceOnUse"
            gradientTransform="translate(239.478 185.483) rotate(30.0007) scale(32.2301 27.9125)">
            <stop offset="0.0108" stop-color="#54A2E7" />
            <stop offset="0.0693" stop-color="#4F9DE3" />
            <stop offset="0.4046" stop-color="#3A86D0" />
            <stop offset="0.7218" stop-color="#2D79C5" />
            <stop offset="1" stop-color="#2874C1" />
        </radialGradient>
        <linearGradient id="paint38_linear_403_9308" x1="235.997" y1="187.917" x2="268.89" y2="187.917"
            gradientUnits="userSpaceOnUse">
            <stop stop-color="#107FFF" />
            <stop offset="1" stop-color="#1050FA" />
        </linearGradient>
        <linearGradient id="paint39_linear_403_9308" x1="236.208" y1="182.254" x2="269.477" y2="182.254"
            gradientUnits="userSpaceOnUse">
            <stop stop-color="#97D0F1" />
            <stop offset="0.107" stop-color="#7CB9EE" />
            <stop offset="0.2487" stop-color="#5FA0EA" />
            <stop offset="0.4002" stop-color="#488DE7" />
            <stop offset="0.564" stop-color="#3880E6" />
            <stop offset="0.749" stop-color="#2F78E4" />
            <stop offset="1" stop-color="#2C75E4" />
        </linearGradient>
        <linearGradient id="paint40_linear_403_9308" x1="236.208" y1="185.942" x2="269.477" y2="185.942"
            gradientUnits="userSpaceOnUse">
            <stop stop-color="#1050FA" />
        </linearGradient>
        <linearGradient id="paint41_linear_403_9308" x1="238.587" y1="176.362" x2="264.162" y2="182.69"
            gradientUnits="userSpaceOnUse">
            <stop stop-color="#97D0F1" />
            <stop offset="0.1563" stop-color="#8FC9F0" />
            <stop offset="0.4056" stop-color="#77B7ED" />
            <stop offset="0.7149" stop-color="#5299E9" />
            <stop offset="1" stop-color="#2979E4" />
        </linearGradient>
        <radialGradient id="paint42_radial_403_9308" cx="0" cy="0" r="1" gradientUnits="userSpaceOnUse"
            gradientTransform="translate(230.041 215.134) rotate(51.5841) scale(25.977 28.8789)">
            <stop offset="0.0108" stop-color="#25BFEC" />
            <stop offset="0.0804" stop-color="#2BBBEB" />
            <stop offset="0.4117" stop-color="#42ADE9" />
            <stop offset="0.7251" stop-color="#4FA5E7" />
            <stop offset="1" stop-color="#54A2E7" />
        </radialGradient>
        <radialGradient id="paint43_radial_403_9308" cx="0" cy="0" r="1" gradientUnits="userSpaceOnUse"
            gradientTransform="translate(199.323 209.265) rotate(30.0007) scale(32.2301 27.9125)">
            <stop offset="0.0108" stop-color="#54A2E7" />
            <stop offset="0.0693" stop-color="#4F9DE3" />
            <stop offset="0.4046" stop-color="#3A86D0" />
            <stop offset="0.7218" stop-color="#2D79C5" />
            <stop offset="1" stop-color="#2874C1" />
        </radialGradient>
        <linearGradient id="paint44_linear_403_9308" x1="195.841" y1="211.7" x2="228.734" y2="211.7"
            gradientUnits="userSpaceOnUse">
            <stop stop-color="#2874C1" />
            <stop offset="1" stop-color="#2F66F6" />
        </linearGradient>
        <linearGradient id="paint45_linear_403_9308" x1="196.053" y1="206.036" x2="229.322" y2="206.036"
            gradientUnits="userSpaceOnUse">
            <stop stop-color="#86C6F8" />
            <stop offset="1" stop-color="#2C79F8" />
        </linearGradient>
        <linearGradient id="paint46_linear_403_9308" x1="196.053" y1="209.725" x2="229.322" y2="209.725"
            gradientUnits="userSpaceOnUse">
            <stop offset="0.7796" stop-color="#1050FA" />
            <stop offset="1" stop-color="#6EE8FC" />
        </linearGradient>
        <linearGradient id="paint47_linear_403_9308" x1="198.431" y1="200.145" x2="224.007" y2="206.474"
            gradientUnits="userSpaceOnUse">
            <stop stop-color="#A4B8F2" />
            <stop offset="0.1442" stop-color="#9BB4F1" />
            <stop offset="0.3742" stop-color="#84A8EE" />
            <stop offset="0.6612" stop-color="#5E94EA" />
            <stop offset="0.9913" stop-color="#2A7AE4" />
            <stop offset="1" stop-color="#2979E4" />
        </linearGradient>
        <linearGradient id="paint48_linear_403_9308" x1="198.633" y1="200.143" x2="213.007" y2="200.143"
            gradientUnits="userSpaceOnUse">
            <stop stop-color="#267FE5" />
            <stop offset="1" stop-color="#2C75E4" />
        </linearGradient>
    </defs>
</svg>