<svg width="31" height="33" viewBox="0 0 31 33" fill="none" xmlns="http://www.w3.org/2000/svg">
    <path
        d="M13.3757 6.1875C13.6486 6.1875 13.9103 6.07885 14.1033 5.88545C14.2962 5.69206 14.4046 5.42975 14.4046 5.15625C14.4046 4.88275 14.2962 4.62044 14.1033 4.42705C13.9103 4.23365 13.6486 4.125 13.3757 4.125H7.20225C6.92937 4.125 6.66766 4.23365 6.4747 4.42705C6.28174 4.62044 6.17334 4.88275 6.17334 5.15625C6.17334 5.42975 6.28174 5.69206 6.4747 5.88545C6.66766 6.07885 6.92937 6.1875 7.20225 6.1875H13.3757Z"
        fill="#35383F" />
    <path
        d="M20.5782 9.11625V4.99125C20.5837 4.33861 20.4603 3.69134 20.2152 3.08668C19.97 2.48203 19.608 1.93192 19.15 1.46803C18.6919 1.00414 18.1468 0.635618 17.5461 0.383674C16.9454 0.13173 16.3009 0.00133704 15.6498 0L4.92849 0C3.62221 0.00272477 2.37021 0.52403 1.44652 1.44981C0.522842 2.37559 0.0027186 3.63044 0 4.93969V28.0603C0.0027186 29.3696 0.522842 30.6244 1.44652 31.5502C2.37021 32.476 3.62221 32.9973 4.92849 33H15.6498C16.956 32.9973 18.208 32.476 19.1317 31.5502C20.0554 30.6244 20.5755 29.3696 20.5782 28.0603V28.0087C22.41 27.2047 23.9683 25.883 25.0626 24.2053C26.1568 22.5277 26.7396 20.5668 26.7396 18.5625C26.7396 16.5582 26.1568 14.5973 25.0626 12.9197C23.9683 11.242 22.41 9.92034 20.5782 9.11625ZM15.6498 30.9375H4.92849C4.16714 30.9375 3.43698 30.6344 2.89862 30.0948C2.36027 29.5552 2.05782 28.8234 2.05782 28.0603V4.93969C2.05782 4.17661 2.36027 3.44479 2.89862 2.90521C3.43698 2.36563 4.16714 2.0625 4.92849 2.0625H15.6498C16.4111 2.0625 17.1413 2.36563 17.6796 2.90521C18.218 3.44479 18.5204 4.17661 18.5204 4.93969V8.45625C17.8429 8.31976 17.1536 8.25068 16.4626 8.25C13.763 8.24972 11.1733 9.32134 9.26021 11.2303V10.3125C9.26021 10.039 9.15181 9.77669 8.95885 9.5833C8.76589 9.3899 8.50418 9.28125 8.2313 9.28125C7.95841 9.28125 7.69671 9.3899 7.50375 9.5833C7.31079 9.77669 7.20239 10.039 7.20239 10.3125V26.8125C7.20239 27.086 7.31079 27.3483 7.50375 27.5417C7.69671 27.7351 7.95841 27.8438 8.2313 27.8438C8.50418 27.8438 8.76589 27.7351 8.95885 27.5417C9.15181 27.3483 9.26021 27.086 9.26021 26.8125V25.8947C11.1733 27.8037 13.763 28.8753 16.4626 28.875C17.1292 28.8731 17.7942 28.8075 18.4484 28.6791C18.3079 29.3185 17.954 29.8908 17.4452 30.3014C16.9364 30.712 16.303 30.9364 15.6498 30.9375ZM16.4626 26.8125C14.9909 26.8112 13.5465 26.4144 12.2797 25.6635C11.013 24.9126 9.9703 23.8351 9.26021 22.5431V14.5819C9.96091 13.307 10.9856 12.2406 12.2304 11.4909C13.4752 10.7413 14.8957 10.335 16.3478 10.3134C17.7998 10.2918 19.2318 10.6556 20.4982 11.3679C21.7646 12.0802 22.8205 13.1156 23.5587 14.3691C24.2968 15.6226 24.6909 17.0495 24.7011 18.505C24.7112 19.9604 24.337 21.3927 23.6163 22.6564C22.8957 23.92 21.8543 24.9701 20.5979 25.7001C19.3415 26.43 17.9148 26.8138 16.4626 26.8125Z"
        fill="#35383F" />
    <path
        d="M16.4622 15.4688H18.5201C18.7929 15.4688 19.0546 15.3601 19.2476 15.1667C19.4406 14.9733 19.549 14.711 19.549 14.4375C19.549 14.164 19.4406 13.9017 19.2476 13.7083C19.0546 13.5149 18.7929 13.4063 18.5201 13.4063H17.4911C17.4911 13.1327 17.3827 12.8704 17.1898 12.677C16.9968 12.4836 16.7351 12.375 16.4622 12.375C16.1893 12.375 15.9276 12.4836 15.7347 12.677C15.5417 12.8704 15.4333 13.1327 15.4333 13.4063V13.5919C14.7528 13.8394 14.1808 14.3187 13.8171 14.946C13.4535 15.5734 13.3214 16.3089 13.444 17.024C13.5666 17.7391 13.936 18.3882 14.4877 18.8579C15.0395 19.3277 15.7383 19.5881 16.4622 19.5938C16.7351 19.5938 16.9968 19.7024 17.1898 19.8958C17.3827 20.0892 17.4911 20.3515 17.4911 20.625C17.4911 20.8985 17.3827 21.1608 17.1898 21.3542C16.9968 21.5476 16.7351 21.6563 16.4622 21.6563H14.4044C14.1315 21.6563 13.8698 21.7649 13.6768 21.9583C13.4839 22.1517 13.3755 22.414 13.3755 22.6875C13.3755 22.961 13.4839 23.2233 13.6768 23.4167C13.8698 23.6101 14.1315 23.7188 14.4044 23.7188H15.4333C15.4333 23.9923 15.5417 24.2546 15.7347 24.448C15.9276 24.6414 16.1893 24.75 16.4622 24.75C16.7351 24.75 16.9968 24.6414 17.1898 24.448C17.3827 24.2546 17.4911 23.9923 17.4911 23.7188V23.5331C18.1716 23.2856 18.7437 22.8063 19.1073 22.179C19.471 21.5516 19.603 20.8161 19.4804 20.101C19.3579 19.3859 18.9884 18.7368 18.4367 18.2671C17.885 17.7973 17.1861 17.5369 16.4622 17.5313C16.1893 17.5313 15.9276 17.4226 15.7347 17.2292C15.5417 17.0358 15.4333 16.7735 15.4333 16.5C15.4333 16.2265 15.5417 15.9642 15.7347 15.7708C15.9276 15.5774 16.1893 15.4688 16.4622 15.4688Z"
        fill="#35383F" />
    <path
        d="M24.7357 7.33519L27.398 7.21748L27.1028 7.52989C26.9177 7.73245 26.8206 8.00038 26.8327 8.27473C26.8447 8.54909 26.9651 8.8074 27.1671 8.99284C27.3692 9.17828 27.6366 9.27566 27.9103 9.26356C28.184 9.25146 28.4418 9.13086 28.6268 8.92831L30.5919 6.77691C30.684 6.67688 30.7555 6.55955 30.8022 6.4317C30.8488 6.30385 30.8698 6.168 30.8638 6.03199C30.8578 5.89599 30.825 5.76252 30.7673 5.63928C30.7096 5.51604 30.6281 5.40548 30.5275 5.31396L28.381 3.34436C28.2812 3.25202 28.1641 3.1804 28.0366 3.13364C27.909 3.08687 27.7735 3.06588 27.6378 3.07188C27.5021 3.07788 27.3689 3.11075 27.246 3.16859C27.123 3.22644 27.0127 3.30811 26.9214 3.4089C26.8292 3.50893 26.7578 3.62626 26.7111 3.75411C26.6645 3.88196 26.6435 4.01781 26.6495 4.15382C26.6555 4.28982 26.6883 4.42329 26.746 4.54653C26.8037 4.66977 26.8852 4.78033 26.9858 4.87185L27.3073 5.15699L24.645 5.2747C24.3724 5.28675 24.1157 5.40686 23.9314 5.60859C23.7472 5.81032 23.6504 6.07716 23.6624 6.35039C23.6745 6.62363 23.7943 6.88089 23.9956 7.06558C24.1968 7.25026 24.4631 7.34725 24.7357 7.33519Z"
        fill="#3F88C9" />
</svg>