<svg width="12" height="12" viewBox="0 0 12 12" fill="none" xmlns="http://www.w3.org/2000/svg">
<path d="M11.5701 6.20552C11.446 6.53627 11.1385 6.75002 10.7863 6.75002H10.4998V10.875C10.4998 11.082 10.3318 11.25 10.1248 11.25H7.87484V8.62502C7.87484 7.59114 7.03372 6.75002 5.99984 6.75002C4.96597 6.75002 4.12484 7.59114 4.12484 8.62502V11.25H1.87484C1.66784 11.25 1.49984 11.082 1.49984 10.875V6.75002H1.21297C0.860842 6.75002 0.553342 6.53664 0.429217 6.20589C0.305092 5.87514 0.396217 5.51139 0.661717 5.27964L5.04134 1.13214C5.57909 0.62327 6.42097 0.62327 6.95834 1.13214L11.3485 5.28939C11.6027 5.51102 11.6942 5.87477 11.5701 6.20552Z" fill="#1A1A1A" fill-opacity="0.26"/>
</svg>
