<svg width="11" height="11" viewBox="0 0 11 11" fill="none" xmlns="http://www.w3.org/2000/svg">
<path d="M2.31579 11H0.578947C0.425401 11 0.278143 10.939 0.16957 10.8304C0.060996 10.7219 0 10.5746 0 10.4211V5.78947C0 5.63593 0.060996 5.48867 0.16957 5.3801C0.278143 5.27152 0.425401 5.21053 0.578947 5.21053H2.31579C2.46934 5.21053 2.61659 5.27152 2.72517 5.3801C2.83374 5.48867 2.89474 5.63593 2.89474 5.78947V10.4211C2.89474 10.5746 2.83374 10.7219 2.72517 10.8304C2.61659 10.939 2.46934 11 2.31579 11ZM6.36842 11H4.63158C4.47803 11 4.33078 10.939 4.2222 10.8304C4.11363 10.7219 4.05263 10.5746 4.05263 10.4211V0.578947C4.05263 0.425401 4.11363 0.278143 4.2222 0.16957C4.33078 0.060996 4.47803 0 4.63158 0H6.36842C6.52197 0 6.66922 0.060996 6.7778 0.16957C6.88637 0.278143 6.94737 0.425401 6.94737 0.578947V10.4211C6.94737 10.5746 6.88637 10.7219 6.7778 10.8304C6.66922 10.939 6.52197 11 6.36842 11ZM10.4211 11H8.68421C8.53066 11 8.38341 10.939 8.27483 10.8304C8.16626 10.7219 8.10526 10.5746 8.10526 10.4211V4.05263C8.10526 3.89909 8.16626 3.75183 8.27483 3.64325C8.38341 3.53468 8.53066 3.47368 8.68421 3.47368H10.4211C10.5746 3.47368 10.7219 3.53468 10.8304 3.64325C10.939 3.75183 11 3.89909 11 4.05263V10.4211C11 10.5746 10.939 10.7219 10.8304 10.8304C10.7219 10.939 10.5746 11 10.4211 11Z" fill="#1A1A1A" fill-opacity="0.26"/>
</svg>
