<svg width="18" height="10" viewBox="0 0 18 10" fill="none" xmlns="http://www.w3.org/2000/svg">
<path d="M18 1V6C18 6.55219 17.5528 7 17 7C16.4472 7 16 6.55219 16 6V3.41563L10.7063 8.70938C10.5125 8.90313 10.2563 9 10 9C9.74375 9 9.48812 8.90234 9.29313 8.70703L6 5.41562L1.70625 9.70938C1.51187 9.90313 1.25594 10 1 10C0.42875 10 0 9.53281 0 9C0 8.74413 0.0976562 8.48812 0.292969 8.29313L5.29297 3.29313C5.4875 3.09688 5.74375 3 6 3C6.25625 3 6.51187 3.09766 6.70687 3.29297L10 6.5875L14.5875 2H12C11.4472 2 11 1.55219 11 1C11 0.447812 11.4472 0 12 0H17C17.525 0 18 0.41875 18 1Z" fill="black" fill-opacity="0.26"/>
</svg>
