<svg width="14" height="12" viewBox="0 0 14 12" fill="none" xmlns="http://www.w3.org/2000/svg">
<path d="M2.02983 1.67953H11.6303C11.7424 1.67947 11.8544 1.68659 11.9657 1.70083C11.928 1.43615 11.8371 1.18184 11.6984 0.953251C11.5598 0.724657 11.3763 0.526507 11.159 0.370749C10.9417 0.21499 10.6951 0.104849 10.4341 0.0469653C10.1731 -0.0109182 9.90305 -0.0153449 9.64028 0.0339521L1.74482 1.38191H1.73582C1.24022 1.47669 0.799494 1.75709 0.503662 2.16585C0.949361 1.84883 1.48289 1.67882 2.02983 1.67953Z" fill="black" fill-opacity="0.26"/>
<path d="M11.6304 2.39957H2.02995C1.52088 2.40012 1.03282 2.6026 0.672858 2.96256C0.312892 3.32253 0.110419 3.81059 0.109863 4.31965V10.0799C0.110419 10.589 0.312892 11.077 0.672858 11.437C1.03282 11.797 1.52088 11.9994 2.02995 12H11.6304C12.1395 11.9994 12.6275 11.797 12.9875 11.437C13.3474 11.077 13.5499 10.589 13.5505 10.0799V4.31965C13.5499 3.81059 13.3474 3.32253 12.9875 2.96256C12.6275 2.6026 12.1395 2.40012 11.6304 2.39957ZM10.2053 8.15983C10.0154 8.15983 9.82983 8.10352 9.67195 7.99803C9.51407 7.89254 9.39102 7.7426 9.31836 7.56718C9.24569 7.39175 9.22668 7.19872 9.26373 7.01249C9.30077 6.82626 9.3922 6.6552 9.52647 6.52093C9.66073 6.38667 9.8318 6.29523 10.018 6.25819C10.2043 6.22114 10.3973 6.24016 10.5727 6.31282C10.7481 6.38548 10.8981 6.50853 11.0036 6.66641C11.1091 6.82429 11.1654 7.00991 11.1654 7.19979C11.1654 7.4544 11.0642 7.6986 10.8842 7.87864C10.7041 8.05868 10.4599 8.15983 10.2053 8.15983Z" fill="black" fill-opacity="0.26"/>
<path d="M0.124756 6.34474V3.35961C0.124756 2.70948 0.484772 1.61953 1.73433 1.38342C2.79488 1.18451 3.84493 1.18451 3.84493 1.18451C3.84493 1.18451 4.53496 1.66453 3.96493 1.66453C3.3949 1.66453 3.40991 2.39956 3.96493 2.39956C4.51996 2.39956 3.96493 3.1046 3.96493 3.1046L1.72983 5.63971L0.124756 6.34474Z" fill="#BDBDBD"/>
</svg>
